<?xml version="1.0" encoding="utf-8"?>
<!-- Generator: Adobe Illustrator 16.0.4, SVG Export Plug-In . SVG Version: 6.00 Build 0)  -->
<!DOCTYPE svg PUBLIC "-//W3C//DTD SVG 1.1//EN" "http://www.w3.org/Graphics/SVG/1.1/DTD/svg11.dtd">
<svg version="1.1" id="Layer_1" xmlns="http://www.w3.org/2000/svg" xmlns:xlink="http://www.w3.org/1999/xlink" x="0px" y="0px"
	 width="2800px" height="1200px" viewBox="0 0 2800 1200" enable-background="new 0 0 2800 1200" xml:space="preserve">
<rect y="-1.4" fill="#8C283E" width="2800" height="1200.9"/>
<polygon fill="#79D7BE" points="1306.576,497.038 1264.475,497.038 1264.475,444.244 1527.107,444.244 1527.107,537.58 
	1468.967,537.58 1468.967,499.934 1374.74,499.934 1374.74,568.989 1448.474,568.989 1448.474,617.55 1374.74,617.55 
	1374.74,686.382 1472.309,686.382 1472.309,642.275 1531.34,642.275 1531.34,733.829 1267.593,733.829 1267.593,687.273 
	1306.279,687.273 "/>
<polygon fill="#79D7BE" points="1577.677,496.815 1577.677,446.917 1675.096,446.917 1746.379,568.396 1820.632,448.105 
	1908.547,448.105 1908.547,495.924 1882.113,495.924 1882.113,686.309 1908.547,686.309 1908.547,733.829 1792.416,733.829 
	1792.416,688.091 1823.898,688.091 1823.898,568.396 1749.942,680.071 1677.176,567.208 1677.176,688.091 1705.986,688.091 
	1705.986,733.829 1581.537,733.829 1581.537,686.606 1616.883,686.606 1616.883,496.815 "/>
<path fill="#79D7BE" d="M804.479,683.041l-37.201-53.908l33.637-24.058V470.752l-62.15-28.291H529.146v50.344h37.869l-0.056,188.564
	h-36.03v49.117h145.239v-49.229h-39.651v-39.874h60.813l65.937,89.104h77.743V683.04L804.479,683.041L804.479,683.041z
	 M735.646,575.229l-10.692,13.068h-87.915v-95.638h83.757l14.851,12.771V575.229z"/>
<path fill="#79D7BE" d="M1210.79,687.05l-98.682-192.24h29.182v-50.565H968.428v52.348h30.963L895.363,684.6h-24.949v49.229h133.655
	v-49.675h-35.864l24.727-42.992h119.176l25.173,46.779h-32.301v45.888h128.755V687.05H1210.79z M1018.403,593.049l38.018-70.392
	l33.265,70.392H1018.403L1018.403,593.049z"/>
<path fill="#79D7BE" d="M2268.895,685.045L2168.43,495.479h33.414v-48.562h-164.396v46.779l30.073,0.223l-101.355,192.24h-29.404
	v47.67h137.442v-47.894h-36.757l22.5-43.438h115.834l22.722,44.775h-38.537v44.327h137.441v-46.557L2268.895,685.045
	L2268.895,685.045z M2083.783,596.019l33.266-67.718l35.938,67.718H2083.783z"/>
<path fill="#79D7BE" d="M2579.865,676.58l-28.958-46.333l44.552-26.509V469.861l-65.938-28.291H2336.39v50.565h34.306V683.04
	h-34.306v44.996h137.22v-47.001h-36.979v-46.334h51.234l53.906,89.326h92.668V676.58H2579.865z M2522.765,585.327h-87.915v-92.965
	h83.46l13.663,8.911l1.188,72.174L2522.765,585.327z"/>
<path fill="#79D7BE" d="M427.792,579.682l30.295-24.504v-89.994l-68.164-26.954H164.046v45.889h41.879V676.58h-40.542v48.562
	l237.907,1.561l56.803-32.077v-94.45L427.792,579.682z M272.752,491.395h106.033l11.138,8.466l1.114,47.002l-9.579,6.905H272.752
	V491.395z M393.265,670.716l-8.688,8.465H272.752v-68.164h108.929l11.583,10.692L393.265,670.716L393.265,670.716z"/>
<g>
	<g>
		<path fill="#333333" d="M1535.84,738.329h-272.747v-55.556h38.693l0.283-181.235h-42.095v-61.794h271.633V542.08h-67.141v-37.646
			h-85.227v60.056h73.733v57.561h-73.733v59.832h88.568v-44.106h68.031V738.329z M1272.093,729.329h254.747v-82.554h-50.031v44.106
			H1370.24V613.05h73.733v-39.561h-73.733v-78.056h103.227v37.646h49.141v-84.336h-253.633v43.794h42.108l-0.311,199.235h-38.68
			V729.329z"/>
	</g>
	<g>
		<path fill="#333333" d="M1913.047,738.329h-125.131v-54.738h31.482v-100.25l-69.507,104.957l-68.216-105.806v101.099h28.811
			v54.738h-133.449v-56.223h35.346V501.315h-39.206v-58.898h104.496l68.804,117.254l71.645-116.066h94.926v56.818h-26.434v181.385
			h26.434V738.329z M1796.916,729.329h107.131v-38.521h-26.434V491.424h26.434v-38.818h-80.904l-76.861,124.516l-73.763-125.705
			h-90.342v40.898h39.206v198.791h-35.346v38.223h115.449v-36.738h-28.811V551.924l77.317,119.921l78.405-118.394v139.14h-31.482
			V729.329z"/>
	</g>
	<g>
		<path fill="#333333" d="M845.511,734.986H761l-65.937-89.104h-54.045v30.874h39.651v58.229H526.43v-58.117h36.032l0.053-179.564
			h-37.868v-59.344H739.74l65.674,29.895V607.39l-31.92,22.829l33.346,48.322l38.67-0.001V734.986z M765.536,725.986h70.975V687.54
			h-34.395l-41.056-59.493l35.354-25.286V473.648l-58.626-26.687H533.646v41.344h37.871l-0.059,197.564H535.43v40.117h136.239
			v-40.229h-39.651v-48.874h67.582L765.536,725.986z M727.086,592.797h-94.547V488.159h89.926l17.682,15.205v73.471L727.086,592.797
			z M641.539,583.797h81.283l8.325-10.175v-66.127l-12.02-10.336h-77.588V583.797z"/>
	</g>
	<g>
		<path fill="#333333" d="M1238.234,738.329h-137.755v-54.888h29.269l-20.33-37.779H995.535l-19.55,33.992h32.585v58.675H865.914
			V680.1h26.796l99.047-179.008h-27.83v-61.348h181.862v59.565h-26.313l94.062,183.24h24.696V738.329z M1109.479,729.329h119.755
			V691.55h-21.192L1104.74,490.31h32.05v-41.565H972.928v43.348h34.096L898.016,689.1h-23.102v40.229h124.655v-40.675h-39.144
			l29.903-51.992h124.467l30.016,55.779h-35.333V729.329z M1096.789,597.549h-85.931l45.83-84.857L1096.789,597.549z
			 M1025.948,588.549h56.634l-26.429-55.926L1025.948,588.549z"/>
	</g>
	<g>
		<path fill="#333333" d="M2078.704,738.329h-146.442v-56.67h31.189l96.64-183.295l-27.143-0.201v-55.746h173.396v57.562h-30.437
			l95.695,180.566l30.305-0.001v55.557h-146.441v-53.327h35.707l-18.154-35.775h-110.334l-17.839,34.438h33.858V738.329z
			 M1941.262,729.329h128.442v-38.894h-39.655l27.161-52.438h121.334l27.289,53.775h-41.367v35.327h128.441v-37.557h-26.721
			l-105.234-198.565h36.392v-39.562h-155.396v37.812l33.004,0.244l-106.071,201.186h-27.619V729.329z M2160.47,600.519h-83.911
			l40.335-82.109L2160.47,600.519z M2091.008,591.519h54.497l-28.301-53.327L2091.008,591.519z"/>
	</g>
	<g>
		<path fill="#333333" d="M2478.109,732.536h-146.22V678.54h34.306V496.636h-34.306V437.07h198.557l69.513,29.825v139.401
			l-42.798,25.466l25.198,40.317h56.58v56.447h-99.708l-53.906-89.326h-44.194v37.334h36.979V732.536z M2340.89,723.536h128.22
			v-38.001h-36.979v-55.334h58.274l53.906,89.326h85.628V681.08h-52.568l-32.718-52.349l46.306-27.552V472.827l-62.362-26.757
			H2340.89v41.565h34.306V687.54h-34.306V723.536z M2524.807,589.827h-94.457V487.862h89.298l16.785,10.947l1.257,76.297
			L2524.807,589.827z M2439.35,580.827h81.373l7.91-9.039l-1.12-68.051l-10.541-6.875h-77.622V580.827z"/>
	</g>
	<g>
		<path fill="#333333" d="M404.459,731.21l-243.576-1.598V672.08h40.542V488.618h-41.879v-54.889H390.78l71.807,28.395v95.202
			l-27.092,21.914l29.098,18.461v99.551L404.459,731.21z M169.883,720.671l232.238,1.523l53.472-30.196v-89.349l-35.503-22.525
			l33.498-27.094v-84.787l-64.521-25.514h-220.52v36.889h41.879V681.08h-40.542V720.671z M386.407,683.681H268.252v-77.164H383.44
			l14.324,13.223v52.875L386.407,683.681z M277.252,674.681h105.496l6.017-5.863l-0.001-45.139l-8.842-8.162H277.252V674.681z
			 M382.911,558.268H268.252v-71.373h112.049l14.069,10.694l1.222,51.538L382.911,558.268z M277.252,549.268h102.753l6.477-4.669
			l-1.006-42.466l-8.207-6.238H277.252V549.268z"/>
	</g>
</g>
</svg>
