<?xml version="1.0" encoding="utf-8"?>
<!-- Generator: Adobe Illustrator 16.0.4, SVG Export Plug-In . SVG Version: 6.00 Build 0)  -->
<!DOCTYPE svg PUBLIC "-//W3C//DTD SVG 1.1//EN" "http://www.w3.org/Graphics/SVG/1.1/DTD/svg11.dtd">
<svg version="1.1" id="Layer_1" xmlns="http://www.w3.org/2000/svg" xmlns:xlink="http://www.w3.org/1999/xlink" x="0px" y="0px"
	 width="2800px" height="1200px" viewBox="0 0 2800 1200" enable-background="new 0 0 2800 1200" xml:space="preserve">
<rect y="-1.4" fill="#329B59" width="2800" height="1200.9"/>
<path fill="#111111" d="M479.8,575.7c0,0,31.3-53.3,45.3-123.4c1.3-6.6-87.3,47.2-171.3,183.7c-84,136.5-120.1,248-105.6,270.4
	c0,0,30.2-11.8,82-76.1c51.8-64.3,57.7-67.6,76.1-63c18.4,4.6,30.8,34.8,9.2,75.5c-21.7,40.7-93.2,149.6-163.4,142.4
	c-70.2-7.2-113.5-47.2-62.3-204.1c51.2-156.8,141.1-285.4,217.9-342.5c76.8-57.1,127.3-67.6,160.8-44.6c33.5,23,66.3,103-15.1,218.5
	C471.9,728,432.5,747,401.7,742.4c-30.8-4.6-48.1-56.5-24.9-114.8c23.1-58.3,58.5-72.4,81.4-68.9
	C475.2,561.3,479.8,575.7,479.8,575.7z"/>
<path fill="#111111" d="M1474.1,579c9.7-15.3-1.7-27.1-17-35.4c-15.3-8.3-37.6-12.7-45.5-4.8c-7.9,7.9-13.6,13.1-13.6,13.1
	s-18.5-10.9-46.4-7.4c-52.1,6.6-98.4,52.1-98.4,52.1s10.1-27.6-9.6-32.4c-19.7-4.8-36.7-9.2-36.7-9.2s14.9-34.1,18.4-38.9
	s3.5-2.2,5.2,0c1.8,2.2,12.7,21.9,29.3,21.4c16.6-0.4,38.5-4.4,55.1-28.9s2.2-48.1-16.2-49c-18.4-0.9-46.4,11.8-52.9,22.3
	c0,0-4.8,0-3.9-2.6c0.9-2.6,17.1-62.1-29.7-64.3s-119.4,35.9-179.4,126c-59.9,90.1-84.9,170.2-84.9,170.2s-41.6,38.5-49,38.9
	c-7.4,0.4,23.6-54.5,31.1-66c7.4-11.5,41.6-71.4,44.2-78c2.6-6.6-10.5-21.4-35.9-20.1c-25.4,1.3-55.1,10.1-65.6,30.2
	c-10.5,20.1-25.8,52.9-25.8,52.9s13.6-72.2-52.9-72.2s-130.8,66.5-143.1,84.9c0,0,11.2-66.9-46.7-65.6c-36,0.8-79.3,19-129.2,110.2
	c-49.9,91.3-17.9,168,35,157.9c52.9-10.1,103.2-61.2,103.2-61.2s6.6,48.1,43.3,43.3c36.7-4.8,91-45.9,111.6-61.7
	c20.6-15.7,48.6-34.1,48.6-34.1s-22.3,67.8,34.1,67.8c40.2,0,93.6-56,93.6-56s7.4,54.2,43.3,49.9c35.9-4.4,86.2-49.9,86.2-49.9
	s9.2,42.4,38.5,38.5c29.3-3.9,80.9-53.4,80.9-53.4s4.4,38.1,32.8,38.1c38.9,0,81.8-45.5,81.8-45.5s2.2,38.1,32.4,36.7
	c30.2-1.3,82.9-13.1,132.1-81.4c7.9-10.9-13.1-40.2-38.1-21.4c-24.9,18.8-49.9,37.2-50.7,35c-0.9-2.2,13.1-42.4,34.1-70.9
	C1438.7,629.7,1464.4,594.3,1474.1,579z M741.4,764.9c-12.7,11.8-39.8,32.4-50.3,33.2c-10.5,0.9-3.1-14,13.1-41.6
	c16.2-27.6,29.3-43.7,29.3-43.7s3.9,9.2,10.9,14.9c7,5.7,25.8,5.7,25.8,5.7S754.1,753.1,741.4,764.9z M1085.2,702.4
	c-15.7,19.2-38.1,36.3-49.4,40.2s21-54.7,21-54.7c24.5-7.4,73.9-52.5,73.9-52.5S1101,683.1,1085.2,702.4z"/>
<path fill="#111111" d="M968.4,484.1c-27.7-0.6-49.4,42-50.3,58.2s10.1,35.4,30.6,36.7c20.6,1.3,49.9-19.7,56.9-50.7
	S989.8,484.5,968.4,484.1z"/>
<path fill="#111111" d="M2651.3,529.9c-2.2-11.4-5.2-13.6-23.2-14c-17.9-0.4-41.1,0-41.1,0s12.7-18.8,24.9-35
	c12.2-16.2,20.6-25.4,24.5-31.5c3.9-6.1,1.8-15.3-10.1-19.2c-11.8-3.9-64.2-11.8-83.1,16.2c-17.5,25.8-44.6,76.1-44.6,76.1
	s-19.7-2.2-29.7,1.3c-10.1,3.5-17.5,15.7-20.6,24.1s-5.7,18.4-5.7,18.4s-11.8-7.9-25.8-10.1c-14-2.2-22.7-4.4-22.7-4.4
	s2.2-9.2,4.4-14c2.2-4.8,2.2-13.6-16.6-19.7c-18.8-6.1-48.7-3.7-63.4,4.8c-18.8,10.9-32.4,57.7-32.4,57.7s-14-9.2-34.6-7.4
	c-20.6,1.7-37.2,14-50.7,28.9c0,0,2.2-17.1-20.1-21c-22.3-3.9-65.6-6.6-79.6,7.4c-14,14-45.1,62.6-45.1,62.6s14.2-60.3-54.2-69.1
	c-54.2-7-91.4,38.1-91.4,38.1s28.9-41.1,44.2-98c15.3-56.9,21.4-136.1-76.6-144.4c-98-8.3-217.9,122.9-289.6,281.7
	c-71.7,158.8-82.7,286.8,19.2,292.7c84,4.8,176.8-113.5,184.6-165.8c6.6-44.2-16.6-54.7-35.4-54.2s-25.8,4.8-39.4,24.1
	c-13.6,19.2-80.5,119-100.6,112c0,0,8.7-61.2,45.9-142.2c37.2-80.9,66.5-124.2,66.5-124.2s-25.8,100.9,42,107.2
	c42.4,3.9,73.5-21.9,73.5-21.9s-34.1,50.7-33.7,85.7c0.4,35,16.2,70.9,54.2,73.5c38.1,2.6,95.8-26.2,134.7-79.2
	c0,0-1.3,63.9,41.6,62.6s70.4-34.6,70.4-34.6s7.4,36.7,38.5,31.9c31.1-4.8,56.4-23.6,136.1-114.2c0,0-41.6,98.7,20.6,99.3
	c47.7,0.4,97.1-59.9,97.1-59.9s9.3,49.4,49,46.8c40.7-2.6,70.3-18.4,128.2-94.1c11.4-14.9-6.6-42.4-36.7-26.2s-64.7,49-64.7,49
	s12.2-41.1,31.1-78.7c18.8-37.6,39.4-72.2,39.4-72.2s45.9-2.6,53.4-3.1c7.4-0.4,17.1-5.2,28.9-15.7
	C2644.3,547.4,2653.5,541.3,2651.3,529.9z M1869.6,506c-9.2,21.2-24.5,52.3-24.5,52.3s-13.9-18.4-38.5-14.4
	c-32.8,5.2-54.7,24.9-54.7,24.9s22.3-38.5,59.1-72.2c36.7-33.7,64.3-54.7,71.3-53.4C1889.3,444.6,1878.8,484.8,1869.6,506z
	 M1903.3,763.1c0,0,2.6-10.5,11.8-26.2c9.2-15.7,17.5-26.2,17.5-26.2s0,14.4,7,21C1939.6,731.6,1911.1,760.4,1903.3,763.1z"/>
<path fill="#DE426C" d="M467.6,575.6c-7.5,8.3-24.9,24-36.4,53.5c-11.5,29.5-8.9,45-2.6,47.2c6.2,2.3,49.5-20.3,89.9-93.5
	c40.4-73.2,47.6-147.3,33.1-150.9c-14.4-3.6-47.2-1.3-145.7,110.9S199.2,892.5,241.2,914.8s98.4-44.6,109.9-58.7
	c11.5-14.1,43-65.9,45.9-71.9c3-5.9,9.5-9.8,18.7,8.5c9.2,18.4-36.1,84.3-79.1,120.7c-43,36.4-81,34.8-100.4,28.2
	c-19.4-6.6-67.3-31.5-26.2-144.7c41-113.2,83.1-200.8,186.6-314.2c78.3-85.8,125.4-85.2,156.2-80.9c28.4,3.9,66.5,65.2,3.1,186.4
	C492.4,709.5,437.8,709.5,419,703.3c-18.8-6.1-34.1-41.1-13.1-84.9c21-43.7,41.6-50.7,50.3-50.7S471,571.8,467.6,575.6z"/>
<path fill="#DE426C" d="M650.2,740.2c-10.1,11.6-68,86.2-118.6,90.2c-21.9,1.8-6.6-43.7-5-52.1c0,0,34.1,5.9,79.6-43.5
	c45.5-49.4,47.7-108.5,0-104.1c-47.7,4.4-93.4,70-113.1,121.4c-19.7,51.4-14.7,97.6,35.7,97.8c50.3,0.2,114.6-73.7,119.9-79.8
	C653.9,763.9,660.3,728.6,650.2,740.2z M573.8,694.8c25.4-31.3,36.7-39.9,44.2-36.5c9.2,4.2-0.4,36.3-23.4,60.6
	c-31.5,33.2-58,39.6-58,39.6S549.1,725.2,573.8,694.8z"/>
<path fill="#DE426C" d="M754.9,705.1c0,0,17.7-8.5,30.2-26.7s25.8-40.5,11.2-39.4c-14.7,1.1-52.7,31.5-82.7,74.2
	c-30,42.7-47,94.7-24.1,94.9c23,0.2,51-18.2,79.2-40.7s87.3-68.9,105.2-78.5c17.9-9.6-12.9,36.7-12.9,36.7s-46.2,30.4-89,62.1
	c-42.9,31.7-66.3,42-90.1,43.1c-23.8,1.1-71.3-30.4-24.7-102.4c46.6-72,100-115.9,143.5-117.5c43.5-1.5,32.4,41.8,21.2,59.7
	c-11.2,17.9-27.8,44-44.8,45.1S754.9,705.1,754.9,705.1z"/>
<path fill="#DE426C" d="M909.4,611c-16.7,25.8-52.3,86.7-67.4,137.6s19.5,50.9,30.2,51c19.5,0.1,63.4-29,116.8-80.9l18.4-44.2
	c0,0-93.6,93.4-120.3,94.5c-16.6,0.7,5.1-41.1,19-67.4c19.2-36.3,44.6-78.4,51.8-90.6C965.1,598.8,924.4,587.7,909.4,611z"/>
<path fill="#DE426C" d="M974.3,499.2c-18.2,1.5-31.3,28.9-30.4,40c0.9,11.2,12.5,18.4,23.2,17.5c10.7-0.9,26-11.8,29.7-31.5
	C1000.6,505.6,987.4,498.1,974.3,499.2z"/>
<path fill="#DE426C" d="M1158.6,583.1c61.7-76.4,109-143.1,50.2-155.5c-48.2-10.2-149.9,136.2-182.8,196.9
	c-20.9,38.6-91.5,160.3-19.7,166c41.3,3.3,109.6-60.4,109.6-60.4l13.8-38.1c0,0-66.9,59.4-97.1,69.2c-37.9,12.4,12.8-78.1,12.8-78.1
	S1096.9,659.6,1158.6,583.1z M1117.9,553.9c50.5-64.6,86.9-86.9,86.9-86.9s-9.8,36.7-65.9,105.3c-56.1,68.6-80.1,80.4-80.1,80.4
	S1067.4,618.6,1117.9,553.9z"/>
<path fill="#DE426C" d="M1293.5,469.9c-17.5-0.3-30.2,19.5-31.1,31.9s1.3,23,20.1,21.4c18.8-1.5,29.3-21.9,30.2-31.7
	C1313.6,481.7,1308.8,470.2,1293.5,469.9z"/>
<path fill="#DE426C" d="M1206,574.1c-27.3,28.3-44.2,52.1-67.6,91.2s-62,107.7-7.2,110.2c33,1.5,86.2-49,86.2-49l-0.4-26.2
	c0,0-39.7,48.4-59.8,47.9c-17.4-0.4-7.4-32.2,22-73.3c29.3-41.1,55.1-75.4,65.6-90.5C1255.2,569.2,1221.5,557.9,1206,574.1z"/>
<path fill="#DE426C" d="M1464,572.6c8.3-10.8-7.1-16.4-15.6-20.7c-8.5-4.3-18.4-10.2-24.9-3s-19,25.9-19,25.9s-7.2-16.4-25.9-16.7
	c-18.7-0.3-66.2,19.6-115.5,69.9c-50.5,51.5-86,131.9-23,144c42.7,8.2,91.2-51.2,91.2-51.2s-3,43.3,33.8,45
	c36.7,1.6,90.6-49.2,96.8-55.4c6.2-6.2-1.6-20.7-13.8-10.2c-12.1,10.5-44.3,39-65.3,38.1c-21-1-11.8-24.9,8.2-57.4
	C1410.9,648.4,1455.6,583.5,1464,572.6z M1335,680.4c-11.8,16-42.7,56.2-64.1,58c-28.8,2.3-8.7-47.9,33.2-93.2
	c38.5-41.6,79.8-54.2,83.6-52.7v0.7C1391.9,597,1346.8,664.4,1335,680.4z"/>
<path fill="#DE426C" d="M1807.7,552.1c-20,7.1-40.5,30.8-49.7,62.3c-9.2,31.5,5.7,65.8,35.7,67.8s67.5-12.2,118-94.6
	c50.5-82.4,69.2-188.7-13.1-198.2c-82.4-9.5-192.6,127.6-241.2,201.1c-48.6,73.5-158.1,321.1-29.5,329.1
	c84.3,5.2,148.6-125.6,152.9-146.7c4.3-21-13.8-49.5-23.3-32.5c-9.5,17.1-72.5,149.9-129.9,147.3c-57.4-2.6,30.8-186.7,69.2-261.2
	c38.4-74.5,157.5-208.7,213.3-208.3c36,0.2-5.6,94.5-32.2,138.1c-26.6,43.6-65.6,98.1-84,95.5c-18.4-2.6-3.6-67.6,22.6-86.3
	C1842.8,547,1811.3,550.9,1807.7,552.1z"/>
<path fill="#DE426C" d="M2041.3,668.7c0,0,17.7-78.7-36.4-79.7c-41.7-0.8-79.3,41.3-111.6,77.1c-35.8,39.7-89.3,148.2-3.6,153.2
	c72.5,4.3,141.1-122.1,141.1-122.1s40-19,50.9-26.9c10.8-7.9,30.5-45.3,30.5-45.3S2060,664.8,2041.3,668.7z M1968.1,750.6
	c-25.4,27.7-50.5,38.1-67.9,37.7s-12.3-26.1,10.8-68.4c23.1-42.3,53.5-61.7,53.5-61.7s-12.5,24.1-0.7,44.1
	c9.7,16.4,33.5,7.5,33.5,7.5S1993.6,722.9,1968.1,750.6z M2012.1,671.7c-2,2.8-11.5,8.5-17.1,8c-5.6-0.5,0.7-19,4.4-27.2
	c3.8-8.2,13.1-19.3,18.2-18C2026.5,636.6,2014.1,668.9,2012.1,671.7z"/>
<path fill="#DE426C" d="M2140.8,589c-10.5,11.9-39.4,33.8-75,99.6c-35.7,65.8-39.6,105-5.2,105.2c34.3,0.2,75.5-39.2,75.5-39.2
	s3.2,37.4,33,35.7c33-2,82-46.8,129.7-111.6s48.6-72.6,48.6-72.6l3.9-11.6l-21.2-2c0,0-17.7,42.2-62.1,96.2
	c-43.4,52.8-62.8,70.9-76.8,69.1c-15.1-1.9-0.4-33,23-72.8c23.4-39.8,57.1-84.7,64.7-94.1c4.3-5.3,4.6-10.7-13.3-12
	c-10.7-0.7-17.2,0.5-23.9,6.3c-15.3,13.3-68.7,93.4-75.9,105.9c0,0-51.5,63-72,67.7c-12.5,2.8,4-29.8,15.4-48.6
	c32.2-53.4,74.2-113.3,77.7-117.7c1.7-2.2-0.9-6.1-17.3-8C2158.8,583.3,2146.3,582.7,2140.8,589z"/>
<path fill="#DE426C" d="M2339.2,528.5c7.9-12,18.8-9.4,30.6-6.1c11.8,3.3,21,5.2,16.2,14.2c-4.8,9-17.5,27.8-17.5,27.8
	s32.4,1.5,44.4,2c12,0.4,26.5,7.7,18.8,27.8c-7.7,20.1-90.5,156.6-75.2,150.2c15.3-6.3,45.9-32.3,94.9-89.2l-3.3,28.7
	c0,0-66.9,87.7-111.8,89c-44.8,1.3-28.1-51.1-12.2-78.5c29.7-51.6,55.3-85.3,55.3-85.3s-48.3-3.5-56.9-4.2
	c-8.5-0.7-15.3-18.4-6.8-36.1C2324.3,551,2339.2,528.5,2339.2,528.5z"/>
<path fill="#DE426C" d="M2486.9,530.9c7.3-1.2,35-4.4,35-4.4s13.1-23.6,31.9-49c18.8-25.4,32.2-37.6,36.5-41.1c4.4-3.5,6.8-2.2,21,0
	c14.2,2.2,20.3,2.8,12.7,10.9s-31.1,30-53.8,76.8c0,0,51.8-0.2,63.9,1.5c12,1.8,11.4,9.8,2,11.6c-9.4,1.8-80.5,14.7-80.5,14.7
	s-33.7,56.7-58.6,105.9c-20.7,40.8-36.2,75.6-13.8,75.9c28.7,0.4,74.7-45.1,79.4-50.1c3.3-3.5,18.4,1.5,10.9,10.1
	s-59.3,69.6-102.4,68s-70.4-26.9-19.7-113.3C2502.2,562,2502,560,2502,560s-21.7,0.4-28,0.4s-2.2-6.6,2.2-15.3
	C2480.5,536.4,2481.5,531.8,2486.9,530.9z"/>
<path fill="#111111" d="M1260.8,172c0,0,9.2,1.6,9.6,6c0.4,4.3-2.2,13.6-9.6,31.5c-7.5,18-8.4,23.2-19.8,34.2l43.8,0.8
	c0,0-8-3.7-4.7-15.2s16.7-48.3,20.6-56.5c3.9-8.2,9.8-15.5,10.5-16.3c0.8-0.9-0.4-1.9-1.5-1.4C1308.7,155.5,1260.8,172,1260.8,172z"
	/>
<path fill="#111111" d="M1374.5,153.3c0,0-18.2-2.9-56.6,26.9c-32.9,25.5-26.2,70,8,68.8c28.6-1,42.6-25.9,46.2-44.8
	c3.5-18.4-12.9-25.1-19.4-24.8c-6.5,0.3-16.1,4.3-16.1,4.3s9.8-11,18.7-17.5s18.9-11.9,19.1-11.9S1375.7,153.3,1374.5,153.3z
	 M1342.7,197c12.4-0.9,9.8,13,8,18.8c-1.8,5.8-8.4,18.9-21.2,18.8c-12.8-0.1-9.2-20.1-6.5-26.1
	C1325.9,202.5,1332.1,197.7,1342.7,197z"/>
<path fill="#111111" d="M1453,208.7c-11.3-0.1-6.3-0.3-6.3-0.3s19.8-52.1,20.1-52.8c0.4-0.8,0.2-1.3-0.4-0.9
	c0,0-32.2,21.2-51.7,33.8s-43.5,29.1-43.5,29.1s29.3,2.4,47.6,2.9c0,0-2,6.5-4.5,10.8c-2.5,4.3-6.2,8.9-12.4,13
	c0,0,35.5,0.6,38.6,0.5s-3.3-2.9-3.7-8s4.7-16.5,4.7-16.5l21.8,0.3l9-19.7C1472.3,201.1,1464.2,208.9,1453,208.7z M1424.6,207.7
	h-17.7l22.9-14.8L1424.6,207.7z"/>
<path fill="#111111" d="M1559,160.2l-58.1-0.6l-21.7,51.8c0,0,17.7-11.9,30.5-11.6c12.8,0.3,14.2,5.2,13.8,8.5s-3.9,15.4-31.2,28.6
	c-13,6.4-21.3,8-21.3,8s12.4,3.6,30.3,0.7c17.9-2.9,45.1-18.5,48.3-38.9c3.2-20.4-20.3-21.5-25.6-21.4c-5.3,0.1-15.3,2.2-21.4,4.8
	c0,0,3.7-8.6,4.3-10c0.6-1.4,2.2-1.6,4.4-1.6s25.6,0.6,29.3,1.3s6.2,1.5,8.6,4.9L1559,160.2z"/>
<path fill="#DE426C" d="M1302.5,161.2l-31.4,11.1c0,0,3.2,1.6,3.2,4.6c-0.1,6.8-8.2,33.2-13.9,44.6c-5.7,11.4-10.3,18-10.3,18
	l28.8,0.6c0,0-4.2-4.6-2.5-10.6c1.6-6.1,19.4-56.2,21.5-60C1299.9,165.7,1302.5,161.2,1302.5,161.2z"/>
<path fill="#DE426C" d="M1353.1,183.1c-12.8,0.4-27.3,11.4-27.3,11.4s1.5-7.9,12-17.6c10.5-9.6,19.6-16.3,19.6-16.3
	s-52,16.9-57.8,58.8c-3.3,23.8,18.1,27.4,33.3,25c17.1-2.8,35.2-25.8,36.2-42.6C1370,189.2,1361.1,182.9,1353.1,183.1z
	 M1356.2,209.7c-0.5,12-13.3,27.7-25.7,28.4c-12.3,0.7-15-12.3-12.8-24.7c2.2-12.3,13-19.7,25.7-19.9
	C1351,193.3,1356.7,197.7,1356.2,209.7z"/>
<path fill="#DE426C" d="M1441.3,211.1l19.2-48.4c0,0-25.5,15.9-41.4,26.9c-19.7,13.5-39.1,26.1-39.1,26.1s41.2,0.9,42.1,1.6
	c0.8,0.7-0.3,8.4-9.8,24h22.1c0,0-0.4-10,5-24.1c0,0,20.8,0.5,21.2,0.3c0.4-0.3,3.8-7,4.3-7.6
	C1465.2,209.2,1453.1,212.7,1441.3,211.1z M1426.7,210.9c0,0-21.6-0.2-29.1-1l37.4-23.4L1426.7,210.9z"/>
<path fill="#DE426C" d="M1554.3,163.8l-51.4-1l-16.6,40c0,0,13.7-7.3,25.2-6.6c11.5,0.8,16,5.8,15.5,12c-0.5,6.2-2.5,19.3-40.7,35.1
	c0,0,37,1.9,56.8-29c10.1-15.8-3.6-25-15.8-25.5c-16.5-0.6-29.8,6.5-29.8,6.5l8-19.6c0,0,25,0,30.9,0.4c6,0.4,11.5,2.7,11.5,2.7
	L1554.3,163.8z"/>
</svg>
