<?xml version="1.0" encoding="utf-8"?>
<!-- Generator: Adobe Illustrator 16.0.4, SVG Export Plug-In . SVG Version: 6.00 Build 0)  -->
<!DOCTYPE svg PUBLIC "-//W3C//DTD SVG 1.1//EN" "http://www.w3.org/Graphics/SVG/1.1/DTD/svg11.dtd">
<svg version="1.1" id="Layer_1" xmlns="http://www.w3.org/2000/svg" xmlns:xlink="http://www.w3.org/1999/xlink" x="0px" y="0px"
	 width="2800px" height="1200px" viewBox="0 0 2800 1200" enable-background="new 0 0 2800 1200" xml:space="preserve">
<rect y="-1.4" fill="#303459" width="2800" height="1200.9"/>
<path fill="#9FFF80" d="M728.92,548.316l-22.666,51.553c0,0-25.333,5.332-25.777,27.555c-0.444,22.221,23.11,28.888,37.776,29.775
	c14.666,0.89,52.886-2.667,79.996-13.332c27.11-10.667,83.552-35.109,134.66-102.662c51.108-67.552,83.448-147.154,63.107-163.991
	C977.77,362.108,897.609,432.652,858,477.5c-31.5,35.667-72.167,104.333-88.637,191.698c-5.09,26.998-7.556,66.663,15.11,68.886
	s48.887-26.221,59.553-38.221c10.666-11.999,51.998-70.662,51.998-70.662l57.331-28.443c0,0-66.664,118.659-109.328,214.211
	c-42.665,95.551-72.885,140.438-146.215,349.761c0,0-61.775-71.554-27.999-177.771c33.776-106.216,120.883-156.88,181.324-166.656
	c30.221-4.888,76.44-2.667,93.329,26.665l-38.22,23.555c0,0-13.344-31.924-41.331-31.109
	c-45.776,1.334-123.277,38.653-163.992,117.771c-40.715,79.119-11.296,153.002-4.444,172.437c0,0,68.885-192.436,167.991-423.535
	c0,0-63.997,69.329-99.995,66.219c-35.998-3.11-52.041-67.655-0.474-193.804c60.5-148,193.362-219.596,228.5-223.5
	c54-6,27.072,91.543-46.257,192.427c-73.33,100.883-184.879,127.994-215.989,128.438c-31.109,0.445-75.194-7.137-70.54-62.663
	C664.035,561.649,715.588,547.427,728.92,548.316z"/>
<path fill="#9FFF80" d="M1108.887,696.53c0,0-46.887,59.97-69.205,57.997c-10.181-0.899,1.111-16.889,4.667-23.109
	c3.556-6.223,76.885-128.883,76.885-128.883l-36.442,8.444l-7.999,14.667c0,0-59.912-27.249-125.772,57.33
	c-42.22,54.219-30.52,107.552-3.111,107.549c22.226-0.002,41.775-12.443,65.33-42.219c0,0-18.59,38.221,8.037,35.998
	c26.628-2.223,68.848-46.221,77.292-54.664C1107.012,721.196,1108.887,696.53,1108.887,696.53z M968.019,762.193
	c-6,0.667-33.998-2.999,12.666-71.662c46.665-68.664,84.996-52.998,84.996-52.998s-7.333,21.999-33.665,61.592
	C993.396,757.192,974.019,761.527,968.019,762.193z"/>
<path fill="#9FFF80" d="M1208.007,588.203l-39.665,11c0,0-22.998,42.665-41.664,71.663s-65.363,81.75-27.332,96.328
	c19.999,7.666,69.996-35.331,69.996-35.331s-12.999,28.332,14,26.998c26.998-1.333,85.329-55.997,95.995-68.663
	s19.665-23.332,19.665-23.332s20.655-54.263,15.438-44.264c-21.332,40.888-83.101,113.594-109.766,106.261
	c-10.649-2.929,1.333-19.999,7.666-29.332s78.33-127.327,78.33-127.327l-38.998,11c0,0-58.664,104.328-73.33,121.327
	s-32.332,32.998-45.331,32.998s-10.999-11.666-2-23.332C1140.011,702.53,1190.341,618.535,1208.007,588.203z"/>
<path fill="#9FFF80" d="M1376.888,559.427L1342,570.982c0,0-78.885,147.992-90.662,168.658l37.775-11.556
	c0,0,39.775-74.663,56.664-97.55c16.888-22.889,41.69-45.619,49.997-40.442c15.333,9.555-3.333,32.441-31.109,75.329
	c-27.776,42.887-9.28,57.625,5.111,56.886c15.724-0.808,49.108-19.776,86.662-73.996l30.888-40.888l13.999-48.962
	c0,0-31.165,50.853-64.441,94.294c-26.042,33.997-44.852,47.44-53.296,46.996c-13.093-0.689-1.368-22.553,13.298-42.552
	c14.665-19.999,56.948-82.7,30.221-95.773c-23.761-11.622-72.44,39.332-72.44,39.332L1376.888,559.427z"/>
<path fill="#9FFF80" d="M1581.766,392.325l-23.555,55.552l-134.215,26.666l-15.11,36.442c0,0,18.665-16.443,42.22-22.665
	c23.555-6.222,97.329-22.222,97.329-22.222S1450.858,652.561,1446.167,678c-4.051,21.967,6.271,30.309,27.604,28.531
	c21.333-1.778,60.442-31.555,92.885-89.773l28.888-48.886l-4.444-23.111c0,0-72.455,131.461-99.106,132.438
	c-21.832,0.801-8.889-23.998-2.223-38.221c6.667-14.222,92.44-183.102,92.44-183.102l36.888-9.777l9.776-16.443l-36.442,8.888
	l38.221-65.33L1581.766,392.325z"/>
<path fill="#9FFF80" d="M1709.648,478.208c49.664-70.996,61.663-127.327,44.997-126.66c-16.665,0.667-55.997,14.666-120.993,114.661
	c-64.997,99.995-97.233,213.147-52.664,218.655c29.665,3.667,84.328-62.997,96.456-89.329l-2.128-22.665
	c0,0-49.581,82.662-76.246,79.996c-21.98-2.198-3.75-53.664,1.25-68.33C1600.32,584.536,1659.984,549.205,1709.648,478.208z
	 M1668.316,454.876c52.412-74.507,73.33-76.996,76.663-76.663c3.333,0.333,8.333,17.666-42.998,87.995
	c-51.33,70.33-93.995,98.662-93.995,98.662S1634.318,503.208,1668.316,454.876z"/>
<path fill="#9FFF80" d="M1846.308,504.874c0,0-43.548,68.037-73.329,97.995c-27.999,28.164-53.664,41.664-65.33,41.997
	c-11.666,0.334-19.999-9.999-18.333-23.665c0,0,51.998-23.666,76.663-59.331s37.331-74.329,15.999-75.663
	c-21.332-1.333-47.997,8.206-86.995,53.768c-38.998,45.561-47.331,127.223-5.667,127.223c41.665,0,85.996-49.331,111.328-79.329
	s52.331-69.593,52.331-69.593L1846.308,504.874z M1729.98,539.976c24.665-30.229,42.331-29.102,44.664-27.102
	c2.334,2,5,12-20.665,43.998c-25.666,31.998-58.997,43.331-58.997,43.331S1705.314,570.204,1729.98,539.976z"/>
<path fill="#9FFF80" d="M1980.414,317.662l-39.553,11.11l-23.11,45.331l-104.439,18.221l-19.11,39.109
	c0,0,25.777-15.555,45.332-20.888c19.554-5.333,65.33-16,65.33-16s-22.004,43.109-51.889,97.773
	c-29.886,54.664-56.552,103.105-63.662,127.993s13.333,29.776,26.665,25.776c13.333-3.999,50.665-26.222,85.329-71.996
	c34.665-45.775,41.776-55.816,41.776-55.816l14.791-48.345c0,0-70.79,126.381-124.232,143.27
	c-15.262,4.824,1.446-27.998,7.669-40.886c0,0,75.549-151.993,95.548-182.436l69.775-15.333c0,0-97.076,183.494-111.328,218.433
	c-13.777,33.775,8.394,46.82,23.998,44.22c17.333-2.89,48.888-11.776,87.33-67.553l-1.112-11.11c0,0-40.887,50.664-71.329,50.886
	c-20.667,0.15-6.464-34.537-2-43.331c14.888-29.332,104.661-198.211,104.661-198.211l84.44-21.332l3.333-12.222l-75.774,13.999
	c0,0,5.556-14.223,16.889-30.666s21.109-28.887,21.109-28.887l-44.664,12.444l-25.554,53.775l-68.22,14.221L1980.414,317.662z"/>
<path fill="#9FFF80" d="M1273.781,924.075c0,0,5.777-6.89,6.444-14s0.667-83.329,0-104.216c-0.667-20.888-6.444-25.777-6.444-25.777
	h32.221l30.665,63.109l34.443-61.331l28.665-1.778c0,0-9.556,11.333-9.777,21.999c-0.223,10.666-2,102.663-0.667,109.551
	c1.333,6.889,3.111,13.332,3.111,13.332h-32.665c0,0,5.999-7.998,6.222-16.22c0.222-8.223,0.222-95.329,0.222-95.329l-34.664,68.44
	l-34.665-63.773c0,0-0.444,82.217-0.223,89.55c0.223,7.333,4.444,17.332,4.444,17.332L1273.781,924.075z"/>
<path fill="#9FFF80" d="M1530.99,924.964c0,0-4.666-9.444-7.666-17.444c-3-7.999-47.664-147.325-47.664-147.325
	s-42.331,124.993-48.331,140.659c-5.999,15.666-13.999,24.11-13.999,24.11h26.665c0,0-1.333-5.778-1.333-13.777
	c0-8,9.333-23.332,9.333-23.332l46.331-0.334c0,0,3.999,13.666,5.666,20.666c1.666,6.999-3.333,16.777-3.333,16.777H1530.99z
	 M1449.661,878.521l20.999-60.33c2.333,3.999,20.999,60.33,20.999,60.33C1471.994,880.188,1449.661,878.521,1449.661,878.521z"/>
<path fill="#9FFF80" d="M1551.323,780.859h25.665l53.331,89.995c0,0,0.666-61.996,0-75.662c-0.667-13.666-7.333-15.999-7.333-15.999
	h28.665c0,0-6,7.333-6,14.332c0,7-4.333,137.993-4.333,137.993l-68.33-111.994c0,0-1.333,83.995-1.333,88.662
	c0,4.666,3.833,16.777,3.833,16.777h-21.166c0,0,3-5.778,3.334-10.444c0.333-4.667,1-109.661,1-117.327
	C1558.656,789.525,1551.323,780.859,1551.323,780.859z"/>
<path fill="#9FFF80" d="M1788.978,827.523c-13.666-42.997-38.331-55.663-66.663-50.997c-35.283,5.812-50.998,48.997-39.665,92.329
	c11.333,43.331,41.331,63.663,76.996,51.33C1795.311,907.854,1802.644,870.521,1788.978,827.523z M1752.979,903.52
	c-22.666,11.666-42.331-19.332-47.998-52.997c-5.666-33.665,6.956-56.64,22.332-58.663c12.666-1.667,29.332,7.333,38.665,41.331
	S1775.645,891.854,1752.979,903.52z"/>
<path fill="#9FFF80" d="M1919.13,907.187c-6.333-8-13.934-25.395-20.666-32.332c-10.999-11.332-22.999-13.999-22.999-13.999
	s42.156-0.34,41.332-41.998c-0.667-33.665-23.633-41.332-64.997-38.061c-14.987,1.187-30.665,0.175-30.665,0.175
	s9.999,5.555,9.999,14.554c0,9-1.333,94.662-2,106.661c-0.666,12-7.999,21.561-7.999,21.561h34.998c0,0-6.333-8.562-6.333-15.561
	c0-7,0.333-35.332,0.333-35.332s22.332-7.666,35.332,13c12.999,20.665,23.998,38.452,35.664,37.893c11.667-0.562,17-6.228,17-6.228
	S1925.463,915.186,1919.13,907.187z M1849.975,846.745c0,0,1.333-48.664,1.555-50.664c0.223-1.999,43.998-11.554,42.888,27.555
	C1893.306,862.745,1849.975,846.745,1849.975,846.745z"/>
<path fill="#9FFF80" d="M1306.101,123.204c0,0-2.159,3.607-9.234,9.864c-3.909,3.458-9.024,7.555-16.369,8.709v6.611
	c0,0,5.876-0.629,8.185,2.728c2.309,3.358,1.679,5.037,1.469,8.185c-0.21,3.148-1.521,51.386-2.938,64.847
	c-1.679,15.95-5.457,19.098-5.457,19.098h24.344c0,0-3.777-5.876-3.358-20.566C1303.163,207.989,1306.101,123.204,1306.101,123.204z
	"/>
<path fill="#9FFF80" d="M1331.295,133.377l-9.654,20.986c0,0,8.814-6.085,14.691-6.505c5.876-0.42,16.999-0.21,17.628,10.703
	c0.629,10.913-9.234,17.209-14.271,17.419c-5.037,0.21-11.123-1.259-11.123-1.259l-1.049,15.74c0,0,6.086-1.889,11.752-1.049
	c5.667,0.839,13.221,5.037,13.641,13.011c0.419,7.975-2.099,28.542-31.27,49.318c0,0,43.672-6.458,47.639-45.33
	c2.099-20.566-17.418-23.505-21.406-23.505c0,0,21.091-6.295,21.563-24.344c0.472-18.048-17.786-20.776-22.613-20.146
	c-4.827,0.629-11.333,2.519-13.221,0.21C1331.714,136.315,1331.295,133.377,1331.295,133.377z"/>
<path fill="#9FFF80" d="M1387.758,133.797l-8.674,19.587c0,0,9.654-6.575,18.188-6.436s17.209,3.638,17.908,13.011
	s-9.094,18.048-15.81,17.908c-6.716-0.14-8.954-0.609-8.954-0.609l-0.42,13.341c0,0,5.597-1.679,11.333-0.7
	c5.735,0.979,13.151,2.798,13.291,14.83c0.14,12.032-9.514,32.459-31.2,46.59c0,0,42.458-7.024,47.023-45.191
	c2.645-22.105-18.621-24.064-18.621-24.064s18.531-1.259,18.85-21.126c0.317-19.867-18.85-21.826-24.866-21.966
	c-6.016-0.14-12.172,1.259-14.55,0.14C1388.877,137.994,1387.758,133.797,1387.758,133.797z"/>
<path fill="#9FFF80" d="M1520.282,201.692c-0.84-32.529-25.394-36.306-30.641-36.306c-5.246,0-20.565,3.987-28.121,11.962
	c0,0,6.716-22.456,15.95-33.788c9.233-11.333,24.974-21.406,24.974-21.406v-3.987c0,0-52.764,13.393-57.083,73.871
	c-3.986,55.824,38.915,54.672,44.071,53.515C1499.716,243.245,1521.122,234.221,1520.282,201.692z M1483.677,234.641
	c-14.061,0.629-21.616-10.493-23.504-25.813c-1.89-15.32,6.085-30.85,23.504-32.738c12.936-1.403,22.455,7.555,22.665,25.184
	S1497.737,234.011,1483.677,234.641z"/>
</svg>
