<?xml version="1.0" encoding="utf-8"?>
<!-- Generator: Adobe Illustrator 16.0.4, SVG Export Plug-In . SVG Version: 6.00 Build 0)  -->
<!DOCTYPE svg PUBLIC "-//W3C//DTD SVG 1.1//EN" "http://www.w3.org/Graphics/SVG/1.1/DTD/svg11.dtd">
<svg version="1.1" id="Layer_1" xmlns="http://www.w3.org/2000/svg" xmlns:xlink="http://www.w3.org/1999/xlink" x="0px" y="0px"
	 width="2800px" height="1200px" viewBox="0 0 2800 1200" style="enable-background:new 0 0 2800 1200;" xml:space="preserve">
<rect y="-1.4" style="fill:#9F2131;" width="2800" height="1200.9"/>
<path style="fill:#FED879;" d="M420.1,591.2c-5.6,6.8-78.3,94.8-93.3,84.5c-15-10.2,37.7-72.8,64-99.2
	c26.3-26.3,115.3-80.1,137.2-68.8c17.7,9.1-42.8,83.4-71.3,120.4c-28.5,37-101.7,140.1-112,155.1s-15.4,29.6,2.6,42.1
	c17.9,12.4,29.3,9.5,29.3,9.5s-3.7-3.7,3.7-15.4c7.3-11.7,52-76.8,119.3-138.3s149.6-129.9,149.6-129.9s-44.6,51.6-96.6,115.3
	s-82,109.8-89.6,122.6s-12.4,31.5,8.4,43.5s30.4,7,30.4,7s-3.3-7.3,3.7-17.9c7-10.6,30.4-55.6,109-131.7
	c78.7-76.1,150-120.4,150-120.4s-41.7,46.8-117.1,142.3c-75.4,95.5-72.8,165.4-39.5,178.9s59.3-4.4,59.3-4.4s-31.5-4.8-29.6-40.2
	c1.8-35.5,19-79.5,71.3-145.5c52.3-66,97-114.6,112.3-131.1c15.4-16.5-6.2-36.6-24.5-37.7c-37.3-2.2-181.5,129.5-181.5,129.5
	s74.6-91.5,87.8-108.3c13.2-16.8,0.5-28.7-24.5-33.7c-40.2-8-197.9,154.8-197.9,154.8s62.2-84.2,80.1-114.9
	c17.9-30.7,2.9-54.5-17.2-61.8c-20.1-7.3-73.5-9.9-154,55.2c-80.5,65.1-100.7,123.4-84.5,137.2c34.8,29.6,118.5-81.2,124.8-91.5
	C435.8,588.2,425.1,585,420.1,591.2z"/>
<path style="fill:#FED879;" d="M810.1,822c-11.4-0.6,25.3-45.2,60-88.2c31.1-38.5,60-75.7,60-75.7l-48.3-1.1l-11.3,15.7
	c0,0,0.7-20.5-31.1-20.9s-63.7,23.1-97.7,57.4c-34,34.4-69.6,101.2-30.4,125.9c28.5,17.9,62.6-13.2,62.6-13.2s-3.7,21.6,11,22.3
	c14.6,0.7,44.6-11.7,82-49.8c37.3-38.1,41-43.2,41-43.2l-17.2-1.5C890.6,749.9,818.9,822.5,810.1,822z M733.3,821.3
	c-16.4-9.3,4.8-50.9,38.8-88.5c34-37.7,67.3-57.4,77.9-48.3c10.6,9.1-5.9,36.6-41.7,77.9C772.4,803.7,748.6,830.1,733.3,821.3z"/>
<path style="fill:#FED879;" d="M964.5,660.3L835.7,834.5h47.8c0,0,17.6-41,53.2-77.6c35.6-36.6,62.4-51.2,62.4-51.2
	s-7.2,18.7,4.9,26.8c26.8,18,52.7-22.4,52.7-22.4l-11.2-3.4c0,0-21.5,22.4-26.8,17.6s3.4-29.3,10.2-35.1c6.8-5.9,25.4-8.3,27.8-20
	c2.4-11.7-8.3-15.1-20-8.8c-11.7,6.3-57.1,40.5-57.1,40.5l28.3-40L964.5,660.3z"/>
<path style="fill:#FED879;" d="M1086.5,661.8c0,0-83.5,102.2-105.5,135.4c-22,33.2,16.8,44.6,39.6,37.3
	c33.8-10.8,76.1-70.2,76.1-70.2l-12.2-3.9c0,0-56.3,64.6-69.5,58.1c-8.8-4.4,27.1-44.7,57.3-82.9c29-36.7,56.6-73.7,56.6-73.7
	H1086.5z"/>
<path style="fill:#FED879;" d="M1175.2,577.2c-8.4-9.5-26.3,4-35.9,12.4c-9.5,8.4-20.9,25.2-13.5,34.4c7.3,9.1,25.2,1.5,37-11.3
	C1174.5,599.9,1181.4,584.2,1175.2,577.2z"/>
<path style="fill:#FED879;" d="M1235.6,669.1c-6.6-5.1-15.4-4.8-15.4-4.8s-35.1-23.1-100.3,50.9c-31.2,35.4-65.9,96.2-27,122.2
	c29.9,20,94.6-40.5,111.5-62.2C1232.7,739,1264.8,691.8,1235.6,669.1z M1114.5,817.6c-15.4-16.5,28.2-66.5,28.2-66.5
	s-1.3,11.8,3,25.7c4.4,13.9,12,18.4,12,18.4S1129.9,834.1,1114.5,817.6z M1169,784.7c-16.8-18.3-9.9-45.4,11.7-70.2
	c18.2-20.9,38.8-37,47.6-28.2C1248.6,706.6,1169,784.7,1169,784.7z"/>
<path style="fill:#FED879;" d="M1184,792.2c25.4,10.2,56.5-43,56.5-43l13.2,1.1c0,0-25.8,52.8-64.6,54.7c-6,0.3-18.8-2.2-18.8-2.2
	L1184,792.2z"/>
<path style="fill:#FED879;" d="M1297.7,661.8l-107.3,172.7l41.5,2.1c0,0,27.4-45.8,63.9-85.4c36.8-40,79.5-66.9,79.5-66.9
	s-27.8,31.7-58.1,76.1c-30.2,44.4-30.7,73.2-0.5,74.2c30.2,1,41.1-40.6,41.1-40.6l-8.8-3.3c0,0-13.9,34.4-26.7,29.3
	c-12.8-5.1,16.8-41.9,38.1-68.7c21.2-26.8,45.7-51.3,49.4-69.6c3.7-18.3-21.2-18.4-30.7-17.6c-16.5,1.5-68.5,44.6-68.5,44.6
	l28.3-46.8H1297.7z"/>
<path style="fill:#FED879;" d="M1439.6,649.3c6.2-0.9,25.1-14.5,33.3-31.8c8.2-17.4-1.6-20.8-4.2-21.8c-5.9-2.2-26.5,4.1-27.1,25.1
	c-0.4,12.8,9.5,12.4,9.5,12.4s-8.2,7.5-13.9,9.9C1434.1,644.4,1438.4,649.5,1439.6,649.3z"/>
<path style="fill:#FED879;" d="M1474.3,694.7c1.9-30,22.3-32.9,22.3-32.9s-17.3-22-38.4,4.8c-5.2,6.6-7,20.1-7,20.1l-41,52.7
	c0,0-25.2,2.9-33.7,24.9c-8.4,22-2.5,82.7,64.4,77.2c35.2-2.9,45.6-43.3,45-64.3C1485.3,752.5,1472.9,716.5,1474.3,694.7z
	 M1453.7,789.8c-3.3,22-19,39.1-39.5,30.4s-27.6-23.1-23.8-38.8c8.8-36.2,40.2-12.6,40.2-12.6l5.5-17.7c0,0-9.5-7.4-15.4-7.8
	l23.4-28.2C1444.2,715.2,1457,767.9,1453.7,789.8z"/>
<path style="fill:#FED879;" d="M1654.8,631.3c-7.1,9.9-49.5,65.6-62,53.9c-12.4-11.7,21.7-58.8,49-86.6
	c27.3-27.8,96.3-74.6,107.8-59.3c11.5,15.4-40.7,86.1-67.3,129s-76.1,117.1-87.8,139.3c-11.7,22.2-1.5,37.3,8,43.7
	c9.5,6.3,27.8,4.6,27.8,4.6s-1.7-8,6.1-22c7.8-13.9,26.8-70,89.3-143.4c62.4-73.4,117.6-119.3,117.6-119.3s-43.7,60-91.5,139.8
	c-47.8,79.8-48.5,88.8-54.9,102.7c-6.3,13.9-0.2,30,12.9,38.8s23.2,2,23.2,2s-1.5-6.3,2.7-15.4c4.1-9,19.3-51,77.1-119.8
	c57.8-68.8,131.7-127.1,131.7-127.1s-54.4,65.9-103.4,149.8c-49,83.9-44.6,124.2-24.6,149.5c33.4,42.4,78.8,10.2,78.8,10.2
	s-19.8,3.2-33.7-14.6c-13.9-17.8-6.6-57.8,2.7-83.7c9.3-25.9,21.7-59,72.2-132.9c50.5-73.9,59-82.4,57.1-91.2
	c-2-8.8-18.6-30.3-34.6-21.5c-39.5,21.7-124.4,106.1-124.4,106.1s49.8-71.7,56.3-85.6c6.1-12.8-4.4-24.4-12.9-29.3
	c-8.5-4.9-17.1-11.2-31-0.7s-96.3,86.1-96.3,86.1s38.1-53.2,35.1-78.1c-2.9-24.9-15.9-36.8-42.2-34.6
	c-26.3,2.2-62.2,17.6-123.4,76.1c-61.2,58.5-50.2,93.9-39.5,100c10.7,6.1,31,3.7,58.1-24.6c27.1-28.3,26.3-31.7,29.3-36.8
	C1670.9,631.3,1661.7,621.8,1654.8,631.3z"/>
<path style="fill:#FED879;" d="M2029.5,826c-8.4-1.4,4-33.3,25.6-72.1s47.9-84.5,47.9-84.5l-47.6,0.4l-10.6,22.3c0,0-4-26-42.1-22.3
	s-58.5,33.7-80.1,71.7s-32.6,108.3,22.7,108.3c33.3,0,52-30.7,52-30.7s-7,27.1,17.9,27.1c45.4,0,78.3-77.9,78.3-77.9l-12.1-2.2
	C2081.4,766,2044.8,828.6,2029.5,826z M2009.8,768.6c-26.7,52-52.7,64.8-64,61.1c-11.3-3.7-19.4-32,15-84.3
	c27.9-42.4,48.7-50.3,60-48.5C2032.1,698.7,2036.5,716.7,2009.8,768.6z"/>
<path style="fill:#FED879;" d="M2136.5,671.3l-88.1,169.5l38.8,2.2c0,0,13.7-28.8,63.7-85.9c50-57.1,68.8-70.3,68.8-70.3
	s-21.1,30.1-50,77.8c-33.7,55.6-34.9,77.5-10.2,78.3c29.5,1,55.6-24.7,83.1-66.4l-11.7-3.3c0,0-39,54.6-51,50.2
	c-5.6-2.1,0-25.2,24.4-59c29-40.2,39.8-50.7,45.6-62.2c5.9-11.5,1.7-19.3-9.3-26.1c-11-6.8-24.1-8.8-35.9,1
	c-11.7,9.8-60.7,61.2-60.7,61.2l33.2-67.9L2136.5,671.3z"/>
<path style="fill:#FED879;" d="M2369,762.3c0,0-5.9,22.2-27.8,35.9c0,0,28.5-42.7,31.5-69c2.9-26.3-14.9-42-14.9-42
	s-0.5-17.1-26.1-13.4c-25.6,3.7-54.2,20.9-80.5,64.2c-43,70.7-19.5,112,16.1,113.2c35.6,1.2,57.3-33.7,57.3-33.7s15.7,1.5,31-12.2
	c16.1-14.4,27.8-43,27.8-43L2369,762.3z M2268.3,830.8c-5.9-1.5-13.4-8.8-7.6-36.6c5.9-27.8,18.8-39,18.8-39s-1.7,18,4.6,33.9
	c6.3,15.9,19.8,21.5,19.8,21.5C2288.5,831.1,2274.1,832.3,2268.3,830.8z M2311.7,800.3c-22.7-17.8-18.8-44.6-5.9-68.5
	c12.9-23.9,32-28.5,40.2-25.1c8.3,3.4,5.9,24.4-4.4,50.1C2331.4,782.4,2311.7,800.3,2311.7,800.3z"/>
<path style="fill:#FED879;" d="M2411.9,679.3L2341.4,843l37.3,1.2c0,0,1.2-23.4,37.3-67.6c36.1-44.2,41-42.9,41-42.9
	s-6.5,36.9,16.1,45.1c18.1,6.6,28.1-4.1,28.1-4.1s-20.5-4-23.9-18c-6.3-26.2,8.5-46.2,8.5-46.2s8.7-1.7,13.4-7.8
	c4.9-6.3,5.4-18.5-2-20.5c-7.3-2-17.6-1.2-30.7,19.5c0,0-30.7,18.8-46.6,44.6l33.2-67.1H2411.9z"/>
<path style="fill:#FED879;" d="M1262.1,154.9l-11.6,10.2l-0.7,8.9c0,0,6.2,1.3,6.2,7.9c-0.1,6.6-0.4,36.2-0.8,44.7s-8.2,9.4-8.2,9.4
	v11.2h37.6l0.6-12.3c0,0-8.3-1.1-8.2-7.9c0.1-6.8,2.2-72.1,2.2-72.1H1262.1z"/>
<path style="fill:#FED879;" d="M1387.1,202.8c0,0-2.3-4.3-7.3,0.5c-5,4.8-5.1,3.7-6.2,3.7c-1.1,0-5.7,0-5.7,0v-50.8h-19.1
	l-50.3,50.8l9,12.5h38.8c0,0,0.1,4.4,0.1,10.8c0,6.5-6.9,8.3-6.9,8.3l-0.2,9.1l35.2-0.5v-11.5c0,0-6.7-2.8-6.7-8.9s-0.1-8.7-0.1-8.7
	h11.6L1387.1,202.8z M1349.1,205.9h-34.4l34.4-34.5V205.9z"/>
<path style="fill:#FED879;" d="M1400.5,156.7v17.5c0,0,3,0.7,6.2-2.6c3.2-3.3,4.8-4.4,4.8-4.4h39.1c0,0-6.8,2.6-27,34.6
	s-17.9,45.8-17.9,45.8l37.6,0.7l0.4-6.9c0,0-9.4-4.9-8.7-11.2c0.7-6.3,1.2-19.4,12.7-37.9c11.5-18.5,18.5-26.6,18.5-26.6l-5.4-9.1
	H1400.5z"/>
<path style="fill:#FED879;" d="M1523.7,187.9c-14.5,0-23.9,10.2-23.9,10.2s-1.9-29,19.6-32.4c11.5-1.8,12.7,3.2,12.7,3.2
	s-5.6,3.2-1.1,8.7c3.4,4.1,11.9-0.4,13.3-4.6c1.3-4.3,2.8-19.2-23.5-19.2c-26.3,0-44.1,25-44.1,51.8c0,28.9,15.5,45.4,44.1,45.4
	c28.6,0,32.4-25.8,32.4-35.9C1553.2,205.6,1548.1,187.9,1523.7,187.9z M1521,239.2c-12.3,0-18.9-8.4-18.9-19.5
	c0-9.6,4.1-21.1,16-21.1c11.6,0,17.1,7.7,17.1,15.7C1535.1,222.4,1533.3,239.2,1521,239.2z"/>
</svg>
