<?xml version="1.0" encoding="utf-8"?>
<!-- Generator: Adobe Illustrator 16.0.4, SVG Export Plug-In . SVG Version: 6.00 Build 0)  -->
<!DOCTYPE svg PUBLIC "-//W3C//DTD SVG 1.1//EN" "http://www.w3.org/Graphics/SVG/1.1/DTD/svg11.dtd">
<svg version="1.1" id="Layer_1" xmlns="http://www.w3.org/2000/svg" xmlns:xlink="http://www.w3.org/1999/xlink" x="0px" y="0px"
	 width="2800px" height="1200.9px" viewBox="0 0 2800 1200.9" style="enable-background:new 0 0 2800 1200.9;" xml:space="preserve"
	>
<rect style="fill:#2B2E52;" width="2800" height="1200.9"/>
<path style="fill:#6A9ED6;" d="M1440.5,388.8c-28.4,2.6-57.3,18.8-57.3,18.8s-27.5-1.7-71.2-10.9c-43.7-9.2-94.4-19.7-149.9-2.2
	c-55.5,17.5-65.4,57.7-66,72.1c-0.9,20.1,11.8,50,45.9,56.8c17.5,3.5,24.4-0.8,25.4-5.4c1.3-6.4-5.2-14.7-18.4-18.6
	c-16.5-4.9-27.5,0-27.5,0s-9.3-7.5-10.9-20.1c-2.6-20.5,12.2-75,103.6-76.1c73.9-0.9,69.5,2.6,103.6,6.6c34.1,3.9,51.6,6.6,51.6,6.6
	s-1.3-0.4-21,20.1s-41.5,53.3-76.9,112.8c-35.4,59.4-67.7,90.2-140.3,86.5c-34.5-1.7-50.3-18.4-50.3-18.4s9.2-7.9,2.6-28.4
	c-6.6-20.5-14.4-21.4-20.1-19.2s-9.2,17.9,0,36.7s42.8,48.1,115.8,44.1c73-3.9,122.4-81.3,146.9-134.6c24.5-53.3,50.3-80.9,66-96.6
	c0,0,24.9,5.7,52,3.5c27.1-2.2,38-12.7,38-17.9S1468.9,386.1,1440.5,388.8z M1435.7,411c-19.9,0.1-32-1.6-32-1.6
	s18.5-10.2,33.8-11.5c15.3-1.3,24.8-0.4,24.6,2.4C1461.8,404.3,1455.5,411,1435.7,411z"/>
<path style="fill:#6A9ED6;" d="M1545.2,438.7c0,0-8.9-6.2-21.3-3.6c-12.5,2.6-20.7,10.5-27.2,19.7c-6.6,9.2-62.9,97.7-62.9,97.7
	s38-35.7,59.7-38.4s37.7,5.9,37.7,20.7c0,14.8-5.2,25.2-10.5,37c-5.2,11.8-19.3,36.1-9.8,38.4c9.5,2.3,21-4.6,32.5-17
	c11.5-12.5,21.3-25.2,26.9-33.8c5.6-8.5,0,21,0,21s-30.6,51.1-66.9,50.2c-36.3-1-32.1-25.2-25.5-41c6.6-15.7,18.4-41,19.3-47.5
	c1-6.6-9.5-16.4-22.9-7.5s-45.9,42-60.3,56.4c-14.4,14.4-44.9,40-52.1,42s-14.8-7.2-14.8-7.2s27.2-28.7,41.3-46.6
	c15.1-19,35.7-52.8,52.8-80.6c17-27.9,45.9-75.1,88.5-75.1c27.5,0,35.1,15.1,40,23.3c4.9,8.2,4.9,17.7-2.6,20.3
	c-7.5,2.6-17.3-6.4-20-11.5C1542.9,448.2,1545.2,438.7,1545.2,438.7z"/>
<path style="fill:#6A9ED6;" d="M1671.4,594.1c-3.6,3.3-25.6,36.6-58,33.8c-26.2-2.3-20.7-34.1-20.7-34.1s11.1,3.9,28.8-1.3
	c17.7-5.2,52.5-26.6,54.1-54.4c1.6-27.9-29.5-27.9-29.5-27.9c-22.8,0-45.4,4.8-70.2,39.3s-29.2,82.3,24.6,88.8s75.7-30.8,77.4-34.1
	C1679.6,601,1675,590.8,1671.4,594.1z M1608.6,545.4c8.2-12.5,17.6-24.3,31-20.8c7.5,2,7.9,14.8-5.9,35.7
	c-13.8,21-39.8,22.9-39.8,22.9C1595.5,568.2,1600.4,557.9,1608.6,545.4z"/>
<path style="fill:#6A9ED6;" d="M929.9,1048.8c-32.7-2.2-81.7-55.9-132.9-126.8C745.9,851.2,669,835,669,835
	c54.2,6.1,164.4-36.7,164.4-126.8c0-90-95.3-109.3-140.3-109.3c-45,0-178.3,0-181,0c-1.7,0-1.5,3.3,0.1,3
	c1.6-0.3,31.1,9.5,30.5,24.6c-0.7,15.1-23.4,273.6-25.8,326.1c-0.4,9.6-37.2,19.7-42,19.2s-3.9,4.8,0,4.8c3.9,0,50.7,0,82.2,0
	c24.8,0,70.5-0.5,84.6-1.3c3.8-0.2,2.1-3.6,1-3.7c-5.2-0.4-39.3-9.9-39.3-19.1s7.9-111.9,7.9-111.9c41.1,0.5,92.7,69.5,142.9,142
	c50.3,72.6,90.9,101,151.2,99.7c60.3-1.3,78.7-44.6,78.7-44.6S962.3,1051,929.9,1048.8z M614.3,803.1l10.5-172.2
	c0,0,129.8-25.3,128.5,82.6C752,821.5,624,807.9,614.3,803.1z"/>
<path style="fill:#6A9ED6;" d="M864.6,708.5c2.4,0,194-1.6,195.6,0c1.6,1.6,0,55.1,0,57.3c0,2.2-20.3-21.6-43.1-27.8
	c-22.7-6.1-54.4-1.2-54.4-1.2l-3.5,76.8c0,0,31.4,3.8,44.6,0c14.4-4.2,22.2-9.1,23.9-25.2c0.7-6.4,6.3-5.1,6.1-0.8
	c-0.2,4.4-4.8,75.6-4.8,78.9c0,3.3-6.1,3.3-6.3,0c-0.5-8.4-5.5-23.8-20.1-28.8s-43.3,0.9-43.3,0.9l-3.8,97.8c0,0,12.3,9.2,28.5,8.2
	s35.2-5.1,44.9-14.9s21.2-23.7,23.3-35.6c1-5.6,4.9-3.4,4.8,3.1s-2.3,74.7-2.3,74.7s-38.4-4.1-76.7-2.6
	c-38.4,1.5-111.5,2.5-116.4,2.6s-2.5-4.3,0-4.4c2.5-0.2,27.4-6.7,27.9-21.1c0.5-14.4,12.8-199.8,12.6-211c-0.2-11.1-22-22.1-37-22.6
	C860,712.6,861.5,708.5,864.6,708.5z"/>
<path style="fill:#6A9ED6;" d="M1278.5,710.8c13.4-0.8,31.1-7.4,34.4-14.8c3.4-7.5,7.7-5.7,7.4,0.2c-0.5,7.9-3.6,87-3.8,89.3
	c-0.2,2.3-2.3,2.5-4.6-2.8c-2.3-5.2-14.6-40.5-43.4-47.2c-28.8-6.7-85.2-10.4-104,56.9c-18.8,67.3-7.4,133.8,23.2,146
	s66.8,4.7,76.5-14c3.5-6.8,9-82,5.5-86.8c-3.5-4.8-10.3-17.4-22.9-19c-5-0.7-2-3.5,0.4-3.5s90.9,1.3,93.8,1.3s2.6,4.3,0,4.4
	c-11.8,0.4-13.1,35.8-13.1,95.9c0,22.5,1.3,35.8,6.8,43.5c2.6,3.7-1.7,4.2-3.5,1.1c-1.7-3.1-7-7.2-16-6.8c-9,0.4-23.2,0.7-48.1,11.8
	c-24.9,11.1-43.7,10.5-59.9,10.5c-16.2,0-127.1-10.1-115-139.2s109.5-130.6,128.8-129.9C1240.3,708.5,1271.9,711.2,1278.5,710.8z"/>
<path style="fill:#6A9ED6;" d="M1381,711.3c2.8,0,170.5-1.7,174.4-1.7c3.9,0,0,46.8,0,48.5c0,1.7-2.6,1.3-3.7,0
	c-1.1-1.3-7.4-13.3-19.9-18.4c-12.5-5-48.1-11.4-68.2,0.2c-4.2,2.4-3.9,75.2-2,75.4c2,0.2,29.7,0.4,38.9,0
	c9.2-0.4,23.4-14.4,24-18.8c0.7-4.4,3.1-2.6,3.1-0.2s0.4,61,0.4,63.8c0,2.8-3.3,2.8-3.9-1.5c-0.7-4.4-6.8-17.5-19.9-18.8
	c-13.1-1.3-42.2,0-42.2,0s-3.5,95.9-0.4,100.5c3.1,4.6,25.3,7.8,41.5,7c35-1.7,47.2-34.7,47.6-39.8c0.4-5,3.7-4.2,3.9-0.7
	c0.2,3.5-0.7,60.8-0.7,60.8s-172.2,1.3-181.4,1.3c-4.5,0-1.7-3.5,0-3.9c1.7-0.4,21.6-7.2,22.1-21.9c0.4-14.6,7-200.2,6.8-210.2
	c-0.2-10.1-19-18.6-20.8-18.8C1379.1,714,1379.7,711.3,1381,711.3z"/>
<path style="fill:#6A9ED6;" d="M1596.5,709.6c2.6,0,73.6-3.2,75.1-1.4c1.6,2,75.4,174.9,75.4,174.9s2.5-134.2,2.3-150.5
	s-18.4-21-20.3-21s-1.1-2.1,0.2-2.1s60.5-0.2,62.3-0.2s2.1,2.8,0,3s-17,8.7-17.5,20.7c-0.5,12-1.8,192.8-1.3,206.7
	c0.5,13.9,19.5,25.6,21.5,25.6c2,0,1.6,2.3,0,2.3c-1.6,0-68.8,1.1-70.8,1c-2-0.2-81-184.6-81-184.6s-0.8,151.1-1,161
	c-0.2,9.8,11.1,20.5,13.1,20.5c2,0,1.1,2.1,0,2.1c-1.1,0-57.4-0.3-59.3-0.3c-2,0-1.5-2,0-2c1.5,0,16.6-4.1,17.2-18.7
	c0.7-14.6,3.9-195.7,3.9-210.3c0-14.6-18.7-24.9-19.7-24.9S1595,709.6,1596.5,709.6z"/>
<path style="fill:#6A9ED6;" d="M1934.7,703.9c-36.4,0.7-114.1,25.7-114.7,134.1c-0.7,108.5,83.6,134.7,128.8,130.4
	c45.2-4.3,83.1-30.2,90.8-70.5c3.3-17-18.7-23.6-18.7-23.6c-5.2-1.3-1,19-13.1,35.7s-24.9,30.8-59,30.2
	c-31.1-0.6-64.6-23.9-63.6-106.9c1-83.9,43.6-104.3,60-105.2c22.9-1.3,47.9,4.3,60,19c12.1,14.8,17.4,32.8,18,37.7
	c0.7,4.9,3.9,3,3.6-0.7c-0.3-3.6-2-85.9-2-87.9c0-2-3.1-2.9-3.3,0c-0.4,6.1-6.9,17.7-22.6,15.1
	C1983.2,708.8,1958.3,703.5,1934.7,703.9z"/>
<path style="fill:#6A9ED6;" d="M2046.1,707.2c3.9,0,87.2,0,89.5,0c2.3,0,3.9,3.9,0,3.9s-27.2,13.1-22,32.8
	c5.2,19.7,48.2,93.8,48.2,93.8s41.3-88.5,46.9-104.6c5.6-16.1-26.2-24.3-28.5-23.9s-3-3.3,0-3.6c3-0.3,117.4,0,121.3,0
	s3.3,4.3,0,4.6s-15.7,0-28.2,23.6c-12.5,23.6-88.5,195.4-101.3,225.2c-12.8,29.8-11,90.2,34.4,86.5c28.5-2.3,32-22,32.5-35.7
	c0.7-20.7-14.3-45.2-25.9-45.2c-3.9,0-6.9-3.3,0.7-3.6c7.5-0.3,65.2,2.6,65.2,55.4s-52,56.1-77,56.1c-41.9,0-115.9-36.2-76.4-145.9
	c16-44.3,23.3-61.3,23.3-61.3s-65.9-128.5-75.4-138c-13.4-13.4-25.9-17-27.2-17C2044.8,710.1,2043.5,707.2,2046.1,707.2z"/>
<path style="fill:#6A9ED6;" d="M1224,165.7l38-3c0,0-2.2,71.9-2.3,73.9c-0.2,3.6,6.1,7.2,6.1,7.2L1224,244c0,0,5.9-3,6.1-8.1
	c0.1-3.1,1-56.9,1.6-62.8C1232.4,167.1,1224,165.7,1224,165.7z"/>
<g>
	<path style="fill:#6A9ED6;" d="M1365.7,213.4c-2.5,0-14.1,0.2-14.1,0.2s-0.3-36.4-0.2-40.6c0.1-3.4,4.3-5,6.7-5.7
		c1.1-0.5-33.1,0.2-33.1,0.2l-44.9,49.4l5.2,8.9l39.7,0.8c0,0-0.1,7.2-0.2,10.1c-0.2,4.3-7.2,7.6-7.2,7.6h39.6c0,0-5.9-3.5-6.1-8.6
		c-0.1-3.5-0.3-9.4-0.3-9.4s11.4-0.2,14.1,0c2.8,0.2,6.1,3.5,6.1,3.5v-18.9C1371.1,210.6,1368.1,213.4,1365.7,213.4z M1326.3,212.9
		h-33.9l33.9-35.5V212.9z"/>
</g>
<path style="fill:#5587BB;" d="M1564.2,188.2c0,0,3.6-7.7,3.5-13.2c-0.2-5.4-3.5-12.7-14-13.3c-10.5-0.7-25.2,4.1-31.8,4.1
	c-6.6,0-8.9-0.9-9.9-2.3c-1-1.3-10.2,0-10.2,0v46.2l6.6,1.5c0,0,13.5-8.9,23.7-8.9c10.2,0,16.9,9,17.1,14.3
	c0.2,5.3-0.8,17.6-17.4,16.8c-16.6-0.8-12.6-10.6-24-12.3c-7.6-1.2-10.9,2.8-10.9,2.8s-0.5,7.1,3.5,9.5c0,0,0.3-4.4,4.6-3.9
	c5.8,0.7,9.5,8.2,19.9,11.7c10.5,3.5,48.2,5.8,50.8-18.9s-20.6-32.9-39.5-30.3c-18.9,2.6-20,6.1-20,6.1l-0.5-15.8
	c0,0,5.1,4.3,14.5,3.1c9.4-1.2,15.3-3,22.3-2.1C1559.5,184.1,1564.2,188.2,1564.2,188.2z"/>
<path style="fill:#6A9ED6;" d="M1564.2,188.2c0,0,3.6-7.7,3.5-13.2c-0.2-5.4-3.5-12.7-14-13.3c-10.5-0.7-25.2,4.1-31.8,4.1
	c-6.6,0-8.9-0.9-9.9-2.3c-1-1.3-10.2,0-10.2,0v46.2l6.6,1.5c0,0,13.5-8.9,23.7-8.9c10.2,0,16.9,9,17.1,14.3
	c0.2,5.3-0.8,17.6-17.4,16.8c-16.6-0.8-12.6-10.6-24-12.3c-7.6-1.2-10.9,2.8-10.9,2.8s-0.5,7.1,3.5,9.5c0,0,0.3-4.4,4.6-3.9
	c5.8,0.7,9.5,8.2,19.9,11.7c10.5,3.5,48.2,5.8,50.8-18.9s-20.6-32.9-39.5-30.3c-18.9,2.6-20,6.1-20,6.1l-0.5-15.8
	c0,0,5.1,4.3,14.5,3.1c9.4-1.2,15.3-3,22.3-2.1C1559.5,184.1,1564.2,188.2,1564.2,188.2z"/>
<path style="fill:#5587BB;" d="M668.5,835c54.2,6.1,164.4-36.7,164.4-126.8c0-25.7-7.8-45.6-19.9-61l-32.8,14c0,0,25.9,36.1-3,94.4
	c-28.8,58.4-146.9,73.1-146.9,73.1s-5.6,2.3,36.4,6.2c1,0.1,2,0.2,3,0.2C669,835.1,668.5,835,668.5,835z"/>
<path style="fill:#5587BB;" d="M589.7,816.1c2.4,0.2,15-10.2,24.5-18.3l10.2-166.9c0,0,90.5-17.7,119.6,39.4l34.2-9.6
	c0,0-30.8-44.6-71.1-45.2c-40.3-0.7-125.9,2.3-125.9,2.3L574.3,818C574.3,818,585.8,815.7,589.7,816.1z"/>
<path style="fill:#5587BB;" d="M574.3,819.7l-5.6,71.5c-2.1,28.3-5.1,66.1-5.1,66.1l18.4,19.3c23.1-0.2,49.2-0.6,59.3-1.2
	c2-0.1,2.5-1.1,2.3-2l-0.9-1.5c-0.1-0.1-0.3-0.2-0.4-0.2c-5.2-0.4-39.3-9.9-39.3-19.1s7.9-111.9,7.9-111.9
	c27.9,0.3,60.6,32.2,94.4,75.3c3.9-10.8,17-26.8,17-26.8s-16.4-13.4-32.8-27.2C641.6,821.9,574.3,819.7,574.3,819.7z"/>
<path style="fill:#5587BB;" d="M796.6,922c-14.6-20.2-31.2-35.9-47.6-48.1c-9.5,4.7-23.2,15.6-23.2,15.6s13.1,11.1,28,28
	c14.9,16.8,31.7,38.2,56.4,76.1c24.7,37.8,46.8,49.4,46.8,49.4c4.4-3.8,27.9-8.2,38-9.9C866.3,1011.8,831.9,971,796.6,922z"/>
<path style="fill:#5587BB;" d="M971.6,1055.1c-22.1,9.2-42.9,8.9-69,8c-29.9-1.1-45.9-17.9-45.9-17.9c-9.8,4.8-30.6,5.6-44,5.5
	c27.9,22.9,56.7,32.6,92.3,31.8C939.4,1081.7,960.1,1067.3,971.6,1055.1z"/>
<path style="fill:#5587BB;" d="M1058.8,729.2l-5.9-18.4c-10.2,7.5-21,19.3-21,19.3s-16.4-11.5-50.5-8.2
	c-34.1,3.3-57.7,5.6-58.4,14.1c-0.7,8.5-4.9,85.2-4.9,87.2c0,2,13.4-6.2,30.5-8.5c4.8-0.6,8-2.7,10.2-5.4l2.1-46.3l-0.9-10.9
	l1.4-0.1l0.7-15.2c0,0,31.7-5,54.4,1.2c20.2,5.4,38.5,24.9,42.3,27.6C1059,749.7,1058.8,729.2,1058.8,729.2z"/>
<path style="fill:#5587BB;" d="M1000.5,827.9c-15.1,2-81,2.6-82.3,2.3S911,942.9,911,944.6c0,1.6,26.2-6.9,39.7-5.9
	c1.6,0.1,3-0.9,4.3-2.6l3.8-97.5c0,0,28.6-5.9,43.3-0.9c14.6,5,19.6,20.5,20.1,28.8c0.1,0.9,0.5,1.5,1.2,1.9l5.6-10.7
	c0.4-6.8,1-16.8,1.7-27.1l-6.6-30.4c-0.8,1.5-1.8,2.9-2.8,4.1C1017.8,812.8,1010.8,826.5,1000.5,827.9z"/>
<path style="fill:#5587BB;" d="M1054.6,919.3c0,0,0.7-15.7-10.2,2.6c-10.8,18.4-27.2,34.8-71.8,37.7c-44.6,3-60.6-11.5-63.6-7.9
	c-2.3,2.8-30.7,14.7-44.5,20c16-0.3,78.4-1.2,112.8-2.5c32-1.2,63.9,1.4,73.7,2.3L1054.6,919.3z"/>
<path style="fill:#5587BB;" d="M1147.7,924.9c1.5-0.4,12.8-1.6,22.4-2.6c-16.5-26.3-20-77.9-5.5-129.9c18.8-67.3,75.2-63.6,104-56.9
	c28.8,6.7,41.1,42,43.4,47.2c2.3,5.2,4.4,5.1,4.6,2.8c0.1-1.7,1.8-43.6,2.9-69.6c-5.3,4.4-12.9,9.4-22.1,11.3
	c-17.7,3.6-29.2-6.6-65.9-6.9c-84.6-0.8-106.2,77-108.8,127.5C1120.1,898.4,1145.1,925.6,1147.7,924.9z"/>
<path style="fill:#5587BB;" d="M1298.5,928.2c-3.9,7.5-38.7,32.8-81.6,31.1c-42.9-1.6-69.5-30.2-69.5-30.2s-22.3,2.4-33.4,3.1
	c30.6,40.2,82.6,44.6,93.3,44.6c16.2,0,35,0.7,59.9-10.5c24.9-11.1,39.1-11.4,48.1-11.8c9-0.4,14.2,3.7,16,6.8
	c1.7,3.1,6.1,2.6,3.5-1.1c-5.4-7.7-6.8-21-6.8-43.5c0-53.2,1-87,9.4-94.4c-13.9,4.8-31.4,11.2-33.9,14.3
	C1299.1,842,1302.4,920.7,1298.5,928.2z"/>
<path style="fill:#5587BB;" d="M1467.6,718.4c-26.6,1.6-36.4,1.6-37.7,22.9c-1.3,21.3,2,86.2,2,86.2s16.8-9.2,29.9-12.2h0
	c-2-0.2-2.2-73,2-75.4c20.1-11.6,55.7-5.2,68.2-0.2c12.5,5,18.8,17,19.9,18.4c1.1,1.3,3.7,1.7,3.7,0c0-1.4,2.5-31.7,1.5-43.7
	c-3.9,3.8-10,7.9-18,7.9C1525.3,722.3,1494.2,716.7,1467.6,718.4z"/>
<path style="fill:#5587BB;" d="M1430.9,829.9c0,0-6.6,105.9-3.6,107.8c2.2,1.5,21.9,2.2,34.1,1.4c-2.3-12.4,0.8-99.2,0.8-99.2
	s29.1-1.3,42.2,0c13.1,1.3,19.2,14.4,19.9,18.8c0.7,4.4,3.9,4.4,3.9,1.5c0-1.9-0.2-27.5-0.3-45.7c-5,7.5-15,15.9-43.6,15.4
	C1446,829.2,1430.9,829.9,1430.9,829.9z"/>
<path style="fill:#5587BB;" d="M1554.8,928.1c-16.1,27.8-20.3,29.4-69.7,31.9c-52.3,2.6-60.8-13.1-60.8-13.1
	c-6,10.1-21.1,17.6-31.8,22c47.3-0.3,161.7-1.2,161.7-1.2S1554.6,945.7,1554.8,928.1z"/>
<path style="fill:#5587BB;" d="M1628.6,749.9l-2.3,207.8l16.2-6.2c-0.9-2.2-1.5-4.4-1.4-6.6c0.1-8.5,0.8-122.6,0.9-153.3
	L1628.6,749.9z"/>
<path style="fill:#5587BB;" d="M1626.3,958.7c0,0.6-8.4,5-15.3,8.6c9,0.1,20.1,0.1,28.8,0.2C1633.7,962.9,1626.3,958.1,1626.3,958.7
	z"/>
<path style="fill:#5587BB;" d="M1747.9,945.2c4.9,2,9.8,4,9.8,4l-10.9-71.4c-0.1,3.3-0.1,5.2-0.1,5.2s-73.8-172.9-75.4-174.9
	c-0.9-1.1-27.2-0.4-48.5,0.4c4.3,1.8,23,9.8,25.3,17.3C1650.9,734.4,1743,943.3,1747.9,945.2z"/>
<path style="fill:#5587BB;" d="M1757.8,718.1c-0.7,2.3,2.3,231.2,2.3,231.2h15.5c-1.8-3-3-6.3-3.2-9.7
	c-0.5-13.9,0.8-194.7,1.3-206.7c0.5-12,15.4-20.5,17.5-20.7c2.1-0.2,1.8-3,0-3c-0.6,0-7,0-15.5,0
	C1767.1,712.9,1758.2,716.7,1757.8,718.1z"/>
<path style="fill:#5587BB;" d="M1757.7,953.1c-3.5-0.2-19,9.5-28.1,15.3c11.9-0.1,37.2-0.5,52.3-0.8
	C1773.7,961.9,1761,953.3,1757.7,953.1z"/>
<path style="fill:#5587BB;" d="M1860.8,898.4c0,0,15-16.9,26.9-23.6c-2.1-11.8-3.2-25.5-3-41.3c1-83.9,43.6-104.3,60-105.2
	c22.9-1.3,47.9,4.3,60,19c12.1,14.8,17.4,32.8,18,37.7c0.7,4.9,3.9,3,3.6-0.7c-0.3-2.8-1.3-51.9-1.7-75.5
	c-5.4,6.6-13.6,17.7-14,25.4c0,0-16.1-20-68.5-15.4c-52.5,4.6-88.8,45.6-90.5,114.7C1850,902.6,1860.8,898.4,1860.8,898.4z"/>
<path style="fill:#5587BB;" d="M2039.4,892.9c-5.3-2.7-12-4.4-12-4.4s0,0-2,12.5c-2,12.5-19.7,52.1-77,56.7
	c-57.4,4.6-85.6-55.7-85.9-57c-0.2-0.9-20.6-1.7-32.2-2c24.1,58,82.9,73.2,118.1,69.9c45.2-4.3,83.1-30.2,90.8-70.5
	C2039.5,896.2,2039.6,894.5,2039.4,892.9z"/>
<path style="fill:#5587BB;" d="M2168.5,867.5l-4.6-35.5c-1.7,3.6-2.6,5.6-2.6,5.6s-42.9-74.1-48.2-93.8c-5.2-19.7,18-32.8,22-32.8
	s2.3-3.9,0-3.9c-0.6,0-6,0-14,0c-11,4.4-27.5,11.3-29.9,13.5c-3.6,3.3,2.3,11.1,5.6,16.4C2100,742.3,2168.5,867.5,2168.5,867.5z"/>
<path style="fill:#5587BB;" d="M2244.9,727.9c-8.9,11.8-88.2,185.9-98,214.7c-9.8,28.8-11.5,82.3,23.6,102.9l0.7-18.9
	c-9.9-19.5-7.6-49.3,0.3-67.7c12.8-29.8,88.8-201.6,101.3-225.2c12.5-23.6,24.9-23.3,28.2-23.6c1.8-0.2,2.9-1.6,2.7-2.8
	C2288.1,710.5,2251.8,718.7,2244.9,727.9z"/>
<path style="fill:#5587BB;" d="M2201.3,1072.4c25,0,77-3.3,77-56.1c0-19.9-8.2-32.7-18.8-40.9c-4.9,3.7-10.7,10.2-10.7,10.2
	s5.6,12.8,8.5,24.3c3,11.5-3.9,41.3-37.4,48.5c-33.4,7.2-49.5-12.8-49.5-12.8l-18.4,12.1C2168.3,1068,2186.8,1072.4,2201.3,1072.4z"
	/>
<path style="fill:#5587BB;" d="M2213.1,960.9c-2.6,0.1-3.9,0.6-4.4,1.1l0.5,1.6c0.7,0.5,1.9,0.8,3.2,0.8c8.7,0,19.4,14.1,23.9,29.9
	c4.8-3.6,12.5-8.8,12.5-8.8s-0.7-11.6-10.4-20.8C2226.7,961.2,2216.1,960.8,2213.1,960.9z"/>
<path style="fill:#5587BB;" d="M1245.1,232.6l14.7,2.7c0-0.3,0-0.6,0-0.9c0,0,0,0,0,0c0-0.1,0-0.2,0-0.3c0-0.2,0-0.4,0-0.6
	c0,0,0,0,0,0c0-0.2,0-0.4,0-0.6c0-0.1,0-0.1,0-0.2c0-0.5,0-1.1,0.1-1.7c0,0,0,0,0,0c0.3-8.2,0.7-24.3,1.2-38.8c0-0.6,0-1.2,0.1-1.7
	c0-0.2,0-0.4,0-0.5c0-1.1,0.1-2.1,0.1-3.2c0-0.8,0-1.6,0.1-2.3c0.1-1.7,0.1-3.4,0.1-5c0-0.1,0-0.2,0-0.4c0.1-4.9,0.3-9.1,0.4-12
	l-14.6,6.7L1245.1,232.6z"/>
<polygon style="fill:#5587BB;" points="1264.3,243.8 1245.1,234.3 1227.5,243.9 "/>
<polygon style="fill:#5587BB;" points="1325,226.3 1332.2,218.1 1280.9,218.1 1285.3,225.6 1321.3,226.3 "/>
<path style="fill:#5587BB;" d="M1337.6,215.5l13.9-3.9c-0.1-7.6-0.3-35-0.1-38.7c0.1-1.6,1.1-2.9,2.3-3.8
	c-6.5,1.6-15.3,3.7-15.3,3.7L1337.6,215.5z"/>
<path style="fill:#5587BB;" d="M1371.1,213.7l-4.9,4.4h-28.6l-1.3,16.2l15,2c0-0.3-0.1-0.6-0.1-0.9c-0.1-3.5-0.3-9.4-0.3-9.4
	s11.4-0.2,14.1,0c2.8,0.2,6.1,3.5,6.1,3.5V213.7z"/>
<path style="fill:#5587BB;" d="M1354.4,244c-5.7-2.4-17.9-7.7-18.1-7.3c-0.2,0.4-12.5,5.9-15.8,7.3H1354.4z"/>
<path style="fill:#5587BB;" d="M1516.1,195.6l-0.4-13.4c0,0,5.1,4.3,14.5,3.1c9.4-1.2,15.3-3,22.3-2.1c5.1,0.6,9,3,10.8,4.2
	c-0.5-5-2.1-14.5-7.5-14.6c-7.4-0.2-13.8,1.3-22.8,2.1c-9,0.9-17.8,2.6-21-3s-4.2-3.8-4.2,0c0,3.8,0,33.5,0,33.5
	S1511.9,199.2,1516.1,195.6z"/>
<g>
	<path style="fill:#5587BB;" d="M1508.5,211.2c0,0,13.5-8.9,23.7-8.9c7.6,0,13.3,5.1,15.8,9.8c3.2-1.5,7.3-3.5,7.7-3.9
		c0.8-0.6-9.8-8.3-22.2-8.1c-9.5,0.2-23.8,6.8-30.1,10L1508.5,211.2z"/>
	<path style="fill:#5587BB;" d="M1558.9,209.5c0,0,2.4,11.1-4.7,20.9c-7,9.8-19.8,9.4-26,8.4c-6.1-1-17.8-11-23.5-11
		c-2.8,0-6.3,3.4-6.2,3.6c1.2,1.8,4.9,6.3,9.2,6.8c5.8,0.7,5.7-1.5,17.2,2.8c10.3,3.9,48.2,5.8,50.8-18.9c0.8-7.6-0.8-13.6-4-18.3
		C1569.9,206.6,1558.9,209.5,1558.9,209.5z"/>
</g>
<polygon style="fill:#5587BB;" points="1326.3,177.3 1292.4,212.9 1303.8,212.9 1326.3,186.9 "/>
<g>
	<path style="fill:#6A9ED6;" d="M1472,212.7c-2.5,0-14.1,0.2-14.1,0.2s-0.3-36.4-0.2-40.6c0.1-3.4,4.3-5,6.7-5.7
		c1.1-0.5-33.1,0.2-33.1,0.2l-44.9,49.4l5.2,8.9l39.7,0.8c0,0-0.1,7.2-0.2,10.1c-0.2,4.3-7.2,7.6-7.2,7.6h39.6c0,0-5.9-3.5-6.1-8.6
		c-0.1-3.5-0.3-9.4-0.3-9.4s11.4-0.2,14.1,0c2.8,0.2,6.1,3.5,6.1,3.5v-18.9C1477.4,209.9,1474.4,212.7,1472,212.7z M1432.7,212.2
		h-33.9l33.9-35.5V212.2z"/>
</g>
<polygon style="fill:#5587BB;" points="1431.3,225.7 1438.5,217.4 1387.3,217.4 1391.7,225 1427.7,225.6 "/>
<path style="fill:#5587BB;" d="M1443.9,214.9l13.9-3.9c-0.1-7.6-0.3-35-0.1-38.7c0.1-1.6,1.1-2.9,2.3-3.8
	c-6.5,1.6-15.3,3.7-15.3,3.7L1443.9,214.9z"/>
<path style="fill:#5587BB;" d="M1477.4,213l-4.9,4.4h-28.6l-1.3,16.2l15,2c0-0.3-0.1-0.6-0.1-0.9c-0.1-3.5-0.3-9.4-0.3-9.4
	s11.4-0.2,14.1,0c2.8,0.2,6.1,3.5,6.1,3.5V213z"/>
<path style="fill:#5587BB;" d="M1460.7,243.3c-5.7-2.4-17.9-7.7-18.1-7.3c-0.2,0.4-12.5,5.9-15.8,7.3H1460.7z"/>
<polygon style="fill:#5587BB;" points="1432.7,176.7 1398.8,212.2 1410.1,212.2 1432.7,186.3 "/>
<path style="fill:#5587BB;" d="M1141.5,523.4c11,2.2,17.8,1.3,21.6-0.8c-2.1,0-4.2-0.4-6.3-1.4c-7-3.5-8.7-10.1-18.4-12.7
	c-7.2-2-21.1-3.4-29.2-3.7C1116.5,513.5,1127.1,520.5,1141.5,523.4z"/>
<path style="fill:#5587BB;" d="M1110,479.2c-2.6-20.5,12.2-75,103.6-76.1c73.9-0.9,69.5,2.6,103.6,6.6c34.1,3.9,51.6,6.6,51.6,6.6
	s-0.8-0.3-10.4,9.3l13.1-9.7c0,0-61.2-9.2-106.2-16.6c-45-7.4-83.9,0-101,5.2c-17,5.2-46.3,21.9-53.4,52.5
	c-4.5,19.5-1.6,29.1,3.4,34.2C1112.3,488,1110.6,484,1110,479.2z"/>
<path style="fill:#5587BB;" d="M1325.5,516c24.4-53.3,50.2-80.8,65.9-96.5l-2.1-1.3c0,0-32.3,19.7-61.2,69.9
	c-28.8,50.3-51.3,103.2-88.1,126.3c-34.6,21.7-56.3,35-101.8,34.8c11.9,1.7,25.3,2.3,40.5,1.5C1251.6,646.6,1301,569.3,1325.5,516z"
	/>
<path style="fill:#5587BB;" d="M1082,615.2c2.3-3.6,5.5-11.7,0.9-26.2c-4.4-13.9-9.5-18.8-14-19.8c-2.9,4.2-3.7,12.8-1.3,23.8
	C1070,603.9,1076.6,611,1082,615.2z"/>
<path style="fill:#5587BB;" d="M1562.8,452.2c-1.3-5.7-11.4-6.1-11.4,0c0,3.1-0.6,5.9-1.4,8c4.3,4.4,10.8,8.6,16.3,6.7
	c2.5-0.9,4.2-2.5,5.1-4.6C1567.2,459.9,1563.8,456.3,1562.8,452.2z"/>
<path style="fill:#5587BB;" d="M1426,558.8l9.9-10.7c11.4-17.8,54.5-85.4,60.2-93.4c6.6-9.2,14.8-17,27.2-19.7
	c12.5-2.6,21.3,3.6,21.3,3.6s-1.1,4.6-0.4,9.9c3.9-3.1,8.8-6.6,11.6-7.3c0,0-9.2-10.5-28-9.2c-18.8,1.3-44.1,17-69.1,59.9
	C1433.9,534.8,1426,558.8,1426,558.8z"/>
<path style="fill:#5587BB;" d="M1490.9,611.8c-7.5-9.2,10.5-46.9,18.7-63.3c6-11.9-5.3-13.4-14.9-12.5c1.4,1.9,2,4,1.7,5.9
	c-1,6.6-12.8,31.8-19.3,47.5c-6.6,15.7-10.8,40,25.5,41c9.7,0.3,18.9-3.2,27.3-8.3C1516.6,625.8,1498.2,620.7,1490.9,611.8z"/>
<path style="fill:#5587BB;" d="M1677.5,604.2c0.7-1.4,0.2-4.2-0.8-6.6c-11.5,13.6-25.3,23.5-45,27.9c-5.7,1.9-11.9,2.9-18.5,2.3
	c-3.6,0.2-7.4,0.2-11.4,0c-37.4-1.3-27.9-49.8-27.9-49.8l-16,18.1c-0.5,20.8,11.2,38.3,42.2,42.1
	C1653.9,644.9,1675.8,607.5,1677.5,604.2z"/>
<path style="fill:#5587BB;" d="M1576.8,575.8c0,0,9.5,20.7,35.4,9.2c25.9-11.5,33.4-32.5,33.1-44.9c-0.1-2.5-0.5-4.3-1.1-5.5
	c-0.5,6.1-3.8,14.8-11,25.8c-6.7,10.3-16.4,16-24.5,19.1c-1.3,1.9-3.4,3.5-6.6,3.5c-2.2,0-4.4,0.1-6.6,0c-1.3,0.2-2.1,0.3-2.1,0.3
	c0-0.1,0-0.2,0-0.4C1588.2,582.5,1582.9,581,1576.8,575.8z"/>
</svg>
