<?xml version="1.0" encoding="utf-8"?>
<!-- Generator: Adobe Illustrator 16.0.3, SVG Export Plug-In . SVG Version: 6.00 Build 0)  -->
<!DOCTYPE svg PUBLIC "-//W3C//DTD SVG 1.1//EN" "http://www.w3.org/Graphics/SVG/1.1/DTD/svg11.dtd">
<svg version="1.1" id="Layer_1" xmlns="http://www.w3.org/2000/svg" xmlns:xlink="http://www.w3.org/1999/xlink" x="0px" y="0px"
	 width="2800px" height="1200px" viewBox="0 0 2800 1200" enable-background="new 0 0 2800 1200" xml:space="preserve">
<rect y="-1.4" fill="#5BA466" width="2800" height="1200.9"/>
<rect y="-1.4" fill="none" width="2800" height="1200.9"/>
<path d="M359.588,537.47l72.965,65.175c0,0,13.299-89.062,72.705-89.062c20.514,0,30.462,6.749,30.462,6.749l-29.164,33.758
	c0,0-54.188,74.264-58.902,107.501c-4.714,33.236-8.824,84.435,40.467,116.328c22.071,14.281,34.535,18.436,54.529,18.436
	c44.921,0,125.242-72.878,125.242-169.816c0-46.048-3.808-68.205-3.808-68.205s10.386-5.193,20.426-5.193
	c16.273,0,29.083,17.657,29.083,17.657s-12.463,72.013-37.045,122.214s-68.205,128.446-91.055,149.565
	c-22.851,21.118-84.479,94.86-131.39,111.652c0,0,40.68,36.526,78.418,36.526c78.938,0,220.193-180.033,220.193-180.033
	s29.083,40.854,53.317,40.854c24.235,0,57.472-61.626,57.472-61.626s24.928,23.195,40.508,23.195
	c33.582,0,79.629-81.015,79.629-81.015s25.62,25.273,47.086,25.273c33.236,0,91.056-86.207,91.056-86.207
	s25.62,26.312,49.508,26.312c23.89,0,57.472-59.203,57.472-59.203s21.119,17.658,38.084,17.658
	c55.395,0,100.402-130.87,100.402-130.87s22.503,25.619,49.162,25.619s61.28-54.354,61.28-54.354l-60.729-58.393
	c0,0-23.056,28.963-27.557,30.693c0,0,9.001-36.006,7.271-42.583c-1.729-6.578-49.272-52.899-55.579-51.402
	c-6.306,1.498-32.705,39.978-35.476,58.326c-2.769,18.35,3.81,34.622,6.232,39.123c2.424,4.501-22.503,50.548-22.503,50.548
	l-41.346-43.323l-28.244,40.206l-17.656,26.659l-37.393-32.545l-52.623,73.607l-11.425,3.254c0,0-2.993-12.18-34.041-37.422
	l-34.51,14.225l-60.241,61.28l-23.922,32.891l-39.091-31.159l-48.468,60.241c0,0-52.625,58.856-66.82,74.09
	c-14.195,15.234-20.773,18.695-20.773,18.695s41.546-55.048,113.905-176.225c72.358-121.175,124.144-177.262,188.267-226.425
	c64.124-49.162,158.295-98.671,158.295-98.671l-43.026-59.587c0,0-54.261,6.27-184.438,122.252
	C875.625,460.697,835.463,557.983,835.463,557.983l-47.777,75.82l-2.771,5.193c0,0,6.231-22.505,3.116-63.357
	c-3.116-40.854-55.947-88.605-90.639-103.333l-11.494,3.276c0,0-54.091-16.356-102.135,14.194c0,0-36.354-36.006-58.511-41.545
	c-22.157-5.54-72.358-22.851-123.252,18.349C402.001,466.582,366.338,492.375,359.588,537.47z"/>
<path d="M951.447,529.246c0,0,51.632,44.645,56.777,44.316c5.146-0.327,24.461-15.37,21.812-33.929
	c-0.346-2.424-54.393-48.883-54.393-48.883L951.447,529.246z"/>
<path fill="#DC7CE0" d="M1183.408,220.077c-6.232,1.731-106.337,31.569-236.421,178.789
	c-130.084,147.221-133.28,207.297-228.231,327.936C596.573,882.041,523.24,923.097,523.24,923.097S733.501,717.416,733.501,544.48
	c0-50.895-20.773-79.456-76.86-79.456c-42.064,0-75.302,19.733-75.302,19.733s-32.717-49.335-105.942-49.335
	c-45.646,0-81.513,26.722-99.189,52.452c-16.915,24.619-16.619,48.297-16.619,48.297s22.332-90.881,129.312-90.881
	c53.489,0,83.61,45.44,83.61,45.44s-133.466,89.584-133.466,208.508c0,44.144,25.447,62.839,45.181,62.839
	c48.298,0,122.561-83.091,122.561-170.338c0-87.246-20.253-98.152-20.253-98.152s29.082-16.618,65.954-16.618
	s58.164,27.005,58.164,49.336c0,96.074-27.266,122.952-73.226,217.077c-64.916,132.946-183.32,210.845-183.32,210.845
	s75.216,20.624,259.142-195.266C808.335,647.35,844.166,542.971,959.45,403.54c115.284-139.431,226.673-176.041,226.673-176.041
	C1194.141,224.924,1189.64,218.346,1183.408,220.077z M593.284,578.236c0,88.962-72.493,174.492-108.02,174.492
	c-23.37,0-37.392-24.795-37.392-50.894c0-108.02,129.831-204.094,129.831-204.094S593.284,518.515,593.284,578.236z"/>
<path fill="#DC7CE0" d="M1411.91,438.192c-17.59,31.664-50.203,43.97-66.82,43.97c-16.619,0-24.928-6.231-24.928-6.231
	s4.847-7.271,18.696-51.933c13.849-44.662,7.616-49.509,0-49.509c-7.617,0-34.621,31.853-37.392,62.665
	c-2.77,30.812,7.271,38.431,7.271,38.431s-10.387,27.352-36.007,66.474s-54.701,65.781-64.742,65.781s-9.348-9.693-0.345-35.313
	c9.001-25.619,41.891-93.479,41.891-93.479l-21.119,4.154c0,0-10.041,24.927-33.929,70.974
	c-23.889,46.046-67.512,89.669-83.438,89.669c-7.963,0-4.154-29.081,14.194-61.626c18.349-32.544,39.469-68.551,39.469-68.551
	l-27.696,12.464c0,0-11.08,20.081-37.393,61.144c-26.312,41.062-95.555,110.58-113.904,110.58
	c-21.812,0-13.849-35.659-13.849-35.659c53.663-13.851,100.056-74.92,100.056-98.673c0-7.615-7.271-13.155-11.771-13.155
	c-45.7,0-92.786,77.553-119.444,117.713c-26.659,40.161-67.857,90.362-82.745,90.362c-24.67,0,50.894-128.1,50.894-128.1
	l-26.313,7.962c0,0-20.427,35.661-54.354,82.4c-33.929,46.739-96.248,97.285-96.248,97.285s-0.693,8.655,34.275-21.465
	c34.967-30.121,78.245-85.516,78.245-85.516s-26.659,57.818,3.808,57.818c39.468,0,102.134-102.481,102.134-102.481
	s-5.54,43.278,30.467,43.278c22.87,0,42.148-22.74,62.319-43.97c27.771-29.229,52.971-59.55,52.971-59.55
	s-21.188,48.471,7.963,48.471c34.275,0,79.63-67.304,79.63-67.304s-0.347,28.181,18.35,28.181c18.004,0,48.124-23.196,77.552-67.857
	s36.699-65.78,36.699-65.78s10.386,7.271,25.966,7.271c44.662,0,72.705-42.238,75.129-46.739
	C1419.872,437.846,1413.64,435.076,1411.91,438.192z M1003.722,600.221c21.119-25.271,54.355-42.931,57.818-41.892
	c3.462,1.039,2.077,27.006-30.121,57.817c-32.198,30.812-58.511,36.007-58.511,36.007S982.604,625.495,1003.722,600.221z
	 M1313.238,464.851c0,0-8.655-11.077,0-38.603c11.165-35.504,22.158-38.604,22.158-38.604
	C1337.473,404.609,1313.238,464.851,1313.238,464.851z"/>
<path fill="#DC7CE0" d="M954.906,530.286c-6.579,0-9.35-9.002-4.501-21.119c4.848-12.117,16.619-19.389,22.504-19.389
	s10.687,12.821,0.866,26.485C965.811,527.343,958.82,530.286,954.906,530.286z"/>
<path d="M2002.432,337.444l-24.927-4.155c0,0-73.224,39.469-107.5,70.109c-34.274,30.64-136.062,158.911-140.217,166.441
	s-9.867-41.286-83.61-40.247c-73.744,1.038-100.75,100.229-100.229,112.693c0.52,12.463,5.713,95.035,58.684,116.328
	c0,0-45.181,89.843-82.053,127.753c-36.871,37.911-71.147,65.954-109.577,60.241s-49.854-20.772-49.854-62.839
	c0-42.063,43.104-149.046,122.041-149.046c34.793,0,36.352,26.485,36.352,26.485l-10.905,8.829l40.854,61.8
	c0,0,14.541-18.696,14.541-55.395c0-36.699-32.196-92.156-55.395-105.802c0,0-32.891-9.143-45.7-6.373
	c-12.811,2.771-62.318,20.428-90.017,49.511c-27.697,29.081-59.895,95.555-55.395,130.521
	c4.501,34.968,27.351,146.449,140.563,146.449c110.096,0,208.075-199.42,208.075-199.42s71.319,62.317,85.169,76.858l27.695-14.194
	c0,0,104.559-213.788,169.992-320.769c65.436-106.98,92.439-158.914,92.439-158.914L2002.432,337.444z M1626.963,730.571
	c0,0-16.1-16.101-16.1-70.628c0-54.529,46.738-84.649,85.169-84.649c16.716,0,25.446,8.31,25.446,8.31L1626.963,730.571z
	 M1753.677,711.876c-3.635,20.254-21.292,73.225-21.292,73.225h-59.722l81.014-134.505
	C1753.677,650.596,1757.312,691.622,1753.677,711.876z M1796.78,672.407c0,0-10.386-33.237-19.216-51.413
	c0,0,88.287-135.023,151.123-179.166L1796.78,672.407z"/>
<path d="M1851.829,744.074c0,0,41.026,37.391,50.894,35.832c9.867-1.558,60.242-66.991,60.242-66.991s24.928,28.562,31.678,28.562
	c6.752,0,7.789-1.816,7.789-1.816s5.453,4.415,11.166,4.415c10.387,0,28.303-31.159,28.303-31.159l17.398,13.762l16.877-8.829
	l29.083-50.374l28.822,27.783l19.475-9.088l43.623-81.793c0,0,26.485,36.872,57.386,36.872c30.899,0,74.004-69.069,74.004-69.069
	s20.513,16.099,45.959,16.099c39.47,0,59.724-45.7,59.724-68.811c0-40.636-6.492-56.605-34.795-84.13
	c-27.382-26.626-37.132-39.728-37.132-39.728l-7.791,5.972c0,0-20.513,45.181-29.082,59.203
	c-8.567,14.021-48.037,75.821-48.297,76.859c-0.259,1.039,13.503-24.929-18.176-48.816s-26.39-18.7-26.39-18.7
	s-13.339,3.9-16.455,6.496c-3.116,2.597-44.923,42.585-55.827,61.8l-7.79-4.674c0,0,0.779-33.756-8.049-27.784
	c-8.829,5.974-50.115,50.895-54.011,56.866c-3.895,5.973-42.845,55.048-42.845,55.048l-29.602-25.187l-47.644-39.247
	c0,0-11.895,33.497-14.936,39.767C1925.832,654.231,1851.829,744.074,1851.829,744.074z"/>
<path fill="#DC7CE0" d="M1857.021,649.558c0,0,0,16.1-1.559,22.851c-18.416,79.805-92.958,100.748-92.958,100.748
	c50.374-112.692,239.927-435.711,239.927-435.711l-21.812-9.867c0,0-70.108,20.772-153.72,110.097
	c-57.797,61.746-95.035,123.425-95.035,123.425s-28.044-34.621-75.303-34.621c-58.164,0-115.81,52.972-115.81,110.615
	c0,108.021,57.125,124.639,57.125,124.639s-89.843,181.764-177.089,181.764c-45.7,0-92.959-36.872-92.959-102.826
	c0-92.439,87.247-169.819,139.179-169.819c9.349,0,58.684-2.596,58.684,43.104s-15.061,56.087-15.061,56.087l8.31,2.077
	c0,0,16.618-13.502,16.618-52.971c0-30.121-18.176-58.685-66.474-58.685c-60.761,0-153.72,72.705-153.72,177.608
	c0,49.854,38.43,114.251,105.941,114.251c96.075,0,188.515-182.282,188.515-182.282c59.203,30.12,114.252,20.772,114.252,20.772
	l-16.619,34.794l36.354-12.464l12.982-30.12c111.135-35.834,106.461-128.791,106.461-128.791L1857.021,649.558z M1607.229,752.383
	c0,0-53.49-22.851-53.49-108.277c0-57.387,55.566-108.279,102.307-108.279c39.988,0,66.993,34.274,66.993,34.274
	C1694.037,609.626,1607.229,752.383,1607.229,752.383z M1727.711,781.465c-82.572,6.751-111.136-23.369-111.136-23.369
	l114.252-178.646c0,0,14.021,7.271,19.733,74.783C1756.273,721.742,1727.711,781.465,1727.711,781.465z M1751.316,745.632
	c0,0,10.949-36.966,6.516-105.682c-3.636-56.347-21.812-68.812-21.812-68.812s42.065-61.8,95.557-119.964
	c53.49-58.164,80.495-76.341,142.295-110.616l6.751,2.597C1980.621,343.156,1772.325,706.683,1751.316,745.632z"/>
<path fill="#DC7CE0" d="M1851.829,744.074c0,0,84.649-115.29,99.71-152.682c0,0-3.375-7.271-3.375-16.619
	c0-9.348,11.684-22.07,19.215-22.07c7.529,0,9.087,10.646-2.598,32.718c0,0,17.918,8.828,37.649-3.896l15.58,11.166
	c0,0-57.128,105.94-44.401,105.94c5.973,0,42.403-35.311,76.342-90.362c23.369-37.909,31.158-74.781,31.158-74.781l22.071-1.817
	l-10.646,24.928c0,0,36.093-54.011,52.19-54.011c24.668,0,15.841,30.381,15.841,30.381s41.287-63.876,65.175-63.876
	c17.138,0,15.319,14.8,15.319,19.476c0,12.202-51.933,104.644-30.899,104.644s52.798-36.612,83.957-88.545
	s59.203-109.058,59.203-109.058h9.002c0,0-4.155,17.311-1.384,22.504c2.768,5.192,20.426,27.696,20.426,58.854
	c0,31.159-31.16,74.783-70.282,74.783c-10.386,0-12.116-8.31-12.116-12.464c0-4.155,7.271-26.312,25.271-26.312
	c4.849,0,12.676,14.336,7.619,13.156c-10.388-2.425-24.93,1.73-24.93,13.503c0,2.77,3.462,4.847,6.924,4.847
	c3.465,0,49.511-14.459,49.511-60.935c0-22.639-14.195-59.896-14.195-59.896s-23.196,51.933-49.163,88.631
	c-25.966,36.699-66.127,90.017-92.438,90.017c-13.156,0-21.467-12.118-21.467-24.581c0-24.236,45.008-94.863,31.506-94.863
	c-10.387,0-53.664,50.548-72.705,91.746c-19.043,41.2-32.545,69.592-32.545,69.592l-23.541,9.347c0,0,35.66-82.053,43.623-100.058
	c7.963-18.002,12.811-37.391,7.963-37.391s-40.162,33.93-60.588,72.014c-20.427,38.083-43.276,88.632-43.276,88.632l-26.658,11.426
	l12.118-27.698c0,0-34.621,48.124-56.087,48.124c-10.041,0-14.541-6.231-14.541-15.58c0-23.196,42.93-92.093,42.93-92.093
	s-26.09,5.429-35.312,0C1958.982,600.914,1879.354,729.014,1851.829,744.074z"/>
</svg>
