<?xml version="1.0" encoding="utf-8"?>
<!-- Generator: Adobe Illustrator 16.0.4, SVG Export Plug-In . SVG Version: 6.00 Build 0)  -->
<!DOCTYPE svg PUBLIC "-//W3C//DTD SVG 1.1//EN" "http://www.w3.org/Graphics/SVG/1.1/DTD/svg11.dtd">
<svg version="1.1" id="Layer_1" xmlns="http://www.w3.org/2000/svg" xmlns:xlink="http://www.w3.org/1999/xlink" x="0px" y="0px"
	 width="2800px" height="1200.9px" viewBox="0 0 2800 1200.9" enable-background="new 0 0 2800 1200.9" xml:space="preserve">
<rect fill="#CF3C65" width="2800" height="1200.9"/>
<path fill="#EE9F78" d="M1226.722,144.888l-2.722,4.083c0,0,4.355,3.539,5.444,7.077s4.627,22.864,4.355,39.739
	c-0.272,16.876-0.816,30.213-1.089,34.84c-0.272,4.627-7.349,11.16-7.349,11.16l2.178,3.267h32.935l2.994-2.178
	c0,0-6.26-6.26-6.533-13.337c-0.272-7.077,0.544-84.65,0.544-84.65H1226.722z"/>
<path fill="#EE9F78" d="M1278.166,168.841v-19.87c0,0,12.793-2.994,27.763-2.722c14.97,0.272,46.272,4.355,47.361,25.313
	s-11.977,20.958-11.977,20.958s17.148,7.622,16.332,27.219c-0.816,19.597-21.23,29.396-43.822,28.58
	c-22.592-0.817-35.657-6.26-35.657-6.26v-14.426c0,0,17.692,8.438,31.574,8.438c13.882,0,20.687-8.438,20.687-16.876
	c0-8.438-9.527-19.325-20.687-19.325s-17.42,3.267-17.42,3.267l0.272-18.509c0,0,8.438,0.816,16.604,0.544
	c8.166-0.272,13.065-5.171,13.065-10.887c0-5.716-5.171-13.337-19.597-14.154C1288.236,159.314,1278.166,168.841,1278.166,168.841z"
	/>
<path fill="#EE9F78" d="M1416.436,149.788c-20.687-0.314-46.545,13.065-46.272,51.716c0.272,38.651,30.213,47.456,49.266,46.864
	c19.054-0.592,48.178-8.411,48.722-49.276C1468.695,158.226,1434.399,150.06,1416.436,149.788z M1421.881,238.793
	c-17.42,0.817-26.402-15.242-26.402-39.705s14.426-37.052,23.408-37.052c18.509,0,23.953,22.592,23.953,37.052
	S1439.301,237.977,1421.881,238.793z"/>
<path fill="#EE9F78" d="M1527.49,151.148c-16.604,0-42.733,8.982-42.733,34.84s21.23,35.384,38.65,35.384
	c19.87,0,29.124-10.615,29.124-10.615s1.089,31.846-26.675,31.029c-27.763-0.816-35.656-15.242-35.656-15.242l-0.816,15.258
	c0,0,17.42,10.328,37.834,10.328s51.716-10.615,51.716-50.491C1578.934,161.764,1545.183,151.148,1527.49,151.148z
	 M1529.668,207.764c-18.51,0-21.503-17.42-21.503-22.319s2.177-20.687,19.053-20.687c22.592,0,25.313,27.763,25.313,27.763
	S1548.177,207.764,1529.668,207.764z"/>
<path fill="#EA9364" d="M1263.467,242.876c0,0-6.26-6.26-6.533-13.337c-0.272-7.077,0.544-84.65,0.544-84.65h-30.757l-2.722,4.083
	c0,0,2.164,1.763,3.823,4.042c4.05,2.245,9.956,4.43,17.136,4.267c0,0-1.089,59.881,0,72.13c0.724,8.146,5.059,13.038,8.763,15.644
	h6.752L1263.467,242.876z"/>
<path fill="#EA9364" d="M1341.313,192.521c0,0,13.065,0,11.977-20.958s-32.391-25.041-47.361-25.313
	c-14.97-0.272-27.763,2.722-27.763,2.722v6.785c5.839-1.064,19.505-2.952,30.757-2.014c13.065,1.089,30.213,10.343,30.485,19.598
	c0.272,9.254-5.171,17.42-13.065,19.598c0,0,20.958,8.166,18.237,26.402c-2.722,18.236-16.36,27.763-34.173,25.313
	c-14.651-2.015-27.188-11.206-32.241-15.467v12.875c0,0,13.065,5.443,35.657,6.26c22.592,0.816,43.006-8.982,43.822-28.58
	C1358.461,200.143,1341.313,192.521,1341.313,192.521z"/>
<path fill="#EA9364" d="M1308.395,193.209c8.71-0.998,12.414-4.809,15.136-12.702c2.229-6.464-0.636-0.545-7.525,3.085
	c-1.897,0.92-4.182,1.493-6.811,1.58c-8.166,0.272-16.604-0.544-16.604-0.544l-0.075,5.133
	C1296.074,191.97,1302.617,193.87,1308.395,193.209z"/>
<path fill="#EA9364" d="M1412.973,237.527c-11.565-4.238-17.494-18.565-17.494-38.439c0-22.048,11.296-31.375,14.006-33.386
	c6.771-5.201,14.348-7.425,14.348-7.425c-11.023-2.177-37.063,6.352-38.969,41.736s23.953,43.55,34.568,43.822
	C1426.538,244.018,1420.059,243.71,1412.973,237.527z"/>
<path fill="#EA9364" d="M1468.15,199.091c0.437-32.757-21.183-42.991-33.765-46.63c-7.832-0.761-11.875,0.736-11.875,0.736
	c6.447,1.633,35.299,13.609,33.938,48.177c-1.361,34.568-19.87,42.734-24.497,44.367c-1.188,0.419-0.502,0.717,1.26,0.873
	C1450.023,242.661,1467.728,230.867,1468.15,199.091z"/>
<g>
	<path fill="#EA9364" d="M1549.079,198.887c-3.227,4.18-9.136,8.877-19.411,8.877c-18.51,0-21.503-17.42-21.503-22.319
		c0-3.925,1.292-11.357,6.815-16.577c5.501-4.646,9.924-7.232,9.924-7.232c-7.35-1.429-25.994,5.988-25.994,25.313
		s17.42,27.763,30.213,26.946c12.793-0.816,25.858-8.347,26.946-19.416c0.278-2.827-1.298-7.155-1.225-7.462
		C1554.655,187.692,1552.667,193.276,1549.079,198.887z"/>
	<path fill="#EA9364" d="M1556.699,190.044C1556.726,189.95,1556.724,189.944,1556.699,190.044L1556.699,190.044z"/>
</g>
<path fill="#EA9364" d="M1578.934,201.64c0-25.454-13.752-38.984-28.303-45.442c-7.833-0.93-15.632-1.353-21.508-0.551
	c0,0,38.379,8.473,37.562,44.112c-0.817,35.639-20.037,51.154-38.871,49.521c-16.879-1.463-32.614-12.761-37.855-18.226
	l-0.575,10.75c0,0,17.42,10.328,37.834,10.328S1578.934,241.515,1578.934,201.64z"/>
<path fill="#EE9F78" d="M659.882,619.182c-7.549-3.624-22.648-2.114-35.633,2.719c-12.984,4.831-22.347,9.36-28.99,24.761
	c-6.643,15.401-19.93,52.846-41.673,161.558c-21.742,108.711-24.46,147.667-25.819,175.298c-1.359,27.63,1.812,56.62,10.872,66.133
	c9.059,9.512,33.972,9.965,46.202,0c12.229-9.966,47.562-41.673,78.363-177.11c0,0-26.725,151.291,25.366,147.668
	c52.091-3.624,82.893-75.48,104.182-183.143S819.478,715.36,824.46,663.27s-31.708-77.003-62.056-78.816
	c0,0,14.495,26.725,14.948,87.422c0.453,60.697-8.967,180.813-43.485,274.951c-9.965,27.178-24.913,48.014-37.143,45.295
	c-12.229-2.717-9.513-15.854,13.136-117.771c22.648-101.917,32.614-182.344,26.725-226.936
	c-3.171-24.008-35.784-22.648-46.656-21.741c-10.872,0.905-9.965,7.7-9.965,16.306c0,8.606-5.888,74.286-37.596,180.733
	c-31.708,106.447-55.186,202.229-72.475,197.04c-13.589-4.077,8.606-114.146,33.972-204.288
	C629.231,725.326,659.882,619.182,659.882,619.182z"/>
<path fill="#EE9F78" d="M884.705,718.079l-50.732,14.947c0,0-28.277,112.735-31.255,185.715
	c-2.718,66.587,18.748,64.74,27.631,62.964c11.324-2.266,27.178-5.437,46.203-30.35c0,0-7.7,77.457-20.837,115.054
	c-13.135,37.596-30.796,54.809-30.796,54.809s26.72,7.247,49.368-19.93c22.648-27.178,32.614-64.775,44.391-144.949
	c11.777-80.176,37.596-256.379,37.596-256.379l-54.356,14.042c0,0-25.784,239.889-51.261,229.193
	C831.254,935.049,884.705,718.079,884.705,718.079z"/>
<path fill="#EE9F78" d="M1033.277,676.858l-52.091,15.854c0,0-1.812,56.168-13.589,124.113
	c-11.777,67.945-26.272,141.777-26.272,141.777l54.356-15.4c0,0,36.69-160.802,51.638-168.503c0,0-13.136,50.732-16.76,91.047
	c-3.624,40.313,3.624,61.149,21.289,59.791c17.666-1.359,52.544-25.366,77.005-86.97c24.46-61.603,3.17-61.603,3.17-61.603
	s-48.468,110.976-59.338,107.353c-10.871-3.624,5.889-72.022,17.666-116.413s24.007-79.722,24.913-83.345
	c0.906-3.624-43.485-19.024-47.108-13.137c-3.624,5.889-46.655,88.781-46.655,88.781S1033.73,693.619,1033.277,676.858z"/>
<path fill="#EE9F78" d="M1142.441,651.04c0,0-1.359,44.391-9.512,115.505c-8.153,71.116-23.554,144.483-23.554,144.483
	l51.638-14.934c0,0,13.589-112.789,41.673-143.591c0,0-13.533,46.235-14.948,73.835c-1.812,35.33,3.624,58.432,34.425,53.901
	s51.185-54.809,53.903-62.509c2.718-7.7-14.948-10.872-14.948-10.872s-16.759,47.109-24.913,46.656
	c-8.153-0.453-5.435-34.426,7.701-100.559c13.136-66.134,20.837-105.088,22.195-110.071c1.359-4.981-34.425-16.759-40.767-10.87
	s-35.331,58.885-35.331,58.885s5.888-35.784,6.341-56.168L1142.441,651.04z"/>
<path fill="#EE9F78" d="M1390.214,678.67c14.495-84.704-23.554-86.969-35.332-86.969c-34.216,0-68.397,57.073-86.969,144.496
	c-18.572,87.422,0,126.377,43.484,120.941c43.485-5.435,59.339-42.579,64.321-55.261c4.983-12.684-9.059-24.461-9.059-24.461
	s-24.876,60.645-51.639,55.715c-17.212-3.171-11.324-46.203-11.324-46.203S1375.719,763.375,1390.214,678.67z M1321.363,691.807
	c11.324-38.502,26.791-69.798,34.878-72.738c9.965-3.623,23.554,30.613,2.265,80.892c-21.29,50.279-48.015,62.51-50.279,62.057
	S1310.039,730.31,1321.363,691.807z"/>
<path fill="#EE9F78" d="M1401.991,848.043c0,0,22.648,16.043,61.149-20.837c40.033-38.346,59.792-144.043,66.134-179.374
	c6.341-35.331,20.383-120.036,20.383-120.036s3.625,96.028,4.53,135.437s-5.889,110.978-18.118,124.565
	c0,0,40.312-12.683,74.738-141.325c34.426-128.642,35.331-132.266,35.331-132.266s-11.324,102.372-13.135,153.555
	c-1.812,51.186-1.812,91.953,30.801,91.046c32.614-0.904,38.048-35.331,42.58-47.107c4.528-11.777-9.061-28.056-9.061-28.056
	s-14.946,43.909-25.366,43.909c-10.418,0-16.307-42.126,8.606-173.938c24.913-131.813,34.425-182.545,36.237-188.887
	c1.812-6.342-61.15-22.196-65.681-10.419c-4.529,11.778-48.466,204.288-48.466,204.288s-9.966-35.331-8.153-97.84
	c1.812-62.51,3.623-98.294,3.623-98.294l-61.604,18.119c0,0-11.324,125.924-28.537,223.764
	c-17.213,97.842-23.462,159.228-51.186,202.476C1429.076,850.07,1401.991,848.043,1401.991,848.043z"/>
<path fill="#EE9F78" d="M1814.523,688.746c-10.573-0.795,3.742-53.598,12.803-97.082c9.059-43.485,23.1-103.729,23.1-103.729
	s-6.341,3.624-21.289,0c-14.946-3.624-25.366-7.248-38.502-7.7c-13.135-0.454-69.47,3.115-91.951,124.565
	c-22.482,121.45,13.589,136.796,32.613,136.796c19.023,0,45.296-17.666,47.561-33.973c0,0,8.607,21.29,26.726,13.137
	c18.118-8.154,40.767-32.161,40.767-32.161l4.076-45.75C1850.426,642.849,1824.607,689.505,1814.523,688.746z M1782.935,612.501
	c-6.794,36.689-31.708,101.464-45.296,100.559c-13.59-0.906-6.342-67.039,3.623-108.713c9.965-41.673,35.331-92.404,44.392-92.404
	C1799.694,511.942,1789.729,575.811,1782.935,612.501z"/>
<path fill="#EE9F78" d="M1878.059,451.698c0,0-7.249,60.245-17.666,116.866c-10.42,56.62-28.99,145.854-28.99,145.854l49.373-14.494
	c0,0,28.99-144.043,50.732-158.99c0,0-11.778,38.501-13.59,73.379c-1.811,34.879-6.342,69.305,30.35,66.135
	c36.689-3.172,52.09-56.622,52.996-60.698c0.906-4.077-13.136-22.195-13.136-22.195s-23.101,63.868-34.425,59.792
	c-11.325-4.076,3.624-62.057,16.76-110.071c13.135-48.014,31.255-95.123,33.519-99.199c2.265-4.077-33.066-23.101-41.673-14.948
	c-8.605,8.154-44.564,68.851-44.564,68.851l15.122-68.397L1878.059,451.698z"/>
<path fill="#EE9F78" d="M2078.721,395.53c-15.4,0-60.245,15.261-82.893,125.019s-6.794,138.153,28.537,136.343
	c35.331-1.812,74.286-55.073,85.158-130.64C2119.941,453.827,2119.941,395.53,2078.721,395.53z M2089.594,523.266
	c-9.967,53.903-34.427,101.917-50.281,101.917c-15.854,0-17.665-31.254,0-105.541c17.666-74.286,36.774-95.667,44.391-94.216
	C2093.216,427.237,2099.558,469.364,2089.594,523.266z"/>
<path fill="#EE9F78" d="M2163.426,413.649c0,0-14.495,96.481-62.962,97.387c-48.468,0.906-48.468-41.219-48.921-51.638
	c-0.452-10.417,28.084-35.784,28.084-35.784c-4.053,5.926-10.871,16.76-9.059,31.708c1.811,14.948,8.605,37.144,30.801,35.784
	c22.195-1.358,40.35-57.536,41.22-90.593c0.453-17.213-4.076-42.126-4.076-42.126s8.153,8.153,22.195,9.06
	s52.545,2.717,55.262,1.812c2.717-0.906,17.666,28.536,14.042,43.031c-3.625,14.494-39.861,102.823-46.203,127.736
	c-6.341,24.913-13.137,51.638-2.717,51.638c10.418,0,24.459-26.271,28.083-38.049c3.624-11.777,4.983-22.195,5.436-24.46
	c0.452-2.266,13.589,9.965,12.684,15.854c-0.907,5.888-16.761,67.492-51.186,71.115c-34.425,3.624-41.22-5.632-32.614-43.357
	c8.607-37.723,43.031-156.4,43.031-156.4L2163.426,413.649z"/>
<path fill="#EA9364" d="M569.894,1019.754c-13.589-4.077,8.606-114.146,33.972-204.288c23.688-84.176,51.981-182.298,55.621-194.912
	c-15.189,12.035-36.731,48.62-64.625,168.488C550.169,981.1,544.528,1014.317,569.894,1019.754z"/>
<path fill="#EA9364" d="M690.092,971.475L690.092,971.475c1.832-16.174,8.198-45.061,19.768-97.123
	c22.648-101.917,32.614-182.344,26.725-226.936c-3.171-24.008-35.784-22.648-46.656-21.741c-5.658,0.471-8.122,2.54-9.188,5.627
	c0.304,0.383,0.792,0.725,1.488,1.016c10.249,4.273,30.832,11.802,32.312,28.085c1.509,16.608,1.812,67.944-17.213,169.711
	C680.907,917.952,672.578,953.356,690.092,971.475z"/>
<path fill="#EA9364" d="M792.752,837.064c21.29-107.662,26.725-121.704,31.708-173.795c4.974-51.995-31.574-76.912-61.891-78.804
	c11.489,11.277,42.345,50.9,35.015,132.104c-7.851,86.971-30.897,211.21-75.542,274.021c0,0,9.236-11.533,25.634-14.856
	C766.779,943.579,781.173,895.622,792.752,837.064z"/>
<path fill="#EA9364" d="M850.656,943.195c-19.402-8.146,34.048-225.116,34.048-225.116l-20.359,5.998
	c-4.359,23.655-23.667,128.107-29.015,151.632C829.292,902.284,824.994,962.328,850.656,943.195z"/>
<path fill="#EA9364" d="M956.273,699.96l-54.356,14.042c0,0-0.889,8.267-2.498,21.656l34.659-9.426
	c0,0-25.97,202.021-36.237,258.189c-10.268,56.168-32.916,119.885-72.923,136.796c0,0,26.72,7.247,49.368-19.93
	c22.648-27.178,32.614-64.775,44.391-144.949C930.454,876.163,956.273,699.96,956.273,699.96z"/>
<path fill="#EA9364" d="M1033.277,676.858l-52.091,15.854c0,0-0.168,5.213-0.734,14.369l37.273-10.141l-17.222,114.446
	l21.112-51.404c-0.075,0.145-0.116,0.222-0.116,0.222S1033.73,693.619,1033.277,676.858z"/>
<path fill="#EA9364" d="M1070.554,882.162c-6.023-12.526,8.984-73.506,19.796-114.258c11.777-44.391,24.007-79.722,24.913-83.345
	c0.906-3.624-43.485-19.024-47.108-13.137c-0.563,0.917-2.082,3.699-4.243,7.74c4.466,1.668,19.49,7.422,24.098,11.005
	c5.435,4.227-1.208,23.556-6.04,41.673c-4.831,18.118-27.782,120.188-29.949,149.178
	C1049.975,908.41,1066.669,889.432,1070.554,882.162z"/>
<path fill="#EA9364" d="M1118.875,860.656l3.335-13.199c0,0-16.652,26.766-28.385,43.498
	c-22.347,31.865-41.977,34.582-41.977,34.582C1067.224,924.354,1095.638,906.009,1118.875,860.656z"/>
<path fill="#EA9364" d="M1268.81,834.242l3.181-12.589c0,0-5.095,12.857-17.818,29.6c-21.281,28.001-38.396,29.443-40.773,29.507
	c2.668,0.106,5.572-0.05,8.764-0.52C1243.536,877.097,1259.891,851.929,1268.81,834.242z"/>
<path fill="#EA9364" d="M1190.254,689.337c1.13-7.104,5.693-36.758,6.09-54.604l-53.903,16.308c0,0-0.207,6.77-0.945,19.258
	l37.787-11.03l-13.589,90.594L1190.254,689.337z"/>
<path fill="#EA9364" d="M1243.906,752.957c13.136-66.134,20.837-105.088,22.195-110.071c1.359-4.981-34.425-16.759-40.767-10.87
	c-1.922,1.785-5.928,7.903-10.575,15.558c8.812,0.612,23.645,2.977,26.73,7.092c3.624,4.832-9.06,70.519-16.307,103.879
	c-7.177,33.037-27.669,106.998,6.532,84.395C1230.84,828.182,1234.948,798.054,1243.906,752.957z"/>
<path fill="#EA9364" d="M1140.291,902.087l20.722-5.992c0,0,13.387-111.078,41.042-142.864l5.831-19.304
	c0,0-43.081,43.485-58.784,120.792C1145.033,874.75,1142.224,890.19,1140.291,902.087z"/>
<path fill="#EA9364" d="M993.265,870.276c-12.085,45.141-16.74,67.847-18.527,78.86l20.942-5.935c0,0,36.616-160.473,51.592-168.477
	l7.511-24.864C1054.784,749.861,1013.799,793.574,993.265,870.276z"/>
<path fill="#EA9364" d="M1333.896,741.933c0.314-0.411,0.623-0.857,0.93-1.319c-13.664,16.78-25.148,21.694-26.599,21.403
	c-2.265-0.453,1.812-31.707,13.136-70.21c11.324-38.502,26.791-69.798,34.878-72.738c1.178-0.428,2.406-0.321,3.622,0.273
	l0.001-0.01c0,0-14.358-18.382-42.277,39.861c-28.084,58.589-29.292,109.534-29.292,109.534S1314.925,766.698,1333.896,741.933z"/>
<path fill="#EA9364" d="M1328.563,830.854c0.923-0.668,1.777-1.315,2.589-1.948c-5.163,3.462-10.605,5.244-16.131,4.226
	c-17.212-3.171-11.324-46.203-11.324-46.203s1.623-0.532,4.415-1.714l-19.816,6.177
	C1288.296,791.392,1293.534,856.22,1328.563,830.854z"/>
<path fill="#EA9364" d="M1373.369,785.397c-3.621,12.083-13.479,38.188-35.095,56.861c-12.989,11.22-23.534,14.292-28.975,15.108
	c0.692-0.065,1.392-0.14,2.098-0.229c43.485-5.435,59.339-42.579,64.321-55.261C1378.12,795.766,1376.102,789.871,1373.369,785.397z
	"/>
<path fill="#EA9364" d="M1354.882,591.701c-2.334,0-4.666,0.275-6.995,0.797l-3.423,11.127c12.683-1.812,40.74,6.64,41.069,37.444
	c0.604,56.473-27.824,105.841-49.565,127.881c21.156-15.889,46.313-43.93,54.246-90.281
	C1404.709,593.966,1366.66,591.701,1354.882,591.701z"/>
<path fill="#EA9364" d="M1549.411,529.282c1.864-23.341,4.134-46.768,6.438-58.521c0,0-14.496,27.177-27.178,96.632
	c-12.684,69.455-18.723,132.869-33.218,179.374s-26.876,73.38-51.904,95.842c0,0.001,0,0.001-0.002,0.002
	c5.967-3.632,12.512-8.621,19.594-15.405c40.033-38.346,59.792-144.043,66.134-179.374
	C1535.12,615.259,1547.512,540.727,1549.411,529.282z"/>
<path fill="#EA9364" d="M1606.167,581.284l-3.512-22.687c-7.822-27.98-8.57-83.468-8.153-97.84
	c1.812-62.51,3.623-98.294,3.623-98.294l-61.604,18.119c0,0-0.79,8.783-2.269,23.503l43.939-13.049
	C1578.192,391.037,1574.167,549.284,1606.167,581.284z"/>
<path fill="#EA9364" d="M1632.167,520.95c-15.696,53.125-31.904,161-31.904,161s10.846-32.419,16.553-57.927
	c19.052-71.213,26.985-101.018,29.323-109.817l12.683-59.149C1658.821,455.058,1640.933,491.283,1632.167,520.95z"/>
<path fill="#EA9364" d="M1671.958,727.554c-10.418,0-16.307-42.126,8.606-173.938c24.913-131.813,34.425-182.545,36.237-188.887
	c1.812-6.342-61.15-22.196-65.681-10.419c-0.603,1.569-1.905,6.347-3.71,13.447c12.481,0.648,41.033,2.475,44.325,5.767
	c4.228,4.228-16.379,97.097-30.196,188.434c-13.701,90.558-16.76,162.713,0.905,169.863c11.755,4.757,16.987-9.906,16.988-9.91
	C1676.861,725.339,1674.296,727.554,1671.958,727.554z"/>
<path fill="#EA9364" d="M1814.523,688.746c-10.573-0.795,3.742-53.598,12.803-97.082c9.059-43.485,23.1-103.729,23.1-103.729
	s-6.341,3.624-21.289,0c-14.946-3.624-25.366-7.248-38.502-7.7c-8.619-0.297-35.84,1.138-59.888,36.472
	c9.844-8.544,39.182-26.059,68.947-18.618c20.095,5.024,25.341,5.228,26.563,4.762c-2.231,9.477-27.199,115.791-31.093,146.077
	c-4.077,31.707-0.907,45.748,7.247,48.919c6.564,2.552,16.585-1.361,21.569-15.507
	C1820.302,686.352,1816.955,688.93,1814.523,688.746z"/>
<path fill="#EA9364" d="M1741.262,604.347c9.707-40.596,34.03-89.784,43.654-92.295c-12.175,1.744-39.536,3.512-59.508,82.066
	c-20.384,80.175-7.099,118.224,4.378,125.472l4.329-8.759C1725.561,698.909,1732.314,641.77,1741.262,604.347z"/>
<path fill="#EA9364" d="M1918.131,500.224l14.735-66.644l-54.808,18.118c0,0-0.834,6.929-2.342,18.287l33.444-10.095L1892.1,561.957
	L1918.131,500.224z"/>
<path fill="#EA9364" d="M1889.383,593.213c-22.78,66.303-26.197,104.838-26.658,112.009l18.051-5.299
	c0,0,28.828-143.236,50.549-158.857c5.915-16.892,11.899-32.738,16.49-42.07C1947.814,498.996,1914.748,519.379,1889.383,593.213z"
	/>
<path fill="#EA9364" d="M1961.621,652.698c-2.924,3.558-5.656,5.461-7.918,4.646c-11.325-4.076,3.624-62.057,16.76-110.071
	c13.135-48.014,31.255-95.123,33.519-99.199c2.265-4.077-33.066-23.101-41.673-14.948c-1.702,1.612-4.479,5.288-7.832,10.137
	c8.547,2.358,24.844,7.212,24.139,11.794c-0.905,5.889-43.938,143.59-42.578,186.17
	C1937.165,676.531,1955.417,661.076,1961.621,652.698z"/>
<path fill="#EA9364" d="M2070.568,455.321c-1.806-14.897,4.96-25.707,9.018-31.645c-0.007-0.004-0.014-0.006-0.021-0.008
	c-0.891,0.797-14.287,12.833-22.233,23.521c1.035,25.185,22.833,42.434,30.523,41.218c0.004-0.001,0.009-0.002,0.013-0.002
	C2076.196,482.178,2071.942,466.667,2070.568,455.321z"/>
<path fill="#EA9364" d="M2083.703,425.426c0.383,0.072,0.759,0.217,1.129,0.418c-0.08-0.044-22.877-12.832-26.947,12.039
	c-1.145,6.989-0.594,13.521,1.013,19.424C2069.568,432.647,2078.911,424.513,2083.703,425.426z"/>
<path fill="#EA9364" d="M2044.296,624.467c0.317-0.345,0.61-0.742,0.88-1.183c-2.047,1.238-4.014,1.899-5.863,1.899
	c-15.854,0-17.665-31.254,0-105.541c4.452-18.721,8.996-34.079,13.424-46.561v-0.005c0,0-1.652-16.887-1.199-19.604
	c0.453-2.718-29.437,45.522-37.816,112.561C2005.729,629.96,2033.877,635.791,2044.296,624.467z"/>
<path fill="#EA9364" d="M2078.721,395.53c-1.062,0-2.268,0.076-3.592,0.247c5.25,2.11,12.452,6.083,19.898,13.532
	c14.496,14.495,12.573,79.975,12.573,79.975c2.185-1.292,4.665-3.564,6.771-5.722C2118.18,432.229,2111.424,395.53,2078.721,395.53z
	"/>
<path fill="#EA9364" d="M2106.267,510.438c43.827-8.095,57.159-96.789,57.159-96.789l6.329,0.744
	c0.007-0.065,0.013-0.103,0.013-0.103l-16.912-1.982c0,0-6.269,32.479-14.797,53.621c-10.87,26.952-30.802,34.426-30.802,34.426
	S2107.047,504.113,2106.267,510.438z"/>
<path fill="#EA9364" d="M2113.157,497.21c-3.539,2.258-5.9,3.144-5.9,3.144s-4.648,59.142-27.403,100.106
	c-17.019,30.636-24.366,34.878-24.366,34.878l5.145,2.788c22.434-22.107,41.739-62.163,48.892-111.875
	C2110.959,516.263,2112.197,506.545,2113.157,497.21z"/>
<path fill="#EA9364" d="M2183.689,591.152c-0.885,0.324-1.754,0.512-2.598,0.512c-10.42,0-3.624-26.725,2.717-51.638
	c6.342-24.914,42.578-113.242,46.203-127.736c3.624-14.495-11.325-43.938-14.042-43.031c-2.717,0.905-41.22-0.906-55.262-1.812
	c-10.369-0.669-17.513-5.282-20.548-7.654c6.494,8.333,17.604,19.394,34.363,22.791c12.554,2.545,23.807,5.034,31.644,5.034
	c3,0,7.855,14.317,7.666,18.667c-0.453,10.418-15.076,43.339-31.384,92.712c-16.306,49.374-31.38,112.059-0.225,93.084
	C2182.724,591.775,2183.213,591.465,2183.689,591.152z"/>
<path fill="#EA9364" d="M2220.06,532.575c-0.594,10.265-3.737,39.016-20.396,59.582c-17.349,21.417-25.657,23.483-35.314,24.692
	c3.495-0.016,7.404-0.266,11.76-0.725c34.425-3.623,50.278-65.227,51.186-71.115C2227.812,541.639,2223.73,536.193,2220.06,532.575z
	"/>
</svg>
