<?xml version="1.0" encoding="utf-8"?>
<!-- Generator: Adobe Illustrator 16.0.4, SVG Export Plug-In . SVG Version: 6.00 Build 0)  -->
<!DOCTYPE svg PUBLIC "-//W3C//DTD SVG 1.1//EN" "http://www.w3.org/Graphics/SVG/1.1/DTD/svg11.dtd">
<svg version="1.1" id="Layer_1" xmlns="http://www.w3.org/2000/svg" xmlns:xlink="http://www.w3.org/1999/xlink" x="0px" y="0px"
	 width="2800px" height="1200px" viewBox="0 0 2800 1200" enable-background="new 0 0 2800 1200" xml:space="preserve">
<rect y="-1.4" fill="#382984" width="2800" height="1200.9"/>
<rect y="-1.4" fill="none" width="2800" height="1200.9"/>
<path fill="#00103A" d="M544.775,444.283c-50.446,0-92.484,78.072-92.484,78.072l-4.204-33.031c0,0-15.014,1.802-61.256,49.846
	c0,0-151.338,119.659-151.338,272.123c0,83.4,40.237,124.838,80.474,124.838c53.449,0,79.873-51.046,79.873-51.046
	s45.041,0,105.696-57.653c60.655-57.652,120.71-177.762,120.71-261.237C622.246,489.324,590.417,444.283,544.775,444.283z
	 M409.052,786.595c-19.818,0-36.033-24.622-36.033-60.581c0-120.636,67.261-172.431,67.261-172.431
	c-6.606,39.636,5.405,61.256,5.405,61.256l40.837-45.042c0-7.807,15.614-42.038,25.223-42.038s13.212,18.616,13.212,46.616
	C524.957,679.847,446.285,786.595,409.052,786.595z"/>
<path fill="#00103A" d="M1559.1,511.545l-34.829,20.418c0,0-22.221,44.44-39.636,44.44c-4.203,0-8.407-1.802-8.407-7.207
	c0-28.226,76.27-75.068,76.27-129.718c0-28.827-17.417-36.333-39.036-36.333c-21.62,0-76.87,29.125-76.87,29.125l3.604-10.81
	l-70.264,12.011l-54.955,45.041c0,0-72.966,139.326-96.984,139.326c-45.344,0,54.649-149.16,54.649-149.16l-27.625-14.189
	c0,0-12.012,15.615-42.039,24.022c-30.027,8.407-123.712,16.815-181.966,103.894c-58.253,87.079-45.041,75.669-45.041,75.669
	s-46.843,51.046-70.264,41.438c0,0,91.883-69.663,91.883-138.726c0-17.416-6.605-38.435-42.038-38.435
	c-35.433,0-72.667,42.04-72.667,42.04s-39.636,24.623-79.272,93.686c-39.636,69.062-70.264,79.271-83.476,79.271
	c-9.609,0-23.421-10.209-23.421-27.925c0-17.717,14.413-47.144,14.413-47.144s2.697,30.553,26.271,30.553
	c23.575,0,34.985-25.448,34.985-25.448s16.214-3.903,22.22-15.313c0,0-1.801-4.805-1.801-11.411
	c0-6.605,12.611-27.776,12.611-43.314c0-20.343-12.015-34.756-36.635-34.756c-40.237,0-195.778,109.3-195.778,244.423
	c0,38.435,22.219,64.859,49.244,64.859c48.645,0,91.284-65.46,91.284-65.46s48.644-30.629,68.462-51.047
	c0,0-2.406,69.063,47.441,69.063c49.247,0,78.073-56.452,78.073-56.452l59.454-37.233c0,0-1.202,54.05,46.241,54.05
	c39.037,0,72.667-58.78,72.667-58.78l12.611-8.781c0,0-5.405,39.936,24.022,39.936c29.427,0,58.853-47.743,58.853-47.743
	l19.218-9.909l-24.022,46.242l71.465-14.413c0,0,45.041-40.837,50.446-48.644c5.405-7.808,79.273-147.735,80.474-150.738
	c1.202-3.003,55.852-47.442,58.854-40.236c3.003,7.207-27.024,39.035-54.049,78.07c-27.024,39.036-39.636,69.063-39.636,92.485
	c0,23.421,10.81,34.831,34.231,34.831c33.327,0,76.269-47.669,76.269-47.669s72.066-21.395,127.917-124.088
	C1582.521,525.356,1563.303,512.746,1559.1,511.545z M925.221,598.624c15.314,1.199-9.609,38.735-30.328,48.944
	C894.894,647.568,909.908,597.422,925.221,598.624z M1133.009,550.88c0,0,4.205,7.207-1.501,24.922
	c-5.706,17.715-27.325,55.851-30.028,75.669c0,0-8.107-4.806-8.107-25.224s16.815-64.255,39.636-76.418
	C1155.83,537.667,1133.009,550.88,1133.009,550.88z"/>
<path fill="#03C683" d="M485.321,552.457l-3.153-27.025c0,0,7.657-68.913,63.058-68.913s68.012,66.21,68.012,106.297
	c0,114.854-102.694,315.437-239.618,315.437c-66.06,0-82.274-63.657-82.274-112.302c0-135.723,148.335-260.637,148.335-260.637
	l1.801,36.634c0,0-79.272,55.849-79.272,190.373c0,42.039,25.223,77.47,55.851,77.47c57.652,0,149.536-122.51,149.536-219.799
	c0-34.832-8.407-75.669-37.834-75.669C500.335,514.322,485.321,552.457,485.321,552.457z"/>
<path fill="#03C683" d="M783.793,655.451c0,0-11.411,6.604-24.623,6.604s-15.013-12.611-15.013-16.215
	c0-3.603,9.008-18.616,9.008-25.223c0-6.604-4.203-8.408-9.008-8.408c-16.816,0-59.154,64.56-59.154,99.391
	c0,22.22,10.509,39.938,36.333,39.938c33.33,0,121.61-94.887,121.61-94.887l4.204,22.221c0,0-111.702,132.421-181.365,132.421
	c-28.526,0-38.135-25.523-38.135-55.552c0-98.789,88.28-181.365,142.33-181.365c18.617,0,24.923,13.213,24.923,28.226
	c0,15.015-14.113,39.938-14.113,44.742C780.79,652.146,783.793,655.451,783.793,655.451z"/>
<path fill="#03C683" d="M914.41,714.905c-25.223,0-32.129-28.227-32.129-28.227c31.228-5.706,104.495-67.262,104.495-118.609
	c0-24.621-9.909-33.33-27.325-33.33c-50.746,0-130.019,95.188-130.019,167.853c0,48.345,23.422,61.557,46.543,61.557
	c60.955,0,154.041-111.701,154.041-111.701l3.302-29.427C1033.318,623.021,951.645,714.905,914.41,714.905z M949.843,562.065
	c7.207,0,11.462,10.59,10.509,16.214c-9.309,54.95-78.672,90.983-78.672,90.983C881.68,634.131,918.314,562.065,949.843,562.065z"/>
<path fill="#03C683" d="M1215.583,632.63c-15.615,0-19.218-12.312-19.218-23.122c0-34.831,62.156-134.522,62.156-134.522
	l-11.71-6.306c0,0-2.703,8.407-44.14,21.919c-16.298,5.315-52.994,8.669-85.878,27.326c-50.722,28.776-98.79,90.082-98.79,157.343
	c0,36.333,21.319,50.746,39.336,50.746c35.733,0,88.581-60.354,88.581-60.354s-6.306,36.633,23.722,36.633
	c39.335,0,135.423-111.702,135.423-111.702l3.603-26.423C1308.667,564.167,1250.414,632.63,1215.583,632.63z M1105.983,667.461
	c-12.011,0-21.019-9.608-21.019-31.528c0-51.648,43.99-110.501,71.765-110.501c14.413,0,16.215,15.915,16.215,26.424
	C1172.944,621.218,1127.002,667.461,1105.983,667.461z"/>
<path fill="#03C683" d="M1242.01,690.732c0,0,33.775-64.858,66.658-132.42c32.883-67.562,64.412-110.801,64.412-110.801
	l52.247-10.81l-30.177,53.599c0,0,76.119-74.768,122.061-74.768c22.07,0,26.124,15.314,26.124,27.475
	c0,39.186-75.219,104.044-75.219,131.069c0,9.909,8.107,15.765,21.62,15.765c31.078,0,70.264-63.958,70.264-63.958l11.711,4.504
	c0,0-64.859,111.251-134.223,111.251c-17.565,0-30.628-9.909-30.628-25.673c0-55.401,82.876-130.169,82.876-150.888
	c0-7.207-5.405-9.008-9.909-9.008c-17.116,0-107.198,72.967-107.198,72.967l-79.723,151.337L1242.01,690.732z"/>
<path fill="#00103A" d="M1998.695,514.547c0,0-15.015,18.017-39.036,18.017s-25.223-23.272-25.223-30.553
	c0-37.308,42.639-93.76,93.686-93.76c21.02,0,28.826,17.416,28.826,31.829C2056.948,467.705,2021.517,514.547,1998.695,514.547z"/>
<path fill="#00103A" d="M2545.192,539.17l-33.63,21.02c0,0-12.012,25.823-22.221,25.823c-3.604,0-9.609-0.601-9.609-14.413
	c0-22.145,45.041-115.306,45.041-115.306l-22.22-10.81c0,0-19.818,30.628-42.038,30.628c-16.314,0-57.052-0.6-112.3,40.238
	c-55.247,40.837-109.302,126.714-109.302,151.938c0,0-1.198,6.006-15.012,6.006c-14.021,0-11.769-45.987,34.007-136.324
	s133.546-227.607,133.546-227.607s-65.459,22.221-75.669,26.424c-10.21,4.204-58.795,40.475-61.855,45.642
	c-158.547,267.691-156.143,323.694-156.143,323.694s-10.811,6.006-23.421,6.006c-63.057,0,167.552-366.485,167.552-366.485
	s-66.661,15.165-74.468,19.894c-7.806,4.728-54.049,38.511-59.454,47.519c-156.849,261.416-161.667,312.434-161.667,312.434
	s-17.777,47.294-53.929,47.294c-41.088,0,87.68-178.963,87.68-178.963l-68.763,14.112l-53.917,36.334l-46.675,69.663l-14.413-4.204
	c0,0,45.041-72.666,69.063-137.524c24.022-64.86,15.014-96.088,6.229-96.088c-8.786,0-41.66,13.812-74.69,50.446
	c-33.031,36.634-74.469,108.098-74.469,164.173c0,15.238,4.805,39.412,4.805,39.412s-51.647,102.693-90.081,102.693
	c-38.435,0-35.434-86.479,52.247-211.693c87.681-125.214,111.101-172.057,111.101-196.604s-14.413-41.514-43.84-41.514
	s-84.076,16.815-122.512,48.044c-38.436,31.228-42.639,57.051-42.639,57.051l13.513,26.425l40.536-25.221
	c0,0,34.231-34.231,49.244-34.231c5.405,0,8.408,3.604,8.408,8.181c0,20.191-67.262,105.322-120.707,174.234
	c-53.446,68.911-123.716,149.086-123.716,261.988c0,51.047,28.226,70.865,42.639,70.865c42.039,0,90.083-51.647,90.083-51.647
	c91.885-24.022,174.759-160.346,174.759-160.346c5.613,7.587,17.205,9.483,17.973,9.603c-1.967,1.014-69.486,136.33,1.844,136.33
	c37.235,0,85.503-61.782,85.503-61.782c31.453-17.94,74.243-55.925,74.243-55.925s1.2,64.259,42.94,64.259
	s72.364-57.652,74.767-59.454s41.214-34.832,41.214-34.832s11.325,50.356,44.058,50.356c44.744,0,55.255-43.751,63.663-49.756
	s34.23-30.403,34.23-30.403s3.757,53.522,40.837,53.522c40.837,0,76.27-68.16,76.27-68.16l16.815-10.81c0,0,0,41.438,39.64,41.438
	c41.441,0,77.467-90.082,77.467-90.082c40.837-32.43,74.468-102.093,74.468-102.093L2545.192,539.17z M2391.453,604.028
	c-7.207,11.411-8.408,36.634-11.411,39.637c-3.002,3.002-8.407,3.603-13.212,3.603s-7.206-15.613-7.206-26.123
	c0-23.723,22.555-65.159,36.032-65.159C2410.069,555.985,2398.659,592.619,2391.453,604.028z"/>
<path fill="#03C683" d="M1786.104,714.604c0,0,49.545-82.876,71.165-141.429c20.366-55.16,13.062-84.227,13.062-84.227
	s-31.979-3.153-87.379,117.557c-42.333,92.235-18.017,120.26-18.017,120.26s-71.165,117.106-119.81,117.106
	c-35.582,0-39.636-28.826-39.636-55.851c0-104.045,184.231-275.651,184.231-358.076c0-7.657,1.788-35.132-35.596-35.132
	c-68.012,0-117.558,76.119-117.558,76.119l6.757,11.71c0,0,28.826-36.934,61.256-36.934c13.512,0,26.123,10.359,26.123,44.14
	c0,80.173-200.883,245.924-200.883,354.473c0,52.248,22.521,67.111,45.041,67.111c94.136,0,197.73-180.614,197.73-180.614
	c26.123,18.917,73.867,8.558,73.867,8.558l13.512-30.628C1814.931,746.583,1786.104,714.604,1786.104,714.604z M1777.097,699.29
	c0,0-3.604-16.215,9.309-53.748c12.911-37.533,30.928-60.056,35.732-60.056c0,0,8.107,2.402-12.011,55.552
	C1790.009,694.187,1777.097,699.29,1777.097,699.29z"/>
<path fill="#03C683" d="M1914.021,620.469c0,0-99.541,131.069-99.541,186.92c0,26.574,13.513,35.132,28.826,35.132
	c51.347,0,164.851-128.817,164.851-128.817V688.48c0,0-77.921,95.938-112.603,95.938c-14.413,0-19.818-9.909-19.818-19.818
	c0-40.086,85.578-153.59,85.578-153.59L1914.021,620.469z"/>
<path fill="#03C683" d="M2027.524,424.541c-18.617,0-43.39,28.976-43.39,56.901c0,7.657,1.051,20.569,11.411,20.569
	c23.571,0,49.395-34.982,49.395-54.8C2044.94,430.545,2040.587,424.541,2027.524,424.541z"/>
<path fill="#03C683" d="M2220.75,365.537l-47.743,9.909c0,0-184.218,289.163-184.218,368.435c0,27.476,8.558,51.797,36.483,51.797
	c49.095,0,138.727-122.061,138.727-122.061l0.45-28.376c0,0-49.545,79.272-90.082,79.272c-16.215,0-20.269-14.864-20.269-23.872
	C2054.099,624.522,2220.75,365.537,2220.75,365.537z"/>
<path fill="#03C683" d="M2314.436,350.223c0,0-168.903,251.329-168.903,352.671c0,31.979,17.115,49.545,41.438,49.545
	c50.896,0,108.549-98.189,108.549-98.189l0.9-27.925c0,0-42.338,60.805-68.462,60.805c-13.513,0-21.619-12.011-21.619-27.775
	c0-72.967,163.948-328.499,163.948-328.499L2314.436,350.223z"/>
<path fill="#03C683" d="M2546.099,552.457c0,0-19.519,48.343-51.047,48.343c-13.812,0-24.022-14.413-24.022-24.622
	c0-38.735,43.54-112.001,43.54-112.001l-10.511-5.405c0,0-18.608,24.522-40.763,28.376c-25.898,4.504-40.086-3.604-88.956,25.898
	c-48.869,29.502-91.658,109.675-91.658,154.49c0,39.411,10.134,54.274,35.132,54.274c44.591,0,90.758-62.606,90.758-62.606
	s6.531,24.998,28.826,24.998c53.45,0,122.813-124.239,122.813-124.239L2546.099,552.457z M2370.286,661.456
	c-13.063,0-18.765-10.511-18.765-32.131c0-42.037,43.689-101.491,72.365-101.491c12.611,0,15.015,11.11,15.015,26.124
	C2438.901,579.181,2403.468,661.456,2370.286,661.456z"/>
<path fill="#A7FFB7" d="M428.119,523.555c0,0-122.511,102.693-122.511,247.726c0,63.958,30.628,91.434,72.516,91.434
	c126.565,0,220.701-195.479,220.701-292.767c0-68.462-22.521-102.243-54.049-102.243c-30.177,0-50.446,34.682-50.446,34.682
	l1.802,17.566c0,0,22.521-28.826,40.987-28.826c26.124,0,39.042,22.521,39.042,89.61c0,92.109-70.57,235.586-169.21,235.586
	c-74.318,0-82.875-175.66,23.872-280.155L428.119,523.555z"/>
<path fill="#A7FFB7" d="M772.232,640.211c0,0-11.26,4.504-11.26-5.855s11.26-27.024,11.26-31.528s-6.306-6.306-11.26-6.306
	c-13.512,0-83.776,37.384-83.776,112.603c0,39.186,14.864,48.644,32.43,48.644c54.049,0,141.429-99.09,141.429-99.09l-2.702,11.261
	c0,0-119.809,121.16-173.408,121.16c-20.719,0-31.078-18.918-31.078-34.231c0-66.21,66.661-171.606,118.908-171.606
	c10.81,0,19.818,6.306,19.818,13.963s-10.359,31.528-10.359,34.682S772.232,640.211,772.232,640.211z"/>
<path fill="#A7FFB7" d="M908.256,721.735c-27.925,0-35.822-35.582-35.822-35.582s104.734-45.942,104.734-120.26
	c0-15.314-7.207-23.872-22.971-23.872c-34.231,0-112.152,83.326-112.152,156.292c0,28.827,10.81,52.248,39.186,52.248
	c50.896,0,154.941-110.351,154.941-110.351l3.603-10.81C1039.775,629.401,944.289,721.735,908.256,721.735z M881.231,623.996
	c13.932-33.838,44.279-71.615,71.165-71.615c11.71,0,15.314,14.413,15.314,19.368c0,40.086-57.652,92.334-95.037,103.594
	C872.673,675.343,870.188,650.815,881.231,623.996z"/>
<path fill="#A7FFB7" d="M1210.782,641.562c-18.317,0-21.02-20.118-21.02-38.134c0-30.628,48.044-115.305,48.044-115.305
	l-5.255-2.854c0,0-8.558,8.107-31.528,11.936c-22.971,3.828-36.708,3.153-65.76,15.764
	c-29.052,12.611-104.945,79.348-104.945,157.119c0,26.424,18.316,39.336,32.729,39.336c37.534,0,92.784-63.133,92.784-63.133
	s-9.608,43.314,19.518,43.314c19.27,0,46.783-27.291,72.366-49.245c27.039-23.203,51.647-41.138,51.647-41.138l15.614-31.528
	C1314.976,567.695,1252.519,641.562,1210.782,641.562z M1105.686,664.384c-13.513,0-21.019-10.209-21.019-33.33
	c0-52.849,48.343-109,74.167-109c9.293,0,13.813,8.408,13.813,30.028C1172.647,599.524,1138.229,664.384,1105.686,664.384z"/>
<path fill="#A7FFB7" d="M1260.926,675.494c0,0,20.719-51.647,60.655-121.011c39.937-69.363,57.353-100.892,57.353-100.892
	l29.126-5.705l-31.829,57.653c0,0,103.593-81.374,135.422-81.374c12.913,0,20.119,9.308,20.119,19.217
	c0,36.934-72.666,91.283-72.666,123.112c0,16.814,8.407,27.024,27.925,27.024c32.43,0,71.165-58.553,71.165-58.553l4.204,2.102
	c0,0-54.648,90.983-118.607,90.983c-21.32,0-25.224-16.515-25.224-22.82c0-43.54,85.878-116.206,85.878-146.534
	c0-11.71-9.608-15.014-14.713-15.014c-29.126,0-133.922,90.383-133.922,90.383l-68.162,135.723L1260.926,675.494z"/>
<path fill="#A7FFB7" d="M1811.629,728.04c-23.114-2.469-31.229-17.415-31.229-17.415s33.932-50.747,59.154-118.608
	c16.983-45.691,20.719-78.672,15.915-79.873s-35.132,16.214-70.564,97.889c-35.433,81.675-12.312,104.496-12.312,104.496
	s-69.963,133.021-132.12,133.021c-17.415,0-45.941-9.909-45.941-45.94c0-50.302,28.525-106.897,108.099-221.001
	c50.797-72.842,76.568-128.518,76.568-150.737c0-17.416-9.008-26.725-29.727-26.725c-46.843,0-104.496,59.454-104.496,59.454
	l3.529,3.527c0,0,29.276-30.252,62.833-30.252c9.309,0,29.727,6.456,29.727,30.328c0,29.125,8.106,21.62-60.806,131.219
	c-62.214,98.945-141.578,175.96-141.578,241.719c0,32.43,17.415,57.954,48.644,57.954c81.374,0,188.872-179.265,188.872-179.265
	s12.311,14.113,34.231,16.215s42.339-4.804,42.339-4.804l4.635-11.411C1857.401,717.83,1842.557,731.343,1811.629,728.04z
	 M1782.803,635.257c11.996-35.437,26.626-66.235,42.938-62.157c4.806,1.202,8.107,15.615-6.305,55.551
	c-14.414,39.937-41.438,78.372-41.438,78.372S1763.284,692.909,1782.803,635.257z"/>
<path fill="#A7FFB7" d="M1945.25,621.145c0,0-21.62,3.302-25.223,6.005c-3.604,2.702-96.538,118.007-96.538,163.949
	c0,24.322,3.603,38.735,25.673,38.735c47.743,0,156.292-123.863,156.292-123.863l4.504-16.215c0,0-71.615,96.839-120.259,96.839
	c-10.81,0-19.368-10.811-19.368-25.674C1870.331,724.438,1945.25,621.145,1945.25,621.145z"/>
<path fill="#A7FFB7" d="M2200.933,379.424l-24.772,5.855c0,0-181.516,275.201-181.516,355.374c0,29.276,23.421,39.636,36.934,39.636
	c30.628,0,126.565-99.99,126.565-99.99l6.756-22.521c0,0-62.156,72.966-90.532,72.966c-13.963,0-27.476-11.26-27.476-35.582
	C2046.892,617.24,2200.933,379.424,2200.933,379.424z"/>
<path fill="#A7FFB7" d="M2319.841,356.002c0,0-167.103,250.428-167.103,346.365c0,23.422,12.611,36.033,33.781,36.033
	c40.987,0,109.899-88.73,109.899-88.73l1.802-8.558c0,0-44.14,51.797-74.317,51.797c-18.017,0-26.124-15.765-26.124-30.178
	c0-77.02,150.437-317.088,150.437-317.088L2319.841,356.002z"/>
<path fill="#A7FFB7" d="M2545.946,562.29c0,0-19.367,42.789-51.797,42.789c-27.025,0-29.728-22.521-29.728-38.735
	c0-44.59,36.483-90.532,36.483-90.532l-5.405-2.703c0,0-7.206,10.81-28.376,19.818c-21.169,9.008-50.896,0-89.181,30.628
	s-87.83,96.838-87.83,148.185c0,21.17,16.665,36.934,31.979,36.934c37.384,0,98.64-68.912,98.64-68.912s-7.207,32.88,20.269,32.88
	c43.239,0,109.449-108.549,109.449-108.549L2545.946,562.29z M2372.088,665.885c-8.558,0-31.979-3.153-31.979-32.43
	c0-55.4,51.797-116.206,82.425-116.206c27.024,0,27.024,16.215,27.024,49.095C2449.559,595.62,2401.815,665.885,2372.088,665.885z"
	/>
<g>
	<path fill="#00103A" d="M1211.886,245.927c0,0,18.824-20.839,37.51-43.092c17.381-20.701,34.718-42.395,34.718-55.622
		c0-12.906-8.907-11.088-8.907-11.088s7.816,17.996-7.998,23.994c0,0-8.609,8.725-19.209,8.725c-5.147,0-7.875-5.817-7.875-8.362
		c0-17.086,24.176-40.716,47.988-40.716c20.904,0,24.902,18.177,24.902,26.539c0,19.449-16.178,36.354-23.448,45.079
		c-7.271,8.725-20.541,22.358-20.541,22.358s2.181-0.727,4.726-0.182c2.545,0.545,5.817,1.818,12.906,1.818
		c9.089,0,13.633-9.634,13.633-9.634l6.907-2.908l12.542,1.454l-14.723,34.719l-22.54,9.27L1211.886,245.927z"/>
	<path fill="#00103A" d="M1317.015,175.206l10.361-13.451c0,0,12.36-5.271,18.358-11.815c5.999-6.543,7.452-16.723,7.452-16.723
		l13.997-7.452l25.085,1.272l-32.355,112.698l-21.995,9.633l-24.721-1.09l25.63-67.619c0,0-19.268,4.544-21.994,3.362
		L1317.015,175.206z"/>
	<path fill="#00103A" d="M1444.98,147.758c8.18,0,4.545,13.269,16.178,13.269c4.727,0,7.271-2.726,7.271-2.726
		s14.541,1.454,14.541-12.361s-15.604-18.904-24.902-18.904c-32.719,0-77.434,43.625-77.434,87.25
		c0,22.54,12.724,35.081,27.629,35.081c12.541,0,18.722-7.815,18.722-7.815s43.32-0.088,46.716-57.531
		c1.09-18.449-14.79-21.707-20.062-21.707c-13.385,0-26.442,11.256-26.442,11.256S1436.801,147.758,1444.98,147.758z
		 M1431.803,189.202c2.104,0,5.181,4.545,3.908,12.906c-3.09,20.301-11.088,21.267-11.088,21.267c-6.361-6.362-4-23.267-4-23.267
		S1424.986,189.202,1431.803,189.202z"/>
	<path fill="#00103A" d="M1552.953,182.295c0,0,15.086-5.999,15.086-25.267c0-19.268-18.846-27.993-34.172-27.993
		c-24.902,0-46.352,16.905-46.352,36.536c0,12.542,9.814,16.541,9.814,16.541s-24.901,14.36-24.901,43.989
		c0,19.268,13.995,27.629,24.356,27.629s25.994-9.088,25.994-9.088s40.535-5.635,40.535-36.718
		C1563.314,182.658,1552.953,182.295,1552.953,182.295z M1516.418,227.192c-6.182-3.272-5.637-9.634-5.637-15.087
		s5.453-19.631,9.451-19.631c2.729,0,4.182,0.727,4.182,14.359C1524.414,220.467,1516.418,227.192,1516.418,227.192z
		 M1531.504,158.301c-0.545,13.269-5.908,16.904-5.908,16.904s-3.727-3.272-3.18-13.087c0.545-9.815,6.361-16.178,6.361-16.178
		S1532.049,145.032,1531.504,158.301z"/>
	<path fill="#03C683" d="M1263.393,156.543c-5.999,0-8.362-6.725-8.362-9.27c0-8.544,14.905-23.812,33.264-23.812
		c18.359,0,20.723,19.268,20.723,22.721c0,15.381-9.271,27.811-22.722,42.898c-12.216,13.701-24.539,28.174-24.539,28.174
		s2.06-0.909,5.211-0.909s13.451,3.757,21.812,3.757c10.421,0,19.025-12.724,19.025-12.724l6.907,0.242l-11.391,27.629
		l-64.953-1.939c0,0,15.799-17.104,31.507-36.596c12.607-15.646,25.811-28.962,25.811-46.412c0-8.604-3.756-20.116-15.39-20.116
		c-5.453,0-8.846,5.332-8.846,5.332s2.181,3.029,2.181,11.27C1273.632,155.029,1266.119,156.543,1263.393,156.543z"/>
	<path fill="#03C683" d="M1332.889,167.631l0.849-3.756c0,0,7.998-2.787,20.964-12.481c9.233-6.903,13.694-20.843,13.694-20.843
		h18.055l-31.264,105.911l-20.844-0.606l27.266-81.07c0,0-6.665,5.938-12.845,8.483
		C1342.583,165.814,1332.889,167.631,1332.889,167.631z"/>
	<path fill="#03C683" d="M1454.918,131.521c-25.811,0-58.167,28.356-58.167,75.01c0,19.631,10.057,31.507,32.113,31.507
		c21.934,0,40.718-34.294,40.718-49.684c0-12.481-3.758-21.934-15.996-21.934c-16.603,0-31.387,15.632-31.387,15.632l-1.574-0.727
		c0,0,10.299-42.17,33.809-42.17c7.149,0,12.239,6.18,12.239,8.725c0,2.544,0.97,5.21,4.12,5.21s6.544-3.877,6.544-8.482
		S1471.763,131.521,1454.918,131.521z M1442.801,179.872c6.422,0,7.27,7.392,7.27,12.845s-5.695,35.991-21.812,35.991
		s-10.906-31.628-10.906-31.628S1428.258,179.872,1442.801,179.872z"/>
	<path fill="#03C683" d="M1546.531,182.538c0,0,16.359-8.12,16.359-23.752c0-12.603-8.846-25.447-28.963-25.447
		c-15.512,0-32.234,8.604-32.234,26.538c0,13.33,8.725,19.631,8.725,19.631s-23.992,6.907-23.992,28.962
		c0,22.055,15.994,31.75,34.416,31.75c18.418,0,37.807-16.117,37.807-33.446C1558.648,188.596,1546.531,182.538,1546.531,182.538z
		 M1519.023,232.948c-5.697,0-12.725-2.182-12.725-20.722s12.602-25.448,20.602-25.448c6.906,0,12.359,7.876,12.359,15.632
		C1539.26,226.889,1524.719,232.948,1519.023,232.948z M1527.867,181.204c-6.664,0-11.268-6.059-11.268-19.268
		s10.541-22.418,16.115-22.418c6.303,0,12.725,4.12,12.725,19.874S1534.533,181.204,1527.867,181.204z"/>
	<path fill="#A7FFB7" d="M1263.574,154.029c-4.362,0-5.453-4.726-5.453-7.453c0-11.452,17.359-21.448,26.63-21.448
		c13.36,0,20.449,8.633,20.449,20.903c0,12.27-6.362,23.085-21.631,42.08c-15.269,18.995-26.629,31.446-26.629,31.446
		s0.818,0,1.666,0c0.849,0,2.061-0.878,6.604-0.878c7.634,0,14.966,4.181,24.054,4.181c15.693,0,19.45-13.875,19.45-13.875
		l2.908,0.061l-9.209,23.509l-57.742-1.333c0,0,1.622-4.919,34.537-43.201c16.723-19.45,20.631-31.083,20.631-40.081
		c0-8.998-4.362-19.268-15.723-19.268s-15.269,8.271-15.269,8.271s2.454,1.636,2.454,7.089S1266.937,154.029,1263.574,154.029z"/>
	<path fill="#A7FFB7" d="M1336.918,163.481c0,0,9.771-4.147,17.813-10.179c11.633-8.725,16.45-21.176,16.45-21.176l11.997,0.454
		l-30.356,100.792h-14.178l29.266-87.705c0,0-4.817,7.089-13.724,12.36c-8.906,5.271-16.177,7.271-16.177,7.271L1336.918,163.481z"
		/>
	<path fill="#A7FFB7" d="M1455.887,133.792c-34.414,0-56.106,42.05-56.106,66.648c0,5.424,0.394,35.839,25.932,35.839
		c25.539,0,39.445-37.536,39.445-48.896c0-11.361-4.363-18.358-12.725-18.358c-15.45,0-35.99,18.722-35.99,18.722
		c0-23.63,19.268-50.259,39.172-50.259c9.996,0,13.086,5.089,13.086,5.089s0,2.182,0,3.272c0,1.09,0.273,2.604,2.334,2.604
		c1.211,0,3.635-0.363,3.635-3.877C1474.67,141.063,1467.52,133.792,1455.887,133.792z M1442.164,177.387
		c7.998,0,12.27,4.999,12.27,11.542c0,22.357-12.18,41.353-26.721,41.353c-9.271,0-13.542-11.179-13.542-15.814
		c0-4.636,0.818-16.814,0.818-16.814S1428.531,177.387,1442.164,177.387z"/>
	<path fill="#A7FFB7" d="M1536.957,183.597c0,0,21.449-5.453,21.449-24.721s-15.918-23.994-24.479-23.994
		c-13.33,0-28.842,8.604-28.842,23.388s11.148,22.66,11.148,22.66s-27.386,5.938-27.386,28.356
		c0,22.418,19.511,29.326,32.476,29.326c12.967,0,33.689-12.239,33.689-31.992C1555.014,182.143,1536.957,183.597,1536.957,183.597z
		 M1514.615,156.574c1.818-11.997,11.072-19.025,18.949-19.025c12.48,0,15.633,12.724,15.633,22.661
		c0,9.937-9.047,22.661-21.814,22.661C1514.598,182.871,1513.127,166.399,1514.615,156.574z M1541.924,208.439
		c0,5.938-6.129,26.054-21.932,26.054c-15.805,0-16.729-15.292-15.996-26.901c0.848-13.451,8.604-23.509,22.539-22.555
		C1543.582,186.204,1541.924,202.501,1541.924,208.439z"/>
</g>
</svg>
