<?xml version="1.0" encoding="utf-8"?>
<!-- Generator: Adobe Illustrator 16.0.4, SVG Export Plug-In . SVG Version: 6.00 Build 0)  -->
<!DOCTYPE svg PUBLIC "-//W3C//DTD SVG 1.1//EN" "http://www.w3.org/Graphics/SVG/1.1/DTD/svg11.dtd">
<svg version="1.1" id="Layer_1" xmlns="http://www.w3.org/2000/svg" xmlns:xlink="http://www.w3.org/1999/xlink" x="0px" y="0px"
	 width="2800px" height="1200px" viewBox="0 0 2800 1200" enable-background="new 0 0 2800 1200" xml:space="preserve">
<rect y="-1.4" fill="#229130" width="2800" height="1200.9"/>
<path fill="#110C08" d="M1465,700.3c-4.5-7-83.4,9.601-83.4,9.601s17.801-59.4,44.2-115.101c4.5-9.5-26.2-20.8-49.2-23.1
	c-5-0.5-4.5,4.5-4.5,4.5s-14.6-2-17.6,4s-44.2,129.6-46.7,140.7l-47.2,10.6c0,0-11.6-17.1-31.199-17.1c-19.601,0-28.101,9-35.7,24.1
	s-27.6,61.8-27.6,61.8s4-53.8-54.301-53.8c-58.3,0-75.399,47.2-75.399,47.2s-7.5,0.5-12.101-5.5c-4.5-6-12.1-9.601-20.1-9.601
	s-26.1,12.601-26.1,12.601s-1-9.5-29.101-10.101c-28.1-0.5-43.199,12.601-48.699,29.7c-5.5,17.101-26.101,84.9-28.101,91.5
	c-2,6.5-51.3,100-111.6,100c-25.101,0-27.101-45.2-27.101-70.399c0-109.2,57.5-209.2,93.5-209.2c11.601,0,1.4,62.399-33.699,106.2
	c-4,5,31.199,11.1,52.3,11.1c21.1,0,65.3-37.2,65.3-87.9c0-50.8-25.6-90.5-74.4-90.5C751.101,661.6,636,787.2,636,982.2
	c0,67.8,37.2,114.1,93.5,114.1c72.9,0,135.7-92,135.7-92s8.5,12.601,31.7,12.601s23.2-13.101,25.1-22.601
	c7-34.2,37.7-152.3,84.9-149.7c0,0-50.7,131,48.7,145.7c50.8,7.5,102.5-74.899,102.5-74.899s5,55.8,62.8,55.8s78.4-71.9,78.4-71.9
	s4.5,50.8,63.3,50.8c59.8,0,90-61.8,95.5-74.399c5.5-12.601-15.601-38.7-31.2-31.2s-28.6,46.7-52.8,46.7
	c-24.101,0-24.101-45.7-8.5-128.101c0,0,75.2-8.5,93.399-14.6C1477.1,742.5,1476.3,717.8,1465,700.3z M1076.6,943
	c-5.5,0-5.5-38.7-5.5-38.7s22.101,5.5,43.7-7.5C1114.8,896.8,1085.6,943,1076.6,943z M1194.7,855.1c0,0,6-15.6,8-16.1
	s10.6,11.6,10.6,11.6L1194.7,855.1z M1293.2,827.4c-1.5-11.601-38.7-53.801-38.7-53.801l42.7-4.5
	C1296.2,772.7,1293.2,827.4,1293.2,827.4z"/>
<path fill="#1F0010" d="M552.4,344c-35.2,0-52.801,31.2-52.801,31.2s-7-5.5-11.6-5s-20.6,13.6-20.6,13.6s-6.5-1-12.601,4.5
	c-6,5.5-115.1,105-115.1,285.9c0,58.8,29.6,98,75.899,98C528.2,772.2,615.1,530,615.1,458.6C615.2,382.7,598.7,344,552.4,344z
	 M442.9,665.1C429.3,665.1,422.8,653,422.8,616.9C422.8,511.4,469,458.6,469,458.6c-1.5,17.101,24.6,16.101,25.1,13.601
	S508.7,441,524.3,441c15.601,0,16.601,9,16.601,44.2C540.9,542,478.5,665.1,442.9,665.1z"/>
<path fill="#1F0010" d="M1305.7,509.3c-8.5,0-58.7,22.7-59.8,20.101c-2.4-5.801,38.6-89.4,41.699-109.101c0.101-0.8,0.2-1.399,0.2-2
	c0-15.1-6.7-40.2-32.3-40.2c-25.601,0-50.301,25.101-50.301,25.101S1193.6,386.6,1158,386.6c-35.7,0-63.301,105.5-71.4,147.2
	c0,0-24.1,24.101-29.1,25.101s20.899-82.9,53.8-132.2c6-9-18.1-24.601-38.2-24.601c-11.6,0-22.6,17.601-22.6,17.601
	s-11.1-15.101-41.7-15.101c-49.899,0-98.5,76.4-98.5,76.4s8.5-57.3-56.3-57.3s-91,64.8-91,64.8s3.5-40.7-49.2-40.7
	c-54.3,0-134.7,79.9-134.7,187.4c0,58.3,44.7,64.8,56.8,64.8C686.2,700,742.9,640.2,742.9,640.2s4.8,37.199,53.8,37.199
	c40.2,0,93.5-58.8,93.5-58.8s13.1,32.2,42.7,32.2c31.699,0,63.3-46.7,63.3-46.7s10.6,28.101,32.7,28.101
	c25.1,0,49.199-28.101,49.199-28.101s10.601,15.601,31.2,15.601c38.2,0,38.7-74.4,72.4-112.601c0,0-29.601,95,28.6,95
	c61.8,0,108.5-66.8,108.5-75.899C1318.8,517.1,1314.3,509.3,1305.7,509.3z M730.3,589c0,0-57.7,54.7-66.7,45.6
	c-25.8-25.8,32.4-112,32.4-112s-2.3,18.101,11.7,23.4c13.899,5.3,31.7-3,31.7-3L730.3,589z M880,566.4c0,0-50.5,42.6-63.3,42.6
	s-1.9-29-1.9-29c35.101-1.1,67.8-32.8,67.8-32.8C880.3,554.7,880,566.4,880,566.4z M961.7,562.6c-9.8,0,36.2-89.3,42.6-89.3
	C1010.7,473.3,971.5,562.6,961.7,562.6z"/>
<path fill="#DACA54" d="M487.6,379.7C469,379.7,370,502,370,624.4C370,696.3,390.1,735,428.8,735c72.4,0,177.4-150.3,177.4-283.4
	c0-57.8-14.101-94.5-49.2-94.5c-39.7,0-68.8,60.801-68.8,73.9s4.5,16.1,4.5,16.1s12.6-47.699,44.2-47.699
	c38.699,0,35.699,58.8,35.699,71.899c0,74.9-62.3,208.601-125.1,208.601c-22.6,0-35.2-14.601-35.2-70.4
	c0-104.5,78.2-212.4,83.4-219.1C499.2,385.7,491.3,379.7,487.6,379.7z"/>
<path fill="#DACA54" d="M711.7,525.4c0,0,19.1-16.101,19.1-26.101s0.5-20.6-9.5-20.6c-22.1,0-75.399,98.5-75.399,138.2
	c0,39.699,0-19.101,0,2.5c0,21.6,16.1,28.1,26.6,28.1c33.2,0,86.4-54.3,86.4-54.3l4,18.6c0,0-72.9,62.3-104,62.3
	c-37.2,0-58.4-23.399-52.7-74.899c7.399-66.8,62.2-140.7,115-140.7c16.1,0,33.7,10.1,33.7,38.2C754.9,537.5,711.7,525.4,711.7,525.4
	z"/>
<path fill="#DACA54" d="M820.3,622.4c-28.6,0-17.6-52.801-17.6-52.801s95-8.5,95-99.5c0-19.1-8.5-32.199-33.2-32.199
	C796.7,438,757,551.5,757,590.2c0,46.7,21.6,57.8,47.7,57.8c49.8,0,111.1-70.4,111.1-70.4v-19.1
	C915.8,558.6,848.4,622.4,820.3,622.4z M864.5,458.6c6,0,10.1,11.101,10.1,21.601c0,59.3-69.899,78.399-69.899,78.399
	C804.7,528.4,844.4,458.6,864.5,458.6z"/>
<path fill="#DACA54" d="M1050.9,575.2c-13.101,0-11.2-42.3,47.699-151.8c3.5-6.5-32.699-11.601-34.699-8.5
	c-2,3-13.101,23.1-13.101,23.1s-6.5-20.1-30.7-20.1C950.7,417.9,908,528,908,566.4c0,38.399,20.6,50.5,36.7,50.5
	c32.2,0,67.8-56.801,67.8-56.801s-1,31.7,31.7,31.7c30.2,0,68.3-39.2,68.3-39.2l4-18.6C1116.8,534,1068.5,575.2,1050.9,575.2z
	 M1038.5,464.2c-5.9,44.6-63.4,132.5-85.6,132.5c-7.9,0-10-14.3-6.4-34c12-64.7,59.7-122.8,79.8-122.8
	C1034.9,440,1041.2,444.2,1038.5,464.2z"/>
<path fill="#DACA54" d="M1105.7,585.7c0,0-0.5-75.101,51.8-185.4c4.5-9.5,40.7,1.5,38.2,7s-29.601,55.8-39.7,93
	c0,0,60.3-113.6,98.5-113.6c14.1,0,24.6,12.6,21.1,39.2c-3.5,26.6-57,96.699-34.199,119.6c11.6,11.6,63.3-30.1,63.3-30.1
	s11.6,5,2,15.5c-9.601,10.5-43.7,40.699-88.4,40.699c-11.1,0-20.1-15.1-20.1-31.699c0-32.2,51.8-119.9,45.7-126
	c-6.101-6.101-48.7,29.5-117.101,175.3C1124.6,593.9,1105.7,585.7,1105.7,585.7z"/>
<path fill="#DACA54" d="M825.3,812.9c0,0,37.7-23.601,37.7-77.9c0-21.6-7.5-35.7-21.1-35.7C787.6,699.3,721.3,829,721.3,908.9
	c0,62.8,3.5,106.5,61.3,106.5c53.801,0,114.101-99.5,114.101-99.5l-3,27.6c0,0-72.4,121.6-151.3,121.6c-59.801,0-72.4-67.8-72.4-108
	C670,824.4,748.4,677.7,833.3,677.7c49.2,0,63.3,27.1,63.3,72.899c0,59.801-45.699,69.301-50.8,69.301
	C840.9,819.9,825.3,812.9,825.3,812.9z"/>
<path fill="#DACA54" d="M884.1,986.7c0,0,12.801-118.8,48.2-193c5.5-11.601,32.7-2,31.2,2s-23.6,67.8-29.1,88.899
	c0,0,45.699-96.5,70.899-96.5c12.101,0,11.101,14.601,20.101,14.601s8.5,1.5,8,6s-13.601,13.6-22.101,13.6s-13.6-10.1-26.1,4.5
	c-12.601,14.601-54.3,59.3-73.9,163.8C909.6,999.4,883.8,989.8,884.1,986.7z"/>
<path fill="#DACA54" d="M1233.9,756.3c0-15.8,19.199-19.6,19.199-19.6s-15.1-13.9-20.699-13.9c-5.7,0-14.301,8.7-26.4,38.8
	c-12.1,30.2-70.5,187.7-125.5,187.7c-24.9,0-26.8-29-18.1-70.5c0,0,9.8,3,20,3c27.5,0,71.399-36.899,71.399-84.8
	c0-24.1-10.2-38.9-35-38.9c-43.2,0-99,83.4-99,150.301c0,42.699,19.601,57.899,51.3,57.899c70.9,0,141.2-178,141.2-178
	s-1,9.5,23.5,40.8c24.5,31.301,24.9,50.5,20.4,64.101c-4.5,13.6-13.9,24.5-27.5,24.5c-13.601,0-23.7-11.3-23.7-26.4
	c0-19.6,12.8-27.5,12.8-27.5s-39.199-5.7-39.199,35.4c0,33.5,44.1,35.8,53.5,35.8c28.3,0,55.8-27.5,55.8-70.1
	C1287.8,808.3,1233.9,788.2,1233.9,756.3z M1120.4,780.1c10.899,0,9.399,18.801,9.399,22.601c0,25.6-16.2,66.7-64.8,66.7
	C1065,869.4,1090.9,780.1,1120.4,780.1z"/>
<path fill="#110C08" d="M1583.914,894.455c-22.6,0-57.3-4.5-35.7-128.699c21.601-124.101,51.3-234.7,94-234.7s54.3,10.1,55.3,16.1
	s-10.1,93.5-6,121.101c0,0,44.7-91.5,67.301-134.7c22.6-43.2,43.199-41.7,55.8-41.7s48.2,12.1,49.2,24.1
	c1,12.101-35.7,83.4-45.7,141.7c0,0,32.2-72.9,91.5-72.9c26.101,0,39.2,14.601,39.2,14.601s5.5-17.601,30.199-17.601
	c24.7,0,29.101,19.601,29.101,19.601s13.601-30,34.2-30s33.899,9.2,41.199,19.7c0,0,17.601-32.9,39.7-32.9
	c22.101,0,39.2,20.6,39.2,20.6s46.2-39.199,81.9-39.199c35.699,0,56.699,25.3,62.3,46.699c0,0,20.1-66.1,30.2-66.699
	c10.1-0.601,46.199-1.101,52.8,12c0,0,5-9,15.6-8.5c10.601,0.5,21.601,4.5,29.101,1s10.1-18.101,20.1-14.101s8.5,70.9-23.1,70.9
	c-21.601,0-39.7-15.9-57.801,39.3c-18.1,55.2-14.6,117.5-14.6,121s-54.8,2.5-59.3-9.5c-4.5-12.1-6-38.4-6-38.4s-39.7,87.7-82.4,87.7
	s-51.3-27.6-51.3-27.6s-20.1,16.8-52.3,16.8s-46.7-43-46.7-43s-26.1,65.3-30.7,75.4c-4.5,10.1-40.2-13.101-43.2-14.601
	s-12.1,10.101-26.1,10.101s-31.699-14.601-31.699-14.601s-30.201,44.2-68.301,44.2c-38.199,0-66.3-33.9-64.8-81.3
	c0,0-11.3,69.8-8,103.9c1,10.6-19.601,26.6-28.601,26.6c-31.199,0-61.3-42.2-43.199-109.6c0,0-15,21-27.1,47.699
	c-2.5,5.5-54.801-7.5-58.801-22.6s-6.5-41.2-6.5-41.2s-9.1,67.3-12.6,117C1610.514,875.355,1601.414,894.455,1583.914,894.455z"/>
<path fill="#DACA54" d="M1274.1,733.5l57.301-8.5c0,0,22.8-98.4,48.699-139.2c3.5-5.5,37.2,2.5,35.7,7s-39.7,76.601-49.8,127.3
	l91-14.199l10.6,19.6c0,0-11.1-5-107.5,12.6c0,0-47.699,160.301,20.101,160.301c33.199,0,59.3-41.2,59.3-41.2s13.6,7.5,5.5,19.6
	c-8,12.1-31.2,41.7-64.8,41.7c-48.7,0-60.101-42.7-60.801-63.3c-1.5-46.2,8.5-114.601,8.5-114.601l-56.3,7L1274.1,733.5z"/>
<path fill="#DACA54" d="M1596.414,867.756c0,0-29.3,5.3-32.2-22.101c-4-38.7,31-240,76.4-300.5c4.5-6,44.2-5,43.2,6.5
	c-1,11.601-15.101,124.601-2.5,176.9c0,0,68.1-99.2,118.6-216.101c8-18.6,58.8-3.8,51.3,13.601
	c-54.8,125.6-74.399,213.6-74.399,322.1c0,10.101-34.7-2.5-36.2-27.1c-1.5-24.601,12.1-124.101,34.7-188.5
	c0,0-50.801,101.5-82.9,147.2c-5.3,7.5-42.5,0.399-44.2-16.101c-2-19.7-11.6-69.3-5.5-148.2
	C1642.714,615.556,1596.414,735.655,1596.414,867.756z"/>
<path fill="#DACA54" d="M1968.314,745.655c-13.601,0-9.801-53.1,24.1-142.2c4-10.6-21.6-15.6-25.1-10.1s-8.5,14.1-15.101,34.2
	c0,0-9.5-27.101-38.7-27.101c-29.199,0-86.399,42.7-86.399,144.2c0,44.2,28.1,57.8,47.7,57.8c31.699,0,57.8-49.8,57.8-49.8
	s3.5,13.601,30.2,13.601c26.6,0,45.199-25.601,45.199-25.601v-28.1C2008.014,712.455,1986.914,745.655,1968.314,745.655z
	 M1933.614,673.256c-3.4,62.699-42.7,104-55.8,104c-11.101,0-18.101-19.101-12.301-52.801c8.6-50,34.9-101.5,55-101.5
	C1925.314,623.056,1936.114,627.556,1933.614,673.256z"/>
<path fill="#DACA54" d="M2038.314,587.655c-21.5,39.2-41.301,141.3-35.101,163.601c3.399,12.1,24.899,18.8,24.899,18.8
	s10.2-70.101,85.2-168.101c0,0-63.7,140.2,10.2,140.2c22.6,0,48.6-34.3,48.6-34.3l-4.1-24.9c0,0-26.4,41.5-41.8,41.5
	c-15.5,0-12.8-57.699,22.2-127.8c3.399-6.8-8.301-25.3-26-25.3c-10.9,0-52.801,56.2-68.2,81c0,0,13.2-47.5,13.6-58.4
	C2068.114,583.056,2041.714,581.455,2038.314,587.655z"/>
<path fill="#DACA54" d="M2244.114,552.556c-36.601,0-81.8,56.899-81.8,111.899s12.8,81.801,47.5,81.801
	c34.699,0,83.699-62.2,83.699-128.5C2293.414,569.556,2273.114,552.556,2244.114,552.556z M2219.614,719.155
	c-21.7,0-24-27.3-20.7-61.399c3.4-35.4,25.6-81,52-81c7,0,20.7,9.399,20.7,34.3C2271.614,654.756,2239.514,719.155,2219.614,719.155
	z"/>
<path fill="#DACA54" d="M2236.514,627.955c0,0-1.5,22.9,26.801,17.7c28.3-5.2,44.699-14.8,85.199-116.1c2.301-5.7,26,5.7,24.9,11.3
	s-6.8,35.4-6.8,35.4s23-37.7,38.399-39.601c15.5-1.899,25.601,2.601,31.7-0.399c6-3,9-13.601,10.601-16.2
	c1.5-2.601,6.399,4.899,0,20c0,0-0.4,25.3-18.5,24.899c-18.101-0.399-18.5-6.399-28.601-4.899c-10.2,1.5-31.3,33.2-41.101,62.6
	c-9.8,29.4-11.3,96.5-11.3,96.5c0,4.5-33.2-1.899-32.8-15.5c0.4-13.6,6.8-86.3,6.8-86.3s-37.3,50.9-60.7,50.9
	C2237.714,668.256,2227.914,652.455,2236.514,627.955z"/>
<path fill="#1F0010" d="M1236.3,81.9c0,0,20.9-2.8,27.2-15.7h29.7l-2.101,125.6l-14,12.9L1245.7,203c0,0,2.1-96.3,2.1-104
	S1236.3,81.9,1236.3,81.9z"/>
<path fill="#1F0010" d="M1320.4,118.9c0,0-12.2-5.9-12.2-18.1c0-12.2,12.6-34.6,51.7-34.6c39.1,0,48.199,21.6,48.199,32.1
	s-10.8,20.6-10.8,20.6s17.8,10.5,17.8,37.3c0,26.9-27.199,52.4-59.3,52.4c-32.1,0-60.399-20.2-60.399-50.3
	C1295.3,128.3,1320.4,118.9,1320.4,118.9z"/>
<path fill="#1F0010" d="M1413.3,84.7c0,0,15.7,2.8,27.7-16.1h26l-3.1,126l-12.9,10.1l-30,1c0,0,0-90.4,0-100.2s-7.7-16.4-7.7-16.4
	V84.7z"/>
<path fill="#1F0010" d="M1474,111.2V85.7l7-15.7l90.1,2.1c0,0,9.801,24.1,10.5,27.6c0.7,3.5-47.399,34.1-87.6,114.5
	c-1.4,2.8-34.2-23.4-32.8-32.1c1.399-8.7,43.3-69.5,51-74.7C1512,107.4,1482.1,106.6,1474,111.2z"/>
<path fill="#DACA54" d="M1245.7,86.1c0,0,19.5-0.7,24.8-14h15.7l-1.7,117.3h-24.8l0.7-98.8C1260.4,90.6,1250.6,87.8,1245.7,86.1z"/>
<path fill="#DACA54" d="M1420.9,89.9c0,0,19.899-1,24.1-14h16.1l-3.1,115.9h-24.1l-0.301-98.1C1433.5,93.8,1427.2,93.4,1420.9,89.9z
	"/>
<path fill="#DACA54" d="M1482.7,101.8c0,0,2.399-9.8,3.8-25.8l80.6,2.1l7,19.5c0,0-43.6,23.7-76.1,99.8c0,0-17.8-14.3-17.1-22
	c0.699-7.7,40.5-65.3,63.5-83.1C1544.5,92.4,1500.2,87.1,1482.7,101.8z"/>
<path fill="#DACA54" d="M1386.4,120.3c0,0,13.3-7,13.3-22.7c0-15.7-17.8-25.5-39.101-25.5c-24.399,0-37,11.5-37,26.9
	s13.601,20.9,13.601,20.9s-25.5,8-25.5,34.2c0,26.2,29.3,35.3,48.899,35.3c19.601,0,47.5-10.1,47.5-38.4S1386.4,120.3,1386.4,120.3z
	 M1359.9,86.1c12.899,0,19.5,6.3,19.5,14.1c0,7.9-7.7,14.1-19.5,14.1c-11.9,0-16.4-10.1-16.4-14.7
	C1343.4,95.2,1348.7,86.1,1359.9,86.1z M1359.9,173.7c-18.5,0-24.101-13.3-24.101-20.6c0-7.3,7.3-20.9,24.101-20.9
	c19.899,0,23.699,16.4,23.699,20.8S1378.4,173.7,1359.9,173.7z"/>
</svg>
