<?xml version="1.0" encoding="utf-8"?>
<!-- Generator: Adobe Illustrator 16.0.4, SVG Export Plug-In . SVG Version: 6.00 Build 0)  -->
<!DOCTYPE svg PUBLIC "-//W3C//DTD SVG 1.1//EN" "http://www.w3.org/Graphics/SVG/1.1/DTD/svg11.dtd">
<svg version="1.1" id="Layer_1" xmlns="http://www.w3.org/2000/svg" xmlns:xlink="http://www.w3.org/1999/xlink" x="0px" y="0px"
	 width="2800px" height="1200px" viewBox="0 0 2800 1200" enable-background="new 0 0 2800 1200" xml:space="preserve">
<rect y="-1.4" fill="#3C2178" width="2800" height="1200.9"/>
<path d="M1240.733,103.213c0,0,41.969-16.96,47.719-25.296l6.036,3.45c0,0-2.587,95.724-1.149,102.911
	c1.437,7.186,4.599,12.648,4.599,12.648l-3.737,4.6l-48.293-1.438l-2.3-4.6c0,0,5.75-3.736,6.899-18.109
	c1.15-14.373,0-50.593-0.287-58.93c-0.288-8.336-5.174-10.061-5.174-10.061S1239.584,104.075,1240.733,103.213z"/>
<path d="M1302.825,103.788c0,0,40.532-14.373,49.155-23.284l5.749,3.162c0,0-2.587,84.513-2.587,93.424
	c0,8.911,8.911,20.984,8.911,20.984l-2.875,4.6l-55.192-1.15l-5.174-4.6c0,0,8.336-7.187,8.912-16.96
	c0.575-9.773,1.15-53.467,1.725-62.092C1312.023,109.25,1302.825,103.788,1302.825,103.788z"/>
<path d="M1368.94,87.977c0,0,10.349,9.199,47.431,8.049c37.082-1.15,47.144-4.6,47.144-4.6s8.911,9.486-6.325,33.058
	c-15.234,23.571-28.17,45.418-28.746,54.617c-0.574,9.199,8.337,25.297,8.337,25.297h-66.978l-5.749-6.324
	c0,0,22.996-35.358,33.632-48.581c10.637-13.223,20.697-24.434,20.697-24.434s-34.495-0.862-52.892,21.56l-4.887-2.587l4.312-53.467
	L1368.94,87.977z"/>
<path d="M1468.545,91.786c0,0,12.274,6.575,37.083,5.606c27.596-1.079,38.375-7.331,38.375-7.331l17.248,50.018l-3.234,2.587
	c0,0-10.466-14.148-35.357-18.541c-14.659-2.587-20.481-0.216-20.481-0.216l-0.431,3.45c0,0,17.894-4.527,39.454,5.174
	c21.559,9.702,23.499,31.261,23.067,37.513c-0.431,6.253-9.902,41.438-57.562,42.041c-34.063,0.432-42.903-7.33-42.903-7.33
	l-12.074-56.271l6.037-2.371c0,0,9.885,16.636,23.5,26.518c13.366,9.702,20.344,11.412,30.83,10.133
	c8.839-1.078,11.211-9.486,10.779-14.229c-0.432-4.743-4.312-16.17-21.991-14.876c-17.678,1.293-31.261,5.39-31.261,5.39
	l-3.88-5.174L1468.545,91.786z"/>
<path d="M1174.54,412.918c-12.941-52.645-127.17-100.499-352.929,6.431C602.877,522.951,575.548,667.635,580.268,704.427
	c14.515,113.156,233.636,38.047,233.636,38.047l-5.894,177.905c-50.907,31.615-150.578,99.671-153.257,187.016
	c-2.038,66.418,33.759,72.877,33.759,72.877c-17.148-98.599,88.417-180.049,165.582-213.809
	c77.165-33.76,117.89-43.941,127.536-29.473s-8.038,32.688-8.038,32.688l8.038,6.431c78.236-26.257,83.595-113.067,29.472-123.249
	c-54.122-10.182-127,27.865-127,27.865l2.144-165.046C1201.868,558.671,1180.729,438.095,1174.54,412.918z M1009.494,522.233
	c-0.536-42.333-59.481-58.408-118.426-28.399l-2.679-19.827c0,0,171.712-70.176,205.771-11.789
	c14.924,25.585-25.722,87.88-47.96,99.134c-17.239,8.723-35.649,21.759-48.228,29.74c-3.044,1.933,10.245,10.654,9.646,11.253
	c-0.268,0.268-22.969,18.827-24.114,17.684c-0.268-0.268,4.004-23.479,1.875-22.239c-39.138,22.815-88.953,54.124-88.953,54.124
	s17.148,4.823,19.291,9.109l-27.329,15.005l-1.072-108.781c0,0,40.19-15.54,45.013-1.071s-27.865,30.008-27.865,30.008
	l-0.536,17.683C903.929,613.866,1010.642,612.945,1009.494,522.233z M714.233,679.777c1.072,37.511,32.688,46.62,32.688,46.62
	c-62.16,15.005-121.641,10.182-117.354-29.473c9.892-91.5,187.016-192.911,187.016-192.911l-0.536,34.295
	c0,0-42.333,28.937-61.625,54.122C735.725,616.843,713.162,642.267,714.233,679.777z M814.976,702.284
	c0,0-55.194-2.145-51.443-22.507s34.295-51.978,53.586-68.59L814.976,702.284z"/>
<path d="M985.38,820.709l-85.202,46.62c0,0,13.396-38.582,15.004-60.017s0.536-109.853,0.536-109.853l63.232-35.366
	c0,0-5.895,106.637-5.895,125.928S985.38,820.709,985.38,820.709z"/>
<path d="M991.542,815.353c0,0-0.428-12.003,14.468-41.797c3.215-6.431,3.483-129.946,3.751-130.75s80.647-62.161,80.647-62.161
	l22.506,23.043l0.268-50.105l33.224-35.366l19.291-5.626l1.876,11.521c0,0-10.985,20.095-10.985,52.783
	s-4.019,109.585-4.019,119.766s9.378,19.023,10.182,20.095c0.804,1.072,0.268,9.377,0.268,9.377l-60.017,30.545l-6.162-5.358
	c0,0,11.253-24.114,11.789-31.348c0.536-7.234,0-21.703,0-21.703l-55.193-65.644c0,0-2.144,103.69-1.34,114.407
	c0.804,10.717,11.955,22.506,13.397,22.506c0.268,0,0.804,7.234,0.804,7.234l-74.217,39.653"/>
<path d="M1171.994,508.032l136.511-51.71l28.267,61.356l-3.617,4.421c0,0-49.433-26.123-89.221,1.206l1.607,29.338l55.462-23.31
	l16.88,59.079l-5.225,3.617c0,0-21.703-21.702-68.725,6.833v52.648c0,0,53.854-21.301,65.911-30.946
	c12.057-9.646,31.348-34.563,31.348-34.563l4.421,8.038l-14.468,72.341c0,0-126.196,40.592-156.338,56.266
	c0,0,9.244-15.272,9.646-39.788c0.402-24.516,4.421-130.214,4.019-145.084c-0.402-14.871-17.683-21.703-17.683-21.703
	L1171.994,508.032z"/>
<path d="M1537.051,413.721c0,0-74.484,86.542-110.389,84.934c-35.902-1.607-29.739-50.906,19.291-71.001
	c49.032-20.095,95.385-31.616,95.385-31.616s-6.43,220.24-6.967,245.158c-0.535,24.918-42.602,95.651-42.602,95.651l142.54-88.417
	l0.269-6.163c0,0-30.545-13.129-30.545-40.189s1.072-221.846,1.072-221.846s156.205-27.598,259.091-13.129l55.997-71.805
	c0,0-185.14,6.162-348.846,50.639c-163.707,44.477-230.379,94.34-228.548,151.114c1.608,49.836,80.526,48.782,93.776,47.156
	c28.4-3.486,66.982-21.434,66.982-21.434S1534.908,437.832,1537.051,413.721z"/>
<path d="M1787.031,570.997c-9.646-13.396-45.549-59.481-45.549-59.481s55.729-8.843,52.515-60.018
	c-3.216-51.175-53.586-55.998-90.561-52.515s-88.686,12.326-88.686,12.326s22.506,17.417,23.042,34.832s-1.34,105.564-2.144,124.856
	c-0.804,19.291-15.54,45.816-15.54,45.816l84.935-14.736c0,0-11.788-12.86-12.057-30.008c-0.269-17.148,0.535-49.835,0.535-49.835
	l7.771-0.269c0,0,21.701,47.424,24.381,55.194c2.681,7.77,3.484,23.309,3.484,23.309l84.934-7.501
	C1814.092,592.968,1796.677,584.393,1787.031,570.997z M1693.254,478.291l-0.535-40.725c0,0,41.188-9.612,43.673,13.664
	C1739.338,478.828,1693.254,478.291,1693.254,478.291z"/>
<path d="M1797.747,394.162c0,0,93.51-6.698,154.598-4.823l17.146,53.318l-2.412,2.144c0,0-29.74-25.989-91.096-17.684l0.536,40.725
	c0,0,49.835-0.536,54.925-8.573l4.823,1.339l11.253,56.266l-3.482,2.68c0,0-12.861-14.201-27.329-15.54
	c-14.469-1.339-41.262-1.608-41.262-1.608l0.536,47.96c0,0,79.308,3.484,103.689-21.166l0.536,12.324l-21.703,45.816
	c0,0-129.411,6.698-145.219,7.234l-3.483-6.698c0,0,11.789-8.574,13.129-31.08c1.34-22.506-1.607-117.086-1.607-131.019
	S1797.747,394.162,1797.747,394.162z"/>
<path d="M1972.708,391.482c0,0,108.779-6.163,158.615,1.875l16.611,56.802c0,0-30.812-28.133-99.402-25.722l0.268,34.831
	c0,0,59.48,3.483,68.055-4.823l6.162,61.357c0,0-5.894-25.453-75.557-19.291l-0.535,48.495c0,0,87.881,7.503,114.942-16.343
	l5.626,4.019l-27.061,54.658c0,0-146.558-1.876-164.51,1.072c0,0,12.325-10.717,14.469-38.046
	c2.143-27.329,1.874-108.244,2.143-126.196C1992.803,406.218,1972.708,391.482,1972.708,391.482z"/>
<path d="M1456.537,698.531c0,0-0.804,9.646-33.357,6.029s-153.389-14.065-152.721,129.009c0.402,86.006,80.17,101.619,98.063,98.866
	c20.898-3.215,61.892-20.898,80.379,1.608c0,0,8.842-55.864,6.832-94.849c0,0-9.048-5.977-9.243-5.626
	c-9.646,17.281-40.855,54.441-69.529,53.452c-23.31-0.804-39.788-27.329-38.18-66.715c1.608-39.386,13.263-75.155,43.807-77.164
	c32.092-2.111,56.266,20.496,68.725,71.136h9.244l2.812-110.521L1456.537,698.531z"/>
<path d="M1562.639,747.563c-53.453,0-95.25,47.424-95.25,92.838s24.516,94.848,91.633,94.848c67.116,0,98.062-60.284,98.062-92.034
	S1636.989,747.563,1562.639,747.563z M1561.834,889.433c-17.684,0-26.525-26.525-26.525-49.835
	c0-23.311,13.665-47.424,26.928-47.424c20.898,0,29.74,25.319,29.74,46.62S1579.518,889.433,1561.834,889.433z"/>
<path d="M1833.517,761.228l-65.107,1.607l-2.812,7.234c0,0,11.253,7.636,11.654,28.937c0.402,21.301,2.803,94.012-28.133,94.848
	c-14.87,0.402-19.291-6.028-18.085-34.161s2.813-61.088,3.617-69.528c0.804-8.439,17.684-22.104,17.684-22.104l-2.01-10.047
	l-83.997-2.411l-8.037,10.851c0,0,16.075,6.832,16.075,18.89c0,12.057-2.812,74.753-2.812,101.277
	c0,26.525,25.721,51.443,62.294,50.237c36.572-1.205,50.236-20.095,50.236-20.095l10.048,22.104c0,0,33.76-13.263,51.845-33.76
	c0,0-17.196-6.316-16.88-40.591c0.402-43.405,2.01-84.801,9.646-97.26l-3.617-6.028"/>
<path d="M1847.985,763.639h88.417l3.216,6.431c0,0-9.646,11.655-13.665,27.731c0,0,21.702-35.367,49.031-36.975
	c0,0,22.104,35.769,24.918,62.695c0,0-29.339-18.085-58.677,20.497c-29.339,38.582-18.487,71.136-8.038,86.81l-4.019,5.225
	l-71.137,1.206l-4.019-8.842c0,0,12.459-17.281,13.263-31.75c0.804-14.468,0.804-85.202,1.205-97.259
	c0.402-12.058-19.692-26.124-19.692-26.124L1847.985,763.639z"/>
<path d="M2060.187,595.646l6.431,0.402l-0.401,96.054c0,0,66.715-0.402,87.211-8.038l-45.414,55.06c0,0-36.975-5.225-43.807-3.617
	c0,0-2.411,124.99-0.804,140.664c1.607,15.675,12.86,23.712,26.525,18.487c13.664-5.225,30.544-24.113,16.478-55.863
	c0,0,30.606,4.834,29.338,49.835c-0.804,28.535-43.404,55.462-67.519,55.462c-27.329,0-62.695-15.272-62.695-54.256
	c0-38.984,3.616-154.73,3.616-154.73l-67.519-2.01c0,0,36.171-23.712,62.696-60.284
	C2030.849,636.237,2060.187,595.646,2060.187,595.646z"/>
<path fill="#57BBAA" d="M1159.535,404.93c-42.252-72.653-182.461-36.171-299.815,9.646s-186.943,116.679-227.504,168.66
	c-30.777,39.443-75.928,145.624-3.185,166.924c72.744,21.3,193.312-22.908,193.312-22.908l-3.617,196.527
	c-75.959,47.826-123.785,100.475-144.683,151.113c-20.899,50.64,0.402,83.193,0.402,83.193s5.665-44.108,19.291-67.921
	c41.396-72.342,104.895-109.316,159.151-135.038c54.256-25.721,108.512-39.386,128.607-31.749
	c20.095,7.636,4.421,41.797,4.421,41.797c40.19-24.918,53.453-48.228,54.256-63.098c0.391-7.225,0-41.798-39.386-44.61
	c-46.909-3.352-126.598,36.975-126.598,36.975l0.804-187.687c0,0,102.082-41.396,167.993-94.848
	C1132.071,539.661,1192.491,461.598,1159.535,404.93z M823.951,708.765c0,0-64.706,10.851-69.528-25.722s72.341-91.23,72.341-91.23
	L823.951,708.765z M826.764,540.37c-41.395,28.937-104.25,86.818-103.288,137.85c0.804,42.602,59.079,45.415,59.079,45.415
	s-74.351,21.301-121.775,16.478c-47.424-4.822-54.256-62.294,2.813-133.028c57.069-70.733,163.17-121.373,163.17-121.373V540.37z
	 M1025.302,598.243c-48.228,42.601-148.3,92.035-148.3,92.035l2.813-130.617c34.161-19.291,62.696-14.871,63.5,6.43
	s-30.946,35.769-30.946,35.769c42.199,4.421,68.373-26.816,76.763-42.116c9.11-16.612,20.095-48.311-13.263-66.396
	c-33.357-18.085-97.259,14.066-97.259,14.066l1.608-41.797c0,0,23.712-14.468,101.68-33.357
	c77.968-18.889,110.924-2.813,122.579,35.769C1116.13,506.61,1073.529,555.642,1025.302,598.243z"/>
<path fill="#57BBAA" d="M912.771,851.036c0,0,9.244-16.88,10.449-38.181c1.206-21.3,1.607-120.167,1.607-120.167l44.209-23.712
	c0,0-3.215,111.728-3.215,124.588c0,12.861,11.253,23.311,11.253,23.311L912.771,851.036z"/>
<path fill="#57BBAA" d="M974.261,625.17l3.617-11.253l-61.892,32.955c0,0,8.44,3.215,10.047,8.44
	C926.033,655.312,952.96,640.844,974.261,625.17z"/>
<path fill="#57BBAA" d="M1003.197,799.191c0,0,10.047-16.076,11.253-38.984c1.206-22.908,2.412-118.961,2.412-118.961
	s24.917-16.88,27.731-18.487c0,0-2.01,117.756-0.402,127.401c1.607,9.646,12.458,20.898,12.458,20.898L1003.197,799.191z"/>
<path fill="#57BBAA" d="M1013.646,596.635l-5.626-4.421l33.357-19.693C1041.377,572.521,1027.713,586.588,1013.646,596.635z"/>
<path fill="#57BBAA" d="M1051.023,615.524l65.107,75.154c0,0-0.804,26.525-1.206,32.956c-0.402,6.43-6.029,18.487-6.029,18.487
	l43.405-21.703c0,0-6.833-6.832-7.234-25.319s3.617-138.654,3.617-147.898s11.655-23.31,11.655-23.31l-16.879,0.804
	c0,0-15.674,19.693-23.712,27.731l-0.402,70.734l-32.554-37.778L1051.023,615.524z"/>
<path fill="#57BBAA" d="M1181.238,511.031c0,0,14.468,5.626,14.066,21.703c-0.402,16.076-2.01,137.047-3.215,149.104
	c-1.206,12.058-5.626,25.32-5.626,25.32s93.24-38.984,134.636-47.425l10.851-45.815c0,0-22.104,18.085-52.648,30.142
	c-30.544,12.058-43.003,16.076-43.003,16.076l-0.804-66.313c0,0,41.797-20.497,51.041-21.3c9.244-0.804,17.282,0.401,17.282,0.401
	l-8.038-32.955c0,0-45.012,21.3-58.275,25.721l-1.206-46.62c0,0,28.535-14.87,49.434-20.898c20.898-6.029,34.161,2.411,34.161,2.411
	l-17.683-35.769L1181.238,511.031z"/>
<path fill="#57BBAA" d="M1524.859,438.288l-26.927,77.164c0,0-40.189,20.095-76.36,20.899s-73.146-20.899-71.939-50.639
	c1.206-29.74,61.088-94.848,216.221-131.019c155.132-36.171,187.284-39.386,336.388-50.639l-38.582,51.443
	c0,0-135.037-9.244-265.654,17.282c0,0-2.813,223.455-2.411,243.147c0.402,19.693,22.506,28.937,22.506,28.937l-94.043,56.668
	c0,0,19.291-28.133,20.898-66.313c1.607-38.18,2.812-252.391,2.812-252.391s-147.378,20.869-155.132,96.857
	c-2.01,19.693,24.786,31.482,51.845,21.702C1477.838,489.329,1496.325,473.654,1524.859,438.288z"/>
<path fill="#57BBAA" d="M1790.112,585.382c-20.096-16.879-59.481-79.576-59.481-79.576c11.655-1.607,57.472-15.674,55.864-54.658
	c-1.607-38.984-32.554-48.228-66.715-47.826c-34.161,0.402-88.418,11.655-88.418,11.655s14.469,8.842,14.469,21.702
	c0,8.852-1.607,120.167-2.813,137.851s-8.439,30.544-8.439,30.544l56.266-8.842c0,0-4.421-7.234-6.431-16.88
	s2.411-65.107,2.411-65.107l16.478-1.607c0,0,25.32,51.443,31.349,62.696c6.028,11.253,4.421,16.478,4.421,16.478L1790.112,585.382z
	 M1684.011,485.711l0.402-54.658c0,0,18.487-6.028,32.554-5.225s28.133,8.842,28.133,26.124
	C1745.1,469.233,1737.062,479.683,1684.011,485.711z"/>
<path fill="#57BBAA" d="M1828.694,558.455c0.757-19.683,1.205-137.047,0.804-144.281c-0.402-7.234-16.88-16.478-16.88-16.478
	s133.028-2.813,134.233-2.813c1.206,0,11.254,34.965,11.254,34.965s-41.396-16.88-91.231-8.842l0.402,52.648
	c0,0,52.246-2.009,61.088-6.43l7.637,36.171c0,0-8.44-9.646-17.684-9.646c-9.244,0-50.237,1.206-50.237,1.206l-1.206,61.49
	c0,0,75.557,0.402,99.27-12.861l3.215,2.412l-17.684,33.759c0,0-126.195,6.028-129.812,5.626S1827.891,579.354,1828.694,558.455z"/>
<path fill="#57BBAA" d="M1987.443,396.088c0,0,108.914-1.608,137.851,2.411l12.058,35.769c0,0-41.798-23.31-96.456-15.674
	l0.402,45.816c0,0,61.49,0.402,68.322-3.617l5.225,36.572c0,0-17.684-12.458-73.547-8.439l-0.804,61.088
	c0,0,85.604,3.215,106.101-6.833l3.617,2.813l-16.478,34.965c0,0-78.772-6.832-146.692-0.804c0,0,10.851-16.076,10.851-34.965
	s1.206-118.952,1.206-127.804C1999.099,404.93,1987.443,396.088,1987.443,396.088z"/>
<path fill="#57BBAA" d="M1452.116,787.402l-0.536-74.484c0,0-6.965,2.143-28.4-0.536c-21.434-2.68-134.804-17.838-144.147,109.852
	c-4.823,65.911,52.515,104.494,98.599,96.991c46.084-7.502,47.155-10.181,66.446-1.607l3.215-69.662
	c0,0-32.688,46.619-71.805,44.477c-39.118-2.144-50.371-40.189-47.156-73.949s15.54-84.666,55.193-86.273
	C1423.18,730.602,1441.935,770.256,1452.116,787.402z"/>
<path fill="#57BBAA" d="M1562.504,755.25c-42.332,0-86.273,41.262-86.273,87.882s30.545,80.915,88.953,80.915
	c58.409,0,81.987-58.409,81.987-82.523C1647.171,817.41,1635.382,755.25,1562.504,755.25z M1562.504,896.182
	c-21.971,0-36.975-19.291-36.975-55.193c0-35.903,19.291-61.089,38.047-61.089c24.115,0,39.117,28.937,39.117,55.73
	S1584.475,896.182,1562.504,896.182z"/>
<path fill="#57BBAA" d="M1672.356,762.75l66.982,0.537c0,0-11.789,9.645-12.324,22.506c-0.537,12.86-3.216,91.097-3.216,99.67
	c0,8.574,12.324,19.827,26.257,16.611c13.933-3.215,32.152-14.468,33.225-38.046c1.071-23.577,1.072-77.163,1.607-83.059
	c0.535-5.895-9.11-14.468-9.11-14.468l50.371,0.535c0,0-5.358,98.063-4.822,108.78c0.536,10.718,12.86,28.401,12.86,28.401
	l-36.438,23.577l-10.182-24.649c0,0-21.434,24.114-52.515,24.114c-31.08,0-56.266-13.933-55.73-54.123
	c0.537-40.189,1.608-81.986,2.145-90.56C1682.002,774.004,1672.356,762.75,1672.356,762.75z"/>
<path fill="#57BBAA" d="M1858.836,768.109l65.376,2.68c0,0-6.431,12.325-6.431,19.291s-0.536,42.333-0.536,42.333
	s20.362-55.73,53.051-64.304l17.683,40.189c0,0-33.224-8.038-69.662,57.873c0,0-6.967,32.688-3.215,41.798
	c3.751,9.11,8.038,20.898,8.038,20.898l-58.409-1.071c0,0,7.501-8.038,8.573-30.544c1.072-22.507,2.68-96.991,2.68-105.565
	C1875.983,783.114,1858.836,768.109,1858.836,768.109z"/>
<path fill="#57BBAA" d="M2017.987,723.098l-58.409,0.536c0,0,28.4-21.435,52.515-48.764c24.113-27.329,45.013-55.729,45.013-55.729
	l0.536,81.451l75.557-3.752l-25.722,31.617l-49.835-2.145c0,0-3.216,124.857-2.68,148.435c0.535,23.578,31.664,43.528,56.801,6.966
	c5.895-8.573,8.574-21.434,8.574-21.434s13.932,15.004,2.144,41.797c-11.789,26.793-44.478,33.224-61.089,32.151
	s-47.691-13.396-46.084-66.447C2016.915,814.73,2017.987,723.098,2017.987,723.098z"/>
<path fill="#57BBAA" d="M1251.944,104.605c0,0,21.847-7.474,35.357-17.535c0,0-0.575,91.987-0.575,97.162
	c0,5.174,4.312,10.923,4.312,10.923l-40.819-1.725c0,0,6.037-5.461,6.324-15.235s0.354-56.348,0-60.367
	C1255.681,108.055,1251.944,104.605,1251.944,104.605z"/>
<path fill="#57BBAA" d="M1314.323,105.468c0,0,29.896-9.774,35.07-15.523c0,0-1.438,82.213-1.725,90.55
	c-0.288,8.336,6.899,16.098,6.899,16.098l-45.131-1.149c0,0,5.462-5.174,5.749-11.211s2.875-60.941,2.875-66.979
	C1318.06,111.218,1314.323,105.468,1314.323,105.468z"/>
<path fill="#57BBAA" d="M1366.353,136.226c0,0,5.174-33.345,6.037-38.807c0,0,3.162,2.587,27.596,2.875
	c24.434,0.288,54.33,2.587,60.079-2.3c0,0,4.599,1.15-7.762,19.547s-34.782,56.917-32.195,67.84
	c2.587,10.923,5.749,13.223,5.749,13.223l-53.18-1.725c0,0,6.324-7.474,14.948-22.997c8.624-15.523,37.37-49.73,46.855-57.205
	c0,0-22.709,1.15-37.944,3.737C1381.301,123.003,1372.965,130.765,1366.353,136.226z"/>
<path fill="#57BBAA" d="M1550.04,129.327c0,0-5.749-22.135-9.773-28.458c0,0-6.324,1.437-18.973,1.15
	c-12.648-0.288-37.369,0.574-48.006-1.15l-1.726,49.73c0,0,18.973-4.312,34.783-2.875s24.147,8.624,23.859,19.547
	c-0.287,10.923-8.624,21.56-26.159,20.985c-17.535-0.575-30.47-14.948-43.98-30.758l9.198,39.669c0,0,17.247,9.199,42.544,7.474
	c25.297-1.725,45.131-20.695,45.131-38.52c0-17.823-15.81-34.783-40.531-34.783c-24.723,0-21.56,1.725-21.56,1.725l-0.575-14.661
	c0,0,12.361-2.012,29.896,0.288C1541.703,120.991,1550.04,129.327,1550.04,129.327z"/>
<path fill="#32A798" d="M1272.354,110.93l-0.862,64.678l15.808,12.18c-0.347-1.166-0.573-2.375-0.573-3.556
	c0-4.605,0.455-77.982,0.556-94.062L1272.354,110.93z"/>
<polygon fill="#32A798" points="1288.581,195.052 1270.054,177.908 1250.831,193.457 "/>
<path fill="#32A798" d="M1349.367,91.438l-16.359,23.516l-1.149,61.517l16.79,10.124c-0.646-1.919-1.053-3.991-0.98-6.1
	C1347.933,172.824,1349.171,102.598,1349.367,91.438z"/>
<polygon fill="#32A798" points="1350.919,196.5 1331.571,181.357 1313.37,195.543 "/>
<path fill="#32A798" d="M1369.383,133.705c6.169-5.101,14.147-11.081,27.154-13.29c13.62-2.312,33.208-3.476,37.211-3.697
	l5.62-7.226l-54.617,1.15C1384.513,111.118,1373.269,127.907,1369.383,133.705z"/>
<path fill="#32A798" d="M1460.725,101.391l-18.482,11.552c0,0-16.672,21.847-25.584,39.957c-8.91,18.11-13.223,29.321-13.223,29.321
	l18.104,8.253c-0.481-1.444-0.965-3.126-1.431-5.091c-2.587-10.924,19.835-49.443,32.195-67.84
	C1458.092,108.928,1460.16,104.095,1460.725,101.391z"/>
<polygon fill="#32A798" points="1421.078,198.45 1400.273,186.244 1379.09,197.088 "/>
<path fill="#32A798" d="M1540.267,100.869c0,0-0.124,0.027-0.359,0.073l-8.265,8.263c0,0,9.722,6.1,15.66,10.383
	C1545.283,112.813,1542.508,104.39,1540.267,100.869z"/>
<path fill="#32A798" d="M1494.833,132.691l-0.561-14.288c0,0,12.361-2.012,29.896,0.288c5.995,0.787,10.913,2.278,14.792,3.901
	l-12.204-11.663l-42.832-1.725l-0.287,28.746C1483.638,137.951,1495.212,132.386,1494.833,132.691z"/>
<path fill="#32A798" d="M1527.331,144.275c-9.773-6.899-42.257-2.3-42.257-2.3l-10.644,8.037c5.893-1.125,19.827-3.387,31.915-2.289
	c13.186,1.199,21.168,6.399,23.289,14.427l11.781-4.078C1541.416,158.073,1537.105,151.174,1527.331,144.275z"/>
<path fill="#32A798" d="M1556.938,166.122c0-3.874-0.747-7.706-2.17-11.333l-12.202,3.285c0,0,1.726,13.798-2.587,22.135
	c-4.312,8.336-13.223,16.098-31.046,16.098c-17.822,0-32.771-5.749-32.771-5.749l-7.264,5.043l0.364,1.567
	c0,0,17.247,9.199,42.544,7.474C1537.104,202.917,1556.938,183.946,1556.938,166.122z"/>
<path fill="#32A798" d="M627.423,624.768c-28.937,49.031-20.095,86.811-20.095,86.811l16.076-4.02c0,0,0.141-0.229,0.403-0.66
	c-4.213-24.386,7.664-59.999,39.787-99.814c57.069-70.733,163.17-121.373,163.17-121.373v2.625l20.899-40.404
	c0,0-48.228,16.879-96.456,51.443C702.98,533.939,656.36,575.736,627.423,624.768z"/>
<path fill="#32A798" d="M878.609,507.414l1.608-41.797c0,0,23.712-14.468,101.68-33.357c72.272-17.509,105.865-4.972,119.67,27.682
	c7.173-12.086,15.269-29.204,8.937-40.141c-8.842-15.272-54.658-27.329-115.747-18.487s-147.094,46.62-147.094,46.62l4.823,81.987
	c2.509-0.627,20.186-16.423,27.833-23.335C879.211,507.111,878.609,507.414,878.609,507.414z"/>
<path fill="#32A798" d="M879.815,559.661c34.161-19.291,62.696-14.871,63.5,6.43c0.238,6.3-2.373,12.002-6.167,16.91
	c5.181-3.904,27.014-22.181,14.206-44.239c-14.468-24.917-61.892-12.057-97.259,12.057l-1.607,154.329l24.557-16.771
	L879.815,559.661z"/>
<path fill="#32A798" d="M768.087,618.338c-26.525,32.151-27.329,65.911-25.722,74.753l12.128-9.602
	c-0.022-0.15-0.051-0.295-0.071-0.446c-4.408-33.427,59.663-81.953,70.719-90.055l20.914-37.347
	C846.055,555.642,794.612,586.186,768.087,618.338z"/>
<path fill="#32A798" d="M629.031,750.16c48.605,14.232,118.553-0.78,159.628-12.312c-5.886,0.751-13.247,1.871-22.447,3.471
	c-61.625,10.718-105.029,11.253-131.287,3.215c-26.257-8.038-27.597-32.955-27.597-32.955l-14.483,3.039
	C597.446,731.099,608.541,744.159,629.031,750.16z"/>
<path fill="#32A798" d="M757.638,710.773c-11.789-10.716-15.272-17.683-15.272-17.683l-14.065,3.58
	c10.808,19.172,36.896,24.793,48.509,26.373l7.085,0.591C783.895,723.635,769.427,721.491,757.638,710.773z"/>
<polygon fill="#32A798" points="877.671,705.416 851.95,713.454 849.806,912.26 880.351,890.288 "/>
<path fill="#32A798" d="M674.445,1158.086c0,0,5.665-44.108,19.291-67.921c41.396-72.342,104.895-109.316,159.151-135.038
	c54.256-25.721,108.512-39.386,128.607-31.749c3.17,1.204,5.449,3.07,7.041,5.357c-1.159-14.403-9.132-42.833-55.67-27.729
	c-61.088,19.827-115.747,38.047-160.223,76.093c-44.107,37.73-87.155,67.044-100.933,175.71
	C673.253,1156.262,674.445,1158.086,674.445,1158.086z"/>
<path fill="#32A798" d="M1514.295,468.565c-19.164,27.464-46.188,44.044-80.398,51.441c-39.654,8.574-57.337-14.468-57.337-14.468
	l-16.147,7.482c13.425,14.724,37.465,23.857,61.161,23.331c36.171-0.804,76.36-20.899,76.36-20.899L1514.295,468.565z"/>
<path fill="#32A798" d="M1393.893,488.749c-1.117-2.766-1.59-5.805-1.257-9.066c7.754-75.989,155.132-96.857,155.132-96.857
	s-0.001,0.252-0.004,0.725l15.275-16.803c0,0-64.84,18.756-98.599,32.688c-33.76,13.932-63.768,27.865-79.844,51.979
	c-16.076,24.114-8.038,51.443-8.038,51.443L1393.893,488.749z"/>
<path fill="#32A798" d="M1704.106,418.193c-36.171,4.019-42.199,6.028-42.199,6.028l0.401,69.93l21.707-9.094l0.397-54.004
	c0,0,18.487-6.028,32.554-5.225c11.207,0.641,22.405,5.879,26.499,16.72l13.69-8.682
	C1757.156,433.867,1740.276,414.174,1704.106,418.193z"/>
<polygon fill="#32A798" points="1898.552,308.974 1853.479,327.096 1865.938,352.46 "/>
<path fill="#32A798" d="M1859.445,355.248l-16.685-26.008c0,0-190.767,8.574-265.788,36.975c0,0-8.574,233.636-5.895,247.569
	c2.393,12.443,20.596,20.605,32.478,20.682c-4.242-4.595-7.803-10.746-7.962-18.539c-0.402-19.692,2.411-243.147,2.411-243.147
	C1715.063,349.007,1835.667,353.963,1859.445,355.248z"/>
<path fill="#32A798" d="M1609.997,649.745c-12.894-0.102-33.362-3.044-39.454-19.886c0,0-11.965,37.171-30.934,62.299
	L1609.997,649.745z"/>
<path fill="#32A798" d="M1685.379,597.092c-6.163-3.869-18.598-11.927-23.739-17.068c0,0-12.699,15.599-21.079,24.111
	L1685.379,597.092z"/>
<path fill="#32A798" d="M1684.413,579.354c-1.887-9.059,1.897-58.529,2.364-64.512l-24.603-13.055l1.608,70.734
	c0,0,13.778,9.643,22.555,13.742C1685.614,584.175,1684.933,581.847,1684.413,579.354z"/>
<path fill="#32A798" d="M1671.284,499.645c0,0,13.022,9.864,18.068,14.355l13.949-1.361c0,0,0.093,0.188,0.264,0.534
	c1.13-4.126,3.573-12.164,6.302-15.672C1709.867,497.5,1679.858,501.252,1671.284,499.645z"/>
<path fill="#32A798" d="M1780.732,428.179l-18.352,7.162c0,0,9.11,19.826-4.286,36.975c-13.397,17.147-43.941,24.114-43.941,24.114
	s30.544,58.945,38.582,71.269c5.957,9.135,22.797,11.203,31.121,11.663c-21.025-22.3-53.226-73.555-53.226-73.555
	c11.655-1.607,57.472-15.674,55.864-54.658C1786.113,441.902,1784.065,434.347,1780.732,428.179z"/>
<path fill="#32A798" d="M1752.735,572.521l-7.31,18.49l33.575-4.229C1767.135,582.916,1752.735,572.521,1752.735,572.521z"/>
<path fill="#32A798" d="M1848.387,408.547l-2.009,69.126l20.894-4.643l-0.397-52.024c30.871-4.979,58.499-0.397,75.06,3.812
	l-15.177-18.28C1926.757,406.538,1864.062,410.155,1848.387,408.547z"/>
<path fill="#32A798" d="M1934.394,406.136l21.858,17.348c-2.484-8.456-6.794-22.84-8.639-27.263L1934.394,406.136z"/>
<path fill="#32A798" d="M1844.771,566.493l22.604-10.046c-0.327,0-0.5-0.001-0.5-0.001l1.206-61.49c0,0,40.993-1.206,50.237-1.206
	c9.243,0,17.684,9.646,17.684,9.646l-6.51-30.835c-1.738,3.533-6.351,10.362-16.398,11.544c-13.665,1.607-65.51,3.617-65.51,3.617
	L1844.771,566.493z"/>
<polygon fill="#32A798" points="1951.944,579.242 1967.571,549.408 1943.235,564.082 "/>
<path fill="#32A798" d="M1937.608,568.101c0,0-88.016,3.617-95.25,4.421c-4.885,0.543-13.431,8.045-18.468,12.864
	c14.062-0.273,94.56-4.055,120.045-5.263L1937.608,568.101z"/>
<path fill="#32A798" d="M2112.835,407.743l22.425,20.323l-9.243-27.425C2121.021,403.606,2113.867,407.743,2112.835,407.743z"/>
<path fill="#32A798" d="M2043.984,418.197c33.265-3.982,61.466,3.317,77.911,9.336l-14.687-18.183c0,0-6.028,1.607-33.357-0.804
	c-27.329-2.411-48.63-2.411-48.63-2.411L2043.984,418.197z"/>
<polygon fill="#32A798" points="2020.399,472.449 2041.292,463.718 2040.911,420.389 2020.399,409.753 "/>
<polygon fill="#32A798" points="2100.377,475.262 2113.833,490.283 2110.459,466.663 "/>
<path fill="#32A798" d="M2041.264,491.5l0.034-2.573c31.456-2.263,50.806,0.698,61.71,3.718l-7.855-12.962l-64.706-0.804
	L2041.264,491.5z"/>
<path fill="#32A798" d="M2040.494,550.015l0.682-51.853l-20.375-19.283l-3.215,75.959l23.619-4.798
	C2040.747,550.024,2040.494,550.015,2040.494,550.015z"/>
<polygon fill="#32A798" points="2135.438,577.346 2149.035,548.492 2126.5,560.464 "/>
<path fill="#32A798" d="M2128.766,580.57l-8.294-18.097c0,0-22.104,6.833-52.247,4.019c-30.142-2.813-51.845-5.626-51.845-5.626
	l-24.258,18.867C2048.628,575.271,2111.007,579.248,2128.766,580.57z"/>
<path fill="#32A798" d="M974.261,625.17l3.617-11.253l-4.193,2.232l-19.559,22.647C960.745,634.616,967.764,629.95,974.261,625.17z"
	/>
<path fill="#32A798" d="M965.821,793.564c0-12.86,3.215-124.588,3.215-124.588l-20.535,11.015l-1.167,128.443l28.16,9.28l1.581-0.84
	C977.074,816.875,965.821,806.426,965.821,793.564z"/>
<polygon fill="#32A798" points="968.058,821.664 943.716,812.454 920.693,846.827 "/>
<polygon fill="#32A798" points="1047.532,775.857 1026.507,766.235 1010.591,795.3 "/>
<path fill="#32A798" d="M1044.191,750.16c-1.608-9.646,0.402-127.401,0.402-127.401c-1.294,0.739-7.264,4.709-13.334,8.781
	l-1.536,128.266l26.404,11.528l0.523-0.275C1056.649,771.059,1045.798,759.806,1044.191,750.16z"/>
<path fill="#32A798" d="M1160.339,523.892l-0.069,0.003l-25.652,23.709L1131,705.147l20.529,15.658l0.772-0.387
	c0,0-6.833-6.832-7.234-25.319s3.617-138.654,3.617-147.898S1160.339,523.892,1160.339,523.892z"/>
<path fill="#32A798" d="M1128.991,712.382l-19.023,27.324c-0.636,1.482-1.072,2.416-1.072,2.416l35.099-17.55L1128.991,712.382z"/>
<path fill="#32A798" d="M1069.017,600.361l-17.994,15.163l65.107,75.154c0,0-0.041,1.349-0.108,3.502l0.108,0.115l1.607-40.993
	L1069.017,600.361z"/>
<polygon fill="#32A798" points="1291.357,478.879 1317.288,495.314 1302.243,464.883 "/>
<path fill="#32A798" d="M1209.371,512.237l3.617,71.136l24.71-17.75c-0.064,0.021-0.132,0.045-0.194,0.066l-1.206-46.62
	c0,0,28.535-14.87,49.434-20.898c8.141-2.349,15.116-2.497,20.606-1.809l-20.606-14.669
	C1285.731,481.692,1227.858,506.61,1209.371,512.237z"/>
<polygon fill="#32A798" points="1286.535,560.062 1302.497,567.512 1296.614,543.393 "/>
<path fill="#32A798" d="M1215.801,591.812l-0.804,79.978l21.284-13.025l-0.788-64.943c0,0,41.797-20.497,51.041-21.3
	c3.463-0.302,6.756-0.32,9.521-0.227l-16.755-8.213C1279.301,564.082,1222.231,588.999,1215.801,591.812z"/>
<path fill="#32A798" d="M1330.827,618.656c-4.486,6.676-14.4,20.754-20.178,23.795l11.808,11.545L1330.827,618.656z"/>
<path fill="#32A798" d="M1303.415,648.882c0,0-93.642,36.572-94.446,36.572l-15.209,18.694
	c21.738-8.888,86.805-34.944,122.556-43.358L1303.415,648.882z"/>
<polygon fill="#32A798" points="1451.963,766.188 1451.621,718.481 1440.863,730.869 "/>
<path fill="#32A798" d="M1385.401,726.046c-30.946,3.617-71.136,28.535-79.576,80.781c-8.44,52.247,20.095,80.38,22.506,80.38
	l11.264-14.011c-10.191-14.6-13.107-35.36-11.264-54.714c3.215-33.76,15.54-84.666,55.193-86.273
	c28.922-1.173,46.725,19.603,58.193,37.587l-7.688-36.516C1434.031,733.28,1416.348,722.429,1385.401,726.046z"/>
<path fill="#32A798" d="M1446.747,859.792c-5.394,7.812-19.221,27.653-21.155,28.62l19.109,15.72L1446.747,859.792z"/>
<path fill="#32A798" d="M1439.643,915.724l-18.874-22.891c0,0-19.291,17.684-49.835,15.674
	c-30.544-2.009-45.415-18.889-45.415-18.889l-9.377,14.066c18.451,13.136,41.073,18.864,61.491,15.54
	C1419.914,912.341,1424.307,909.521,1439.643,915.724z"/>
<path fill="#32A798" d="M1561.031,770.656c-26.928,1.607-61.089,28.937-62.295,71.939c-1.205,43.004,12.459,45.816,12.459,45.816
	l18.369-19.075c-2.607-7.826-4.035-17.298-4.035-28.349c0-35.903,19.291-61.089,38.047-61.089c16.172,0,28.237,13.021,34.436,29.675
	c5.356-5.81,15.266-13.598,15.266-13.598S1587.957,769.049,1561.031,770.656z"/>
<path fill="#32A798" d="M1565.184,924.047c58.409,0,81.987-58.409,81.987-82.523c0-12.687-3.27-35.905-16.978-55.061l-12.897,10.317
	c0,0,16.88,28.534,3.216,64.705c-13.665,36.171-33.04,47.794-57.873,49.835c-29.339,2.412-51.443-20.496-51.443-20.496
	l-9.951,12.483C1516.121,916.354,1537.527,924.047,1565.184,924.047z"/>
<path fill="#32A798" d="M1724.469,889.083c-0.433-1.228-0.67-2.449-0.67-3.62c0-8.573,2.679-86.81,3.216-99.67
	c0.35-8.4,5.499-15.426,9.029-19.291l-31.134,17.016c0,0-13.263,100.072,2.812,118.961L1724.469,889.083z"/>
<path fill="#32A798" d="M1784.868,905.861c3.954-8.638,11.674-30.31,11.674-30.31c-18.487,22.506-29.74,29.339-49.835,35.367
	s-38.984-8.44-38.984-8.44l-12.096,13.026c10.093,8.331,24.033,11.756,39.425,11.756
	C1759.655,927.261,1778.202,912.159,1784.868,905.861z"/>
<path fill="#32A798" d="M1826.101,767.92l-20.717,17.205c0,0-4.421,61.088-5.225,90.024c-0.549,19.769,15.781,29.781,26.185,34.143
	l7.843-5.073c0,0-12.324-17.684-12.86-28.401C1820.819,865.692,1825.573,777.621,1826.101,767.92z"/>
<path fill="#32A798" d="M1797.736,927.767l0.178-0.078l22.307-14.434c-4.411-1.959-10.61-5.462-15.641-11.178l-8.106,22.633
	L1797.736,927.767z"/>
<path fill="#32A798" d="M1980.517,808.248l-16.785-13.88c0,0-31.348,26.928-44.209,47.424l2.676-20.952
	c-3.235,6.874-4.953,11.573-4.953,11.573s0.536-35.367,0.536-42.333c0-4.126,2.257-10.133,4.096-14.345l-24.86,18.231
	l-4.019,107.708l25.297,27.104l4.845,0.089c0,0-4.287-11.788-8.038-20.898c-3.752-9.11,3.215-41.798,3.215-41.798
	C1944.327,819.122,1968.697,809.757,1980.517,808.248z"/>
<polygon fill="#32A798" points="1965.339,788.34 1985.088,801.729 1973.472,775.328 "/>
<polygon fill="#32A798" points="1908.061,928.591 1888.979,905.694 1867.89,927.854 "/>
<polygon fill="#32A798" points="2057.239,639.565 2036.475,681.436 2036.475,707.559 2057.639,700.21 "/>
<path fill="#32A798" d="M2016.874,723.107c1.961-8.213,6.515-27.367,7.143-30.821l-47.114,31.188L2016.874,723.107z"/>
<path fill="#32A798" d="M2063.804,713.989c-36.975-2.813-28.133-1.607-28.133-1.607s-6.028,183.667,4.823,188.088l19.072-10.949
	c-2.808-4.338-4.484-9.462-4.604-14.773c-0.536-23.577,2.68-148.435,2.68-148.435l49.835,2.145l21.03-25.85
	C2119.681,706.442,2093.719,716.266,2063.804,713.989z"/>
<path fill="#32A798" d="M2122.48,902.076c5.358-12.179,5.397-21.911,3.852-28.916c-4.655,14.242-18.865,48.598-47.256,47.002
	c-35.769-2.01-39.386-15.271-39.386-15.271l-14.085,8.216c10.197,15.645,25.674,20.469,35.786,21.121
	C2078.003,935.3,2110.691,928.869,2122.48,902.076z"/>
</svg>
