<?xml version="1.0" encoding="utf-8"?>
<!-- Generator: Adobe Illustrator 16.0.4, SVG Export Plug-In . SVG Version: 6.00 Build 0)  -->
<!DOCTYPE svg PUBLIC "-//W3C//DTD SVG 1.1//EN" "http://www.w3.org/Graphics/SVG/1.1/DTD/svg11.dtd">
<svg version="1.1" id="Layer_1" xmlns="http://www.w3.org/2000/svg" xmlns:xlink="http://www.w3.org/1999/xlink" x="0px" y="0px"
	 width="2800px" height="1200px" viewBox="0 0 2800 1200" style="enable-background:new 0 0 2800 1200;" xml:space="preserve">
<rect y="-1.4" style="fill:#48296E;" width="2800" height="1200.9"/>
<path d="M716.7,805.1c-5-2.7-11.4-1.6-11.1,0.3c0.3,1.9,6.1,26-2.1,49.1s-41.2,87-133.5,92.1c-47.8,2.7-52.8-68-53.4-86.5
	c-0.4-12.8-4.2-18.1-4.2-18.1s50.7-45.9,78.3-80.7c27.6-34.8,128.6-201.5,129.3-300.2c0.5-79.6-37.7-88.7-57.3-89.2
	c-25.8-0.7-93.8,30.4-153.6,116.8c-59.8,86.4-53.8,169.9-12,173.1c41.8,3.2,62.8-19,87.1-46.7c2.5-2.8-4.6-11.3-8.5-8.8
	c-3.9,2.5-21.2,6-27.6-0.4c-6.4-6.4-14.5-56.3,20.2-114c34.7-57.7,71.5-87.1,92-76.5c20.5,10.6,31.1,56.3,4.2,133.4
	c-26.9,77.2-55.2,142.6-94.2,189.4c0,0-29.4,14.2-68,8.8c0,0,8.1,18.8,36.8,24.8c0,0-20.2,24.1-41.4,40c0,0-27.6-25.8-57.3-25.5
	c-29.7,0.4-48.5,11.7-67.6,26.5c0,0-3.5-52.7,12.4-98.8c15.9-46.1,34.7-68.7,54.2-69.4c19.5-0.7,26.9,6.4,26.9,6.4
	s2.5-43.9-41.8-49.6c0,0,35.4-103.4,93.1-166.4c57.7-63,134.1-95.6,175.2-95.6c5,0,2.8-12.7,0.7-12.9c-5.8-0.7-53.6-9.6-128,16.5
	c-74.6,26.1-180,94.5-254.8,273.4c0,0-53.1-11.7-49.4,47.3c0,0,22.8-3.7,23.9,21.2c1.1,25-49.7,206.2,79.1,223
	c36.6,4.8,87.6-22.3,87.6-22.3s0,113.1,117.9,98.8C687.7,970.1,725.9,877.7,728,851.7C730,825.8,721.7,807.7,716.7,805.1z
	 M414.1,863.8c-21.5,0.5-27.6-16.2-27.6-16.2c4.8-8.8,10.4-18.6,31.9-18.3s27.9,23.4,27.9,23.4S435.6,863.3,414.1,863.8z"/>
<path d="M624.3,710.4c8-6,37-28.5,62.4-81.1c0,0,62.6-11.9,74.1-15.9c0,0-78,154-75.1,153.2c2.9-0.8,25.4-17.5,42.6-51
	s52.2-105.4,52.2-105.4s56.8-7.7,73.8-14.1c0,0-81.5,158.5-80.7,159.5c0.8,1.1,34.8-28.1,74.1-91.6l-9.7,54c0,0-61.2,83.2-94.2,82.3
	c-18.3-0.5-28.9-13.3-29.2-22c0,0-35.6,42.5-69.8,41.1c-34.2-1.3-38.5-43-19.4-72.5L586.9,762l30.3-48.3L624.3,710.4z"/>
<path d="M1244.7,528.5c16.4-9.7,47.5-20,56.7,12.6c0,0,33-43.8,70.8-40.7c34.7,2.8,25.8,54-18.4,128.2c-2.5,4.2,18.1,2.4,37.9-15.7
	c19.8-18.1,37.2-43.9,39.3-49.2s14.5,5.7,13.1,9.6c-1.4,3.9-25.8,45.9-53.1,66.9c-33.6,25.8-65.1,35.8-84.2,35.8
	c-19.1,0-41.9-24.1,24.1-127.8c2.5-3.9-13.1-2.8-53.8,63.4c-40.7,66.2-45,79.3-45,79.3l-72.9,16.6c0,0,87.4-147.2,85.7-150.1
	c-1.8-2.8-12.4,0.7-12.4,0.7L1244.7,528.5z"/>
<path d="M893.7,735.3c-17-3.2,0-31.1,0-31.1s54.5-6.4,88.5-43.2c58.9-63.8,19.1-91.8-3.9-91.3c-52.7,1.1-101.9,56.3-127.1,88.8
	c-25.1,32.6-45.7,114.7,19.8,112.6c65.2-2.1,133.4-76.8,133.4-76.8l3.2-39C952.8,721.3,910.7,738.5,893.7,735.3z M976.3,603.8
	c6.9,0.6-5.1,28.4-18.1,42c-20.7,21.8-47.3,27.6-47.3,27.6S959.9,602.3,976.3,603.8z"/>
<path d="M1199.8,572.3c-35,46.4-80.3,127.5-133.4,131.7c-18.1,1.4-8.5-23.4,0.4-40c0,0,46-3.2,75.7-25.8c33.5-25.5,71.1-95.9,5-99.1
	c-32.9-1.6-87.4,30.8-127.1,85.3c-39.6,54.5-19.1,106.5,18.4,109s88.5-19.8,141.6-93.4c53.1-73.6,63.4-83.2,64.4-83.2
	s12-34.3,12-34.3S1234.9,526,1199.8,572.3z M1121.8,578.9c15.3-12.4,22.8-13.3,25.5-5.8c2.7,7.4-7.5,29.2-19.4,38.2
	c-11.9,9-32.1,22.8-46.4,25.5C1081.4,636.8,1100.6,596.1,1121.8,578.9z"/>
<path style="fill:#FCB543;" d="M713.5,809.9c0,0,2.7,21.5-0.5,35.6c-4.5,19.6-29.5,72.2-84.2,94.8c-57.1,23.5-81.3,12.8-95.6-1.9
	c-21.2-21.8-17.8-53.6-21.8-71.4s-7.7-26.8-7.7-26.8s85-55.2,154.5-207.1c26.6-58,49.7-111.8,55.6-155.4c7.2-54-9.6-92.1-48.8-98.8
	c-52.4-8.8-136.7,90.5-155,119.3c-30.1,47.1-55.8,136.9-21.2,152.9c33.9,15.7,67.9-15.7,82.9-31.5c2.4-2.5-1.4-3.5-2.3-3.3
	c-3.2,0.5-11.1,2.1-19.6-1.9s-20.2-18.1-13-55.5c7.2-37.4,23.4-70.1,44.1-98.8c20.7-28.7,57.6-60.3,80.2-52
	c22.6,8.2,34.8,52.8,12.7,132.7c-22,79.9-74.9,176.3-96.6,201.2c0,0-20.7,15.7-62.1,11.4c0,0,10.9,14.3,46.7,7.4
	c0,0-49.1,49.6-65.6,61.3c0,0-25.5-29.2-57.1-29.2c-31.6,0-56.5,18.3-69,33.4c0,0-12.5-44.9,2.7-95.6c15.1-50.7,29.2-75.7,47-86.5
	c17.8-10.9,37.7-5.3,37.7-5.3s-7.4-28.7-34.5-30.5c-27.1-1.9-40.6,21.8-50.7,49.9c0,0,4,10.1-2.7,21.2
	c-6.6,11.1-10.6,17.3-16.2,15.4c-5.6-1.9-4.5-13.5,3.5-23.4c8-9.8,13.8-20.4,18.3-36.9s1.9-30.5,4.2-42.7
	c2.4-12.2,8.5-29.2,8.5-29.2s-18.8,9.8-41.4,50.7c-22.6,40.9-11.7,61.3-12.2,73.5c-0.5,12.2-3.5,13.8-7.4,13.5
	c-4-0.3-10.4-4.5-5.6-22.6c4.8-18.1,6.4-22.3,4.5-32.1c-1.9-9.8-10.6-25-31.9-23.4c-21.2,1.6-26.5,25.5-26.5,34
	c0,0,15.9-1.3,21,16.2c5,17.5,1.9,35.8-2.9,70.1c-4.8,34.2-7.5,158.2,90.3,158.2c40.4,0,80.7-25,80.7-25s4.8,69,44.3,91.3
	c39.6,22.3,101.9,6.6,135.4-10.1c33.4-16.7,77.1-53.7,86.3-108.6C726.3,825,713.5,809.9,713.5,809.9z M454.1,854.3
	c-1.9,3-19.8,16.8-41.3,16.7s-33.7-21.4-33.7-21.4s6.1-29.6,39.2-27.7c28.2,1.7,35.8,32,35.8,32V854.3z"/>
<path style="fill:#FCB543;" d="M681,332.6c-4-0.3-35.8-4.2-85.9,8.5c-43.8,11.1-105.9,41.9-160.6,93.2
	c-52.4,49.1-112.3,168.6-117.9,188.2c0,0,11.1,8.5,12.2,14.3c0,0,12.2-34.1,29.2-55.3c17.8-22.3,31.1-30.7,36.1-33.3
	c1.7-0.9,6.6,3.2,5.8,4.8c-3.3,7.2-10.3,22.7-12.6,33.3c-3.1,13.9-1.2,26.4-2.4,32.7c0,0,9.4-15.7,20.6-20
	c8.2-3.2,12.7-0.5,12.7-0.5s31.6-92.7,79.4-150C544,392.7,603.8,348.7,681,336.1C682.2,335.9,682.3,332.7,681,332.6z"/>
<path style="fill:#FCB543;" d="M750.9,623.1c0,0-77,146.4-73.1,151.7c3.9,5.3,20.5-6,47.4-40.7l60.9-118c0,0,39.3-4.2,55.2-8.5
	c0,0-76.5,149.5-77.3,156.3c-0.9,6.7,12.4,9.2,73.3-70.4l8-13.3v19.1l-12.4,13.6c0,0-58.6,81.2-86,81.2c-27.4,0-28.1-19.3-29.9-29.2
	c0,0-35.4,45.8-67.6,48.1c-32.2,2.3-41.9-31.9-2.5-91.7c0,0-37.6,35.6-90.5,40.5l11-14.6c11.3-5.1,26.9-8.4,45.6-19.4
	c8.1-4.8,23.9-13.5,45.8-41.4c21.9-28,31.7-52.4,31.7-52.4s40-5.8,60.3-11.7"/>
<path style="fill:#FCB543;" d="M898.7,741.6c-33.6,5.1-9.7-41.6-9.7-41.6s32.4-2.9,69-26s73.8-97.2,18.8-97.7
	c-50.4-0.5-90.3,47.8-122.4,90.3c-32.1,42.5-28.7,95.3,10.6,97.4s95.8-31.3,141.8-83.9l12.5-15.1v-21.2
	C1019.3,643.7,966.8,731.3,898.7,741.6z M974.7,596.4c15.1-0.8,18.1,27.9-11.7,55.2c-29.7,27.3-68.8,35.6-68.8,35.6
	S948.4,597.8,974.7,596.4z"/>
<path style="fill:#FCB543;" d="M1258.5,542.5l-0.8-14.1c-20.4,8.2-36.4,21.1-90.3,103.5c-30.5,46.7-75.9,79.5-101.4,78.4
	c-25.5-1.1-14.3-33.2-3.2-52.6c0,0,34.8-1.9,59.5-13.5c48.3-22.8,83.6-98.8,23.4-99c-46.2-0.2-87.3,40.9-119.5,85.2
	c-32.1,44.3-26,94.2,15.9,97.2c41.9,2.9,90-32.7,131.4-86.8c41.4-54.2,62.9-89.2,76.5-92.6C1263.6,544.7,1258.5,542.5,1258.5,542.5z
	 M1142,560.6c26.5,0,11.9,41.7-15.9,60.3c-18.8,12.5-35.8,21.5-56.8,23.1C1069.2,643.9,1103.3,560.6,1142,560.6z"/>
<path style="fill:#FCB543;" d="M1241,553.7c11.2-9.3,15.1-5.8,9,5.8c-6.1,11.7-80.4,140.4-80.4,140.4l57.6-14.3
	c0,0,37.4-77,71.4-118.1s43.8-25,35.8-9.6c-8,15.4-19.1,36.9-39.3,73.8c-11,20.2-1.3,39.8,22.6,37.2c23.9-2.6,68.8-27.3,89.2-51.2
	c20.4-23.9,29.2-45.9,29.2-45.9s-11.8,19.5-32.4,39.6c-17.3,16.8-41.9,25.2-54.7,25.5c-12.7,0.3-0.8-11.7,13.5-39.6
	c14.3-27.9,45.4-90,6.6-90.5c-38.8-0.5-76.2,54.4-76.2,54.4c11.4-28.4-6.1-35-14.6-35.8c-8.5-0.8-17.3,0.5-29.9,7.5L1241,553.7z"/>
<path style="opacity:0.5;fill:#FFFFFF;enable-background:new    ;" d="M681,332.6c-4-0.3-35.8-4.2-85.9,8.5
	c-43.8,11.1-105.9,41.9-160.6,93.2c-52.4,49.1-112.3,168.6-117.9,188.2c0,0,5,3.8,8.6,8c5.5-13.2,14.4-33.7,24.1-54.2
	c13-27.6,53.4-95.1,103.5-141.5c24.1-22.3,60.8-45.4,106.7-71.4c37.3-21.2,77.4-22.3,98.4-22.4c7.5-1.9,15.2-3.5,23-4.8
	C682.2,335.9,682.3,332.7,681,332.6z"/>
<path style="opacity:0.5;fill:#FFFFFF;enable-background:new    ;" d="M326.7,700.1c-3.4-0.2-8.6-3.4-7-15.7
	c-2.7,8.4-5.3,8.5-6,13.2c-0.9,5.4,5.3,16.7,10.4,16.2c5.1-0.5,8.9-1.4,15.1-12.7c6.2-11.3-7.3-23.4,4.2-60.9
	c9.6-31.3,28-53.5,40-64.5c2.2-7.4,4.4-13.3,4.4-13.3s-18.8,9.8-41.4,50.7c-22.6,40.9-11.7,61.3-12.2,73.5
	C333.6,698.7,330.7,700.3,326.7,700.1z"/>
<path style="opacity:0.5;fill:#FFFFFF;enable-background:new    ;" d="M488.8,651c9.4,4.3,18.8,5.1,27.8,3.5
	c-9.1-2-18-7.1-23.3-10.1c-7.8-4.3-12.1-29.7-9.1-48.8c3.1-19.1,14.6-46.1,30.8-78.9c16.2-32.9,36.4-55.8,62.1-81
	c25.8-25.2,64.1-47.8,72.2-48.6c15.2-1.6,30.8,0.1,52.8,15c-8.4-12.4-20.8-20.5-37-23.2c-52.4-8.8-136.7,90.5-155,119.3
	C479.9,545.1,454.1,635,488.8,651z"/>
<path style="opacity:0.5;fill:#FFFFFF;enable-background:new    ;" d="M372.1,658.5c0,0,4,10.1-2.7,21.2
	c-6.6,11.1-10.6,17.3-16.2,15.4c-2.6-0.9-3.8-3.9-3.4-7.9c-13.1,9.4-1.8,20.1,4,21.2c5.8,1.1,13.3-10.9,13.3-10.9
	c16.3-27.7,12.5-38,12.5-38c10.1-33.7,28.4-43,44.9-42.5c13.4,0.4,20.5,12.5,24.1,20.7c5.3,0.3,8.8,1.3,8.8,1.3s-7.4-28.7-34.5-30.5
	C395.8,606.8,382.2,630.4,372.1,658.5z"/>
<path style="opacity:0.5;fill:#FFFFFF;enable-background:new    ;" d="M306.5,850.2c-11.2-22-12.2-64-11.6-87.3
	c0.5-23.4,6.1-62.1,6.1-76.2c0-14.1-10.6-27.9-14.4-37.2c-3.7-9.3,0-16.2,0-16.2c19.4-12.7,33.7,8.7,39.8,19.9
	c0-2.2-0.2-4.5-0.8-7.2c-1.9-9.8-10.6-25-31.9-23.4c-21.2,1.6-26.5,25.5-26.5,34c0,0,15.9-1.3,21,16.2c5,17.5,1.9,35.8-2.9,70.1
	c-4.4,31.7-7,140,69.8,156.2C336.5,887.5,316.9,870.7,306.5,850.2z"/>
<path style="opacity:0.5;fill:#FFFFFF;enable-background:new    ;" d="M481,920.1c-2.1-6.7-8.8-42.1-8.8-42.1s2.9-8.4-5-10.8
	c-4.4-1.3-8.3,3.7-10.9,8.4c0.2,2.3,5.4,69.3,44.3,91.3c9.8,5.5,20.9,8.7,32.6,10.1C487.2,951.3,483,926.4,481,920.1z"/>
<path style="opacity:0.5;fill:#FFFFFF;enable-background:new    ;" d="M438.5,818.6c-3.1-1.5-10.6-1.6-10.6-1.6s6.2,4.9,9.8,11.9
	c12.5,9.5,16.4,25,16.4,25v0.4c-1.9,3-19.8,16.8-41.3,16.7c-4.2,0-8-0.8-11.4-2.1c7.1,5.9,18.9,10.5,35.9,4.4
	c25.7-9.3,25.7-13,26.8-15.1c1.1-2.1-0.9-26.9-13.3-33.7C444.1,820.8,441,818.4,438.5,818.6z"/>
<path d="M563.1,361.9c0,0-73.3,26.5-134.1,92.7c-38.8,42.2-79.6,121.6-79.6,121.6h7.8c0,0,44.7-81.2,80.3-121.2
	S563.1,361.9,563.1,361.9z"/>
<path d="M289.5,632c0,0,0.7,20.2,2.8,24.4c2.1,4.2,12.2,20.2,12.4,33.3c0.4,28-7.4,51.7-7.6,89.6c-0.2,37.9,8.3,85.7,39.8,103.7
	c0,0-39.6-11-45.7-86c-3.2-39.5,6.2-80.4,7.1-102.6c0.8-21-9.4-41.6-23.4-46.2c-1.6-0.5,1.3-5.7,5.8-10.2
	C285.3,633.3,289.5,632,289.5,632z"/>
<path d="M313.7,697.6c0,0,4,11.7,11.4,11.7c10.6,0,14.1-8.2,14.1-8.2s-2.9,15.1-15.4,14.6C311.3,715.1,313.7,697.6,313.7,697.6z"/>
<path d="M343.5,695.2c0,0,1.3,9.3,8.8,10.1c7.4,0.8,14.9-7.7,14.9-7.7s-5.8,15.9-14.6,14.9C343.7,711.4,343.5,695.2,343.5,695.2z"/>
<path d="M313.5,715.6c0,0,3.1,8.2,10.3,8.7s10.9-5.8,10.9-5.8s-1.8,10.9-10.6,10.6C315.3,728.9,313.5,715.6,313.5,715.6z"/>
<path d="M340.5,713.5c0,0,2.7,7.9,11.1,7.6c8.5-0.3,11.4-6.4,11.4-6.4s-2.7,12.2-11.3,11.7C343.2,725.9,340.5,713.5,340.5,713.5z"/>
<path d="M427.9,817c0,0,13.8,3.2,22.6,10.4c8.8,7.2,11.9,17.8,11.9,17.8l6.4-1.3c0,0-1.8-11.8-13-19.1
	C441.1,815.2,427.9,817,427.9,817z"/>
<path d="M475.1,869.6l-8-2.4c0,0,3.5,43.8,15.9,68c12.5,24.2,35.3,29.5,35.3,29.5s-26.5-11.7-34.8-43.8
	C475.4,888.7,475.1,869.6,475.1,869.6z"/>
<path d="M499.3,646.9c0,0-16.2-7.5-11.7-41.4c4.2-32.1,11.7-56.3,39.8-105.7c22.4-39.2,61.1-72.7,80.4-86
	c19.4-13.3,33.7-24.4,53.9-25.5c0,0-9.6-7.2-34.2,7.2c-24.7,14.3-71.2,45.4-106.2,103.8c-26.6,44.3-40.6,86.3-40.6,112.3
	C480.7,645,499.3,646.9,499.3,646.9z"/>
<path style="opacity:0.5;fill:#FFFFFF;enable-background:new    ;" d="M342.8,703.3c0,0,2.7,9.8,9.8,10.1c7,0.2,11.3-4,11.3-4
	s-3.7,11.8-12.4,10.5C340,718,342.8,703.3,342.8,703.3z"/>
<path style="opacity:0.5;fill:#FFFFFF;enable-background:new    ;" d="M334.7,712.5c0,0-0.5,11.9-10.6,11c-10-0.9-9.5-11.9-9.5-11.9
	s3.8,5,10,4.8C330.9,716.2,334.7,712.5,334.7,712.5z"/>
<path style="opacity:0.5;fill:#FFFFFF;enable-background:new    ;" d="M331.4,727.6c0,0-1.4,10.8-8.1,10.4
	c-8.7-0.5-8.7-11.1-8.7-11.1s4.6,5.3,8.4,5.6C326.8,732.7,331.4,727.6,331.4,727.6z"/>
<path style="opacity:0.5;fill:#FFFFFF;enable-background:new    ;" d="M342.4,721.5c0,0,3.9,7.7,8.2,8.2c6,0.7,8.9-5.7,8.9-5.7
	s-1.2,13.7-9.3,12.7C342.1,735.8,341,727.2,342.4,721.5z"/>
<polygon points="332.5,586.8 355.2,585.2 352.3,589.4 330.4,590.8 "/>
<polygon points="346.4,598.9 325.5,601.2 323.6,605.2 343.8,603.7 "/>
<polygon points="339.4,612.3 319.5,614.7 317.3,620.5 336.9,617.5 "/>
<path d="M388.9,580.7c0,0,31.3-1.8,37.8-4.4l-1.3,3.4c0,0-24.1,4.2-37.5,3.5L388.9,580.7z"/>
<path d="M422.4,587c0,0-24.8,6.6-36.1,5.6l-0.4,3.6c0,0,15.5-0.8,35.1-5.3L422.4,587z"/>
<polygon points="385.5,608.5 395.1,606.1 391.3,610.2 385.5,611.2 "/>
<path style="opacity:0.5;fill:#FFFFFF;enable-background:new    ;" d="M690.5,634.1c0,0-0.6,1.6-2,4.5c-7.5,18.4-31,62.7-42.8,83.7
	c0.7-0.6,1-1,1-1c-1.8,2.7-3.4,5.3-5,7.9c-0.7,1.2-1.3,2.1-1.7,2.8c-30.5,51.5-21.6,81.2,6.5,81c-4.4-2.5-8.3-6.8-12.4-12.3
	c-6.1-8.1-1.3-22.7-0.6-25.8c0.7-3.1,70.1-132.4,70.1-132.4l32.8-7.4l14.5-12.7v-0.1C730.5,628.3,690.5,634.1,690.5,634.1z"/>
<g>
	<path style="opacity:0.5;fill:#FFFFFF;enable-background:new    ;" d="M786.1,616.1l-58.8,114.1l0,0c-5.4,12.7-11.5,23.1-9.9,37.3
		c0.4,2.2,0.8,4.8,1.4,7.3l0,0l0,0c2.4,9.3,8.3,19.2,28,19.2c2.1,0,4.3-0.5,6.7-1.3c-11.9-1-17.1-6.2-21.3-10.3
		c-5-4.9-4.9-6.5-5.9-15c-1.1-8.5,30.3-65.6,30.3-65.6l39-76.5l31.3-6.6l13.9-10c0.4-0.7,0.6-1.1,0.6-1.1
		C825.4,611.8,786.1,616.1,786.1,616.1z"/>
</g>
<path d="M738.2,632.3l-37.4,7.4c0,0-62.4,116.5-69.8,135.4c-7.4,18.8,3.2,25.8,3.2,25.8s-4.2-11.9,1.3-24.4
	c5.6-12.5,68.2-131.1,68.2-131.1l30-5.6L738.2,632.3z"/>
<path d="M830.1,616.3l-37.4,6.1c0,0-58.3,109.4-66.6,134.3c-7.1,21.1,6.2,25.7,6.2,25.7s-7.3-10.1-1.4-24.1
	c6-14.3,66.1-129,66.1-129l30.3-5.8L830.1,616.3z"/>
<path style="opacity:0.5;fill:#FFFFFF;enable-background:new    ;" d="M854.2,753.6c-21.5-35.9-4-58.7,21.2-95
	c25.2-36.4,69.5-65.7,77.5-69.6s18.6-6.5,30.3-5.8c8.8,0.5,16.3,6.9,21.2,12.9c-1.5-11.6-9.6-19.6-27.6-19.8
	c-50.4-0.5-90.3,47.8-122.4,90.3c-28.4,37.6-29,83.2-1.6,94.7C854.5,758.8,855.2,755.3,854.2,753.6z"/>
<path d="M963,585.1c0,0-37,9.6-81.9,59.6c-44.9,50-47.3,83.5-26.9,108.8c0,0-23.7-37.6,22.1-92.2C917.1,612.8,929.1,606.2,963,585.1
	z"/>
<path style="opacity:0.5;fill:#FFFFFF;enable-background:new    ;" d="M1022.2,710.4c-1.9-2.1-7-9.9-5.6-27.7
	c1.5-17.7,19.1-50.9,48.8-83.6c29.8-32.7,56.3-43.8,56.3-43.8c32.6-11,47.3,0.7,54.8,7.9c-2.9-10.7-12.3-17.9-30.9-18
	c-46.2-0.2-87.3,40.9-119.5,85.2c-25.3,34.9-26.9,73.3-5.9,89.5C1022.1,716.9,1023.5,711.8,1022.2,710.4z"/>
<path d="M1122.9,554.7c0,0-44.9,17.3-79.1,65.3s-36.9,77.4-21.5,90.3c0,0-14.2-25.6,20.2-76.2
	C1085.7,570.4,1122.9,554.7,1122.9,554.7z"/>
<path style="opacity:0.5;fill:#FFFFFF;enable-background:new    ;" d="M1188.2,688.8c0,0,65-109.1,69.3-118.4
	c4.2-9.3,6-19.2,2.5-26.5c-2.9-5.9-6.6,0.4-8,4.8c1.7,1.1,1.2,4.9-1.9,10.8c-6.1,11.7-80.4,140.4-80.4,140.4l0.4-0.1L1188.2,688.8z"
	/>
<path style="opacity:0.5;fill:#FFFFFF;enable-background:new    ;" d="M1305.2,661.5c-6.3-6.6,0.6-29.3,8.8-42.9
	c8.2-13.6,24.4-46,29.6-56.5c5.1-10.4,1.5-22.4-1.5-26.5c-2.6-3.4-5.7,2.8-6.5,7.7c2.3,2.9,1.8,8.8-1.1,14.6
	c-8,15.4-19.1,36.9-39.3,73.8c-11,20.2-1.3,39.8,22.6,37.2c0.1,0,0.2,0,0.3,0C1312.7,668.3,1309.5,666,1305.2,661.5z"/>
<path d="M1259.4,542c0,0,4.4,12.7-3.6,25.8c-8,13-67.7,121.1-67.7,121.1h8.5c0,0,52.5-96.6,62.8-115.7
	C1269.7,553.9,1259.4,542,1259.4,542z"/>
<path d="M1341.3,535.1c0,0,4.7,6.9,2.9,16.2c-1.8,9.1-9.1,25-18.6,41.9c-13.7,24.5-37.2,54.2-20.4,68.2c0,0-6.9-12.7,7.2-36.9
	c14.1-24.2,26.9-48.3,32.7-61.9C1350.9,549.2,1345.3,537.5,1341.3,535.1z"/>
<path d="M1969.5,308.2c2.7-3.7-1.7-4.3-1.7-4.3c-4.5,0.5-81.6,22-151.7,74.1c-70.1,52.1-178.8,239.9-178.8,239.9s-55.6,12-72.1,52.6
	c0,0-12-18.5-48.1-14.5c-36.1,4-109.2,57-109.2,143.2c0,72.6,100.5,25.9,138.2-9.5c57.6-54.2,101.7-130.2,101.7-130.2l42.9-8
	c0,0-73.9,117,0,128.2c35.4,5.3,111.2-62.4,184-144.9l31-30.7l11.7-43.7c0,0-12.4,2.3-73.5,75.5c-45.7,54.8-112.2,104.8-115.2,103.2
	c-3-1.7,10.7-39.1,45.1-102.5c0,0,46.4-3.8,75.1-42.1c5-6.7,1.7-11.7-5-9.3c-6.7,2.3-38.1,8.3-47.1,7.7c0,0,30.4-54.1,80.1-138.2
	C1926.8,370.3,1966.8,311.8,1969.5,308.2z M1529.9,764.6c-29,27.5-82.9,61.6-62.1,0c20-59.2,65.8-73.8,72.6-74.1
	c11.3-0.5,18.8,9.3,21,19.8c0,0,9.8-23,22-32.6c12.3-9.5,23.5-11.8,23.5-11.8S1558.9,737,1529.9,764.6z M1800.9,478.1
	c-32.4,47.7-80.1,127.9-80.1,127.9l-46.7,6.3c0,0,53.4-94.8,104.8-155.6c51.4-60.8,90.8-80.8,90.8-80.8S1833.3,430.4,1800.9,478.1z"
	/>
<path d="M1907,567.5c21.7-17.3,50.1-28,57.8,8.1c0,0,40.7-44.4,72.5-43.4c31.7,1,24.4,36.4,4.3,72.5c-20,36.1-37.4,74.8-33.7,74.5
	c3.7-0.3,23.8-10.7,94.5-106.8c46.6-63.3,51.8-62.2,76.8-67.4c15.9-3.3-30.1,57.4-30.1,57.4l-6.3-0.7c0,0-41.1,53.4-70.4,89.5
	c-29.4,36.1-65.1,70.1-95.8,67.8c-30.7-2.3-35.5-15.1-34.4-28.7c2.1-26.3,36.9-80.7,42.4-99.8c0,0-26.4,15.4-50.1,59.1
	c-23.7,43.7-46.1,89.5-46.1,89.5l-82.5,18l61.4-114.5l11.4-30.7L1907,567.5z"/>
<path d="M2068,696.8l76.5-16c0,0,19.4-40.7,40.1-76.5c20.7-35.7,32.1-45.7,52.4-66.1c2.3-2.3,3,0.7,1.7,3s-23,40.4-35.1,63.1
	c-12,22.7-20.7,60.1,23.4,58.4s91.8-57.4,106.2-73.8c14.4-16.4,19.1-55.4,19.1-55.4s-46.1,71-92.9,87.7c0,0-2,0.5,0.7-4.3
	c2.7-4.8,27.7-52.2,37.7-73.5c10-21.4,14.7-56-10.4-57.1c-41.5-1.8-78.8,50.3-78.8,50.3s1.6-34.5-31.7-31.9
	c-14.3,1.1-25.2,9.8-25.2,9.8l-8.8,46.9L2068,696.8z"/>
<path d="M2502.7,527.4c-3,3.5-69.6,63.6-94.9,66.9s-21.5-8.5-7.3-33.3c0,0,46.3-4.3,79.1-32.8c32.8-28.5,34.5-83.9-0.7-83.1
	c-49.4,1.1-101.1,52.9-120.2,79.1c-19.1,26.2-66.7,99,6.3,104.2c66.7,4.8,135.3-80.5,143.6-90.4
	C2512.4,533.5,2505.7,523.9,2502.7,527.4z M2441.1,499.6c16-17.3,27-22.3,31.3-23.8c4.3-1.5,6,2,4,6s-11.8,20.3-24.5,32.3
	c-12.8,12-28,18.3-35.8,19C2416,533.2,2425.1,516.9,2441.1,499.6z"/>
<path style="fill:#FCB543;" d="M1817.1,747.8l66.4-15c0,0,30.4-62.1,49.7-95.2c19.4-33.1,55.6-61.5,62.4-62.1
	c4-0.3-2.7,15.7-24.7,57.4c-22,41.7-40.4,80.1,5.7,79.1c46.1-1,93.5-67.4,105.8-84.5c12.4-17,55.1-78.8,74.8-88.8s20.7-6.3,20.7-6.3
	s19-24.4-2.3-20.7c-21.4,3.7-44.3,23.4-97.8,103.8c-42.4,63.8-67.5,71.1-74.1,70.1c-4.7-0.7-7.7-12.4,20.4-63.8
	c28-51.4,42.7-83.5,10-84.3c-25.6-0.7-75.5,50.3-75.5,50.3s6-28-20-30.4c-26-2.3-43.4,44.4-63.8,82.8
	C1854.5,678.7,1817.1,747.8,1817.1,747.8z"/>
<path style="fill:#FCB543;" d="M2079.5,688l59.8-13c0,0,14.4-29.7,38.4-72.1c24-42.4,57.4-70.4,62.1-73.5c4.7-3,20.4-5.7-17,50.7
	c-37.4,56.4-25.4,76.5,0.7,76.1c26-0.3,70.8-21.4,119.2-86.8c0,0,16.7-36.7,8-26c-8.7,10.7-45.1,67.2-91.8,83.1
	c-13.2,4.5-6.1-8.7-2.8-15c17.5-34.2,71.4-118.4,31-120.4c-40.3-2-85.6,61.9-85.6,61.9s11-41.1-20.8-41.7
	c-31.8-0.6-38,36.9-29.4,31.5c8.6-5.4,9.1-0.8,6.8,3.7C2155.8,551.1,2079.5,688,2079.5,688z"/>
<path style="fill:#FCB543;" d="M1924.7,561.3c-29.2,15.5-100.5,104.2-130.3,133.3c-29.8,29-59.3,50.3-67.9,50.6s-5-16.3,2.5-33.8
	s42.1-80.6,42.1-80.6s50.6-10.5,69.9-37.1c0,0-0.5-1.5-3.3-0.8c-2.8,0.8-52.1,10.3-52.3,8.3c-0.3-2,29.6-55.8,74.7-130.5
	c45.1-74.8,97.2-155.6,97.2-155.6s-63.1,19.4-119.9,55.8s-98.5,103.8-126.9,145.2c-28.4,41.4-69.1,109.5-69.1,109.5
	s-27,3.9-46.6,19.7c-19.5,15.8-29.5,38.1-29.5,38.1s-8.7-22.2-39.7-21c-31.1,1.2-83.8,35.8-107.5,108.4
	c-12.5,38.3,5.8,62.1,29.5,61.1c23.8-1,66.9-16.3,116.2-68.9s79.6-111.4,79.6-111.4l61.6-10.8c0,0-27.8,47.1-38.1,78.1
	s1,51.8,28.5,53.1s67-33.8,103.2-66.6c38.1-34.6,66.9-69.1,104.7-114.2C1903.4,591.1,1929.7,558.6,1924.7,561.3z M1553.4,747.8
	c-40.1,45.9-63.1,59.4-87.1,58.4s-3.8-58.6,20-87.6c18.5-22.5,57.1-54.1,78.1-22.5c0,0,6-22,27-33.6c21-11.5,32.6-9.5,32.6-9.5
	S1593.4,701.9,1553.4,747.8z M1662.5,619.4c0,0,25-45.6,68.6-110.2c43.6-64.6,107.7-132.2,162.3-156.8c0,0-88.6,130.7-167.8,257.9
	L1662.5,619.4z"/>
<path style="fill:#FCB543;" d="M2498.4,537.6c-1.3,1.5-61.3,61.3-96.7,62.6c-35.3,1.3-7.8-42.8-5.8-43.3s58.1-7.5,82.4-36.8
	c24.3-29.3,31.3-70.6-0.8-70.4c-42.6,0.3-81.6,39.6-115.7,78.4c-34.1,38.8-47.3,94.9,5.3,95.2c52.6,0.2,86.9-36.8,99.4-48.1
	s33.1-34.6,34.6-36.6S2499.6,536.1,2498.4,537.6z M2443,489.9c22.3-22.3,46.3-30.3,36.1-3c-10.3,27.3-47.8,52.1-74.4,53.1
	C2404.7,540,2420.8,512.2,2443,489.9z"/>
<path style="opacity:0.5;fill:#FFFFFF;enable-background:new    ;" d="M1421.5,791.8c-0.7-18.7,13.4-47.4,39.7-80.8
	c26.4-33.4,58.4-44.7,75.1-44.1c16.7,0.6,26.7,16.4,26.7,16.4l0.7-3.1c-3.8-6.1-14.4-18.7-38.1-17.8
	c-31.1,1.2-83.8,35.8-107.5,108.4c-11,33.6,1.7,56,21.1,60.4C1428.7,822.1,1422,807.8,1421.5,791.8z"/>
<path style="opacity:0.5;fill:#FFFFFF;enable-background:new    ;" d="M1723.9,610.8l10.3,3.3c0,0,107.7-164.8,133.7-200.3
	c26-35.6,42.1-68.6,42.1-68.6c-6.8,1.9-12.8,5.4-17.2,8.6c-8.6,12.7-92.1,136.3-167,256.8L1723.9,610.8z"/>
<path style="opacity:0.5;fill:#FFFFFF;enable-background:new    ;" d="M1675.6,755.8c-5.7-7.7-1.3-9.1-1.3-9.1
	c-4.7-13.4,11.7-46.7,19-58.4s26-44.7,26-44.7v-7.3l-14.6,5.3c-3.5,6-28.1,48.6-37.6,77.4c-9.4,28.4-0.8,48.1,21.7,52.3
	C1683.1,766.2,1679.4,761,1675.6,755.8z"/>
<path style="opacity:0.5;fill:#FFFFFF;enable-background:new    ;" d="M1843.2,730.4l48.1-94.2c0,0,18.7-39.7,25-51.8
	c4.7-8.9-13.3,9.4-23.1,19.7c-6.1,11.8-12.1,24.4-18.3,36.3c-20.4,38.4-57.8,107.5-57.8,107.5l0.3-0.1L1843.2,730.4z"/>
<path style="opacity:0.5;fill:#FFFFFF;enable-background:new    ;" d="M1960.3,690c0.3-6.7,26-60.4,37.7-86.8
	c11.7-26.4,9.3-27.4,9.3-34.7c0-5-6.4,3.1-10.6,8.8c-0.1,5-7.9,21.9-25.8,55.8c-21.7,41.1-39.8,79,3.6,79.1
	C1960.8,705.9,1960.1,695.8,1960.3,690z"/>
<path style="opacity:0.5;fill:#FFFFFF;enable-background:new    ;" d="M2103.6,670c0,0,46.1-84.8,53.8-97.8c7.7-13,12-24,10-36.7
	c-1.4-8.7-6.7-0.7-9.9,5.1c2.4,0.1,2.1,3.1,0.6,6.1c-2.3,4.5-78.5,141.5-78.5,141.5l1.6-0.3L2103.6,670z"/>
<path style="opacity:0.5;fill:#FFFFFF;enable-background:new    ;" d="M2211.4,635.9c0-9,27.7-60.8,36.4-77.5
	c8.7-16.7,8-22.4,7.3-31.4c-0.4-5.5-4.7,0-8.1,5.2c0.1,5.8-5.1,19.2-24.3,48.1c-37.4,56.4-25.4,76.5,0.7,76.1c2.4,0,5-0.2,7.7-0.6
	C2214.1,651.6,2211.4,643.6,2211.4,635.9z"/>
<path style="opacity:0.5;fill:#FFFFFF;enable-background:new    ;" d="M2341,593.2c-3-13.7,34.4-65.4,57.8-89.5
	c23.4-24,58.8-44.1,74.1-45.7c15.4-1.7,15.4,2,18.4,5.3c1.7,1.9,4.3-0.2,6.1-2.3c-2.9-7-9.2-11.3-19.7-11.3
	c-42.6,0.3-81.6,39.6-115.7,78.4c-34.1,38.8-47.3,94.9,5.3,95.2c0.3,0,0.6,0,0.8,0C2348.5,615.6,2343.7,605.8,2341,593.2z"/>
<path d="M1910.3,345.6c0,0-64.1,95.8-83.8,124.5c-19.7,28.7-94.8,143.2-94.8,143.2l4,9.7c0,0,43.1-69.1,97.5-151.2
	C1887.6,389.6,1910.3,345.6,1910.3,345.6z"/>
<path d="M1718.3,636.7l4.3,6.3c0,0-16.7,25.7-31,55.1c-14.4,29.4-17,31.4-14.7,58.8c0,0-10.4-11.7-3-35.4
	C1681.2,697.8,1718.3,636.7,1718.3,636.7z"/>
<path d="M1913.9,588.6l-75.5,143.9h6.7C1845.2,732.5,1906.3,615.7,1913.9,588.6z"/>
<path d="M1940,884.8l78.1-1.6l1.7,8.7c0,0-16.4,3.3-17,14.7c-0.7,11.4-1.3,122.5-1.3,122.5s15.4,0.3,23.7-5.7c8.3-6,18-30,18-30
	l12,2l-9,62.8l-109.2,2v-9c0,0,14.7-1.7,15.4-16.7c0.7-15,2-120.9,2-131.9c0-9-14.7-11.4-14.7-11.4L1940,884.8z"/>
<path d="M2310.1,880l5.8,1.3l-1.5,72.9h-9c0,0-5.8-46.1-28.8-46.1c-15.5,0-18.4,38.8-19,55.6c-0.8,21-3.3,66.4,24.5,67.9
	c24.5,1.3,33.8-33.3,33.8-33.3l6.5,2l-1.5,41.1c0,0-17.8,18.5-41.6,18.3c-23.8-0.3-77.4-18.3-74.9-92.9
	c2.5-74.6,46.2-85.8,58.9-85.6c23.2,0.2,35.2,9.8,35.2,9.8L2310.1,880z"/>
<path d="M2333.4,881.7l117.2,1.4v54.2h-6.8c0,0-6.8-19.5-19.5-23.5s-27-2.8-27-2.8l0.5,39.3h40.8l0.8,30l-41.3,1.3l0.8,46.3
	c0,0,18.1,3.1,29-6c17.8-14.8,20.5-30,20.5-30l7.5,1l-2,64.4L2330,1054v-8c0,0,15.5-1.5,16.5-17.8s-1-119.7-1-129s-11.8-10-11.8-10
	L2333.4,881.7z"/>
<path d="M1897.2,885.8c-24-2.3-91.5,0-91.5,0l-0.3,8c0,0,16.7,5.7,16,15c-0.5,7-0.3,119.5-1,129.9c-0.7,10.4-18.7,15-18.7,15v6.3
	h87.5l0.3-8.7c0,0-18.7-2-19.7-16c-0.7-9.3,0.7-41.1,0.7-41.1c47.4-1,71.5-23.7,73.5-57.8C1946,902.5,1921.3,888.2,1897.2,885.8z
	 M1894.2,939.6c-0.8,29-22.8,26.3-22.8,26.3l1.3-54.8C1872.6,911,1894.9,910.5,1894.2,939.6z"/>
<path d="M2190.7,1030.4c-8.3-12.1-47.4-147.2-47.4-147.2h-65.1l1.3,6.3c0,0,20.7,8.3,18.7,17s-30,107.5-37.1,124.2
	c-7,16.7-12,17.4-12,17.4l-1.3,10.4l56.8-2l-0.3-7.3c0,0-13-1.7-11.4-14.4c0.7-5.3,5.3-15.7,5.3-15.7l34.7,0.3c0,0,4.3,11.7,6,19
	c1.7,7.3-10.3,10.3-10.3,10.3l0.3,7.7h88.5v-7C2217.4,1049.4,2204.7,1050.8,2190.7,1030.4z M2104.2,987.7l10.5-38.8l10.5,38.8
	H2104.2z"/>
<path d="M2007.4,569.3c0,0,4.7,13-5,33.7c-9.7,20.7-35.5,65.2-39.7,86.1c-2.2,10.9,0,12.7,0,12.7s-8.4-0.2-2-20.7
	c7.7-24.7,32.4-69.8,39.4-84.8C2008.5,578.1,2007.4,569.3,2007.4,569.3z"/>
<path d="M2165.8,533.4c0,0,8.8,7,2.5,22.3s-60.8,115.7-60.8,115.7l-9.3,2.8c0,0,56.9-102.9,63.1-115.2
	C2169.1,543.4,2165.8,533.4,2165.8,533.4z"/>
<path d="M2254.7,524.4c0,0,5.8,12.8,0,26c-5.8,13.3-34.3,70.1-39.6,80.1c-5.3,10-1.8,17.8-1.8,17.8s-9.3-8-1.1-25.5
	c8.2-17.5,31.7-63.3,38.2-76.6C2256.9,532.8,2254.7,524.4,2254.7,524.4z"/>
<path d="M2485.9,458.2c0,0-16.8-9.3-53.3,15c-36.6,24.3-83.3,75.2-93.7,113.1c-4.8,17.4,9.5,25.2,9.5,25.2s-12-13.3,2.5-37.8
	s32.4-56.4,83.4-93.9C2470.1,453.5,2485.9,458.2,2485.9,458.2z"/>
<path style="fill:#FCB543;" d="M1947,889.8h67.4c0,0-16.7,2.5-17,14.5c-0.3,12-1,131.9-1,131.9s13.7,1.3,26.7-3.3
	c13-4.7,26-33.1,26-33.1l-6,53.1l-98.5,2.3c0,0,13-5.7,13.4-17s1.7-125.5,1.7-134.2S1947,889.8,1947,889.8z"/>
<path style="fill:#FCB543;" d="M2310.6,885.6v67.1c0,0-8.3-49.7-32.4-48.7s-27,46.1-27.4,60.8c-0.3,14.7-2.7,73.4,32.4,71.4
	c23.7-1.3,32.7-24,32.7-24v28.4c0,0-16.7,14-34.4,14.7c-17.7,0.7-61.1-8-70.4-65.1c-9.3-57.1,20-105.2,52.4-104.5
	c32.4,0.7,35.4,11,35.4,11L2310.6,885.6z"/>
<path style="fill:#FCB543;" d="M2341.6,887.6h103.8v43.1c0,0-13.7-21.4-26-23c-12.3-1.6-27.7-0.7-27.7-0.7l1.8,47.7h40.9v22.4h-40.9
	v55.4c0,0,13.8,3.7,26.7,0.3c19.9-5.3,30.3-30.7,30.3-30.7l-1.7,50.4l-111.2-2c0,0,12.7-4.7,13-19.7s1-124.5,0.7-132.5
	C2351,890.2,2341.6,887.6,2341.6,887.6z"/>
<path style="fill:#FCB543;" d="M1905.6,891.2c-22.7-3.3-91.8,0-91.8,0s12.4,6.7,12,15c-0.3,8.3-0.3,118.2-1,132.2
	s-16.4,19.4-16.4,19.4l76.8-1.3c0,0-20-8.7-19.7-20.4c0.3-11.7,0.7-45.1,0.7-45.1c58.8-1.7,71.1-32.7,71.4-54.8
	C1937.9,914.1,1928.3,894.6,1905.6,891.2z M1899.7,942.7c-1.4,35-33.3,28.5-33.3,28.5v-63.9C1866.4,907.4,1901.4,900.4,1899.7,942.7
	z"/>
<path style="fill:#FCB543;" d="M2138.3,1052.2h72.8c0,0-15.7-4-23.4-16.7S2139,887.6,2139,887.6h-51c0,0,20.9,8,17.6,17.7
	s-37.4,124.2-40.7,134.6c-3.3,10.4-12.4,15.4-12.4,15.4h46.4c0,0-12.4-6-12.4-17.7c0-5.4,8-22.4,8-22.4h41.1c0,0,5.7,14.7,8.3,23
	C2146.6,1046.5,2138.3,1052.2,2138.3,1052.2z M2095.5,993.8l18.3-64.6l18.3,64.6H2095.5z"/>
<path style="opacity:0.5;fill:#FFFFFF;enable-background:new    ;" d="M1808.4,1057.8l12.7-0.2c6.3-4.2,13.4-10.3,13.5-15.4
	c0.2-7.8,2.7-106.2,1.8-126.2c-0.8-20-6.8-20.5-6.8-20.5s1,0,44.4,0c37.8,0,46.6,4.6,55.2,9.8c-5.2-7.3-13-12.5-23.7-14
	c-22.7-3.3-91.8,0-91.8,0s12.4,6.7,12,15c-0.3,8.3-0.3,118.2-1,132.2C1824.1,1052.4,1808.4,1057.8,1808.4,1057.8z"/>
<g>
	<path style="opacity:0.5;fill:#FFFFFF;enable-background:new    ;" d="M1888.9,904.6c-1.6-0.6-6.4,1.5-9.7,3.1
		c9.8,2.2,21.5,10.1,20.4,34.9c-1.4,35-33.3,28.5-33.3,28.5v-1.6l-7,2.8c0,0,1.7,2.8,13.7,5c24.6,4.6,34.9-18.8,35.9-40.6
		S1891.4,905.6,1888.9,904.6z"/>
</g>
<path style="opacity:0.5;fill:#FFFFFF;enable-background:new    ;" d="M1944.7,1055.1l11.6-0.3c3.5-5.5,7.8-13.3,7.8-18.3
	c0-8.3,0.5-106.4,1-124c0.4-13-1.6-18.5-4.3-22.9H1947c0,0,12.7,5.5,12.7,14.2s-1.3,122.9-1.7,134.2
	C1957.7,1049.4,1944.7,1055.1,1944.7,1055.1z"/>
<g>
	<path style="opacity:0.5;fill:#FFFFFF;enable-background:new    ;" d="M2088,1000.5h51l2-1.8l-24.8-90.6h-2.5
		c1.9,3.4,1,16.1,0.4,22.3l17.9,63.3h-36.6l0.3-1.2L2088,1000.5z"/>
</g>
<path style="opacity:0.5;fill:#FFFFFF;enable-background:new    ;" d="M2138.3,1052.1h8.1c3.3-3.7,7-8.2,7.9-11.1
	c1.8-5.3-7.3-24.3-9-28.8c-1.2-3.2-6.5,0.6-9.6,3.1c0.8,2.1,5.8,15.1,8.2,22.7C2146.6,1046.4,2138.3,1052.1,2138.3,1052.1z"/>
<path style="opacity:0.5;fill:#FFFFFF;enable-background:new    ;" d="M2247.5,1041.8c-3-2.3-23.3-16.5-27.3-53.6
	c-2.9-27.3,4-59.8,16.5-78.6c11.2-16.8,33.8-19.4,48.8-21.4c-5.1-1.4-12.3-2.5-22.1-2.7c-32.4-0.7-61.8,47.4-52.4,104.5
	c5.2,31.9,21.1,48.7,37.2,57.2C2249,1045.3,2249.1,1043,2247.5,1041.8z"/>
<path style="opacity:0.5;fill:#FFFFFF;enable-background:new    ;" d="M2337.6,1050.4l10.4,0.2c4.3-4.3,10.9-11.5,11.9-16.1
	c1.5-7,1-125.7,0-134.5c-0.7-5.7-5.4-10.1-8.7-12.6h-9.6c0,0,9.3,2.7,9.7,10.7c0.3,8-0.3,117.5-0.7,132.5
	C2350.3,1045.7,2337.6,1050.4,2337.6,1050.4z"/>
<path d="M1831.1,896.2c0,0,6,2.7,6.7,13s0.3,122.5,0,129.2c-0.3,6.7-4.7,11-10.7,12.7c0,0,5.1-5.3,5.5-12.4c0.5-7-0.1-123.9,0-128.9
	C1832.8,904.8,1831.1,896.2,1831.1,896.2z"/>
<path d="M1888.2,903.8c0,0,22.4,1.7,22.7,35.1c0.3,33.4-17.7,35.7-40.4,38.1c0,0,37.4-2.7,35.7-36.6
	C1904.6,906.5,1892.6,907.2,1888.2,903.8z"/>
<path d="M1963.7,891.8c0,0,8.3,2.7,8,19c-0.3,16.4-2.3,118.2-2.3,125.2s-8,12.7-12,13.4c0,0,7-5,7.2-15.7
	c0.2-10.7,1.8-124.2,2.2-129.9C1967,898.2,1963.7,891.8,1963.7,891.8z"/>
<path d="M2117.6,906.5c0,0,4,5,7,14s25,84.1,25,84.1l-61.6,1.3l5.2-7l46.7-0.7c0,0-16.6-69.8-21.1-76.1L2117.6,906.5z"/>
<path d="M2144.6,1010.7l7.3,5c0,0,4.3,16.7,4.3,21.7s-3,9.7-6.7,10.4c0,0,2.3-5.3,2.3-9.7C2152,1033.7,2144.6,1010.7,2144.6,1010.7z
	"/>
<path d="M2264.2,892.8c0,0-37.1,4.7-41.4,65.8c-4.3,61.1,16,71.1,28.4,84.5c0,0-37.4-13-34.1-80.8
	C2220.4,894.5,2258.8,892.8,2264.2,892.8z"/>
<path d="M2355,890.5c0,0,7.7,1.3,8,13s0,123.2,0,129.2s-3.7,11.4-8,12c0,0,2-2.7,2.7-10.7s0-126.2,0-131.2S2355,890.5,2355,890.5z"
	/>
<path d="M1206.6,138.9c26.9-0.7,24.5,12.7,24.5,12.7s7.8-7.5,22,13.2c14.2,20.7,0,28.1,0,28.1s13.7,5.3,2.3,26.7
	c-11.4,21.4-23.9,12.2-23.9,12.2s1.7,13.9-23,14.5c-24.7,0.7-24.2-11.9-24.2-11.9s-10.4,6.2-22.7-15.2c-12.4-21.4,0-26.6,0-26.6
	s-11-5.1,0-26.6s22.5-13.9,22.5-13.9S1181.5,139.5,1206.6,138.9z"/>
<path style="fill:#FCB543;" d="M1215.7,182c0,0,11.5-20,14-24.2c2.5-4.2,8.9-9.4,21,8.4c12.2,17.7,2.3,25.2-3,25.6
	c-5.3,0.3-26.4,0-26.4,0s-1-5.7,3.7-8.5C1225,183.1,1217.7,184.5,1215.7,182z"/>
<path style="fill:#FCB543;" d="M1226,203.7c0,0-4.6-4.8-4.3-8.9c0,0,20.2,0.2,27.2,0c7-0.2,11.5,8.9,4,22.7
	c-7.5,13.9-16.4,17-21.2,9.9c-4.8-7.2-15.2-23.9-15.2-23.9S1220,199.3,1226,203.7z"/>
<path style="fill:#FCB543;" d="M1208.2,216.4c0,0,0.8-8.7,5.2-11.9c0,0,11.4,18.2,14.4,22.7s1.8,16.2-19.5,16.4
	c-21.4,0.2-21.9-7.2-17.7-15.2c4.2-8,13-23.9,13-23.9S1207.8,206.3,1208.2,216.4z"/>
<path style="fill:#FCB543;" d="M1188.4,205.5c0,0,8.4-5.4,12.6-2.5c0,0-11.4,20.4-14.4,25.6c-3,5.2-14,7-22.7-11.4
	c-8.7-18.4-3.3-23.2,3-23.2c6.3,0,27.9,0.8,27.9,0.8S1194.2,200.8,1188.4,205.5z"/>
<path style="fill:#FCB543;" d="M1187.6,180.5c0,0,7.4,7,7.2,11.3c0,0-20.9-0.1-28.7-1.7c-7.8-1.5-8-10.2-1.7-22.4
	c6.3-12.2,15-19.4,21.4-9.9c6.3,9.5,14.2,24,14.2,24S1197.8,184,1187.6,180.5z"/>
<path style="fill:#FCB543;" d="M1207.2,171.6c0-0.5-1.5,7.6-4.7,8.4c0,0-10.1-15.2-14.1-22.7s0.2-16,20.3-15.5
	c20,0.5,21.7,7.7,18.4,13.4c-3.3,5.7-13.9,24.9-13.9,24.9S1206.8,178.8,1207.2,171.6z"/>
<path style="fill:#FCB543;" d="M1207.7,183.3c7.5,0,9.8,5,9.8,9.3c0,5.9-4.2,10.3-9.8,9.9c-5.6-0.3-9.6-4.7-9.4-9.6
	S1201.3,183.3,1207.7,183.3z"/>
<path d="M1195.2,162.1c0,0-2-8.9,5.2-9.2c5-0.2,2.5,1,8.2,0.8c5.7-0.3,5.9-0.6,9.9,0c5.5,0.9,4,7.2,4,7.2s5.2-9.6-5.7-10
	c-4.3-0.2-4.6,0.7-7.5,0.5c-3-0.2-5-0.7-10-0.5C1194.2,151.1,1190.9,156.1,1195.2,162.1z"/>
<path d="M1228.1,166.2c0,0,5.8-3.9,8.5-1.2c2.7,2.7,2.2,5.9,4.1,8.7c1.9,2.8,6.8,8,6.2,10.5c-0.9,4.2-8.6,5.2-8.6,5.2
	s12,0.3,11.7-6.2c-0.3-6.6-3-4.8-5.7-10.4c-2.7-5.6-2.7-8.1-5.3-9.9C1236.4,161.1,1231.2,160.5,1228.1,166.2z"/>
<path d="M1241.6,195.5c0,0,8.3,0.1,8.4,8.6c0,2.9-2.4,4.6-5.2,8.7c-3.3,4.8-4,10.9-8.4,11.2c-4.3,0.3-6.7-4.5-6.7-4.5s3.3,2.4,6,1.3
	c2.7-1.1,2.8-3.1,5.9-9c3.1-5.9,6.5-6.1,5.3-10.6C1246.3,198.2,1241.6,195.5,1241.6,195.5z"/>
<path d="M1222.8,222.1c0,0,1.8,6.6-1.8,8.4s-6.3,0.3-10.7,0c-4.3-0.3-7.3,2.2-10.5,0.9c-3.1-1.3-4.6-3.7-4.2-7.3c0,0-3.2,7,3,9.6
	c3.3,1.4,6.1,0.2,11.2,0c5.1-0.2,9,1.2,12.3-0.3C1224.4,232.1,1227.2,226.9,1222.8,222.1z"/>
<path d="M1189,219.6c0,0-4.9,5-7.3,1.3c-2.5-3.7-2.5-5.8-4.5-8.7c-2-2.9-5.3-4.4-6.2-7.8c-1.4-5,4.1-7.1,4.1-7.1s-6.6-0.2-6.9,5.7
	s3,6,5.5,9.9s3.5,9.6,8.4,11.1C1186.9,225.5,1188.4,222,1189,219.6z"/>
<path d="M1174.6,189.8c0,0-5.6-2-3.8-8.8c1.2-4.7,2.5-4.9,4.5-8.3c2.7-4.6,3-6.2,5.2-8.9c3.2-3.8,7.1,0,7.1,0s-3.1-5.8-7.5-3.9
	c-4.3,1.9-5.3,6.8-7.5,10.1c-2.1,3.3-5.9,10-5.3,13.2C1167.9,186.5,1169,189.4,1174.6,189.8z"/>
<path d="M1377.6,138.9c26.9-0.7,24.5,12.7,24.5,12.7s7.8-7.5,22,13.2c14.2,20.7,0,28.1,0,28.1s13.7,5.3,2.3,26.7
	c-11.4,21.4-23.9,12.2-23.9,12.2s1.7,13.9-23,14.5c-24.7,0.7-24.2-11.9-24.2-11.9s-10.4,6.2-22.7-15.2c-12.4-21.4,0-26.6,0-26.6
	s-11-5.1,0-26.6s22.5-13.9,22.5-13.9S1352.5,139.5,1377.6,138.9z"/>
<path style="fill:#FCB543;" d="M1386.7,182c0,0,11.5-20,14-24.2c2.5-4.2,8.9-9.4,21,8.4c12.2,17.7,2.3,25.2-3,25.6
	c-5.3,0.3-26.4,0-26.4,0s-1-5.7,3.7-8.5C1396,183.1,1388.7,184.5,1386.7,182z"/>
<path style="fill:#FCB543;" d="M1397,203.7c0,0-4.6-4.8-4.3-8.9c0,0,20.2,0.2,27.2,0c7-0.2,11.5,8.9,4,22.7
	c-7.5,13.9-16.4,17-21.2,9.9c-4.8-7.2-15.2-23.9-15.2-23.9S1391,199.3,1397,203.7z"/>
<path style="fill:#FCB543;" d="M1379.2,216.4c0,0,0.8-8.7,5.2-11.9c0,0,11.4,18.2,14.4,22.7s1.8,16.2-19.5,16.4
	c-21.4,0.2-21.9-7.2-17.7-15.2c4.2-8,13-23.9,13-23.9S1378.8,206.3,1379.2,216.4z"/>
<path style="fill:#FCB543;" d="M1359.4,205.5c0,0,8.4-5.4,12.6-2.5c0,0-11.4,20.4-14.4,25.6c-3,5.2-14,7-22.7-11.4
	c-8.7-18.4-3.3-23.2,3-23.2c6.3,0,27.9,0.8,27.9,0.8S1365.2,200.8,1359.4,205.5z"/>
<path style="fill:#FCB543;" d="M1358.6,180.5c0,0,7.4,7,7.2,11.3c0,0-20.9-0.1-28.7-1.7c-7.8-1.5-8-10.2-1.7-22.4
	c6.3-12.2,15-19.4,21.4-9.9c6.3,9.5,14.2,24,14.2,24S1368.8,184,1358.6,180.5z"/>
<path style="fill:#FCB543;" d="M1378.2,171.6c0-0.5-1.5,7.6-4.7,8.4c0,0-10.1-15.2-14.1-22.7s0.2-16,20.3-15.5
	c20,0.5,21.7,7.7,18.4,13.4c-3.3,5.7-13.9,24.9-13.9,24.9S1377.8,178.8,1378.2,171.6z"/>
<path style="fill:#FCB543;" d="M1378.7,183.3c7.5,0,9.8,5,9.8,9.3c0,5.9-4.2,10.3-9.8,9.9c-5.6-0.3-9.6-4.7-9.4-9.6
	S1372.3,183.3,1378.7,183.3z"/>
<path d="M1366.2,162.1c0,0-2-8.9,5.2-9.2c5-0.2,2.5,1,8.2,0.8c5.7-0.3,5.9-0.6,9.9,0c5.5,0.9,4,7.2,4,7.2s5.2-9.6-5.7-10
	c-4.3-0.2-4.6,0.7-7.5,0.5c-3-0.2-5-0.7-10-0.5C1365.2,151.1,1361.9,156.1,1366.2,162.1z"/>
<path d="M1399.1,166.2c0,0,5.8-3.9,8.5-1.2c2.7,2.7,2.2,5.9,4.1,8.7c1.9,2.8,6.8,8,6.2,10.5c-0.9,4.2-8.6,5.2-8.6,5.2
	s12,0.3,11.7-6.2c-0.3-6.6-3-4.8-5.7-10.4c-2.7-5.6-2.7-8.1-5.3-9.9C1407.4,161.1,1402.2,160.5,1399.1,166.2z"/>
<path d="M1412.6,195.5c0,0,8.3,0.1,8.4,8.6c0,2.9-2.4,4.6-5.2,8.7c-3.3,4.8-4,10.9-8.4,11.2c-4.3,0.3-6.7-4.5-6.7-4.5s3.3,2.4,6,1.3
	c2.7-1.1,2.8-3.1,5.9-9c3.1-5.9,6.5-6.1,5.3-10.6C1417.3,198.2,1412.6,195.5,1412.6,195.5z"/>
<path d="M1393.8,222.1c0,0,1.8,6.6-1.8,8.4s-6.3,0.3-10.7,0c-4.3-0.3-7.3,2.2-10.5,0.9c-3.1-1.3-4.6-3.7-4.2-7.3c0,0-3.2,7,3,9.6
	c3.3,1.4,6.1,0.2,11.2,0c5.1-0.2,9,1.2,12.3-0.3C1395.4,232.1,1398.2,226.9,1393.8,222.1z"/>
<path d="M1360,219.6c0,0-4.9,5-7.3,1.3c-2.5-3.7-2.5-5.8-4.5-8.7c-2-2.9-5.3-4.4-6.2-7.8c-1.4-5,4.1-7.1,4.1-7.1s-6.6-0.2-6.9,5.7
	s3,6,5.5,9.9s3.5,9.6,8.4,11.1C1357.9,225.5,1359.4,222,1360,219.6z"/>
<path d="M1345.6,189.8c0,0-5.6-2-3.8-8.8c1.2-4.7,2.5-4.9,4.5-8.3c2.7-4.6,3-6.2,5.2-8.9c3.2-3.8,7.1,0,7.1,0s-3.1-5.8-7.5-3.9
	c-4.3,1.9-5.3,6.8-7.5,10.1c-2.1,3.3-5.9,10-5.3,13.2C1338.9,186.5,1340,189.4,1345.6,189.8z"/>
<path d="M1548.6,138.9c26.9-0.7,24.5,12.7,24.5,12.7s7.8-7.5,22,13.2c14.2,20.7,0,28.1,0,28.1s13.7,5.3,2.3,26.7
	c-11.4,21.4-23.9,12.2-23.9,12.2s1.7,13.9-23,14.5c-24.7,0.7-24.2-11.9-24.2-11.9s-10.4,6.2-22.7-15.2c-12.4-21.4,0-26.6,0-26.6
	s-11-5.1,0-26.6s22.5-13.9,22.5-13.9S1523.5,139.5,1548.6,138.9z"/>
<path style="fill:#FCB543;" d="M1557.7,182c0,0,11.5-20,14-24.2c2.5-4.2,8.9-9.4,21,8.4c12.2,17.7,2.3,25.2-3,25.6
	c-5.3,0.3-26.4,0-26.4,0s-1-5.7,3.7-8.5C1567,183.1,1559.7,184.5,1557.7,182z"/>
<path style="fill:#FCB543;" d="M1568,203.7c0,0-4.6-4.8-4.3-8.9c0,0,20.2,0.2,27.2,0c7-0.2,11.5,8.9,4,22.7
	c-7.5,13.9-16.4,17-21.2,9.9c-4.8-7.2-15.2-23.9-15.2-23.9S1562,199.3,1568,203.7z"/>
<path style="fill:#FCB543;" d="M1550.2,216.4c0,0,0.8-8.7,5.2-11.9c0,0,11.4,18.2,14.4,22.7s1.8,16.2-19.5,16.4
	c-21.4,0.2-21.9-7.2-17.7-15.2c4.2-8,13-23.9,13-23.9S1549.8,206.3,1550.2,216.4z"/>
<path style="fill:#FCB543;" d="M1530.4,205.5c0,0,8.4-5.4,12.6-2.5c0,0-11.4,20.4-14.4,25.6c-3,5.2-14,7-22.7-11.4
	c-8.7-18.4-3.3-23.2,3-23.2c6.3,0,27.9,0.8,27.9,0.8S1536.2,200.8,1530.4,205.5z"/>
<path style="fill:#FCB543;" d="M1529.6,180.5c0,0,7.4,7,7.2,11.3c0,0-20.9-0.1-28.7-1.7c-7.8-1.5-8-10.2-1.7-22.4
	c6.3-12.2,15-19.4,21.4-9.9c6.3,9.5,14.2,24,14.2,24S1539.8,184,1529.6,180.5z"/>
<path style="fill:#FCB543;" d="M1549.2,171.6c0-0.5-1.5,7.6-4.7,8.4c0,0-10.1-15.2-14.1-22.7s0.2-16,20.3-15.5
	c20,0.5,21.7,7.7,18.4,13.4c-3.3,5.7-13.9,24.9-13.9,24.9S1548.8,178.8,1549.2,171.6z"/>
<path style="fill:#FCB543;" d="M1549.7,183.3c7.5,0,9.8,5,9.8,9.3c0,5.9-4.2,10.3-9.8,9.9c-5.6-0.3-9.6-4.7-9.4-9.6
	S1543.3,183.3,1549.7,183.3z"/>
<path d="M1537.2,162.1c0,0-2-8.9,5.2-9.2c5-0.2,2.5,1,8.2,0.8c5.7-0.3,5.9-0.6,9.9,0c5.5,0.9,4,7.2,4,7.2s5.2-9.6-5.7-10
	c-4.3-0.2-4.6,0.7-7.5,0.5c-3-0.2-5-0.7-10-0.5C1536.2,151.1,1532.9,156.1,1537.2,162.1z"/>
<path d="M1570.1,166.2c0,0,5.8-3.9,8.5-1.2c2.7,2.7,2.2,5.9,4.1,8.7c1.9,2.8,6.8,8,6.2,10.5c-0.9,4.2-8.6,5.2-8.6,5.2
	s12,0.3,11.7-6.2c-0.3-6.6-3-4.8-5.7-10.4c-2.7-5.6-2.7-8.1-5.3-9.9C1578.4,161.1,1573.2,160.5,1570.1,166.2z"/>
<path d="M1583.6,195.5c0,0,8.3,0.1,8.4,8.6c0,2.9-2.4,4.6-5.2,8.7c-3.3,4.8-4,10.9-8.4,11.2c-4.3,0.3-6.7-4.5-6.7-4.5s3.3,2.4,6,1.3
	c2.7-1.1,2.8-3.1,5.9-9c3.1-5.9,6.5-6.1,5.3-10.6C1588.3,198.2,1583.6,195.5,1583.6,195.5z"/>
<path d="M1564.8,222.1c0,0,1.8,6.6-1.8,8.4s-6.3,0.3-10.7,0c-4.3-0.3-7.3,2.2-10.5,0.9c-3.1-1.3-4.6-3.7-4.2-7.3c0,0-3.2,7,3,9.6
	c3.3,1.4,6.1,0.2,11.2,0c5.1-0.2,9,1.2,12.3-0.3C1566.4,232.1,1569.2,226.9,1564.8,222.1z"/>
<path d="M1531,219.6c0,0-4.9,5-7.3,1.3c-2.5-3.7-2.5-5.8-4.5-8.7c-2-2.9-5.3-4.4-6.2-7.8c-1.4-5,4.1-7.1,4.1-7.1s-6.6-0.2-6.9,5.7
	s3,6,5.5,9.9s3.5,9.6,8.4,11.1C1528.9,225.5,1530.4,222,1531,219.6z"/>
<path d="M1516.6,189.8c0,0-5.6-2-3.8-8.8c1.2-4.7,2.5-4.9,4.5-8.3c2.7-4.6,3-6.2,5.2-8.9c3.2-3.8,7.1,0,7.1,0s-3.1-5.8-7.5-3.9
	c-4.3,1.9-5.3,6.8-7.5,10.1c-2.1,3.3-5.9,10-5.3,13.2C1509.9,186.5,1511,189.4,1516.6,189.8z"/>
<rect y="-1.4" style="fill:none;" width="2800" height="1200.9"/>
</svg>
