<?xml version="1.0" encoding="utf-8"?>
<!-- Generator: Adobe Illustrator 16.0.4, SVG Export Plug-In . SVG Version: 6.00 Build 0)  -->
<!DOCTYPE svg PUBLIC "-//W3C//DTD SVG 1.1//EN" "http://www.w3.org/Graphics/SVG/1.1/DTD/svg11.dtd">
<svg version="1.1" id="Layer_1" xmlns="http://www.w3.org/2000/svg" xmlns:xlink="http://www.w3.org/1999/xlink" x="0px" y="0px"
	 width="2800px" height="1200.9px" viewBox="0 0 2800 1200.9" enable-background="new 0 0 2800 1200.9" xml:space="preserve">
<rect fill="#52338F" width="2800" height="1200.9"/>
<polygon fill="#57E9C8" points="554.309,136.061 649.433,136.061 650.846,170.202 624.945,170.202 630.361,316.655 586.802,316.655 
	582.563,170.672 554.309,170.672 "/>
<polygon fill="#57E9C8" points="666.15,136.061 708.532,136.061 711.829,202.459 734.197,202.459 732.313,134.883 774.931,134.883 
	782.23,316.655 738.906,316.655 735.845,238.719 713.948,238.955 716.302,316.655 671.566,316.655 "/>
<polygon fill="#57E9C8" points="796.357,134.883 889.126,133.471 891.246,168.083 841.329,168.083 842.742,204.813 886.537,204.813 
	887.479,239.896 843.801,239.896 845.096,279.688 898.074,279.688 898.074,316.655 803.656,315.242 "/>
<path fill="#57E9C8" d="M538.612,499.604c4.269,13.227,16.639,43.324,8.163,122.75c-8.477,79.428-45.835,153.204-89.473,152.576
	c-43.638-0.628-51.818-63.494-49.29-102.972c4.082-63.729,35.88-118.102,59.649-156.654
	c25.743-41.755,86.648-109.881,134.053-109.566c47.405,0.314,67.758,41.436,67.812,82.881c0.035,27.626-6.549,58.433-12.558,77.383
	c-9.183,28.961-34.472,94.619-56.98,156.813c-17.895,49.446-30.139,114.432-30.139,135.151c0,20.721,2.83,107.522,65.928,105.955
	c75.817-1.883,118.132-166.838,128.088-177.533c0,0-8.947,56.038-5.651,82.881c3.296,26.842,11.302,68.281,54.155,67.34
	s80.055-77.229,110.664-134.21c30.609-56.979,66.87-119.274,72.049-117.56c5.18,1.716,13.656,10.192-20.249,119.443l-46.149,113.49
	l91.828-12.715c0,0,36.906-118.902,87.119-205.788c41.911-72.521,61.218-68.753,65.928-65.928c4.709,2.825,5.18,13.656-4.709,33.905
	s-43.324,86.647-47.091,113.961c-3.768,27.312,2.354,80.996,26.371,97.008c24.016,16.011,45.307-3.887,54.469-11.616
	c10.046-8.476,54.782-59.021,115.529-190.876l32.021-88.218c0,0-131.854,270.304-179.26,266.536
	c-10.636-0.846-2.112-17.585,2.198-24.33c16.953-26.528,32.246-59.917,43.639-100.932c12.556-45.207,9.102-112.705-32.651-125.891
	c-51.147-16.151-122.751,149.75-122.751,149.75s5.966-44.893,0.001-82.566c-5.964-37.673-21.663-46.778-33.592-47.092
	c-24.443-0.641-75.629,86.656-105.798,147.868c-43.323,87.901-81.31,155.398-107.367,152.573s16.639-152.104,42.539-244.402
	c25.9-92.299,78.642-298.558,78.642-298.558l-76.287,20.249c0,0-69.695,259.472-99.362,346.12
	c-29.667,86.647-81.298,209.089-125.733,203.434c-25.9-3.296-8.631-71.731,8.477-115.373
	c23.074-58.864,45.678-118.198,71.107-218.503c25.429-100.304-5.646-221.37-107.368-224.625
	c-58.864-1.883-118.28,57.99-160.11,123.85c-44.266,69.695-55.097,129.971-57.922,159.168
	c-2.825,29.196-1.39,123.872,69.224,127.616c62.16,3.297,112.077-73.933,120.553-145.511
	c7.302-61.662-13.656-139.861-25.429-156.814S534.688,487.445,538.612,499.604z"/>
<path fill="#57E9C8" d="M1350.148,587.507l66.87-18.208c0.002,0-20.525,83.169-38.927,151.006
	c-10.888,40.137-22.343,74.584-24.802,84.135c-5.337,20.722,4.84,28.752,16.638,16.953c14.757-14.755,30.138-26.685,59.335-75.659
	c29.195-48.975,59.021-98.578,67.498-105.484s-27,64.985-27,64.985s-23.492,45.522-45.65,83.195
	c-22.16,37.673-47.588,70.638-78.356,69.381c-30.766-1.256-41.754-37.674-43.323-46.464c-1.57-8.79-5.003-33.881-3.14-62.16
	C1303.057,692.05,1350.148,587.507,1350.148,587.507z"/>
<path fill="#57E9C8" d="M1747.287,699.586c-35.162,45.521-91.67,97.008-91.67,97.008s18.207,62.785,13.498,114.273
	c-6.26,68.439-48.346,148.494-81.051,151.164c-14.381,1.174-3.811-36.532,1.625-55.412c17.895-62.16,136.25-480.328,136.25-480.328
	l-70.637,15.697l-10.361,45.208c0,0-4.395-44.898-39.871-44.896c-29.51,0.001-49.604,19.15-71.266,37.359
	c-21.662,18.208-46.775,59.806-62.473,107.838c-15.697,48.033-12.768,140.762,52.113,145.198
	c36.73,2.512,61.533-53.684,61.533-53.684s-9.104,32.335-21.035,73.461c-11.93,41.126-59.334,231.687,14.127,235.769
	c73.463,4.082,104.23-130.911,105.172-174.234c0.941-43.324-14.756-100.777-14.756-100.777s53.057-48.346,86.961-95.75
	c33.906-47.405,86.648-141.9,86.648-141.9l15.697-60.905C1857.793,514.674,1782.449,654.063,1747.287,699.586z M1524.385,806.01
	c-27.939-5.337-6.904-59.648,16.641-124.006c16.627-45.446,53.684-116.473,71.891-114.274c29.844,3.602,26.059,47.719,26.059,47.719
	c0.244,12.846-22.604,65.928-32.021,89.786C1597.535,729.094,1552.328,811.347,1524.385,806.01z"/>
<path fill="#57E9C8" d="M1405.715,427.319c-16.491,0.75-31.08,22.133-31.786,42.382c-0.706,20.249,10.831,43.324,29.667,41.675
	c18.838-1.648,30.846-17.423,31.787-43.559S1421.256,426.613,1405.715,427.319z"/>
<path fill="#57E9C8" d="M1924.424,496.543l-66.631,18.131c0,0-34.379,121.964-44.268,163.875
	c-9.891,41.911-5.18,104.071,36.73,105.484s68.754-76.288,80.525-105.013c11.773-28.726,27.312-69.695,27.312-69.695
	s-12.713,62.16-13.656,94.183c-0.941,32.021,17.895,60.747,43.324,60.747s48.975-11.302,77.23-58.864
	c28.254-47.562,57.922-91.827,57.922-91.827l-2.826-24.017c0,0-85.705,144.569-110.193,144.569
	c-16.074,0-10.359-18.365-6.121-32.021s62.16-225.566,62.16-225.566l-80.998,19.307c0,0-90.365,261.274-113.488,259.472
	c-12.086-0.941-7.064-19.778-4.709-32.493C1869.07,710.22,1924.424,496.543,1924.424,496.543z"/>
<path fill="#57E9C8" d="M2419.117,465.228c-1.031,1.202-24.488,22.604-56.51,75.346c-57.211,94.229-130.658,185.636-186.924,167.247
	c-11.984-3.916,0.914-67.414,0.914-67.414s64.986-16.481,105.484-73.462s16.48-119.141-22.133-119.141
	c-44.266,0-105.014,53.213-137.506,130.913c-32.494,77.7,5.705,156.005,64.043,158.697c61.219,2.825,102.188-60.276,165.762-157.755
	c63.572-97.479,76.287-113.49,76.287-113.49S2421.941,461.931,2419.117,465.228z M2263.717,473.233
	c19.777-4.677,20.734,26.374,17.895,42.382c-5.182,29.197-30.609,87.119-101.717,111.135
	C2179.895,626.75,2207.334,486.567,2263.717,473.233z"/>
<path fill="#57E9C8" d="M1913.828,880.1h-53.213l-29.666,174.237h41.439l2.355-27.312h29.666l4.238,27.312h41.912L1913.828,880.1z
	 M1878.51,992.647l9.42-87.589l10.83,87.589H1878.51z"/>
<path fill="#57E9C8" d="M2027.006,877.902c-32.965-1.569-64.674,0-64.674,0l2.826,173.296h41.127v-67.812
	c0,0,13.812-0.628,29.51-0.941s33.592-11.303,34.221-48.661C2070.643,896.426,2059.969,879.473,2027.006,877.902z M2021.982,948.225
	c-3.768,0.629-17.738,0-17.738,0v-36.573c0,0,11.771,0.157,15.539,0s9.42,7.377,9.105,17.424
	C2028.574,939.121,2025.75,947.597,2021.982,948.225z"/>
<polygon fill="#57E9C8" points="2080.061,875.391 2080.061,909.297 2105.803,909.297 2108,1049.628 2148.814,1049.628 
	2148.814,908.983 2172.359,908.983 2172.359,873.822 "/>
<path fill="#57E9C8" d="M2258.691,929.703c0,0-0.314-5.65,0-12.558s-4.08-14.756-16.322-14.441
	c-12.244,0.314-14.758,10.038-14.758,13.495s-0.283,9.737,31.098,32.026c31.377,22.289,41.111,36.73,41.111,60.904
	s-21.977,44.266-55.568,44.266s-55.883-21.035-55.883-40.498c0-19.464,0-23.859,0-23.859l37.047,0.313c0,0,0.627,8.79,0.627,16.011
	s4.08,13.813,15.697,13.813c11.615,0,16.01-5.336,16.01-13.499c0-8.162-3.139-18.208-32.334-38.928
	c-29.197-20.721-34.535-31.396-34.535-51.487s12.559-47.404,51.801-47.091c39.244,0.313,54.312,21.034,54.312,39.557
	s0.312,22.917,0.312,22.917L2258.691,929.703z"/>
</svg>
