<?xml version="1.0" encoding="utf-8"?>
<!-- Generator: Adobe Illustrator 16.0.4, SVG Export Plug-In . SVG Version: 6.00 Build 0)  -->
<!DOCTYPE svg PUBLIC "-//W3C//DTD SVG 1.1//EN" "http://www.w3.org/Graphics/SVG/1.1/DTD/svg11.dtd">
<svg version="1.1" id="Layer_1" xmlns="http://www.w3.org/2000/svg" xmlns:xlink="http://www.w3.org/1999/xlink" x="0px" y="0px"
	 width="2800px" height="1200px" viewBox="0 0 2800 1200" enable-background="new 0 0 2800 1200" xml:space="preserve">
<rect x="2.471" y="-1.991" fill="#277156" width="2797.529" height="1201.991"/>
<path fill="#FCCF89" d="M1210.137,818.646c0,0-17.347,8.129-29.816,10.84c-12.469,2.713-28.732,1.086-28.732,1.086
	s57.463-446.157,58.548-453.205s-4.337,0.542-6.505,2.168s-18.974,14.637-37.948,22.227s-50.417,17.348-77.522,52.585
	s-58.006,112.758-81.317,184.859c-23.311,72.102-49.874,125.77-49.874,125.77s-54.211-39.574-62.885-129.564
	c-8.674-89.99,28.189-173.475,109.506-189.196c0,0-119.807-11.384-139.865,138.78c-20.058,150.164,79.148,211.965,79.148,211.965
	s-43.047,94.857-79.148,145.287c-34.153,47.705-94.87,126.854-207.092,122.164c-95.427-3.986-137.691-95.602-136.607-150.896
	c0.831-42.332,30.428-144.094,136.07-147.992c107.265-3.957,137.154,20.594,197.599,65.59c0,0-34.157-90.229-191.098-90.229
	c-156.941,0-187.025,124.926-187.025,173.172c0,58.006,41.472,168.326,188.99,174.018c67.421,2.602,137.978-33.078,180.188-68.307
	c72.101-60.172,120.349-201.664,120.349-202.479c0-0.812,34.153,20.33,53.669,27.648c19.516,7.318,58.548,16.264,58.548,16.264
	l-25.208,142.305l78.064-13.824l16.263-130.107c0,0,24.667-2.439,40.388-8.945c15.721-6.504,33.61-17.348,42.827-30.9
	L1210.137,818.646z M1118.521,649.508c-5.963,35.236-32.527,177.27-32.527,177.27s-38.49-5.963-61.259-16.264
	c-22.769-10.299-46.621-28.732-46.621-28.732s26.021-68.305,54.211-154.501c28.19-86.195,50.417-130.106,69.391-156.127
	c18.974-26.021,49.332-17.89,49.332-17.89S1124.484,614.27,1118.521,649.508z"/>
<path fill="#FCCF89" d="M1364.91,728.654c-1.626-14.637-11.487-15.797-24.937-10.842c-10.3,3.795-20.601,11.045-22.125,22.531
	c-0.94,7.08-4.167,51.637,10.741,78.844c0,0-17.958,94.26-49.468,96.09c-26.028,1.512-22.565-78.879-22.091-115.605
	c0,0,51.627-48.213,86.738-170.766c28.732-100.289,10.3-164.801-14.637-161.548c-20.964,2.735-50.417,24.277-92.159,166.099
	c-41.743,141.82-43.405,339.691,22.227,339.691c58.006,0,87.28-129.023,87.28-129.023
	C1356.778,802.924,1367.913,755.682,1364.91,728.654z M1275.461,613.728c22.497-97.581,38.761-114.927,44.724-114.927
	c7.318,0,15.722,42.826,1.626,123.059c-17.187,97.832-63.969,147.725-63.969,147.725S1252.964,711.309,1275.461,613.728z"/>
<path fill="#FCCF89" d="M1542.587,707.512c-0.813,11.385-11.385,52.449-19.923,79.285c-8.538,26.834-45.537,116.689-79.69,119.535
	s-19.923-63.021-19.923-63.021c35.779-7.725,59.769-34.152,73.186-77.25s2.439-82.131-19.109-85.789
	c-21.549-3.66-36.999,6.506-62.207,42.285c-25.208,35.779-38.626,113.029-38.626,113.029c-11.384-0.406-26.021-22.361-26.021-22.361
	s-18.703,4.879-7.725,22.768c10.978,17.891,34.966,19.924,34.966,19.924c-0.406,4.471-6.912,77.25,38.626,80.096
	c45.537,2.846,84.976-49.195,111.403-112.623s34.967-104.898,34.967-104.898S1543.4,696.127,1542.587,707.512z M1428.337,764.027
	c6.444-23.203,19.923-62.613,31.307-62.613c8.945,0,15.856,15.855,3.253,63.223c-12.604,47.367-42.691,63.225-42.691,63.225
	S1420.205,793.301,1428.337,764.027z"/>
<path fill="#FCCF89" d="M1581.212,624.976c0,0-17.076-10.571-25.614-2.032c-8.538,8.537-19.517,32.344-19.517,56.627
	s9.362,45.5,30.088,38.107c17.911-6.391,19.516-7.727,25.208-11.791c5.692-4.066,9.352,0.406,6.912,4.064
	c-2.439,3.66-30.9,64.646-38.219,118.316c-7.319,53.67,6.505,80.91,34.559,79.283c28.055-1.625,62.208-71.152,62.208-71.152
	l15.45-26.834l-13.824-16.67c0,0-21.143,69.932-44.069,67.816c-24.456-2.26-12.569-68.676-3.907-97.096
	c13.011-42.686,25.614-77.246,39.845-89.85c0,0-5.692-22.769-13.823-21.549c-8.132,1.22-23.988,5.692-35.373,8.945
	c-11.385,3.252-24.802,0.812-23.582-13.824S1581.212,624.976,1581.212,624.976z"/>
<path fill="#FCCF89" d="M1846.305,779.477c-4.473,10.166-25.615,43.1-34.56,43.1c-8.945,0-21.549-3.254-3.659-93.922
	s44.544-210.203,44.544-210.203s-38.445-21.549-41.292-21.549c-2.846,0-27.24,139.864-29.68,150.842c0,0-8.539-22.361-29.681-21.143
	c-21.143,1.221-68.307,32.527-87.416,125.229s-1.22,140.678,32.934,138.645s51.229-71.152,51.229-71.152
	s-5.285,55.703,29.681,56.922c34.966,1.221,67.899-68.307,72.372-76.031S1850.777,769.312,1846.305,779.477z M1758.482,740.039
	c-13.011,58.955-33.34,108.559-46.757,108.559s-14.23-43.912-4.065-104.086c10.164-60.174,33.74-98.394,48.789-98.394
	C1770.68,646.118,1771.493,681.084,1758.482,740.039z"/>
<path fill="#FCCF89" d="M2043.593,622.943c-1.22,12.197-10.978,68.865-20.329,97.25c-9.352,28.383-32.12,80.834-46.351,80.426
	c-14.23-0.406-11.791-26.428-6.505-58.141c5.285-31.713,32.526-151.249,32.526-151.249s-40.658,2.846-43.098,6.505l-2.847,12.198
	c0,0-10.57-11.384-23.175-11.384s-52.856,8.538-77.657,113.03c-24.802,104.492-3.253,143.93,26.021,144.338
	c29.273,0.406,50.01-62.615,50.01-62.615s-6.1,52.043,31.307,45.945c37.405-6.1,64.646-72.777,76.438-112.014
	s21.955-85.993,23.582-104.289C2065.142,604.646,2044.812,610.746,2043.593,622.943z M1939.006,705.479
	c-9.352,68.307-29.681,105.307-40.252,104.492c-10.571-0.812-17.076-34.152-9.758-91.48s25.227-102.457,42.691-101.646
	C1949.17,617.658,1948.357,637.174,1939.006,705.479z"/>
<path fill="#FCCF89" d="M2033.333,583.911c-1.039,26.864,2.033,43.098,26.835,40.251c24.801-2.846,36.999-10.164,40.658-12.197
	c3.659-2.032,6.505,0,4.065,3.254c-2.439,3.252-26.021,49.195-31.714,100.832c-5.691,51.637-12.604,91.797,39.439,97.58
	c27.038,3.004,55.295-67.086,62.207-80.098l-10.571-2.846c0,0-18.703,38.625-35.779,38.625s-21.143-24.395-15.856-61.395
	c5.285-36.998,14.23-82.942,39.845-124.007l-15.044-19.516c0,0-18.702,7.319-28.46,11.385c-9.759,4.065-24.802,7.318-34.153,0.406
	c0,0,10.164-23.988,9.758-32.12s-20.735-15.856-34.153,0C2036.992,559.923,2033.647,575.779,2033.333,583.911z"/>
<path fill="#FCCF89" d="M2306.15,679.57c0,0-19.109,35.26-28.867,47.457c-9.758,12.199-27.647,36.584-46.351,36.588
	c-18.703,0.006-26.428-20.73-21.549-56.104c0,0,49.922,0.279,80.097-87.899c16.67-48.712-6.099-73.518-34.966-73.513
	c-32.12,0.005-73.143,48.402-86.603,125.227c-13.46,76.826-1.626,130.92,43.301,126.447c44.928-4.473,79.487-52.043,93.312-91.887
	C2311.437,685.963,2306.15,679.57,2306.15,679.57z M2219.142,616.031c6.912-25.208,19.61-54.719,30.9-53.262
	c12.604,1.626,8.132,32.933,1.626,60.377c-6.505,27.443-22.769,61.598-35.779,60.377
	C2202.879,682.305,2212.229,641.239,2219.142,616.031z"/>
<polygon fill="#FCCF89" points="568.548,849.547 566.109,870.959 591.588,867.707 579.933,987.514 604.057,983.719 612.188,864.996 
	637.396,860.117 640.107,837.619 "/>
<polygon fill="#FCCF89" points="657.184,835.18 643.902,976.941 668.025,972.877 672.904,907.281 693.234,903.215 689.71,968.811 
	712.208,965.559 722.508,825.152 700.823,828.404 694.589,883.699 674.531,886.408 679.139,831.928 "/>
<polygon fill="#FCCF89" points="751.782,820 740.126,959.053 792.44,952.006 793.524,930.863 766.825,934.658 768.587,891.559 
	793.524,886.68 793.524,865.268 771.027,868.791 773.195,837.619 802.74,831.113 802.74,809.971 "/>
<polygon fill="#FDB07A" points="639.845,839.988 628.676,852.039 604.057,856.111 592.943,976.732 580.032,987.693 604.057,983.916 
	612.188,865.193 637.396,860.314 "/>
<polygon fill="#FDB07A" points="566.109,871.156 591.542,867.91 598.635,856.926 567.287,860.812 "/>
<polygon fill="#FDB07A" points="676.714,886.312 674.531,886.605 679.02,833.537 666.67,841.475 661.249,901.379 676.699,886.471 
	"/>
<polygon fill="#FDB07A" points="700.823,894.061 661.249,902.734 658.268,967.246 646.563,976.691 668.025,973.072 672.904,907.479 
	693.234,903.412 693.13,905.344 "/>
<polygon fill="#FDB07A" points="722.45,826.141 710.31,834.971 701.907,958.842 691.841,968.699 712.208,965.754 "/>
<polygon fill="#FDB07A" points="771.027,868.988 773.195,837.816 802.74,831.311 802.74,811.6 791.897,824.129 762.895,829.82 
	758.287,874.273 773.466,869.123 773.765,868.559 "/>
<polygon fill="#FDB07A" points="752.324,945.291 767.796,934.717 766.825,934.854 768.587,891.756 793.524,886.877 793.524,868.387 
	782.411,879.152 758.287,884.572 "/>
<polygon fill="#FDB07A" points="741.729,959.033 792.44,952.203 793.417,933.162 783.766,943.934 752.324,950.17 "/>
<path fill="#FDB07A" d="M539.547,1025.588l17.062-11.848c-25.455-31.318-37.156-71.031-36.58-100.457
	c0.831-42.33,30.428-144.094,136.07-147.992c105.98-3.908,136.431,20.014,195.444,63.986
	c-11.211-13.686-92.901-104.93-249.655-66.613c-73.185,17.891-105.905,96.498-106.253,144.201
	C495.093,981.135,539.547,1025.588,539.547,1025.588z"/>
<path fill="#FDB07A" d="M1075.165,860.467l1.477-0.09l30.087-12.197c0,0-30.9-4.473-65.866-14.23
	c-34.966-9.758-78.877-40.252-78.877-40.252c-60.174,144.744-117.909,205.324-148.81,230.125
	c-30.9,24.803-67.899,49.197-147.183,53.67s-126.446-51.904-126.446-51.904l-7.771,12.947
	c29.291,26.871,72.042,46.963,132.791,49.307c67.421,2.602,137.978-33.076,180.188-68.305
	c72.101-60.174,120.349-201.666,120.349-202.479c0-0.814,34.153,20.328,53.669,27.646
	C1035.542,850.994,1066.724,858.484,1075.165,860.467z"/>
<path fill="#FDB07A" d="M922.954,757.104l-8.158,14.686c12.741,14.1,23.632,21.947,27.002,24.23l18.968-6.795
	c0,0-12.604-8.133-19.922-15.451C933.524,766.455,922.954,757.104,922.954,757.104z"/>
<path fill="#FDB07A" d="M922.954,757.104h25.359c-15.672-15.385-47.728-54.504-54.226-121.924
	c-8.674-89.989,28.189-173.475,109.506-189.196c0,0-1.108-0.104-3.122-0.162c-22.184,1.848-75.813,19.143-99.473,65.299
	c-24.802,48.384-28.461,90.262-20.736,150.436C887.987,721.732,922.954,757.104,922.954,757.104z"/>
<path fill="#FDB07A" d="M1181.134,412.728c-4.879,1.626-27.647,11.384-49.196,22.362c-21.549,10.978-35.779,27.241-50.01,48.383
	s-40.252,90.668-58.955,143.525c-18.703,52.855-58.955,160.6-58.955,160.6l15.501-4.982c-0.903-0.678-1.406-1.064-1.406-1.064
	s26.021-68.307,54.211-154.502c28.19-86.196,50.417-130.107,69.391-156.128c18.974-26.021,49.332-17.89,49.332-17.89
	s-0.049,0.292-0.139,0.844C1161.859,440.333,1184.874,411.481,1181.134,412.728z"/>
<path fill="#FDB07A" d="M1152.538,830.422c-0.606-0.047-0.948-0.082-0.948-0.082s57.463-446.157,58.548-453.204
	c0.193-1.257,0.177-2.042,0.012-2.485c-2.359,4.785-10.494,20.899-16.004,27.099c-6.505,7.318-13.011,10.978-13.011,10.978
	s-30.087,192.721-32.526,209.392c-2.439,16.67-34.56,223.621-34.56,223.621l38.219-13.824L1152.538,830.422z"/>
<path fill="#FDB07A" d="M1218.412,831.689c4.285-4.719,5.414-7.906,5.414-7.906s-20.329,8.539-46.351,16.264
	s-63.427,7.725-63.427,7.725l-21.143,127.668l-40.604,27.801l77.874-13.791l16.263-130.107c0,0,24.667-2.439,40.388-8.943
	C1197.485,845.986,1209.138,839.58,1218.412,831.689z"/>
<path fill="#FDB07A" d="M1257.03,799.439c0,0,51.627-48.211,86.738-170.765c20.21-70.543,17.084-123.383,4.774-147.393l-16.159,7.07
	c2.439,5.286,13.824,36.999,5.286,106.932c-8.538,69.933-41.471,133.767-56.515,158.054c-15.043,24.287-42.691,54.59-42.691,54.59
	c4.066-21.549,21.142-39.439,21.142-39.439l0.344-1.545c-1.35,1.602-2.106,2.41-2.106,2.41s-4.879-58.277,17.619-155.857
	c22.497-97.582,38.761-114.928,44.724-114.928c1.25,0,2.531,1.25,3.726,3.721l8.471-13.938c0,0-0.406-4.066-8.131-4.879
	c-7.725-0.813-30.494,25.208-45.538,68.713c-15.043,43.504-38.219,107.338-46.351,230.533
	c-8.131,123.195,12.604,139.053,12.604,139.053l18.544-21.883C1254.795,875.068,1256.688,825.914,1257.03,799.439z"/>
<path fill="#FDB07A" d="M1259.198,972.916c58.006,0,87.28-129.023,87.28-129.023c1.127-4.512,2.265-9.1,3.394-13.723
	c-6.644-5.229-10.984-9.232-10.984-9.232s-1.89,48.791-34.082,94.125c-32.191,45.334-59.839,8.74-59.839,8.74l-20.629,20.957
	C1232.64,962.506,1244.148,972.916,1259.198,972.916z"/>
<path fill="#FDB07A" d="M1364.91,728.422c-0.362-3.262-1.136-5.85-2.266-7.855l-18.47,13.77c0,0-5.286,16.67-5.692,41.471
	c-0.407,24.803,2.439,39.439,2.439,39.439s6.582,3.947,11.751,3.258C1360.685,784.5,1367.308,750.012,1364.91,728.422z"/>
<path fill="#FDB07A" d="M1420.225,825.916c0.122-7.311,1.053-36.705,8.112-62.121c6.444-23.201,19.923-62.613,31.307-62.613
	c3.354,0,6.422,2.23,8.282,7.514l9.607-7.902c0,0-2.033-11.182-16.264-8.742c-14.229,2.439-43.142,26.674-57.734,106.932
	c-5.692,31.307-6.099,44.318-6.099,44.318s11.791,0.406,22.362-16.67C1419.939,826.402,1420.082,826.16,1420.225,825.916z"/>
<path fill="#FDB07A" d="M1423.051,843.08c35.779-7.727,59.769-34.154,73.186-77.252c3.643-11.699,5.484-23.1,5.807-33.572
	l-2.812-26.277c-0.448-1.629-0.944-3.203-1.49-4.707c-6.078,2.932-14.596,2.57-16.141,2.57c0,0,6.099,14.637,4.472,34.561
	c-1.626,19.922-16.67,77.25-48.587,94.326c-31.916,17.076-40.048,14.637-40.048,14.637s-5.692,31.307,8.132,58.955
	c0,0,12.426-9.617,18.97-10.549C1415.544,877.848,1423.051,843.08,1423.051,843.08z"/>
<path fill="#FDB07A" d="M1527.543,823.156c26.428-63.426,36.39-108.744,36.39-108.744s-5.848-1.33-10.528-5.434
	c1,2.172,1,2.172,1,2.172l-1.653,6.516c-17.076,69.525-33.746,103.678-55.295,144.744c-21.549,41.064-43.911,54.889-62.207,59.361
	c-18.297,4.471-29.681-10.979-29.681-10.979s-10.741,5.367-18.3,6.641c5.854,10.029,14.915,17.475,28.871,18.346
	C1461.677,938.627,1501.115,886.584,1527.543,823.156z"/>
<path fill="#FDB07A" d="M1558.037,656.678c0,0,13.823-4.879,20.329,0c0.69,0.518,1.289,0.747,1.816,0.768
	c-1.964-2.391-3.011-5.77-2.63-10.34c0.833-9.999,2.234-16.766,3.04-20.055l-16.051,4.42
	C1564.542,631.471,1556.817,645.294,1558.037,656.678z"/>
<path fill="#FDB07A" d="M1610.486,763.385c12.252-40.199,24.146-73.184,37.375-87.42c-3.866-0.42-11.325-1.498-15.42-3.836
	c0,0-15.45,12.197-36.999,84.975c-21.549,72.779-11.7,104.086-11.7,104.086s13.705-10.244,19.171-10.945
	C1595.163,830.068,1603.786,785.365,1610.486,763.385z"/>
<path fill="#FDB07A" d="M1671.88,809.961c0,0-13.011,10.164-26.834,35.779c-13.824,25.613-34.56,34.152-45.944,36.186
	c-11.384,2.033-17.605-13.824-17.605-13.824c-9.07,5.449-13.363,17.967-15.373,24.221c6.234,10.641,15.937,15.727,28.506,14.998
	c26.825-1.557,59.224-65.184,62.011-70.756C1658.982,830.064,1671.88,809.961,1671.88,809.961z"/>
<path fill="#FDB07A" d="M1753.197,637.975c-27.793,0.179-54.482,50.418-67.899,106.932c-13.418,56.516-5.692,91.076-5.692,91.076
	l22.386-3.85c-2.811-18.018-0.784-49.656,5.669-87.854c10.164-60.174,33.74-98.393,48.789-98.393
	c7.248,0,11.014,9.074,11.246,25.766c6.539-6.186,11.523-18.633,11.523-18.633S1770.273,637.865,1753.197,637.975z"/>
<path fill="#FDB07A" d="M1749.623,816.654c6.1-11.385,15.771-29.057,15.771-29.057s-15.327,19.855-19.109,29.273
	c-19.67,48.975-34.153,50.012-49.604,49.604c-15.45-0.406-17.076-25.613-17.076-25.613c-3.171,0-14.503,8.654-19.337,12.463
	c6.02,25.418,19.407,37.98,37.227,36.918c21.672-1.289,36.466-29.59,44.385-50.104c2.644-6.545,4.123-11.469,5.623-16.605
	c0.813-2.793,1.222-4.443,1.222-4.443s-0.072,0.775-0.145,2.127C1748.629,821.123,1749.576,816.744,1749.623,816.654z"/>
<path fill="#FDB07A" d="M1850.777,799.98c1.709-2.951,2.111-8.162,1.706-12.906c-4.32,6.004-6.474,9.99-9.431,15.619
	c-8.538,16.264-28.055,48.332-53.264,43.047c-25.208-5.287-21.142-33.748-21.142-33.748c0,1.139-14.157,25.988-19.024,30.629
	c2.416,15.369,9.438,32.717,28.782,33.391C1813.371,877.232,1846.305,807.707,1850.777,799.98z"/>
<path fill="#FDB07A" d="M1799.655,808.084c-1.735-12.494-0.206-35.889,8.431-79.662c16.928-85.793,41.699-197.416,44.313-209.169
	h-26.018c0,0-9.758,45.131-17.076,80.89c-7.318,35.76-37.812,188.27-35.373,199.246
	C1776.126,809.256,1792.769,808.611,1799.655,808.084z"/>
<path fill="#FDB07A" d="M1970.408,742.246c4.85-29.102,28.188-132.151,31.997-148.92l-27.62,18.627
	c0,0-17.076,109.779-19.516,125.025c-2.44,15.246-6.1,53.873-2.847,63.631c0,0,11.295-2.141,16.689-5.092
	C1964.095,786.506,1966.454,765.969,1970.408,742.246z"/>
<path fill="#FDB07A" d="M1932.189,793.07c0,0-0.193,1.656-0.3,4.336l0.204-1.676l10.571-21.143c0,0-7.726,5.691-15.45,21.549
	c-7.726,15.855-30.9,38.219-42.691,32.525c-11.791-5.691-17.076-22.674-17.89-26.584c0,0-14.769,10.445-18.944,15.154
	c5.285,26.752,18.771,38.232,34.49,38.451C1911.453,856.09,1932.189,793.07,1932.189,793.07z"/>
<path fill="#FDB07A" d="M1887.142,785.225c-0.472-13.975-0.763-46.473,1.854-66.967c7.318-57.328,25.227-102.457,42.691-101.645
	c6.201,0.287,10.098,2.934,12.131,9.27l9.824-6.203c-5.285-11.385-19.516-15.451-34.153-6.506
	c-14.637,8.945-26.9,35.485-35.779,61.395c-12.604,36.781-17.076,123.465-17.076,123.465S1882.521,785.316,1887.142,785.225z"/>
<path fill="#FDB07A" d="M2063.516,622.711c1.014-11.398-6.495-13.326-12.596-10.212c1.814,6.208,3.962,10.839,3.962,10.839
	s-5.692,56.922-30.493,125.229c-24.802,68.305-41.879,64.24-58.142,65.865c-16.264,1.627-16.67-10.875-16.67-10.875
	c-2.448,2.535-13.609,8.75-16.688,10.441c2.388,13.676,9.703,28.424,30.606,25.016c37.405-6.1,64.646-72.777,76.438-112.012
	C2051.725,687.764,2061.889,641.008,2063.516,622.711z"/>
<path fill="#FDB07A" d="M2112.617,707.688c5.178-36.244,13.878-81.068,38.308-121.483c-5.119-0.27-13.097-1.08-14.726-3.525
	c0,0-36.481,51.578-43.099,135.799c-4.472,56.922,2.439,51.699,2.439,51.699s11.038-10.754,18.552-11.844
	C2109.65,747.781,2109.424,730.041,2112.617,707.688z"/>
<path fill="#FDB07A" d="M2174.631,733.25l-0.151-0.041l-7.787,11.291c-22.769,34.152-35.373,42.285-50.416,45.131
	c-15.044,2.846-22.362-6.506-24.682-8.945c-1.684-1.77-11.903,5.664-17.385,9.877c5.67,12.33,17.092,20.469,38.407,22.836
	c26.199,2.912,53.542-62.803,61.502-78.723L2174.631,733.25z"/>
<path fill="#FDB07A" d="M2075.048,576.123c-0.08-0.057-0.164-0.109-0.243-0.168c0,0,6.562-15.491,8.929-25.796
	c-8.031,3.356-20.72,3.654-20.72,3.654c-6.912,8.945-6.099,22.362-6.099,22.362C2064.818,573.164,2073.76,575.725,2075.048,576.123z
	"/>
<path fill="#FDB07A" d="M2219.142,615.799c6.912-25.208,19.61-54.718,30.9-53.262c2.757,0.355,4.695,2.13,5.976,4.974l9.475-5.781
	c0,0-3.659-8.324-15.856-5.072c-12.198,3.252-45.336,27.058-61.801,119.832c-0.813,4.582-2.033,18.406-2.033,18.406
	s13.329-17.025,23.734-22.113C2208.316,658.672,2214.32,633.381,2219.142,615.799z"/>
<path fill="#FDB07A" d="M2211.324,748.619c-3.667-9.605-4.382-23.639-1.94-41.338c0,0,49.922,0.277,80.097-87.9
	c7.824-22.861,6.96-40.456,0.857-52.692c-4.194,3.016-12.309,9.486-15.494,9.486c0,0,3.253,50.009-21.549,85.79
	c-24.802,35.778-31.307,35.778-43.911,36.187c-12.604,0.406-21.956,0-21.956,0s-8.131,43.504-1.626,58.953
	C2185.802,757.104,2203.505,747.352,2211.324,748.619z"/>
<path fill="#FDB07A" d="M2304.524,705.654c5.569-16.055,3.22-23.32,2.097-25.537c-5.491,15.115-21.614,57.041-37.47,74.547
	c-19.516,21.549-38.219,26.021-52.043,25.615c-13.823-0.406-31.307-19.109-31.307-19.109s-13.937,6.25-17.252,6.332
	c7.183,20.85,21.114,32.186,42.663,30.039C2256.141,793.07,2290.7,745.5,2304.524,705.654z"/>
<path fill="#FDB07A" d="M2104.282,610.327c3.887-2.753,21.142-21.142,24.802-26.021c0,0-23.379,14.434-42.895,15.247
	c-19.517,0.813-26.021-1.423-30.697-11.384c0,0-6.704,13.289-4.572,24.331c2.133,11.042,11.688,11.856,16.77,11.449
	S2089.645,620.695,2104.282,610.327z"/>
<path fill="#FDB07A" d="M1555.801,666.436c0,0-16.256,15.855-0.61,45.945c5.286,10.164,19.923,2.236,29.681-2.236
	s10.368-5.896,12.401-5.693c0,0,28.664-31.104,28.867-31.104c0,0-8.772,2.641-20.329,7.318c-8.812,3.568-19.132,9.406-29.07,9.758
	C1553.768,691.238,1555.801,666.436,1555.801,666.436z"/>
<path fill="#FCCF89" d="M1237.301,154.858c0,0-13.87,24.44-16.68,46.48c-2.892,22.684-2.679,45.59,19.57,45.59
	c15.012,0,19.904-11.787,19.904-11.787s-10.452-0.778-13.01-13.232s-2.27-41.392,4.226-64.049
	c4.781-16.68,11.23-22.239,11.23-22.239l-6.115-6.449c0,0-8.563,8.533-16.68,13.565c-11.12,6.895-20.127,9.34-20.127,9.34
	l2.225,8.673c0,0,10.452-3.78,15.456-6.338"/>
<path fill="#FCCF89" d="M1454.689,159.753c0,0,2.669-6.45,3.002-12.343c0.334-5.894-5.781-12.343-13.565-12.454
	c-7.784-0.112-14.789,3.002-21.795,2.891c-7.006-0.111-9.969-1.562-12.01-2.894c-2.891-1.888-5.226-7.448-5.226-7.448l-6.894,5.671
	c0,0,5.226,7.339,4.781,15.568c-0.445,8.229-4.67,28.244-4.781,33.915s1.557,18.125,3.78,21.794h6.561
	c0,0,5.004-11.342,13.899-11.12c8.896,0.222,18.459,3.114,19.126,23.24s-14.567,23.907-18.236,24.13
	c-3.67,0.222-13.454-1.891-13.565-12.565c-0.112-10.675,9.229-12.454,9.229-12.454s-1.891-3.781-10.008-3.559
	c-8.117,0.223-17.124,5.56-16.79,16.346c0.333,10.786,11.009,23.796,31.691,22.573c20.683-1.223,40.697-11.676,41.031-36.583
	c0.333-24.908-20.349-33.916-33.359-33.804c-17.015,0.145-23.685,8.658-23.685,8.658s-0.668-11.327,0.89-20.667
	c1.556-9.341,3.447-14.9,3.447-14.9s4.447,5.226,12.787,5.004c8.34-0.223,13.232-3.113,20.015-3.225
	C1451.798,155.417,1454.689,159.753,1454.689,159.753z"/>
<path fill="#FCCF89" d="M1335.153,180.322c-18.57,0.269-26.465,15.901-26.465,15.901c-1.891-6.672-1-21.127,2.336-32.914
	c3.336-11.787,11.23-17.458,20.571-17.458c9.34,0,14.122,5.782,14.011,13.789s-6.449,11.898-6.449,11.898
	c3.78,2.335,23.129-0.111,22.572-16.124c-0.618-17.793-19.348-19.57-27.91-19.57c-9.04,0-18.675,2.627-26.354,8.451
	c-13.006,9.865-21.128,28.355-21.684,47.258c-1.501,51.035,27.577,58.267,43.256,58.49c15.679,0.222,35.472-11.12,36.361-35.917
	C1366.288,189.329,1350.499,180.099,1335.153,180.322z M1337.822,238.314c-10.341,5.337-20.182-5.337-23.852-15.512
	c-3.669-10.175-2.87-23.539,6.505-27.688c10.175-4.503,19.015,3.502,23.686,13.343
	C1348.831,218.299,1348.164,232.977,1337.822,238.314z"/>
<path fill="#FCCF89" d="M1562.217,189.554c-5.449-5.671-11.787-10.119-23.352-10.008c-11.902,0.115-22.796,8.451-24.575,18.792
	c0,0-2.557-20.016,0.334-31.469c2.892-11.453,10.004-23.907,22.573-23.907c9.896,0,13.301,8.547,14.011,11.12
	c0.89,3.225,1.779,12.009-3.669,17.68c0,0,20.219,3.891,21.35-14.456c1.001-16.235-17.458-22.462-29.801-22.462
	c-13.011,0-22.795,6.116-31.58,15.679c-8.784,9.563-16.68,24.575-16.68,54.931c0,24.241,21.259,47.411,43.589,45.591
	c20.461-1.668,36.348-12.215,36.695-38.918C1571.236,202.563,1567.307,194.851,1562.217,189.554z M1544.315,237.649
	c-13.678,6.505-21.684-5.003-25.521-13.51c-3.836-8.506-2.504-21.82,7.006-26.354c14.345-6.838,22.684,8.006,24.519,11.66
	C1552.154,213.1,1557.992,231.144,1544.315,237.649z"/>
<path fill="#FDB07A" d="M1247.197,143.368c-6.228,4.226-23.352,11.565-23.352,11.565l-1.28,6.037
	c2.446-0.9,10.521-3.92,14.735-6.074v0.179C1240.886,151.257,1247.197,143.368,1247.197,143.368z"/>
<path fill="#FDB07A" d="M1246.809,220.904c-2.249-13.152-1.746-40.762,4.503-62.561c4.459-15.553,10.365-21.436,11.143-22.16
	l-5.916-0.821c0,0-11.787,12.677-19.349,32.914c-7.562,20.238-7.339,49.816-2.446,63.382
	C1234.743,231.658,1243.375,225.312,1246.809,220.904z"/>
<path fill="#FDB07A" d="M1244.751,237.663c-10.23-1.112-10.008-6.004-10.008-6.004s-8.041,3.922-12.889,4.032
	c2.823,7.118,8.366,11.721,18.337,11.721c15.012,0,19.904-11.787,19.904-11.787s-0.454-0.035-1.189-0.199
	C1255.525,236.831,1250.45,238.282,1244.751,237.663z"/>
<path fill="#FDB07A" d="M1351.722,163.828c-1.661,5.648-8.408,7.821-11.717,8.559c5.196,1.622,22.247-1.445,21.725-16.492
	c-0.064-1.861-0.33-3.544-0.758-5.072c-3.188,1.171-8.138,1.996-8.138,1.996S1353.945,156.267,1351.722,163.828z"/>
<path fill="#FDB07A" d="M1308.61,196.402c-1.783-6.796-0.873-20.997,2.414-32.611c3.336-11.787,11.23-17.458,20.571-17.458
	c6.142,0,10.312,2.501,12.417,6.49c1.929,0.003,8.631-0.052,8.821-1.004c0,0-2.446-12.009-22.685-10.23
	c-20.237,1.779-29.133,17.569-31.802,29.579s-4.003,43.812,6.672,59.379C1305.02,230.546,1300.864,209.761,1308.61,196.402z"/>
<path fill="#FDB07A" d="M1327.036,187.847c-6.894,0.667-14.678,7.561-19.126,17.792c-4.448,10.23-2.891,24.908-2.891,24.908
	c0.667-9.785,6.449-23.351,7.561-26.02c0.157-0.376,0.373-0.584,0.626-0.672c1.296-3.654,3.636-6.649,7.27-8.258
	c8.766-3.88,16.539,1.528,21.511,9.394c4.277-0.066,12.183-1.354,12.183-1.354C1346.606,185.623,1333.931,187.179,1327.036,187.847z
	"/>
<path fill="#FDB07A" d="M1365.399,214.608c0.147-4.115-0.166-7.798-0.859-11.083c-3.272,0.325-8.339,0.692-10.371,0.111
	c0,0,4.892,23.574-5.338,32.915c-10.23,9.34-19.571,9.34-28.244,6.449c-8.674-2.891-15.567-12.454-15.567-12.454
	s-5.56,0.223-11.564,0c-0.075-0.003-0.145-0.005-0.218-0.008c1.836,3.257,3.928,5.997,6.183,8.301l10.553,7.508
	c6.749,3.202,13.693,4.102,19.065,4.178C1344.717,250.747,1364.51,239.404,1365.399,214.608z"/>
<path fill="#FDB07A" d="M1557.881,164.254c-1.388,4.719-6.328,7.013-9.846,8.07c3.111,0.452,19.828,2.098,20.854-14.536
	c0.156-2.541-0.164-4.836-0.862-6.901c-3.045,1.359-9.033,2.358-9.033,2.358S1560.104,156.693,1557.881,164.254z"/>
<g>
	<path fill="#FDB07A" d="M1514.182,197.896c-0.456-4.058-2.079-20.557,0.442-30.545c2.892-11.453,10.004-23.907,22.573-23.907
		c8.576,0,12.275,6.417,13.571,9.803c2.441-0.012,8.051-0.133,8.225-1.003c0,0-2.447-12.009-22.685-10.23
		c-20.238,1.78-29.134,17.569-31.802,29.579c-2.669,12.009-4.004,43.812,6.671,59.379
		C1511.178,230.972,1507.237,211.265,1514.182,197.896z"/>
</g>
<path fill="#FDB07A" d="M1533.195,188.273c-6.895,0.667-14.679,7.562-19.126,17.791c-4.448,10.23-2.892,24.908-2.892,24.908
	c0.667-9.785,6.45-23.352,7.562-26.02c0.171-0.409,0.409-0.623,0.69-0.695c1.46-2.531,3.555-4.647,6.371-5.99
	c10.635-5.07,17.969,1.778,21.799,7.149c4.105,0.049,12.728-1.354,12.728-1.354C1552.766,186.048,1540.089,187.605,1533.195,188.273
	z"/>
<path fill="#FDB07A" d="M1571.112,212.609c0.04-3.062-0.338-5.934-1.034-8.598c-3.262,0.306-7.843,0.597-9.751,0.051
	c0,0,4.893,23.574-5.338,32.915c-10.23,9.34-19.57,9.34-28.244,6.449c-8.673-2.891-15.567-12.454-15.567-12.454
	s-5.56,0.223-11.563,0c-0.449-0.017-0.86-0.032-1.244-0.046c1.593,2.513,3.399,4.874,5.381,7.039l15.642,11.128
	c4.786,1.943,9.877,2.854,15.024,2.435C1554.878,249.859,1570.765,239.312,1571.112,212.609z"/>
<path fill="#FDB07A" d="M1404.874,136.587c0,0,3.336,7.783,1.891,18.792c-1.446,11.008-3.114,24.352-3.225,32.803
	c-0.111,8.451,1.111,9.229,1.111,9.229l5.611-9.846c-1.635,1.275-2.387,2.231-2.387,2.231s-0.668-11.326,0.89-20.667
	c1.556-9.34,3.447-14.9,3.447-14.9s4.447,5.227,12.787,5.004s13.232-3.113,20.015-3.225c6.783-0.111,9.675,4.226,9.675,4.226
	s0.058-0.139,0.154-0.388c-0.561-4.875-2.838-14.019-12.052-14.071c-12.564-0.071-7.339,1.819-16.012,1.597
	C1418.106,147.151,1412.991,145.26,1404.874,136.587z"/>
<path fill="#FDB07A" d="M1455.614,157.697c0.805-2.418,1.874-6.213,2.077-9.805c0.085-1.491-0.245-3.019-0.91-4.47
	c-2.293,0.876-4.427,4.729-4.427,4.729C1454.217,150.758,1455.18,155.106,1455.614,157.697z"/>
<path fill="#FDB07A" d="M1425.779,188.516c-14.243,0.75-20.956,12.514-23.717,16.42h6.48c0,0,5.004-11.343,13.899-11.12
	c6.839,0.17,14.071,1.921,17.354,11.865l12.114,0.626C1451.91,206.308,1445.804,187.462,1425.779,188.516z"/>
<path fill="#FDB07A" d="M1452.354,206.53c0,0,3.447,17.347-3.669,25.687c-7.116,8.339-14.566,14.011-25.909,13.677
	c-11.342-0.334-16.234-5.894-20.127-11.12c0,0-4.669,2.083-8.376,2.208c4.044,8.244,13.964,15.47,29.615,14.544
	c20.683-1.223,40.697-11.675,41.031-36.583c0.076-5.687-0.945-10.542-2.719-14.652
	C1459.687,202.186,1453.489,206.247,1452.354,206.53z"/>
<path fill="#FDB07A" d="M1410.207,232.133c-0.27-1.053-0.427-2.219-0.44-3.513c-0.112-10.675,9.229-12.454,9.229-12.454
	s-0.038-0.076-0.124-0.203c-9.048-1.604-14.612,3.685-16.999,8.024c-2.446,4.448,0.556,10.119,0.556,10.119
	C1403.59,234.185,1407.776,232.912,1410.207,232.133z"/>
</svg>
