<?xml version="1.0" encoding="utf-8"?>
<!-- Generator: Adobe Illustrator 16.0.4, SVG Export Plug-In . SVG Version: 6.00 Build 0)  -->
<!DOCTYPE svg PUBLIC "-//W3C//DTD SVG 1.1//EN" "http://www.w3.org/Graphics/SVG/1.1/DTD/svg11.dtd">
<svg version="1.1" id="Layer_1" xmlns="http://www.w3.org/2000/svg" xmlns:xlink="http://www.w3.org/1999/xlink" x="0px" y="0px"
	 width="500px" height="500px" viewBox="0 0 500 500" style="enable-background:new 0 0 500 500;" xml:space="preserve">
<circle style="fill:#8C283E;" cx="250" cy="249" r="246"/>
<path style="fill:#79D7BE;" d="M360.7,251.7l30.3-24.5v-90l-68.2-27H97v45.9h41.9v192.5H98.3v48.6l237.9,1.6l56.8-32.1v-94.4
	L360.7,251.7z M205.7,163.4h106l11.1,8.5l1.1,47l-9.6,6.9H205.7V163.4z M326.2,342.8l-8.7,8.5H205.7v-68.2h108.9l11.6,10.7V342.8z"
	/>
<path style="fill:none;stroke:#333333;stroke-width:9;stroke-miterlimit:10;" d="M360.7,251.7l30.3-24.5v-90l-68.2-27H97v45.9h41.9
	v192.5H98.3v48.6l237.9,1.6l56.8-32.1v-94.4L360.7,251.7z M205.7,163.4h106l11.1,8.5l1.1,47l-9.6,6.9H205.7V163.4z M326.2,342.8
	l-8.7,8.5H205.7v-68.2h108.9l11.6,10.7V342.8z"/>
</svg>
