<?xml version="1.0" encoding="utf-8"?>
<!-- Generator: Adobe Illustrator 16.0.4, SVG Export Plug-In . SVG Version: 6.00 Build 0)  -->
<!DOCTYPE svg PUBLIC "-//W3C//DTD SVG 1.1//EN" "http://www.w3.org/Graphics/SVG/1.1/DTD/svg11.dtd">
<svg version="1.1" id="Layer_1" xmlns="http://www.w3.org/2000/svg" xmlns:xlink="http://www.w3.org/1999/xlink" x="0px" y="0px"
	 width="500px" height="500px" viewBox="0 0 500 500" style="enable-background:new 0 0 500 500;" xml:space="preserve">
<circle style="fill:#329B59;" cx="250" cy="249" r="246"/>
<path style="fill:#111111;" d="M322.9,182.7c0,0,20.7-35.4,30-81.8c0.9-4.4-57.9,31.3-113.6,121.9c-55.7,90.5-79.7,164.6-70.1,179.4
	c0,0,20-7.8,54.4-50.5c34.4-42.7,38.3-44.8,50.5-41.8s20.5,23.1,6.1,50.1c-14.4,27-61.8,99.3-108.4,94.5
	c-46.6-4.8-75.3-31.3-41.4-135.4c34-104,93.6-189.4,144.5-227.2c50.9-37.9,84.5-44.8,106.7-29.6c22.2,15.2,44,68.3-10,145
	c-54,76.6-80.1,89.2-100.6,86.2c-20.5-3-31.9-37.5-16.5-76.2c15.3-38.7,38.8-48,54-45.7C319.9,173.1,322.9,182.7,322.9,182.7z"/>
<path style="fill:#DE426C;" d="M314.9,182.6c-5,5.5-16.5,15.9-24.2,35.5c-7.6,19.6-5.9,29.8-1.7,31.3c4.1,1.5,32.9-13.5,59.6-62
	s31.6-97.7,22-100.1c-9.6-2.4-31.3-0.9-96.6,73.6c-65.3,74.4-137.1,232-109.3,246.8s65.3-29.6,72.9-39c7.6-9.4,28.5-43.8,30.5-47.7
	c2-3.9,6.3-6.5,12.4,5.7s-23.9,55.9-52.5,80.1c-28.5,24.2-53.8,23.1-66.6,18.7c-12.8-4.4-44.6-20.9-17.4-96S199.1,196.3,267.8,121
	c51.9-56.9,83.2-56.5,103.6-53.7c18.9,2.6,44.1,43.2,2,123.6c-42.1,80.4-78.4,80.4-90.8,76.3c-12.5-4.1-22.6-27.3-8.7-56.3
	c13.9-29,27.6-33.7,33.4-33.7C313.1,177.3,317.1,180.1,314.9,182.6z"/>
</svg>
