<?xml version="1.0" encoding="utf-8"?>
<!-- Generator: Adobe Illustrator 16.0.4, SVG Export Plug-In . SVG Version: 6.00 Build 0)  -->
<!DOCTYPE svg PUBLIC "-//W3C//DTD SVG 1.1//EN" "http://www.w3.org/Graphics/SVG/1.1/DTD/svg11.dtd">
<svg version="1.1" id="Layer_1" xmlns="http://www.w3.org/2000/svg" xmlns:xlink="http://www.w3.org/1999/xlink" x="0px" y="0px"
	 width="500px" height="500px" viewBox="0 0 500 500" style="enable-background:new 0 0 500 500;" xml:space="preserve">
<circle style="fill:#303459;" cx="250" cy="250" r="246"/>
<path style="fill:#9FFF80;" d="M192.6,144.5L181,171.3c0,0-13.1,2.8-13.3,14.3c-0.2,11.6,11.9,15,19.5,15.5
	c7.6,0.5,27.3-1.4,41.2-6.9c14-5.6,43.1-18.3,69.4-53.4c26.4-35.2,43-76.6,32.5-85.4c-9.4-7.9-50.7,28.9-71.2,52.2
	c-16.2,18.6-37.2,54.3-45.7,99.8c-2.6,14.1-3.9,34.7,7.8,35.9c11.7,1.2,25.2-13.6,30.7-19.9c5.5-6.2,26.8-36.8,26.8-36.8l29.6-14.8
	c0,0-34.4,61.8-56.4,111.5c-22,49.7-37.6,73.1-75.4,182.1c0,0-31.9-37.2-14.4-92.5c17.4-55.3,62.3-81.7,93.5-86.8
	c15.6-2.5,39.4-1.4,48.1,13.9l-19.7,12.3c0,0-6.9-16.6-21.3-16.2c-23.6,0.7-63.6,20.1-84.6,61.3s-5.8,79.6-2.3,89.8
	c0,0,35.5-100.2,86.6-220.5c0,0-33,36.1-51.6,34.5c-18.6-1.6-26.8-35.2-0.2-100.9c31.2-77,99.7-114.3,117.8-116.3
	c27.8-3.1,14,47.7-23.9,100.2c-37.8,52.5-95.3,66.6-111.4,66.9c-16,0.2-38.8-3.7-36.4-32.6C159.2,151.4,185.8,144,192.6,144.5z"/>
</svg>
