<?xml version="1.0" encoding="utf-8"?>
<!-- Generator: Adobe Illustrator 16.0.4, SVG Export Plug-In . SVG Version: 6.00 Build 0)  -->
<!DOCTYPE svg PUBLIC "-//W3C//DTD SVG 1.1//EN" "http://www.w3.org/Graphics/SVG/1.1/DTD/svg11.dtd">
<svg version="1.1" id="Layer_1" xmlns="http://www.w3.org/2000/svg" xmlns:xlink="http://www.w3.org/1999/xlink" x="0px" y="0px"
	 width="500px" height="500px" viewBox="0 0 500 500" style="enable-background:new 0 0 500 500;" xml:space="preserve">
<circle style="fill:#3F2144;" cx="250" cy="250" r="246"/>
<path style="fill:#D672BD;" d="M212.1,396.1c3.1,0,6-1.9,2.7-4.5c-3.3-2.5-14.2-13.2-15.1-31.4c-0.9-18.3-0.6-239.6-0.6-239.6
	s86.2-10.9,89,43.8c3.3,64.5-80.2,73.3-80.2,73.3s34.9,56.3,70.6,97.7c35.8,41.5,54.8,58.5,67.6,59.7c13,1.2,56.6,0.3,59.7,0.7
	c3.1,0.3,3.3-1.9-1-4.3c-4.5-2.2-39.2-30.8-60-50.9c-43.5-41.8-81-97.4-81-97.4s80.7-14.8,76.2-78.1c-4.5-63.4-60.8-71.5-71.7-72.1
	c-10.9-0.6-128.8-1.9-132.7-2.1c-3.9-0.1-2.5,3.3-0.1,3.9c2.4,0.5,12.7,13.3,12.9,26.2c0.3,13,2.4,216.8,0.6,239.6
	c-1.8,22.7-9,26.3-13.6,29c-4.6,2.7-2.1,5.1,1.3,5.2C140.4,395.1,212.1,396.1,212.1,396.1z"/>
</svg>
