<?xml version="1.0" encoding="utf-8"?>
<!-- Generator: Adobe Illustrator 16.0.4, SVG Export Plug-In . SVG Version: 6.00 Build 0)  -->
<!DOCTYPE svg PUBLIC "-//W3C//DTD SVG 1.1//EN" "http://www.w3.org/Graphics/SVG/1.1/DTD/svg11.dtd">
<svg version="1.1" id="Layer_1" xmlns="http://www.w3.org/2000/svg" xmlns:xlink="http://www.w3.org/1999/xlink" x="0px" y="0px"
	 width="500px" height="500px" viewBox="0 0 500 500" style="enable-background:new 0 0 500 500;" xml:space="preserve">
<circle style="fill:#9F2131;" cx="250" cy="250" r="246"/>
<path style="fill:#FED879;" d="M134.5,180.1c-4.3,5.2-59.8,72.4-71.3,64.6c-11.5-7.8,28.8-55.6,48.9-75.8
	c20.1-20.1,88.1-61.2,104.8-52.6c13.5,7-32.7,63.7-54.5,92c-21.8,28.3-77.7,107.1-85.6,118.5c-7.9,11.5-11.8,22.6,2,32.2
	c13.7,9.5,22.4,7.3,22.4,7.3s-2.8-2.8,2.8-11.8c5.6-8.9,39.7-58.7,91.2-105.7c51.4-47,114.3-99.3,114.3-99.3s-34.1,39.4-73.8,88.1
	c-39.7,48.7-62.7,83.9-68.5,93.7s-9.5,24.1,6.4,33.2c15.9,9.2,23.2,5.3,23.2,5.3s-2.5-5.6,2.8-13.7c5.3-8.1,23.2-42.5,83.3-100.6
	c60.1-58.2,114.6-92,114.6-92s-31.9,35.8-89.5,108.7S252.5,398.7,278,409c25.4,10.3,45.3-3.4,45.3-3.4s-24.1-3.7-22.6-30.7
	c1.4-27.1,14.5-60.8,54.5-111.2c40-50.4,74.1-87.6,85.8-100.2c11.8-12.6-4.7-28-18.7-28.8c-28.5-1.7-138.7,99-138.7,99
	s57-69.9,67.1-82.8s0.4-21.9-18.7-25.8c-30.7-6.1-151.2,118.3-151.2,118.3s47.5-64.3,61.2-87.8s2.2-41.6-13.1-47.2
	c-15.4-5.6-56.2-7.6-117.7,42.2c-61.5,49.8-77,94.3-64.6,104.8c26.6,22.6,90.6-62.1,95.4-69.9C146.5,177.8,138.3,175.3,134.5,180.1z
	"/>
</svg>
