<?xml version="1.0" encoding="utf-8"?>
<!-- Generator: Adobe Illustrator 16.0.4, SVG Export Plug-In . SVG Version: 6.00 Build 0)  -->
<!DOCTYPE svg PUBLIC "-//W3C//DTD SVG 1.1//EN" "http://www.w3.org/Graphics/SVG/1.1/DTD/svg11.dtd">
<svg version="1.1" id="Layer_1" xmlns="http://www.w3.org/2000/svg" xmlns:xlink="http://www.w3.org/1999/xlink" x="0px" y="0px"
	 width="500px" height="500px" viewBox="0 0 500 500" style="enable-background:new 0 0 500 500;" xml:space="preserve">
<circle style="fill:#493477;" cx="250" cy="250" r="246"/>
<path style="fill:#DBAD3D;" d="M415.6,224c0-90.3-81.5-123.3-166.2-123.3c-29.2,0-138.8,0-138.8,0v286.4h137.6v-61.6
	c98.3,66.5,106,63.6,120.1,65.1c15.1,1.7,31.4-3.4,27-12.6c-3.8-7.9-12.6-4-31.5-7.7c-31.4-6-61.9-29.9-61.9-29.9
	S415.6,322.9,415.6,224z M278.6,327.3L245,305.4V122.5c0,0,150.6-13.7,150.6,101.4C395.7,316,278.6,327.3,278.6,327.3z"/>
</svg>
