<?xml version="1.0" encoding="utf-8"?>
<!-- Generator: Adobe Illustrator 16.0.4, SVG Export Plug-In . SVG Version: 6.00 Build 0)  -->
<!DOCTYPE svg PUBLIC "-//W3C//DTD SVG 1.1//EN" "http://www.w3.org/Graphics/SVG/1.1/DTD/svg11.dtd">
<svg version="1.1" id="Layer_1" xmlns="http://www.w3.org/2000/svg" xmlns:xlink="http://www.w3.org/1999/xlink" x="0px" y="0px"
	 width="500px" height="500px" viewBox="0 0 500 500" style="enable-background:new 0 0 500 500;" xml:space="preserve">
<circle style="fill:#229130;" cx="249.5" cy="249" r="246"/>
<path style="fill:#1F0010;" d="M305.9,75c-29.1,0-43.6,25.8-43.6,25.8s-5.8-4.5-9.6-4.1c-3.8,0.4-17,11.2-17,11.2s-5.4-0.8-10.4,3.7
	c-5,4.5-95,86.7-95,236.1c0,48.5,24.4,80.9,62.7,80.9c93,0,164.7-200,164.7-258.9C357.8,107,344.2,75,305.9,75z M215.5,340.1
	c-11.2,0-16.6-10-16.6-39.8c0-87.1,38.1-130.7,38.1-130.7c-1.2,14.1,20.3,13.3,20.7,11.2c0.4-2.1,12.1-25.8,24.9-25.8
	s13.7,7.4,13.7,36.5C296.4,238.5,244.9,340.1,215.5,340.1z"/>
<path style="fill:#DACA54;" d="M252.4,104.5c-15.4,0-97.1,101-97.1,202c0,59.4,16.6,91.3,48.6,91.3c59.8,0,146.5-124.1,146.5-234
	c0-47.7-11.6-78-40.6-78c-32.8,0-56.8,50.2-56.8,61c0,10.8,3.7,13.3,3.7,13.3s10.4-39.4,36.5-39.4c32,0,29.5,48.6,29.5,59.4
	c0,61.8-51.4,172.2-103.3,172.2c-18.7,0-29.1-12.1-29.1-58.1c0-86.3,64.6-175.4,68.9-180.9C262,109.5,255.5,104.5,252.4,104.5z"/>
</svg>
