<?xml version="1.0" encoding="utf-8"?>
<!-- Generator: Adobe Illustrator 16.0.3, SVG Export Plug-In . SVG Version: 6.00 Build 0)  -->
<!DOCTYPE svg PUBLIC "-//W3C//DTD SVG 1.1//EN" "http://www.w3.org/Graphics/SVG/1.1/DTD/svg11.dtd">
<svg version="1.1" id="Layer_1" xmlns="http://www.w3.org/2000/svg" xmlns:xlink="http://www.w3.org/1999/xlink" x="0px" y="0px"
	 width="500px" height="500px" viewBox="0 0 500 500" style="enable-background:new 0 0 500 500;" xml:space="preserve">
<circle style="fill:#382984;" cx="249.5" cy="249" r="246"/>
<path style="fill:#00103A;" d="M328,60.3c-37.4,0-68.5,57.8-68.5,57.8l-3.1-24.5c0,0-11.1,1.3-45.4,36.9c0,0-112,88.6-112,201.5
	c0,61.7,29.8,92.4,59.6,92.4c39.6,0,59.1-37.8,59.1-37.8s33.3,0,78.3-42.7c44.9-42.7,89.4-131.6,89.4-193.4
	C385.3,93.6,361.7,60.3,328,60.3z M227.5,313.7c-14.7,0-26.7-18.2-26.7-44.9c0-89.3,49.8-127.7,49.8-127.7c-4.9,29.3,4,45.4,4,45.4
	l30.2-33.3c0-5.8,11.6-31.1,18.7-31.1c7.1,0,9.8,13.8,9.8,34.5C313.3,234.7,255,313.7,227.5,313.7z"/>
<path style="fill:#03C683;" d="M283.9,140.4l-2.3-20c0,0,5.7-51,46.7-51c41,0,50.4,49,50.4,78.7c0,85-76,233.5-177.4,233.5
	c-48.9,0-60.9-47.1-60.9-83.1c0-100.5,109.8-193,109.8-193l1.3,27.1c0,0-58.7,41.3-58.7,140.9c0,31.1,18.7,57.4,41.4,57.4
	c42.7,0,110.7-90.7,110.7-162.7c0-25.8-6.2-56-28-56C295.1,112.1,283.9,140.4,283.9,140.4z"/>
<path style="fill:#A7FFB7;" d="M241.6,119c0,0-90.7,76-90.7,183.4c0,47.4,22.7,67.7,53.7,67.7c93.7,0,163.4-144.7,163.4-216.8
	c0-50.7-16.7-75.7-40-75.7c-22.3,0-37.4,25.7-37.4,25.7l1.3,13c0,0,16.7-21.3,30.3-21.3c19.3,0,28.9,16.7,28.9,66.3
	c0,68.2-52.2,174.4-125.3,174.4c-55,0-61.4-130.1,17.7-207.4L241.6,119z"/>
</svg>
