<?xml version="1.0" encoding="utf-8"?>
<!-- Generator: Adobe Illustrator 16.0.4, SVG Export Plug-In . SVG Version: 6.00 Build 0)  -->
<!DOCTYPE svg PUBLIC "-//W3C//DTD SVG 1.1//EN" "http://www.w3.org/Graphics/SVG/1.1/DTD/svg11.dtd">
<svg version="1.1" id="Layer_1" xmlns="http://www.w3.org/2000/svg" xmlns:xlink="http://www.w3.org/1999/xlink" x="0px" y="0px"
	 width="500px" height="500px" viewBox="0 0 500 500" style="enable-background:new 0 0 500 500;" xml:space="preserve">
<circle style="fill:#48296E;" cx="250" cy="249" r="246"/>
<path d="M359.9,350.7c-3.2-1.7-7.2-1-7.1,0.2c0.2,1.2,3.9,16.5-1.3,31.2c-5.2,14.7-26.2,55.2-84.8,58.5c-30.3,1.7-33.6-43.2-33.9-55
	c-0.2-8.2-2.7-11.5-2.7-11.5s32.2-29.2,49.7-51.3c17.5-22.1,81.7-128,82.1-190.7c0.3-50.6-23.9-56.3-36.4-56.7
	c-16.4-0.4-59.6,19.3-97.6,74.2s-34.2,107.9-7.6,109.9c26.5,2,39.9-12.1,55.3-29.7c1.6-1.8-2.9-7.2-5.4-5.6
	c-2.5,1.6-13.5,3.8-17.5-0.2c-4-4-9.2-35.7,12.8-72.4s45.4-55.3,58.5-48.6c13,6.7,19.8,35.7,2.7,84.8c-17.1,49-35.1,90.6-59.8,120.3
	c0,0-18.7,9-43.2,5.6c0,0,5.2,11.9,23.4,15.7c0,0-12.8,15.3-26.3,25.4c0,0-17.5-16.4-36.4-16.2s-30.8,7.4-42.9,16.9
	c0,0-2.2-33.5,7.9-62.7c10.1-29.2,22-43.6,34.4-44.1c12.4-0.4,17.1,4,17.1,4s1.6-27.9-26.5-31.5c0,0,22.5-65.6,59.1-105.7
	c36.6-40,85.2-60.7,111.3-60.7c3.1,0,1.8-8,0.5-8.2c-3.7-0.4-34.1-6.1-81.3,10.5C216.4,73.9,149.5,117.4,102,231
	c0,0-33.7-7.4-31.4,30c0,0,14.5-2.4,15.2,13.5c0.7,15.8-31.6,131,50.2,141.6c23.3,3,55.6-14.2,55.6-14.2s0,71.8,74.9,62.7
	c74.9-9.1,99.1-67.8,100.5-84.3C368.4,363.9,363.1,352.4,359.9,350.7z M167.7,388c-13.7,0.3-17.5-10.3-17.5-10.3
	c3-5.6,6.6-11.8,20.2-11.6c13.7,0.2,17.7,14.8,17.7,14.8S181.4,387.7,167.7,388z"/>
<path style="fill:#FCB543;" d="M357.9,353.8c0,0,1.7,13.6-0.3,22.6c-2.9,12.5-18.7,45.9-53.4,60.2c-36.2,15-51.6,8.1-60.7-1.2
	c-13.5-13.8-11.3-34.1-13.8-45.4c-2.5-11.3-4.9-17-4.9-17s54-35.1,98.1-131.5c16.9-36.9,31.6-71,35.3-98.7
	c4.6-34.3-6.1-58.5-31-62.7c-33.3-5.6-86.8,57.5-98.5,75.8c-19.1,29.9-35.5,87-13.5,97.1c21.5,9.9,43.1-9.9,52.6-20
	c1.5-1.6-0.9-2.2-1.4-2.1c-2,0.3-7.1,1.3-12.5-1.2c-5.4-2.5-12.8-11.5-8.3-35.2s14.8-44.5,28-62.7c13.2-18.2,36.6-38.3,50.9-33
	c14.3,5.2,22.1,33.6,8.1,84.3c-14,50.8-47.5,112-61.4,127.8c0,0-13.2,9.9-39.5,7.2c0,0,6.9,9.1,29.7,4.7c0,0-31.2,31.5-41.6,38.9
	c0,0-16.2-18.5-36.3-18.5c-20.1,0-35.9,11.6-43.8,21.2c0,0-7.9-28.5,1.7-60.7c9.6-32.2,18.5-48.1,29.8-55
	c11.3-6.9,23.9-3.4,23.9-3.4s-4.7-18.2-21.9-19.4c-17.2-1.2-25.8,13.8-32.2,31.7c0,0,2.5,6.4-1.7,13.5c-4.2,7.1-6.7,11-10.3,9.8
	s-2.9-8.6,2.2-14.8s8.8-13,11.6-23.4c2.9-10.5,1.2-19.4,2.7-27.1c1.5-7.8,5.4-18.5,5.4-18.5s-12,6.2-26.3,32.2
	c-14.3,26-7.4,38.9-7.8,46.7c-0.3,7.8-2.2,8.8-4.7,8.6c-2.5-0.2-6.6-2.9-3.5-14.3c3-11.5,4-14.2,2.9-20.4
	c-1.2-6.2-6.7-15.8-20.2-14.8c-13.5,1-16.9,16.2-16.9,21.6c0,0,10.1-0.8,13.3,10.3c3.2,11.1,1.2,22.8-1.9,44.5
	c-3,21.8-4.7,100.5,57.3,100.5c25.6,0,51.3-15.8,51.3-15.8s3,43.8,28.2,58c25.1,14.2,64.7,4.2,86-6.4c21.2-10.6,49-34.1,54.8-69
	C366,363.4,357.9,353.8,357.9,353.8z M193.1,382c-1.2,1.9-12.6,10.7-26.2,10.6c-13.7-0.1-21.4-13.6-21.4-13.6s3.9-18.8,24.9-17.6
	c17.9,1.1,22.8,20.3,22.8,20.3V382z"/>
<path style="fill:#FCB543;" d="M337.3,50.6c-2.5-0.2-22.8-2.7-54.5,5.4c-27.8,7.1-67.3,26.6-102,59.2
	c-33.3,31.2-71.3,107.1-74.9,119.5c0,0,7.1,5.4,7.8,9.1c0,0,7.8-21.6,18.5-35.2c11.3-14.2,19.7-19.5,22.9-21.2c1.1-0.6,4.2,2,3.7,3
	c-2.1,4.6-6.5,14.4-8,21.2c-1.9,8.9-0.8,16.8-1.5,20.7c0,0,6-10,13.1-12.7c5.2-2,8.1-0.3,8.1-0.3s20.1-58.9,50.4-95.3
	c29.4-35.3,67.4-63.3,116.4-71.3C338,52.7,338.1,50.7,337.3,50.6z"/>
<path style="opacity:0.5;fill:#FFFFFF;" d="M337.3,50.6c-2.5-0.2-22.8-2.7-54.5,5.4c-27.8,7.1-67.3,26.6-102,59.2
	c-33.3,31.2-71.3,107.1-74.9,119.5c0,0,3.2,2.4,5.5,5.1c3.5-8.4,9.1-21.4,15.3-34.4c8.3-17.5,33.9-60.4,65.8-89.9
	c15.3-14.2,38.6-28.8,67.8-45.4c23.7-13.4,49.2-14.2,62.5-14.2c4.8-1.2,9.6-2.2,14.6-3.1C338,52.7,338.1,50.7,337.3,50.6z"/>
<path style="opacity:0.5;fill:#FFFFFF;" d="M112.3,284c-2.2-0.1-5.4-2.2-4.4-9.9c-1.7,5.3-3.3,5.4-3.8,8.4
	c-0.6,3.4,3.4,10.6,6.6,10.3c3.2-0.3,5.7-0.9,9.6-8.1c3.9-7.2-4.6-14.8,2.7-38.7c6.1-19.9,17.8-34,25.4-41c1.4-4.7,2.8-8.5,2.8-8.5
	s-12,6.2-26.3,32.2c-14.3,26-7.4,38.9-7.8,46.7C116.6,283.2,114.8,284.2,112.3,284z"/>
<path style="opacity:0.5;fill:#FFFFFF;" d="M215.2,252.8c6,2.8,11.9,3.2,17.7,2.2c-5.8-1.2-11.5-4.5-14.8-6.4
	c-4.9-2.7-7.7-18.8-5.8-31c1.9-12.1,9.3-29.3,19.6-50.1c10.3-20.9,23.1-35.4,39.5-51.4c16.4-16,40.7-30.4,45.9-30.9
	c9.7-1,19.6,0.1,33.5,9.5c-5.4-7.9-13.2-13-23.5-14.8c-33.3-5.6-86.8,57.5-98.5,75.8C209.5,185.6,193.2,242.7,215.2,252.8z"/>
<path style="opacity:0.5;fill:#FFFFFF;" d="M141.1,257.6c0,0,2.5,6.4-1.7,13.5c-4.2,7.1-6.7,11-10.3,9.8c-1.7-0.6-2.4-2.5-2.2-5
	c-8.3,6-1.1,12.8,2.5,13.4c3.7,0.7,8.4-6.9,8.4-6.9c10.4-17.6,7.9-24.1,7.9-24.1c6.4-21.4,18-27.3,28.5-27c8.5,0.3,13,8,15.3,13.2
	c3.4,0.2,5.6,0.8,5.6,0.8s-4.7-18.2-21.9-19.4C156.1,224.8,147.5,239.8,141.1,257.6z"/>
<path style="opacity:0.5;fill:#FFFFFF;" d="M99.4,379.4c-7.1-14-7.7-40.6-7.4-55.5c0.3-14.8,3.9-39.5,3.9-48.4
	c0-8.9-6.7-17.7-9.1-23.6c-2.4-5.9,0-10.3,0-10.3c12.3-8.1,21.4,5.5,25.3,12.7c0-1.4-0.2-2.9-0.5-4.6c-1.2-6.2-6.7-15.8-20.2-14.8
	c-13.5,1-16.9,16.2-16.9,21.6c0,0,10.1-0.8,13.3,10.3c3.2,11.1,1.2,22.8-1.9,44.5c-2.8,20.1-4.5,88.9,44.4,99.2
	C118.4,403.1,106,392.4,99.4,379.4z"/>
<path style="opacity:0.5;fill:#FFFFFF;" d="M210.2,423.8c-1.3-4.3-5.6-26.8-5.6-26.8s1.9-5.3-3.2-6.9c-2.8-0.8-5.3,2.3-6.9,5.3
	c0.1,1.4,3.5,44,28.2,58c6.2,3.5,13.3,5.5,20.7,6.4C214.2,443.6,211.5,427.8,210.2,423.8z"/>
<path style="opacity:0.5;fill:#FFFFFF;" d="M183.2,359.3c-2-0.9-6.7-1-6.7-1s3.9,3.1,6.2,7.6c8,6,10.4,15.9,10.4,15.9v0.2
	c-1.2,1.9-12.6,10.7-26.2,10.6c-2.6,0-5.1-0.5-7.3-1.4c4.5,3.7,12,6.7,22.8,2.8c16.4-5.9,16.4-8.3,17-9.6c0.7-1.3-0.6-17.1-8.4-21.4
	C186.8,360.7,184.9,359.2,183.2,359.3z"/>
<path d="M262.4,69.3c0,0-46.5,16.9-85.2,58.9c-24.6,26.8-50.6,77.2-50.6,77.2h4.9c0,0,28.4-51.6,51-77
	C205.2,103,262.4,69.3,262.4,69.3z"/>
<path d="M88.6,240.8c0,0,0.4,12.8,1.8,15.5c1.3,2.7,7.8,12.8,7.9,21.1c0.2,17.8-4.7,32.8-4.8,56.9c-0.1,24.1,5.2,54.4,25.3,65.9
	c0,0-25.2-7-29-54.6c-2-25.1,4-51,4.5-65.2c0.5-13.3-6-26.4-14.8-29.4c-1-0.3,0.8-3.6,3.7-6.5S88.6,240.8,88.6,240.8z"/>
<path d="M104,282.4c0,0,2.5,7.4,7.2,7.4c6.7,0,8.9-5.2,8.9-5.2s-1.9,9.6-9.8,9.3C102.5,293.6,104,282.4,104,282.4z"/>
<path d="M122.9,280.9c0,0,0.8,5.9,5.6,6.4s9.4-4.9,9.4-4.9s-3.7,10.1-9.3,9.4C123,291.2,122.9,280.9,122.9,280.9z"/>
<path d="M103.9,293.9c0,0,2,5.2,6.5,5.6c4.6,0.3,6.9-3.7,6.9-3.7s-1.1,6.9-6.7,6.7C105,302.3,103.9,293.9,103.9,293.9z"/>
<path d="M121,292.5c0,0,1.7,5,7.1,4.9s7.3-4,7.3-4s-1.7,7.8-7.2,7.4C122.7,300.4,121,292.5,121,292.5z"/>
<path d="M176.5,358.3c0,0,8.8,2,14.3,6.6c5.6,4.6,7.6,11.3,7.6,11.3l4-0.8c0,0-1.2-7.5-8.3-12.1
	C184.9,357.1,176.5,358.3,176.5,358.3z"/>
<path d="M206.5,391.7l-5.1-1.5c0,0,2.2,27.8,10.1,43.2c7.9,15.3,22.4,18.7,22.4,18.7s-16.9-7.4-22.1-27.8
	C206.7,403.8,206.5,391.7,206.5,391.7z"/>
<path d="M221.8,250.2c0,0-10.3-4.8-7.4-26.3c2.7-20.4,7.4-35.7,25.3-67.1c14.2-24.9,38.8-46.2,51.1-54.6
	c12.3-8.4,21.4-15.5,34.2-16.2c0,0-6.1-4.6-21.8,4.6c-15.7,9.1-45.2,28.8-67.4,65.9c-16.9,28.2-25.8,54.8-25.8,71.3
	C210.1,249.1,221.8,250.2,221.8,250.2z"/>
<path style="opacity:0.5;fill:#FFFFFF;" d="M122.5,286.1c0,0,1.7,6.2,6.2,6.4s7.2-2.5,7.2-2.5s-2.4,7.5-7.9,6.6
	C120.7,295.4,122.5,286.1,122.5,286.1z"/>
<path style="opacity:0.5;fill:#FFFFFF;" d="M117.3,291.9c0,0-0.3,7.6-6.7,7s-6-7.5-6-7.5s2.4,3.1,6.4,3
	C114.9,294.3,117.3,291.9,117.3,291.9z"/>
<path style="opacity:0.5;fill:#FFFFFF;" d="M115.2,301.5c0,0-0.9,6.9-5.2,6.6c-5.5-0.3-5.5-7.1-5.5-7.1s2.9,3.4,5.3,3.5
	C112.3,304.7,115.2,301.5,115.2,301.5z"/>
<path style="opacity:0.5;fill:#FFFFFF;" d="M122.2,297.7c0,0,2.5,4.9,5.2,5.2c3.8,0.4,5.7-3.6,5.7-3.6s-0.7,8.7-5.9,8.1
	C122,306.7,121.3,301.3,122.2,297.7z"/>
<polygon points="115.9,212.1 130.3,211.1 128.5,213.7 114.6,214.6 "/>
<polygon points="124.8,219.7 111.4,221.2 110.3,223.8 123.1,222.8 "/>
<polygon points="120.3,228.3 107.6,229.8 106.2,233.5 118.7,231.6 "/>
<path d="M151.7,208.2c0,0,19.9-1.1,24-2.8l-0.8,2.1c0,0-15.3,2.7-23.8,2.2L151.7,208.2z"/>
<path d="M173,212.2c0,0-15.8,4.2-23,3.5l-0.2,2.3c0,0,9.8-0.5,22.3-3.4L173,212.2z"/>
<polygon points="149.6,225.9 155.7,224.3 153.3,226.9 149.6,227.6 "/>
</svg>
