<?xml version="1.0" encoding="utf-8"?>
<!-- Generator: Adobe Illustrator 16.0.4, SVG Export Plug-In . SVG Version: 6.00 Build 0)  -->
<!DOCTYPE svg PUBLIC "-//W3C//DTD SVG 1.1//EN" "http://www.w3.org/Graphics/SVG/1.1/DTD/svg11.dtd">
<svg version="1.1" id="Layer_1" xmlns="http://www.w3.org/2000/svg" xmlns:xlink="http://www.w3.org/1999/xlink" x="0px" y="0px"
	 width="500px" height="500px" viewBox="0 0 500 500" style="enable-background:new 0 0 500 500;" xml:space="preserve">
<circle style="fill:#DB003A;" cx="249.5" cy="249" r="246"/>
<path style="fill:#090909;" d="M301.8,352.1l-18.6-20.7c0,0-8.5,47.6-22.2,47.6c-11,0-45.9-47.6-45.9-47.6s135.6-156,135.6-223.1
	c0-12.3-1.9-56.7-37.4-56.7c-70.9,0-193.4,137.1-193.4,137.1c2.3,11.3,16.5,32.1,19.4,34c2.8,1.9,24.1,5.2,24.1,5.2l12.8-19.9
	l-7.2,212.8l13.8,21.9l31,9.4V384c0,0,19.6,26,52.5,26c32.8,0,41.8-31.1,41.8-31.1L301.8,352.1z M207.1,171.9
	c0,0,83.7-89.3,113.9-87c3,0.2-6.2,54.2-95.9,162.6c-0.2,0.2-0.4,0.5-0.6,0.7c0,0-2-57.8-2-63.8
	C222.6,178.4,207.1,171.9,207.1,171.9z"/>
<path style="fill:#67B58B;" d="M262,383.3c-18.9,0.6-59.9-65.2-59.9-65.2S341,147.9,338.9,86c-0.8-22.2-11.9-29.9-26.1-29.4
	C241.5,59,123.9,190.8,123.9,190.8s15.7,32.1,19.4,25.8c11.6-20.4,39.5-48.6,39.5-48.6L173.3,418l21.4,4.5l0.1-68.1
	c0,0,36,41.8,61.9,40.9c26-0.9,40.2-42,40.2-42L285,338.5C285.1,338.5,280.9,382.7,262,383.3z M188.2,160.7
	c0,0,89.4-96.2,123.4-97.4c9.9-0.4,14.5,7.1,14.8,18.9c1.6,47.2-128.6,209.2-128.6,209.2s4.5-90.5,4-105.6
	C201.3,170.6,188.2,160.7,188.2,160.7z"/>
</svg>
