<?xml version="1.0" encoding="utf-8"?>
<!-- Generator: Adobe Illustrator 16.0.4, SVG Export Plug-In . SVG Version: 6.00 Build 0)  -->
<!DOCTYPE svg PUBLIC "-//W3C//DTD SVG 1.1//EN" "http://www.w3.org/Graphics/SVG/1.1/DTD/svg11.dtd">
<svg version="1.1" id="Layer_1" xmlns="http://www.w3.org/2000/svg" xmlns:xlink="http://www.w3.org/1999/xlink" x="0px" y="0px"
	 width="500px" height="500px" viewBox="0 0 500 500" style="enable-background:new 0 0 500 500;" xml:space="preserve">
<circle style="fill:#006B3F;" cx="249.5" cy="249" r="246"/>
<path style="fill:#957EE4;" d="M342.1,73.8c-24.4,15.6-41.7,45.1-50.9,79.2c-9.2,34.1-8.8,59.5-8.8,59.5s-11.4,18-41,55.8
	c-27.6,35.2-69.8,78-69.8,78s-33.9-5-33.9-52c0-41.5,33.6-52.4,46.1-52.4c12.5,0,16.3,6.4,16.3,6.4c-9.5,1.7-14.9,11-14.9,17
	s3.6,16.6,17,16.6c6.4,0,24.6-6.1,24.6-21.5c0-23.9-22.2-32.7-40-32.7c-22.9,0-65.8,19.3-65.8,66.6c0,47.3,37.8,62.7,37.8,62.7
	c-31.2,29.2-45.4,32.9-57.5,32.9s-22.3-12.7-23.9-14.9c-1-1.4-4.7,1.5-3.7,3.7c1,2.2,9.8,24.1,25.8,24.1c29.8,0,67.5-40.5,67.5-40.5
	s14.1,7.5,45.4,7.5c64.6,0,95.9-53.1,102.9-106.3c4-30.5-1-70.7-1-70.7C338.7,169.4,370,135,379,97.6S366.5,58.2,342.1,73.8z
	 M270.4,302.8c-8.8,31.5-24.9,55.6-50,55.4c-25.1-0.2-38-8-38-8s31.7-32.7,51-55.8c19.3-23.1,50.2-60.9,50.2-60.9
	S279.2,271.3,270.4,302.8z M347.3,130.3c-12,18.8-32.5,41.2-32.5,41.2s-1.7-19,15.6-48.8c17.3-29.8,25.9-36.3,30-35.1
	C364.4,88.7,359.3,111.5,347.3,130.3z"/>
<path style="fill:#9D8EE4;" d="M200,248.2L200,248.2c-9.5,1.7-14.9,11-14.9,17c0,1.1,0.1,2.3,0.4,3.5c2.4-0.6,6.3-4.3,11.1-9.5
	C203.4,251.8,200,248.2,200,248.2z"/>
<path style="fill:#9D8EE4;" d="M186.6,227.6c-9.2,0-21.7,3.2-33.4,10c4.8-1.1,25.2-5.6,39.2-3.5c16,2.4,25.5,15.3,24.5,25.8
	c-1,10.5-7.4,16.9-12.4,19.7c-1.6,0.9-5.3,2-5.3,2c0.9,0.1,1.8,0.2,2.8,0.2c6.4,0,24.6-6.1,24.6-21.5
	C226.6,236.4,204.4,227.6,186.6,227.6z"/>
<path style="fill:#9D8EE4;" d="M171.5,346.2c0,0-33.9-5-33.9-52c0-23,10.3-36.6,21.6-44.1l4.1-2.5c0,0-22.1,6.3-30.2,27
	s-0.2,49.3,8.1,59.1c11.6,13.6,25.5,17.4,25.5,17.4C167.9,349.8,171.5,346.2,171.5,346.2z"/>
<path style="fill:#9D8EE4;" d="M74.6,380.9c7.8,7.4,19.2,14.9,34.6,11.5c11.7-2.5,19.5-10,22.8-13.6c-14,9.4-22.8,11-30.7,11
	c-12,0-22.3-12.7-23.9-14.9c-1-1.4-4.7,1.5-3.7,3.7C73.7,378.9,74.1,379.8,74.6,380.9z"/>
<path style="fill:#9D8EE4;" d="M151.6,370.1c-9.5,9.2-39.7,30.5-39.7,30.5l3.2-1.1c25.8-9.5,51.7-37.4,51.7-37.4l0,0l-4.3-1.6
	C162.5,360.5,155.4,366.5,151.6,370.1z"/>
<path style="fill:#9D8EE4;" d="M273.9,236c0,0-3.6,4.3-6.9,8.4c-7.8,9.8-35.5,42.9-50.1,59.9c-14.6,17-45.3,48.8-45.3,48.8
	s23.7,9.2,39.3,8.8c11.6-0.3,20.6-3.8,23.2-6.4c-4.3,1.8-8.9,2.7-13.9,2.7c-25.1-0.2-38-8-38-8s31.7-32.7,51-55.8
	c19.3-23.1,50.2-60.9,50.2-60.9L273.9,236z"/>
<path style="fill:#9D8EE4;" d="M350.3,69.2c0.7,0,1.4-0.1,2.2-0.2c14.2-1.4,19.7,0.3,18,17.6c-1.7,17.3-11.2,37-25.4,58
	c-14.2,21-39.7,42.4-41.7,44.7c-2,2.4,1.7,27.5,0,64.1c-1.7,36.6-11.5,57-23.1,75.3c-11.5,18.3-30.8,32.1-30.8,32.1l2.6,0.8
	c38-16.8,57.6-57.5,63-98.3c4-30.5-1-70.7-1-70.7C338.7,169.4,370,135,379,97.6C387,64.4,371,59.1,350.3,69.2z"/>
<path style="fill:#9D8EE4;" d="M314.8,171.5c0,0-1.7-19,15.6-48.8c15.9-27.4,24.4-35,28.9-35.2c-1.6-1.5-5.1-2.9-12.5,1.6
	c-11.2,6.8-27.8,32.8-33.7,46.3c-5.9,13.6-9.3,46.5-9.3,46.5s8.1-6.7,11.4-10.8C314.9,171.3,314.8,171.5,314.8,171.5z"/>
</svg>
