<?xml version="1.0" encoding="utf-8"?>
<!-- Generator: Adobe Illustrator 16.0.4, SVG Export Plug-In . SVG Version: 6.00 Build 0)  -->
<!DOCTYPE svg PUBLIC "-//W3C//DTD SVG 1.1//EN" "http://www.w3.org/Graphics/SVG/1.1/DTD/svg11.dtd">
<svg version="1.1" id="Layer_1" xmlns="http://www.w3.org/2000/svg" xmlns:xlink="http://www.w3.org/1999/xlink" x="0px" y="0px"
	 width="500px" height="500px" viewBox="0 0 500 500" style="enable-background:new 0 0 500 500;" xml:space="preserve">
<circle style="fill:#116758;" cx="250" cy="250" r="246"/>
<path style="fill:#68D8A5;" d="M245.3,73.2c-0.8,6.6-7.2,38.8-34.6,44.1c-27.4,5.3-35.1-7.5-50-7.5c-14.9,0-29.8,8.8-29.8,8.8
	s5.3-36.4,25-46.3c19.7-9.8,49.2,0.8,64.1,1.4C234.9,74.2,245.3,73.2,245.3,73.2z"/>
<path style="fill:#68D8A5;" d="M215.5,139.1c0,0-5.3,9.6-8,26c-2.6,16.5,4,43.8,4,82.7c0,38.9,3.7,65.7-17.6,89s-37.5,33-37.5,33
	s10.6-18.1,13.1-33.8c2.4-15.7,1.9-70.7,1.9-70.7s-9.8-2.4-17.1,0.8c-5.9,2.6-13.8,11.7-13.8,11.7S136,262,141.6,243
	c5.6-18.9,32.4-31.9,32.4-31.9s-4.5-19.7,1.6-37.7c6.1-18,21.5-27.6,27.4-30.3C208.9,140.4,215.5,139.1,215.5,139.1z"/>
<path style="fill:#68D8A5;" d="M342.5,349.2c-6.6-6.6-5.9-21.8-6.4-39.9c-0.5-18.1-5-35.4-9.1-48.9c-5.3-17.7-24.2-24.4-24.2-24.4
	s35.6-31.9,39.3-96.8c3.7-64.9-29.5-73.4-29.5-73.4s-7.2,5.1-19.7,15.7C280.3,92,272.4,95,261.5,103.2
	c-10.9,8.2-28.2,29.8-28.4,44.9c-0.3,15.2,4.2,146.6,3.2,157.4c-1.1,10.9-15.2,19.9-15.2,19.9c15.7,6.3,38.3-4.5,48.7-24.5
	c10.3-19.9,4.2-46.6,4.2-46.6s14.1-3.5,17.1-1.4c2.9,2.1,9.1,9.6,12,28.8c2.9,19.2,3.2,71.2,3.2,71.2l-13.8,9.8
	c0,0-33.5-17.1-54.8-16.8c-21.3,0.3-41.5,10.9-60.4,26.3c-15.8,12.8-35,47.1-35,47.1s52.9-29.5,79-29c26.1,0.5,53.2,27.6,53.2,27.6
	l22.3-42.8l12.2-7.5c0,0,7.2,19.9,14.9,29.5s24.5,14.6,24.5,14.6l17.1-48.1C365.2,364.1,349,355.9,342.5,349.2z M270.1,242.7
	c3.5-26.9,1.6-75.4,0.5-84.4c-1.1-9.1-4-21.8,1.4-35.9c5.3-14.1,21-22.3,21.8-21.3c0.8,1.1,11.7,42,14.6,61.1
	c2.9,19.1,1.6,30.3-4.5,49.7C297.8,231.3,270.1,242.7,270.1,242.7z"/>
</svg>
