<?xml version="1.0" encoding="utf-8"?>
<!-- Generator: Adobe Illustrator 16.0.4, SVG Export Plug-In . SVG Version: 6.00 Build 0)  -->
<!DOCTYPE svg PUBLIC "-//W3C//DTD SVG 1.1//EN" "http://www.w3.org/Graphics/SVG/1.1/DTD/svg11.dtd">
<svg version="1.1" id="Layer_1" xmlns="http://www.w3.org/2000/svg" xmlns:xlink="http://www.w3.org/1999/xlink" x="0px" y="0px"
	 width="500px" height="500px" viewBox="0 0 500 500" style="enable-background:new 0 0 500 500;" xml:space="preserve">
<circle style="fill:#52338F;" cx="250" cy="249.5" r="246"/>
<path style="fill:#57E9C8;" d="M454,236.4c-17.4,13.1-44,59.2-60.7,93.1c-28.3,57.5-53.2,101.6-70.2,99.7
	c-17-1.8,10.9-99.4,27.8-159.8c16.9-60.3,51.4-195.2,51.4-195.2l-49.9,13.2c0,0-45.6,169.6-65,226.3c-19.4,56.6-53.1,136.7-82.2,133
	c-16.9-2.2-5.6-46.9,5.5-75.4c15.1-38.5,29.9-77.3,46.5-142.8c16.6-65.6-3.7-144.7-70.2-146.8c-38.5-1.2-77.3,37.9-104.7,81
	c-28.9,45.6-36,85-37.9,104.1c-1.8,19.1-0.9,81,45.3,83.4c40.6,2.2,73.3-48.3,78.8-95.1c4.8-40.3-8.9-91.4-16.6-102.5
	c-7.7-11.1-11.9-8.3-9.3-0.3c2.8,8.6,10.9,28.3,5.3,80.2c-5.5,51.9-30,100.2-58.5,99.7c-28.5-0.4-33.9-41.5-32.2-67.3
	c2.7-41.7,23.5-77.2,39-102.4c16.8-27.3,56.6-71.8,87.6-71.6c31,0.2,44.3,27.1,44.3,54.2c0,18.1-4.3,38.2-8.2,50.6
	c-6,18.9-22.5,61.9-37.2,102.5c-11.7,32.3-19.7,74.8-19.7,88.4s1.8,70.3,43.1,69.3c49.6-1.2,77.2-109.1,83.7-116.1
	c0,0-5.8,36.6-3.7,54.2c2.2,17.5,7.4,44.6,35.4,44c28-0.6,52.3-50.5,72.3-87.7c17.3-32.1,37.2-66.8,44.6-75
	C442.5,261.7,448.2,249.1,454,236.4z"/>
</svg>
