<?xml version="1.0" encoding="utf-8"?>
<!-- Generator: Adobe Illustrator 16.0.3, SVG Export Plug-In . SVG Version: 6.00 Build 0)  -->
<!DOCTYPE svg PUBLIC "-//W3C//DTD SVG 1.1//EN" "http://www.w3.org/Graphics/SVG/1.1/DTD/svg11.dtd">
<svg version="1.1" id="Layer_1" xmlns="http://www.w3.org/2000/svg" xmlns:xlink="http://www.w3.org/1999/xlink" x="0px" y="0px"
	 width="500px" height="500px" viewBox="0 0 500 500" style="enable-background:new 0 0 500 500;" xml:space="preserve">
<circle style="fill:#DD7DBD;" cx="249.5" cy="249" r="246"/>
<path style="fill:#222222;" d="M377.5,189.8c0,0,4.1-28.5,4.1-48.5c0-67.5-49.3-81.8-84.1-81.8c-89.8,0-160.1,65.4-160.1,130.1
	c0,41,31.8,78.3,68,92.9c41,16.5,87,11,87,11S243.6,424,193.8,424c-11.8,0-37.7-10.5-37.7-36.4c0-35.9,24.9-44.4,24.9-44.4
	l12.8-22.8l-5.4-4.6c0,0-71.1,7.4-71.1,79c0,46.4,50.3,55.2,71.6,55.2c85.4,0,149.6-154.4,149.6-154.4c0,0,7.7-14.2,16.4-33.9
	l21.1-6.9l4.3-14.8l-17,1.4C369.7,224.4,375.5,205.9,377.5,189.8z M305.9,258.1h-1.5c-78.5,15.8-114.3-30-114.3-77.3
	c0-50,41.6-104.7,95-104.7c42.3,0,51.6,31.2,51.6,56.2C336.7,192,305.9,258.1,305.9,258.1z"/>
<path style="fill:#FF3A55;" d="M375.9,144.5c0-55.4-32.3-81.2-85-81.2c-62.3,0-134.3,48.5-134.3,118.1c0,57.3,52.3,90.8,115.8,90.8
	c26.6,0,52.7-7.7,52.7-7.7s-18.4,41.2-42.3,83.1c-22.8,40-50.4,80.8-83.1,80.8c-26.6,0-48.1-17.7-48.1-36.2
	c0-65,35.8-73.1,35.8-73.1s-54.3,10-54.3,71.6c0,33.1,35.4,48.5,67,48.5c79.3,0,150.5-182,150.5-182l21.5-6l1.9-5.6l-25.8,5.6
	C348.2,251.3,375.9,199.9,375.9,144.5z M276.7,266.1c-70.8,0-92.3-50.4-92.3-91.2c0-40,39.2-104.3,106.2-104.3
	c74.3,0,66.2,83.5,60,110.4c-6.2,26.9-22.7,75-22.7,75S314,266.1,276.7,266.1z"/>
</svg>
