<?xml version="1.0" encoding="utf-8"?>
<!-- Generator: Adobe Illustrator 16.0.4, SVG Export Plug-In . SVG Version: 6.00 Build 0)  -->
<!DOCTYPE svg PUBLIC "-//W3C//DTD SVG 1.1//EN" "http://www.w3.org/Graphics/SVG/1.1/DTD/svg11.dtd">
<svg version="1.1" id="Layer_1" xmlns="http://www.w3.org/2000/svg" xmlns:xlink="http://www.w3.org/1999/xlink" x="0px" y="0px"
	 width="500px" height="500px" viewBox="0 0 500 500" style="enable-background:new 0 0 500 500;" xml:space="preserve">
<circle style="fill:#2B2E52;" cx="250" cy="249.5" r="246"/>
<g>
	<path style="fill:#6A9ED6;" d="M385.5,382.9c-21-1.4-52.4-35.9-85.2-81.3c-32.8-45.4-82.1-55.8-82.1-55.8
		c34.7,3.9,105.4-23.5,105.4-81.3c0-57.7-61.1-70.1-90-70.1c-28.9,0-114.3,0-116,0c-1.1,0-1,2.1,0.1,1.9s20,6.1,19.5,15.8
		c-0.4,9.7-15,175.4-16.5,209c-0.3,6.2-23.8,12.6-26.9,12.3s-2.5,3.1,0,3.1c2.5,0,32.5,0,52.7,0c15.9,0,45.2-0.3,54.3-0.8
		c2.4-0.1,1.3-2.3,0.6-2.3c-3.4-0.3-25.2-6.3-25.2-12.2c0-5.9,5-71.7,5-71.7c26.3,0.3,59.4,44.5,91.6,91.1
		c32.2,46.5,58.3,64.7,97,63.9c38.7-0.8,50.4-28.6,50.4-28.6S406.3,384.3,385.5,382.9z M183.2,225.4l6.7-110.4
		c0,0,83.2-16.3,82.4,53C271.5,237.2,189.4,228.5,183.2,225.4z"/>
	<path style="fill:#5587BB;" d="M217.9,245.8c34.7,3.9,105.4-23.5,105.4-81.3c0-16.5-5-29.2-12.8-39.1l-21,9c0,0,16.6,23.1-1.9,60.5
		c-18.5,37.4-94.2,46.9-94.2,46.9s-3.6,1.5,23.3,4c0.7,0.1,1.3,0.1,2,0.2C218.2,245.9,217.9,245.8,217.9,245.8z"/>
	<path style="fill:#5587BB;" d="M167.4,233.7c1.5,0.1,9.6-6.5,15.7-11.7l6.5-107c0,0,58-11.3,76.7,25.3l22-6.2
		c0,0-19.8-28.6-45.6-29c-25.9-0.4-80.7,1.5-80.7,1.5l-4.4,128.4C157.6,234.9,164.9,233.5,167.4,233.7z"/>
	<path style="fill:#5587BB;" d="M157.6,236l-3.6,45.8c-1.3,18.1-3.3,42.4-3.3,42.4l11.8,12.4c14.8-0.1,31.6-0.4,38-0.8
		c1.3-0.1,1.6-0.7,1.5-1.3l-0.6-0.9c-0.1-0.1-0.2-0.1-0.3-0.1c-3.4-0.3-25.2-6.3-25.2-12.2c0-5.9,5-71.7,5-71.7
		c17.9,0.2,38.8,20.6,60.5,48.3c2.5-6.9,10.9-17.2,10.9-17.2s-10.5-8.6-21-17.4C200.7,237.4,157.6,236,157.6,236z"/>
	<path style="fill:#5587BB;" d="M300,301.6c-9.3-12.9-20-23-30.5-30.8c-6.1,3-14.9,10-14.9,10s8.4,7.1,17.9,17.9
		c9.5,10.8,20.3,24.5,36.1,48.8c15.8,24.2,30,31.7,30,31.7c2.8-2.4,17.9-5.2,24.4-6.4C344.7,359.1,322.7,333,300,301.6z"/>
	<path style="fill:#5587BB;" d="M412.2,386.9c-14.2,5.9-27.5,5.7-44.2,5.1c-19.2-0.7-29.4-11.5-29.4-11.5
		c-6.3,3.1-19.6,3.6-28.2,3.6c17.9,14.7,36.4,20.9,59.2,20.4C391.6,404,404.9,394.7,412.2,386.9z"/>
</g>
</svg>
