<?xml version="1.0" encoding="utf-8"?>
<!-- Generator: Adobe Illustrator 16.0.4, SVG Export Plug-In . SVG Version: 6.00 Build 0)  -->
<!DOCTYPE svg PUBLIC "-//W3C//DTD SVG 1.1//EN" "http://www.w3.org/Graphics/SVG/1.1/DTD/svg11.dtd">
<svg version="1.1" id="Layer_1" xmlns="http://www.w3.org/2000/svg" xmlns:xlink="http://www.w3.org/1999/xlink" x="0px" y="0px"
	 width="500px" height="500px" viewBox="0 0 500 500" style="enable-background:new 0 0 500 500;" xml:space="preserve">
<circle style="fill:#277156;" cx="250" cy="250" r="246"/>
<g>
	<path style="fill:#FCCF89;" d="M394.2,279.5c0,0-7.8,3.7-13.4,4.9c-5.6,1.2-12.9,0.5-12.9,0.5s25.8-200.5,26.3-203.6
		c0.5-3.2-1.9,0.2-2.9,1c-1,0.7-8.5,6.6-17.1,10c-8.5,3.4-22.7,7.8-34.8,23.6c-12.2,15.8-26.1,50.7-36.5,83.1
		c-10.5,32.4-22.4,56.5-22.4,56.5s-24.4-17.8-28.3-58.2c-3.9-40.4,12.7-77.9,49.2-85c0,0-53.8-5.1-62.8,62.4s35.6,95.2,35.6,95.2
		s-19.3,42.6-35.6,65.3c-15.3,21.4-42.6,57-93.1,54.9c-42.9-1.8-61.9-43-61.4-67.8c0.4-19,13.7-64.7,61.1-66.5
		c48.2-1.8,61.6,9.3,88.8,29.5c0,0-15.3-40.5-85.9-40.5c-70.5,0-84,56.1-84,77.8c0,26.1,18.6,75.6,84.9,78.2
		c30.3,1.2,62-14.9,81-30.7c32.4-27,54.1-90.6,54.1-91c0-0.4,15.3,9.1,24.1,12.4s26.3,7.3,26.3,7.3l-11.3,63.9l35.1-6.2l7.3-58.5
		c0,0,11.1-1.1,18.1-4c7.1-2.9,15.1-7.8,19.2-13.9L394.2,279.5z M353.1,203.5c-2.7,15.8-14.6,79.7-14.6,79.7s-17.3-2.7-27.5-7.3
		c-10.2-4.6-20.9-12.9-20.9-12.9s11.7-30.7,24.4-69.4c12.7-38.7,22.7-58.5,31.2-70.2c8.5-11.7,22.2-8,22.2-8
		S355.8,187.6,353.1,203.5z"/>
	<path style="fill:#FDB07A;" d="M92.9,372.4l7.7-5.3C89.1,353,83.9,335.2,84.1,322c0.4-19,13.7-64.7,61.1-66.5
		c47.6-1.8,61.3,9,87.8,28.8c-5-6.1-41.7-47.1-112.2-29.9c-32.9,8-47.6,43.4-47.7,64.8C72.9,352.5,92.9,372.4,92.9,372.4z"/>
	<path style="fill:#FDB07A;" d="M333.6,298.2l0.7,0l13.5-5.5c0,0-13.9-2-29.6-6.4c-15.7-4.4-35.4-18.1-35.4-18.1
		c-27,65-53,92.3-66.9,103.4c-13.9,11.1-30.5,22.1-66.1,24.1c-35.6,2-56.8-23.3-56.8-23.3l-3.5,5.8c13.2,12.1,32.4,21.1,59.7,22.2
		c30.3,1.2,62-14.9,81-30.7c32.4-27,54.1-90.6,54.1-91c0-0.4,15.3,9.1,24.1,12.4C315.8,294,329.8,297.4,333.6,298.2z"/>
	<path style="fill:#FDB07A;" d="M265.2,251.8l-3.7,6.6c5.7,6.3,10.6,9.9,12.1,10.9l8.5-3.1c0,0-5.7-3.7-9-6.9
		C269.9,256,265.2,251.8,265.2,251.8z"/>
	<path style="fill:#FDB07A;" d="M265.2,251.8h11.4c-7-6.9-21.4-24.5-24.4-54.8c-3.9-40.4,12.7-78,49.2-85c0,0-0.5,0-1.4-0.1
		c-10,0.8-34.1,8.6-44.7,29.3c-11.1,21.7-12.8,40.6-9.3,67.6C249.5,235.9,265.2,251.8,265.2,251.8z"/>
	<path style="fill:#FDB07A;" d="M381.2,97.1c-2.2,0.7-12.4,5.1-22.1,10c-9.7,4.9-16.1,12.2-22.5,21.7c-6.4,9.5-18.1,40.7-26.5,64.5
		c-8.4,23.8-26.5,72.2-26.5,72.2l7-2.2c-0.4-0.3-0.6-0.5-0.6-0.5s11.7-30.7,24.4-69.4c12.7-38.7,22.7-58.5,31.2-70.2
		c8.5-11.7,22.2-8,22.2-8s0,0.1-0.1,0.4C372.5,109.5,382.9,96.5,381.2,97.1z"/>
	<path style="fill:#FDB07A;" d="M368.4,284.7c-0.3,0-0.4,0-0.4,0s25.8-200.5,26.3-203.6c0.1-0.6,0.1-0.9,0-1.1
		c-1.1,2.2-4.7,9.4-7.2,12.2c-2.9,3.3-5.8,4.9-5.8,4.9s-13.5,86.6-14.6,94.1s-15.5,100.5-15.5,100.5l17.2-6.2L368.4,284.7z"/>
	<path style="fill:#FDB07A;" d="M398,285.3c1.9-2.1,2.4-3.6,2.4-3.6s-9.1,3.8-20.8,7.3c-11.7,3.5-28.5,3.5-28.5,3.5l-9.5,57.4
		l-18.2,12.5l35-6.2l7.3-58.5c0,0,11.1-1.1,18.1-4C388.6,291.7,393.8,288.9,398,285.3z"/>
</g>
</svg>
