<?xml version="1.0" encoding="utf-8"?>
<!-- Generator: Adobe Illustrator 16.0.4, SVG Export Plug-In . SVG Version: 6.00 Build 0)  -->
<!DOCTYPE svg PUBLIC "-//W3C//DTD SVG 1.1//EN" "http://www.w3.org/Graphics/SVG/1.1/DTD/svg11.dtd">
<svg version="1.1" id="Layer_1" xmlns="http://www.w3.org/2000/svg" xmlns:xlink="http://www.w3.org/1999/xlink" x="0px" y="0px"
	 width="500px" height="500px" viewBox="0 0 500 500" style="enable-background:new 0 0 500 500;" xml:space="preserve">
<circle style="fill:#52B5AC;" cx="249.5" cy="249" r="246"/>
<path d="M367.8,232.1c12.2-40.1,16-99.3,16-121.8c0-22.5-19.7-34.3-34.7-34.3c-15,0-25.5,7.5-25.5,7.5l-4.1,24.8
	c9.2,31.3,10.5,70.4,4.1,113.2c-6.4,42.8-34,141.1-54.4,141.1c-20.4,0,54.1-184.9,54.4-189.4c0.3-4.4-5.8-13.3-25.2-13.3
	c-19.4,0-31.6,9.9-34.3,17.3c-2.7,7.5-8.5,18.7-25.2,75.5c-24.3,82.8-54.7,119-63.6,119c-8.8,0,91.8-209.8,91.8-235.2
	c0-6.1,0.3-42.2-37.1-42.2c-77.5,0-130.9,117.3-130.9,147.4c0,13.1,9.9,31.8,30.9,31.8c34.3,0,50-63.6,50-63.6l-5.1-0.1
	c0,0-7.1,5.6-13.8,6.1c-6.6,0.5-12-10.5-9.7-19.9c16-65.6,60.2-76.7,70.9-76.7c10.7,0-50.7,127.5-73.4,170.3
	c-22.7,42.8-27.3,69.3-27.3,96.9c0,13.3,4.6,41,30.6,41c40,0,69.9-62,69.9-62s2.8,26.8,29.8,26.8c49.5,0,80.8-66.5,80.8-66.5
	C341,306.9,350.4,294.8,367.8,232.1z"/>
<path style="fill:#786EB1;" d="M170.9,218.1c0,0-4.1,2.7-11.9,2.7c-7.8,0-13.6-8.2-13.6-19.4c0-41.8,52.4-92.8,82.3-92.8
	c23.5,0,10.9,33.3,2.7,52c-8.2,18.7-67,146.2-85,187.7c-18,41.5-0.3,65.6,12.9,65.6c37.4,0,77.8-83.3,77.8-83.3s-8.8,50.3,28.2,50.3
	c51.3,0,86-104.7,93.5-132.9c7.5-28.2,23.9-102.7,19.4-142.8c-2.4-21.1-28.6-29.2-46.2-19.4c0,0,20.5,40.3,13.6,106.4
	c-8.5,81.2-49,180.2-74.8,180.2c-16.7,0-4.8-40.8-1.4-53.4c3.4-12.6,29.6-102.1,47.9-141.8c2-4.4-1-7.5-14.6-10.2
	c-13.6-2.7-17-2.7-19.4,4.8c-2.4,7.5-11.6,55.4-41.1,117.3c-29.6,61.9-49.3,97.9-66,97.9c-16.7,0-1-37.1,5.8-52.7
	c6.8-15.6,80.9-170.3,80.9-197.2c0-23.5-13.3-36-32.3-36c-44.2,0-112.5,79.9-112.5,137c0,10.5,7.5,14.6,15,14.6
	C139.7,252.8,162.1,246,170.9,218.1z"/>
</svg>
