<?xml version="1.0" encoding="utf-8"?>
<!-- Generator: Adobe Illustrator 16.0.4, SVG Export Plug-In . SVG Version: 6.00 Build 0)  -->
<!DOCTYPE svg PUBLIC "-//W3C//DTD SVG 1.1//EN" "http://www.w3.org/Graphics/SVG/1.1/DTD/svg11.dtd">
<svg version="1.1" id="Layer_1" xmlns="http://www.w3.org/2000/svg" xmlns:xlink="http://www.w3.org/1999/xlink" x="0px" y="0px"
	 width="500px" height="500px" viewBox="0 0 500 500" style="enable-background:new 0 0 500 500;" xml:space="preserve">
<circle style="fill:#2C3163;" cx="250" cy="250" r="246"/>
<path style="fill:#42AD59;" d="M399.4,203.5c-16.8-47.5-120.9-40.7-120.9-40.7c24.4-52.2,46.9-65.4,46.9-65.4l-2.2-7.2
	c0,0-39.5-25.9-80.5-25.9c-80.2,0-117.9,55.8-119,92.2c-1,36.5,37.3,52.4,52.5,52.7c15.2,0.3,67.4,2.8,67.4,2.8l-12.4,21.7
	c0,0-50.8-2-63.3-2.4c-12.5-0.3-33.4-8.9-42.8-16c-9.4-7.2-10.4-21.1-10.4-21.1s-14.7,10.7-14.6,32.3c0,40.5,35.4,52.4,45,52.7
	c9.5,0.3,65.2,2,65.2,2s-14.9,26.3-24.3,40.2c-9.4,13.9-23.3,13.9-23.3,13.9c9.4-7.2,12.8-28.3-2.8-37.1
	c-15.7-8.9-30.6,4.4-33.4,10.5c-2.7,6.2-9.6,25.9,14.2,37.1c19.7,9.2,46.9-7.7,55.9-22.8c5.4-8.9,22.6-41.2,22.6-41.2
	s56.6,1,67.7,2.4c11.1,1.3,25.3,10.2,30.6,17.1c5.2,6.8,4.8,18.7,4.8,18.7s22.6-5.5,22.9-41.5c0.3-36.1-33.4-43.2-41-43.9
	s-61.8-1.7-61.8-1.7l11.6-20.3c0,0,50.2,1.6,63.5,2.9c0,0,34.4,3.4,47.7,30c9.5,19.1,2.8,42.5-4.8,55.1c-7.7,12.6-41,61.3-41,61.3
	S297.8,347,246.3,347c-98.2,0-144,80-144,80s54.6-41.5,127.9-29.6c39.3,6.4,66.7,19.4,66.7,19.4s32-47.3,58.8-84.7
	C382.4,294.7,418.9,258.2,399.4,203.5z M266.9,162.7c-13.9,0.2-70.8,5-91-4.5c-15-7.1-29.6-21.8-22.2-41.2
	c7.3-19.4,36.5-36.1,72.3-26.3c35.8,9.9,53.2,49,53.2,49L266.9,162.7z"/>
</svg>
