<?xml version="1.0" encoding="utf-8"?>
<!-- Generator: Adobe Illustrator 16.0.3, SVG Export Plug-In . SVG Version: 6.00 Build 0)  -->
<!DOCTYPE svg PUBLIC "-//W3C//DTD SVG 1.1//EN" "http://www.w3.org/Graphics/SVG/1.1/DTD/svg11.dtd">
<svg version="1.1" id="Layer_1" xmlns="http://www.w3.org/2000/svg" xmlns:xlink="http://www.w3.org/1999/xlink" x="0px" y="0px"
	 width="500px" height="500px" viewBox="0 0 500 500" style="enable-background:new 0 0 500 500;" xml:space="preserve">
<circle style="fill:#5BA466;" cx="249.5" cy="249" r="246"/>
<path d="M285.4,263.2c31.2-52.2,53.5-76.3,81.1-97.5c27.6-21.2,68.2-42.5,68.2-42.5l-18.5-25.7c0,0-23.4,2.7-79.4,52.6
	c-56.1,49.9-73.4,91.8-73.4,91.8l-20.6,32.7l-1.2,2.2c0,0,2.7-9.7,1.3-27.3c-1.3-17.6-24.1-38.2-39-44.5l-4.9,1.4c0,0-23.3-7-44,6.1
	c0,0-15.7-15.5-25.2-17.9c-9.5-2.4-31.2-9.8-53.1,7.9c0,0-15.4,11.1-18.3,30.5l31.4,28.1c0,0,5.7-38.4,31.3-38.4
	c8.8,0,13.1,2.9,13.1,2.9l-12.6,14.5c0,0-23.3,32-25.4,46.3c-2,14.3-3.8,36.4,17.4,50.1c9.5,6.2,14.9,7.9,23.5,7.9
	c19.3,0,53.9-31.4,53.9-73.1c0-19.8-1.6-29.4-1.6-29.4s4.5-2.2,8.8-2.2c7,0,12.5,7.6,12.5,7.6s-5.4,31-16,52.6
	c-10.6,21.6-29.4,55.3-39.2,64.4c-9.8,9.1-36.4,40.9-56.6,48.1c0,0,17.5,15.7,33.8,15.7c34,0,94.8-77.5,94.8-77.5
	S254.3,316.4,285.4,263.2z"/>
<path style="fill:#DC7CE0;" d="M413.1,96.5c-2.7,0.7-45.8,13.6-101.8,77c-56,63.4-57.4,89.3-98.3,141.2
	c-52.6,66.9-84.2,84.5-84.2,84.5s90.6-88.6,90.6-163.1c0-21.9-8.9-34.2-33.1-34.2c-18.1,0-32.4,8.5-32.4,8.5s-14.1-21.2-45.6-21.2
	c-19.7,0-35.1,11.5-42.7,22.6c-7.3,10.6-7.2,20.8-7.2,20.8s9.6-39.1,55.7-39.1c23,0,36,19.6,36,19.6s-57.5,38.6-57.5,89.8
	c0,19,11,27.1,19.5,27.1c20.8,0,52.8-35.8,52.8-73.4c0-37.6-8.7-42.3-8.7-42.3s12.5-7.2,28.4-7.2c15.9,0,25,11.6,25,21.2
	c0,41.4-11.7,53-31.5,93.5c-28,57.3-78.9,90.8-78.9,90.8s32.4,8.9,111.6-84.1c41-48.1,56.4-93,106-153.1
	c49.6-60,97.6-75.8,97.6-75.8C417.8,98.6,415.8,95.8,413.1,96.5z M159,250.8c0,38.3-31.2,75.1-46.5,75.1
	c-10.1,0-16.1-10.7-16.1-21.9c0-46.5,55.9-87.9,55.9-87.9S159,225.1,159,250.8z"/>
</svg>
