<?xml version="1.0" encoding="utf-8"?>
<!-- Generator: Adobe Illustrator 16.0.4, SVG Export Plug-In . SVG Version: 6.00 Build 0)  -->
<!DOCTYPE svg PUBLIC "-//W3C//DTD SVG 1.1//EN" "http://www.w3.org/Graphics/SVG/1.1/DTD/svg11.dtd">
<svg version="1.1" id="Layer_1" xmlns="http://www.w3.org/2000/svg" xmlns:xlink="http://www.w3.org/1999/xlink" x="0px" y="0px"
	 width="500px" height="500px" viewBox="0 0 500 500" style="enable-background:new 0 0 500 500;" xml:space="preserve">
<circle style="fill:#522F60;" cx="249.5" cy="249" r="246"/>
<path d="M383,76c-3.2,0-28.5,23.4-29.5,25.4c-1,2-73.7,131.3-73.7,131.3s16.9-51.8,23.9-71.2S293,128.3,291,128.3
	c-2,0-28.1,27.4-30.1,31.9c-2,4.5-61.8,118.6-61.8,118.6s29.9-87.4,38.4-113.1c8.5-25.7-10-53.6-33.4-53.6
	c-36.4,0-112.6,81.2-112.6,148.9c0,30.1,9.2,47.1,25.9,47.1c21.2,0,50.3-41.3,50.3-41.3s-42.1,120.8-42.1,124s16.2,16.7,18.4,16.9
	c2.2,0.2,18.4-13.7,18.4-13.7l68-133.8c0,0-21.2,61.8-31.4,97.4c-10.2,35.6,20.9,41.1,20.9,41.1s15.9-10.2,16.9-12.7
	S377.7,105.6,383,96.1C388.3,86.7,386.2,76,383,76z M174.2,218.2c-2.2,4.7-38.1,65.5-46.6,67c-4.2,0.7-9.7-5-7-23.4
	c10.1-67.9,64.8-135.7,75.2-135.7c11.5,0,15.2,8.5,13.2,19.2c-2,10.7-19.7,69.2-19.7,69.2C182.2,211.7,176.4,213.5,174.2,218.2z"/>
<path style="fill:#6A9BC7;" d="M181.7,228.5c0,0-28.9,58.9-53.8,58.9c-7.7,0-10.8-4.6-9-27.9c3-38.3,50.6-140.2,86.2-140.2
	c17.7,0,19.9,24.2,12.5,45.8c-7.5,21.7-68.2,205.5-70,210.7c-1.7,5.2,12.5,14.9,12.5,14.9S263.1,190,279.1,165.1
	c0,0-54,157.7-60.7,185.7c-6,24.9,17.4,31.3,17.4,31.3s136.5-273,143.7-286.7c7.2-13.7,1.2-14.9,1.2-14.9s-117.1,202.3-132,237.4
	c0,0,25.9-89.8,51.8-157.2c3.7-9.7,1.5-18.2-9.2-27.9c0,0-107.6,193.3-117.8,215c0,0,53.1-163.6,59.5-182.1
	c9.2-26.4-10.2-50.6-27.4-50.6c-43.1,0-95.6,89.5-95.6,140.2c0,32.9,9.5,38.6,16.9,38.6C144.8,293.9,180.2,256.3,181.7,228.5z"/>
</svg>
