<?xml version="1.0" encoding="utf-8"?>
<!-- Generator: Adobe Illustrator 16.0.4, SVG Export Plug-In . SVG Version: 6.00 Build 0)  -->
<!DOCTYPE svg PUBLIC "-//W3C//DTD SVG 1.1//EN" "http://www.w3.org/Graphics/SVG/1.1/DTD/svg11.dtd">
<svg version="1.1" id="Layer_1" xmlns="http://www.w3.org/2000/svg" xmlns:xlink="http://www.w3.org/1999/xlink" x="0px" y="0px"
	 width="500px" height="500px" viewBox="0 0 500 500" style="enable-background:new 0 0 500 500;" xml:space="preserve">
<circle style="fill:#CF3C65;" cx="250" cy="249.5" r="246"/>
<path style="fill:#EE9F78;" d="M239.9,84c-6.1-2.9-18.4-1.7-28.9,2.2c-10.5,3.9-18.1,7.6-23.5,20.1c-5.4,12.5-16.2,42.9-33.8,131.1
	c-17.6,88.2-19.8,119.8-20.9,142.2c-1.1,22.4,1.5,45.9,8.8,53.6c7.3,7.7,27.6,8.1,37.5,0c9.9-8.1,38.6-33.8,63.6-143.7
	c0,0-21.7,122.7,20.6,119.8c42.3-2.9,67.2-61.2,84.5-148.6c17.3-87.3,21.7-98.7,25.7-141c4-42.3-25.7-62.5-50.3-63.9
	c0,0,11.8,21.7,12.1,70.9c0.4,49.2-7.3,146.7-35.3,223c-8.1,22-20.2,38.9-30.1,36.7c-9.9-2.2-7.7-12.9,10.7-95.5
	s26.5-147.9,21.7-184.1c-2.6-19.5-29-18.4-37.8-17.6c-8.8,0.7-8.1,6.2-8.1,13.2c0,7-4.8,60.3-30.5,146.6
	c-25.7,86.3-44.8,164-58.8,159.8c-11-3.3,7-92.6,27.6-165.7C215,170.1,239.9,84,239.9,84z"/>
<path style="fill:#EA9364;" d="M166.9,408.9c-11-3.3,7-92.6,27.6-165.7c19.2-68.3,42.2-147.9,45.1-158.1
	c-12.3,9.8-29.8,39.4-52.4,136.7C150.9,377.6,146.3,404.5,166.9,408.9z"/>
<path style="fill:#EA9364;" d="M264.4,369.8L264.4,369.8c1.5-13.1,6.7-36.6,16-78.8c18.4-82.7,26.5-147.9,21.7-184.1
	c-2.6-19.5-29-18.4-37.8-17.6c-4.6,0.4-6.6,2.1-7.5,4.6c0.2,0.3,0.6,0.6,1.2,0.8c8.3,3.5,25,9.6,26.2,22.8
	c1.2,13.5,1.5,55.1-14,137.7C256.9,326.3,250.2,355.1,264.4,369.8z"/>
<path style="fill:#EA9364;" d="M347.7,260.7c17.3-87.3,21.7-98.7,25.7-141c4-42.2-25.6-62.4-50.2-63.9c9.3,9.1,34.3,41.3,28.4,107.2
	c-6.4,70.5-25.1,171.3-61.3,222.3c0,0,7.5-9.4,20.8-12.1C326.6,347.1,338.3,308.2,347.7,260.7z"/>
</svg>
